<svg width="371" height="546" viewBox="0 0 371 546" fill="none" xmlns="http://www.w3.org/2000/svg">
<path d="M204 380.287C196.544 380.287 190.5 374.242 190.5 366.787L190.5 90.4044C190.5 82.9486 196.544 76.9044 204 76.9044L355.876 76.9044C363.332 76.9044 369.376 82.9486 369.376 90.4044L369.376 366.787C369.376 374.242 363.332 380.287 355.876 380.287L204 380.287Z" fill="#FC534B" stroke="#25387C" stroke-width="3"/>
<circle cx="328.154" cy="116.907" r="13.6478" transform="rotate(-90 328.154 116.907)" fill="#FD9C3A" stroke="#070E55" stroke-width="2"/>
<circle cx="328.154" cy="136.437" r="13.6478" transform="rotate(-90 328.154 136.437)" fill="#FC534B" stroke="#070E55" stroke-width="2"/>
<rect x="328.154" y="347.609" width="119.623" height="3.66194" rx="1.83097" transform="rotate(-90 328.154 347.609)" fill="#070E55"/>
<rect x="309.844" y="282.914" width="54.9291" height="3.66194" rx="1.83097" transform="rotate(-90 309.844 282.914)" fill="#070E55"/>
<path d="M1.5 50.4043C1.5 23.6185 23.2142 1.9043 50 1.9043H210.2C236.985 1.9043 258.7 23.6185 258.7 50.4043V495.404C258.7 522.19 236.985 543.904 210.2 543.904H50C23.2142 543.904 1.5 522.19 1.5 495.404V50.4043Z" fill="#F2F2F2" stroke="#25387C" stroke-width="3"/>
<path d="M87.6024 1.9043H172.597V14.0588C172.597 18.7532 168.792 22.5588 164.097 22.5588H96.1024C91.408 22.5588 87.6024 18.7532 87.6024 14.0588V1.9043Z" stroke="#25387C" stroke-width="3"/>
<ellipse cx="129.71" cy="235.285" rx="51.031" ry="49.519" fill="#25387C" fill-opacity="0.5"/>
<circle cx="129.71" cy="235.285" r="75.2355" stroke="#25387C" stroke-width="3"/>
<circle cx="157.066" cy="11.7585" r="3.7309" stroke="#25387C" stroke-width="2"/>
<path d="M139.623 455.619C138.109 451.831 133.241 449.795 128.75 451.072C124.541 452.269 122.11 455.977 123.147 459.621C126.236 468.68 137.536 476.81 147.885 483.718C148.628 484.215 149.707 484.109 150.296 483.482C150.885 482.855 150.759 481.945 150.016 481.448C140.083 474.818 129.253 467.056 126.446 458.821C125.66 456.515 127.24 454.108 129.974 453.445C132.709 452.782 135.562 454.114 136.348 456.421C138.222 461.922 147.541 468.72 156.407 474.638C157.151 475.135 158.23 475.029 158.819 474.402C159.407 473.775 159.282 472.865 158.539 472.368C153.857 469.25 141.459 460.976 139.623 455.619Z" fill="#25387C" fill-opacity="0.5"/>
<path d="M152.631 451.887C148.9 442.238 136.811 436.787 125.227 439.53C113.383 442.397 106.536 452.82 109.935 462.81C109.937 462.817 109.94 462.824 109.942 462.831C112.76 471.089 106.719 473.379 104.793 473.883C103.889 474.123 103.387 474.935 103.671 475.698C103.955 476.461 104.919 476.885 105.823 476.645C111.071 475.261 116.168 470.605 113.241 462.029C110.354 453.578 116.136 444.754 126.155 442.319C126.16 442.318 126.165 442.317 126.17 442.315C136.076 439.967 146.398 444.702 149.442 452.993C149.483 453.106 149.541 453.214 149.614 453.315C149.792 453.564 150.16 454.088 161.192 461.638C161.927 462.143 163.008 462.049 163.606 461.429C164.204 460.808 164.093 459.896 163.357 459.392C159.349 456.647 153.489 452.568 152.631 451.887Z" fill="#25387C" fill-opacity="0.5"/>
<path d="M146.226 454.018C143.856 447.113 135.313 443.125 127.118 445.098C119.071 447.193 114.401 454.256 116.515 461.132C119.982 474.45 117.39 477.525 110.278 479.401C109.374 479.641 108.872 480.454 109.156 481.217C109.44 481.979 110.404 482.403 111.308 482.163C121.245 479.558 123.404 474.08 119.889 460.509C118.181 455.128 121.792 449.566 128.086 447.88C134.463 446.353 141.106 449.458 142.952 454.829C143.638 456.803 145.461 459.513 159.517 468.897C160.26 469.394 161.339 469.288 161.928 468.661C162.517 468.034 162.391 467.124 161.648 466.627C148.89 458.115 146.707 455.419 146.226 454.018Z" fill="#25387C" fill-opacity="0.5"/>
<path d="M150.949 474.169C145.141 470.452 135.421 464.233 133.028 457.22C132.751 456.456 131.791 456.026 130.885 456.26C130.001 456.488 129.49 457.266 129.73 458.019C132.434 465.958 142.725 472.542 148.872 476.477C150.122 477.236 151.325 478.048 152.476 478.909C153.158 479.465 154.245 479.449 154.903 478.874C155.546 478.313 155.546 477.423 154.903 476.862C153.646 475.902 152.326 475.004 150.949 474.169Z" fill="#25387C" fill-opacity="0.5"/>
<path d="M141.662 484.239C139.927 481.525 136.732 479.694 133.102 479.335C127.266 479.335 126.364 487.702 126.237 489.378C126.178 490.176 126.897 490.863 127.843 490.913H127.953C128.861 490.914 129.613 490.319 129.669 489.555C129.885 486.573 131.238 482.23 133.102 482.23C135.645 482.23 137.45 484.297 138.899 485.956C139.377 486.532 139.901 487.079 140.468 487.595C141.149 488.15 142.236 488.134 142.894 487.559C143.537 486.998 143.537 486.109 142.894 485.548C142.45 485.135 142.039 484.698 141.662 484.239Z" fill="#25387C" fill-opacity="0.5"/>
<path d="M126.158 471.656C125.835 470.905 124.851 470.516 123.96 470.788C123.122 471.044 122.655 471.799 122.887 472.525C124.356 476.396 121.469 483.993 117.127 485.183C116.223 485.422 115.719 486.234 116.002 486.997C116.285 487.76 117.248 488.185 118.153 487.946C118.164 487.943 118.176 487.94 118.188 487.937C124.792 486.141 127.977 476.465 126.158 471.656Z" fill="#25387C" fill-opacity="0.5"/>
<path d="M162.805 451.899C160.66 451.32 158.975 449.003 157.022 446.36C152.889 440.726 147.222 433.01 131.385 433.01C115.279 433.026 102.228 444.035 102.209 457.62C102.209 458.419 102.978 459.068 103.925 459.068C104.873 459.068 105.642 458.419 105.642 457.62C105.657 445.632 117.174 435.918 131.385 435.905C145.31 435.905 150.188 442.547 154.108 447.886C156.414 451.027 158.405 453.74 161.748 454.655C162.647 454.91 163.62 454.503 163.923 453.745C164.225 452.988 163.742 452.167 162.844 451.911C162.833 451.908 162.821 451.905 162.809 451.902L162.805 451.899Z" fill="#25387C" fill-opacity="0.5"/>
<path d="M105.642 469.201C106.589 469.201 107.358 468.553 107.358 467.753C107.358 467.528 107.295 467.306 107.176 467.105C106.444 465.947 105.926 464.701 105.642 463.411C105.642 462.611 104.873 461.963 103.925 461.963C102.978 461.963 102.209 462.611 102.209 463.411C102.485 465.156 103.127 466.847 104.107 468.402C104.398 468.892 104.992 469.201 105.642 469.201Z" fill="#25387C" fill-opacity="0.5"/>
<path d="M104.749 438.589C105.558 439.005 106.614 438.789 107.107 438.107C107.108 438.105 107.109 438.104 107.11 438.103C108.6 436.03 115.938 430.115 129.668 430.115C142.863 430.115 152.25 435.752 153.942 438.103C154.434 438.786 155.49 439.004 156.301 438.589C157.111 438.174 157.369 437.284 156.877 436.6C154.522 433.328 144.126 427.219 129.668 427.219C114.294 427.219 106.053 433.991 104.172 436.603C103.682 437.286 103.94 438.174 104.749 438.589Z" fill="#25387C" fill-opacity="0.5"/>
<path d="M100.253 449.615C100.006 450.395 99.0647 450.878 98.1511 450.695C97.2918 450.522 96.7536 449.817 96.9128 449.071C97.6734 446.859 98.6749 444.705 99.904 442.638C100.331 441.911 101.363 441.596 102.208 441.934C103.052 442.272 103.391 443.134 102.963 443.861C101.862 445.712 100.955 447.638 100.253 449.615Z" fill="#25387C" fill-opacity="0.5"/>
<rect x="81.7988" y="417.97" width="28.6367" height="3.87339" rx="1.9367" fill="#25387C"/>
<path d="M85.7354 417.97V443.853C85.7354 444.94 84.8541 445.821 83.767 445.821C82.6799 445.821 81.7986 444.94 81.7986 443.853V417.97H85.7354Z" fill="#25387C"/>
<rect width="28.6367" height="3.76362" rx="1.88181" transform="matrix(-1 0 0 1 178.4 418.723)" fill="#25387C"/>
<path d="M174.582 418.723V444.665C174.582 445.719 175.437 446.574 176.491 446.574C177.546 446.574 178.4 445.719 178.4 444.665V418.723H174.582Z" fill="#25387C"/>
<rect width="28.6367" height="3.87339" rx="1.9367" transform="matrix(1 0 0 -1 81.7991 503.781)" fill="#25387C"/>
<path d="M85.7354 503.781V477.898C85.7354 476.811 84.8541 475.93 83.767 475.93C82.6799 475.93 81.7986 476.811 81.7986 477.898V503.781H85.7354Z" fill="#25387C"/>
<rect x="178.4" y="503.781" width="28.6367" height="3.87339" rx="1.9367" transform="rotate(-180 178.4 503.781)" fill="#25387C"/>
<path d="M174.464 503.781V477.898C174.464 476.811 175.345 475.93 176.432 475.93C177.519 475.93 178.4 476.811 178.4 477.898V503.781H174.464Z" fill="#25387C"/>
<line x1="130.6" y1="312.017" x2="131.379" y2="409.397" stroke="#25387C"/>
<path d="M60.5723 89.0469C60.8652 89.3724 61.0801 89.7305 61.2168 90.1211C61.36 90.5052 61.4316 90.9544 61.4316 91.4688C61.4316 92.6927 60.9792 93.7018 60.0742 94.4961C59.1693 95.2904 58.0462 95.6875 56.7051 95.6875C56.0866 95.6875 55.4681 95.5931 54.8496 95.4043C54.2311 95.209 53.6973 94.9746 53.248 94.7012L52.8281 95.4141H52.0469L51.9102 90.668H52.7012C52.8639 91.2539 53.0527 91.7845 53.2676 92.2598C53.4889 92.7285 53.7786 93.168 54.1367 93.5781C54.4753 93.9622 54.8691 94.2682 55.3184 94.4961C55.7741 94.724 56.3014 94.8379 56.9004 94.8379C57.3496 94.8379 57.7402 94.7793 58.0723 94.6621C58.4108 94.5449 58.6842 94.3789 58.8926 94.1641C59.1009 93.9492 59.2539 93.6986 59.3516 93.4121C59.4557 93.1191 59.5078 92.7839 59.5078 92.4062C59.5078 91.8529 59.3516 91.3385 59.0391 90.8633C58.7266 90.3815 58.2611 90.0169 57.6426 89.7695C57.2194 89.6003 56.7344 89.4147 56.1875 89.2129C55.6406 89.0046 55.1686 88.8092 54.7715 88.627C53.9902 88.2754 53.3815 87.8164 52.9453 87.25C52.5156 86.6771 52.3008 85.9316 52.3008 85.0137C52.3008 84.4863 52.4082 83.9948 52.623 83.5391C52.8379 83.0833 53.1439 82.6764 53.541 82.3184C53.9186 81.9798 54.3646 81.7161 54.8789 81.5273C55.3932 81.332 55.9303 81.2344 56.4902 81.2344C57.1283 81.2344 57.6979 81.332 58.1992 81.5273C58.707 81.7227 59.1693 81.9505 59.5859 82.2109L59.9863 81.5469H60.7676L60.8457 86.1465H60.0547C59.9115 85.6191 59.7487 85.1146 59.5664 84.6328C59.3906 84.151 59.1595 83.7148 58.873 83.3242C58.5931 82.9466 58.2513 82.6471 57.8477 82.4258C57.444 82.1979 56.9492 82.084 56.3633 82.084C55.7448 82.084 55.2174 82.2826 54.7812 82.6797C54.3451 83.0768 54.127 83.5618 54.127 84.1348C54.127 84.7337 54.2669 85.2318 54.5469 85.6289C54.8268 86.0195 55.2337 86.3418 55.7676 86.5957C56.2428 86.8236 56.7083 87.0221 57.1641 87.1914C57.6263 87.3542 58.0723 87.5299 58.502 87.7188C58.8926 87.888 59.2669 88.0801 59.625 88.2949C59.9896 88.5098 60.3053 88.7604 60.5723 89.0469ZM67.3789 95.6582C65.9857 95.6582 64.8952 95.196 64.1074 94.2715C63.3197 93.347 62.9258 92.1068 62.9258 90.5508C62.9258 89.8737 63.0299 89.2422 63.2383 88.6562C63.4531 88.0638 63.7624 87.5267 64.166 87.0449C64.5501 86.5827 65.0319 86.2116 65.6113 85.9316C66.1908 85.6452 66.8223 85.502 67.5059 85.502C68.4499 85.502 69.2181 85.7298 69.8105 86.1855C70.403 86.6348 70.6992 87.25 70.6992 88.0312C70.6992 88.3568 70.6211 88.6465 70.4648 88.9004C70.3086 89.1478 70.0514 89.2715 69.6934 89.2715C69.3092 89.2715 69.0098 89.1738 68.7949 88.9785C68.5866 88.7832 68.4824 88.5651 68.4824 88.3242C68.4824 88.0312 68.5215 87.7318 68.5996 87.4258C68.6777 87.1133 68.7233 86.8854 68.7363 86.7422C68.6191 86.5404 68.4434 86.4069 68.209 86.3418C67.9811 86.2702 67.7337 86.2344 67.4668 86.2344C67.1543 86.2344 66.8548 86.3027 66.5684 86.4395C66.2884 86.5697 66.015 86.8138 65.748 87.1719C65.5072 87.4974 65.3118 87.9368 65.1621 88.4902C65.0124 89.0436 64.9375 89.7044 64.9375 90.4727C64.9375 91.6836 65.2044 92.6732 65.7383 93.4414C66.2786 94.2031 66.985 94.584 67.8574 94.584C68.4889 94.584 69.0163 94.431 69.4395 94.125C69.8691 93.819 70.2663 93.36 70.6309 92.748L71.2559 93.1582C70.8262 93.9264 70.2598 94.5352 69.5566 94.9844C68.8535 95.4336 68.1276 95.6582 67.3789 95.6582ZM81.1289 95.2285C80.8229 95.3392 80.5527 95.4271 80.3184 95.4922C80.0905 95.5638 79.8301 95.5996 79.5371 95.5996C79.0293 95.5996 78.6224 95.4824 78.3164 95.248C78.0169 95.0072 77.8249 94.6589 77.7402 94.2031H77.6816C77.2585 94.6719 76.8027 95.0299 76.3145 95.2773C75.8327 95.5247 75.25 95.6484 74.5664 95.6484C73.8438 95.6484 73.248 95.4271 72.7793 94.9844C72.3171 94.5417 72.0859 93.9622 72.0859 93.2461C72.0859 92.875 72.138 92.543 72.2422 92.25C72.3464 91.957 72.5026 91.6934 72.7109 91.459C72.8737 91.2637 73.0885 91.0911 73.3555 90.9414C73.6224 90.7852 73.873 90.6615 74.1074 90.5703C74.4004 90.4596 74.9928 90.2546 75.8848 89.9551C76.7832 89.6556 77.3887 89.4212 77.7012 89.252V88.2852C77.7012 88.2005 77.6816 88.0378 77.6426 87.7969C77.61 87.556 77.5352 87.3281 77.418 87.1133C77.2878 86.8724 77.1022 86.6641 76.8613 86.4883C76.627 86.306 76.2917 86.2148 75.8555 86.2148C75.556 86.2148 75.276 86.2669 75.0156 86.3711C74.7617 86.4688 74.5827 86.5729 74.4785 86.6836C74.4785 86.8138 74.5078 87.0059 74.5664 87.2598C74.6315 87.5137 74.6641 87.748 74.6641 87.9629C74.6641 88.1908 74.5599 88.3991 74.3516 88.5879C74.1497 88.7767 73.8665 88.8711 73.502 88.8711C73.1764 88.8711 72.9355 88.7572 72.7793 88.5293C72.6296 88.2949 72.5547 88.0345 72.5547 87.748C72.5547 87.4486 72.6589 87.1621 72.8672 86.8887C73.082 86.6152 73.3587 86.3711 73.6973 86.1562C73.9902 85.974 74.3451 85.821 74.7617 85.6973C75.1784 85.5671 75.5853 85.502 75.9824 85.502C76.5293 85.502 77.0046 85.541 77.4082 85.6191C77.8184 85.6908 78.1895 85.8503 78.5215 86.0977C78.8535 86.3385 79.1042 86.6673 79.2734 87.084C79.4492 87.4941 79.5371 88.0247 79.5371 88.6758C79.5371 89.6068 79.5273 90.4336 79.5078 91.1562C79.4883 91.8724 79.4785 92.6569 79.4785 93.5098C79.4785 93.7637 79.5208 93.9655 79.6055 94.1152C79.6966 94.265 79.8333 94.3919 80.0156 94.4961C80.1133 94.5547 80.2663 94.5872 80.4746 94.5938C80.6895 94.6003 80.9076 94.6035 81.1289 94.6035V95.2285ZM77.7207 90.0723C77.1673 90.235 76.6823 90.3945 76.2656 90.5508C75.849 90.707 75.4616 90.9023 75.1035 91.1367C74.778 91.3581 74.5208 91.6217 74.332 91.9277C74.1432 92.2272 74.0488 92.5853 74.0488 93.002C74.0488 93.5423 74.1888 93.9395 74.4688 94.1934C74.7552 94.4473 75.1165 94.5742 75.5527 94.5742C76.015 94.5742 76.4219 94.4635 76.7734 94.2422C77.125 94.0143 77.4212 93.7474 77.6621 93.4414L77.7207 90.0723ZM92.7207 95.4043H88.0039V94.7598C88.1536 94.7467 88.3164 94.7337 88.4922 94.7207C88.6745 94.7077 88.8242 94.6816 88.9414 94.6426C89.1237 94.584 89.2572 94.4831 89.3418 94.3398C89.4329 94.1901 89.4785 93.998 89.4785 93.7637V88.8125C89.4785 88.1289 89.3158 87.6016 88.9902 87.2305C88.6712 86.8594 88.2806 86.6738 87.8184 86.6738C87.4733 86.6738 87.1576 86.7292 86.8711 86.8398C86.5846 86.944 86.3307 87.0742 86.1094 87.2305C85.8945 87.3802 85.722 87.543 85.5918 87.7188C85.4681 87.888 85.377 88.0247 85.3184 88.1289V93.666C85.3184 93.8874 85.3639 94.0697 85.4551 94.2129C85.5462 94.3561 85.6829 94.4668 85.8652 94.5449C86.002 94.61 86.1484 94.6589 86.3047 94.6914C86.4674 94.724 86.6335 94.7467 86.8027 94.7598V95.4043H82.0859V94.7598C82.2357 94.7467 82.3887 94.7337 82.5449 94.7207C82.7077 94.7077 82.8477 94.6816 82.9648 94.6426C83.1471 94.584 83.2806 94.4831 83.3652 94.3398C83.4564 94.1901 83.502 93.998 83.502 93.7637V87.8164C83.502 87.5951 83.4531 87.3932 83.3555 87.2109C83.2643 87.0221 83.1341 86.8691 82.9648 86.752C82.8411 86.6738 82.6947 86.6185 82.5254 86.5859C82.3561 86.5469 82.1738 86.5208 81.9785 86.5078V85.873L85.1816 85.6582L85.3184 85.7949V87.1523H85.3672C85.5234 86.9961 85.7188 86.8105 85.9531 86.5957C86.1875 86.3743 86.4089 86.1953 86.6172 86.0586C86.8581 85.9023 87.1445 85.7721 87.4766 85.668C87.8086 85.5638 88.1829 85.5117 88.5996 85.5117C89.5241 85.5117 90.2077 85.8014 90.6504 86.3809C91.0996 86.9538 91.3242 87.7188 91.3242 88.6758V93.6855C91.3242 93.9134 91.3633 94.099 91.4414 94.2422C91.5195 94.3789 91.653 94.4863 91.8418 94.5645C91.998 94.6296 92.1315 94.6751 92.2422 94.7012C92.3594 94.7272 92.5189 94.7467 92.7207 94.7598V95.4043ZM105.895 81.4492C105.895 81.7422 105.816 81.9896 105.66 82.1914C105.504 82.3932 105.266 82.4941 104.947 82.4941C104.745 82.4941 104.566 82.4518 104.41 82.3672C104.26 82.2826 104.12 82.1686 103.99 82.0254C103.86 81.8822 103.74 81.7194 103.629 81.5371C103.518 81.3548 103.424 81.2083 103.346 81.0977C102.91 81.1172 102.571 81.4232 102.33 82.0156C102.096 82.6016 101.979 83.5391 101.979 84.8281V85.8145H104.459V86.752H101.979V93.666C101.979 93.8939 102.021 94.0794 102.105 94.2227C102.197 94.3659 102.337 94.4733 102.525 94.5449C102.682 94.6035 102.89 94.6523 103.15 94.6914C103.411 94.724 103.635 94.7467 103.824 94.7598V95.4043H98.7461V94.7598C98.8958 94.7467 99.0488 94.7337 99.2051 94.7207C99.3678 94.7077 99.5078 94.6816 99.625 94.6426C99.8073 94.584 99.9408 94.4831 100.025 94.3398C100.117 94.1901 100.162 93.998 100.162 93.7637V86.752H98.2578V85.8145H100.162V85.1992C100.162 83.7344 100.54 82.5495 101.295 81.6445C102.057 80.7331 103.007 80.2773 104.146 80.2773C104.726 80.2773 105.162 80.3913 105.455 80.6191C105.748 80.847 105.895 81.1237 105.895 81.4492ZM109.908 95.4043H105.25V94.7598C105.4 94.7467 105.553 94.7337 105.709 94.7207C105.872 94.7077 106.012 94.6816 106.129 94.6426C106.311 94.584 106.445 94.4831 106.529 94.3398C106.62 94.1901 106.666 93.998 106.666 93.7637V87.8164C106.666 87.6081 106.617 87.4193 106.52 87.25C106.428 87.0742 106.298 86.9277 106.129 86.8105C106.005 86.7324 105.826 86.6673 105.592 86.6152C105.357 86.5566 105.143 86.5208 104.947 86.5078V85.873L108.346 85.6582L108.482 85.7949V93.6465C108.482 93.8743 108.525 94.0632 108.609 94.2129C108.701 94.3626 108.84 94.4733 109.029 94.5449C109.173 94.6035 109.312 94.6523 109.449 94.6914C109.586 94.724 109.739 94.7467 109.908 94.7598V95.4043ZM108.678 81.8594C108.678 82.2305 108.554 82.556 108.307 82.8359C108.066 83.1094 107.766 83.2461 107.408 83.2461C107.076 83.2461 106.786 83.1159 106.539 82.8555C106.298 82.5885 106.178 82.2858 106.178 81.9473C106.178 81.5892 106.298 81.2767 106.539 81.0098C106.786 80.7428 107.076 80.6094 107.408 80.6094C107.779 80.6094 108.082 80.7363 108.316 80.9902C108.557 81.2376 108.678 81.5273 108.678 81.8594ZM121.725 95.4043H117.008V94.7598C117.158 94.7467 117.32 94.7337 117.496 94.7207C117.678 94.7077 117.828 94.6816 117.945 94.6426C118.128 94.584 118.261 94.4831 118.346 94.3398C118.437 94.1901 118.482 93.998 118.482 93.7637V88.8125C118.482 88.1289 118.32 87.6016 117.994 87.2305C117.675 86.8594 117.285 86.6738 116.822 86.6738C116.477 86.6738 116.161 86.7292 115.875 86.8398C115.589 86.944 115.335 87.0742 115.113 87.2305C114.898 87.3802 114.726 87.543 114.596 87.7188C114.472 87.888 114.381 88.0247 114.322 88.1289V93.666C114.322 93.8874 114.368 94.0697 114.459 94.2129C114.55 94.3561 114.687 94.4668 114.869 94.5449C115.006 94.61 115.152 94.6589 115.309 94.6914C115.471 94.724 115.637 94.7467 115.807 94.7598V95.4043H111.09V94.7598C111.24 94.7467 111.393 94.7337 111.549 94.7207C111.712 94.7077 111.852 94.6816 111.969 94.6426C112.151 94.584 112.285 94.4831 112.369 94.3398C112.46 94.1901 112.506 93.998 112.506 93.7637V87.8164C112.506 87.5951 112.457 87.3932 112.359 87.2109C112.268 87.0221 112.138 86.8691 111.969 86.752C111.845 86.6738 111.699 86.6185 111.529 86.5859C111.36 86.5469 111.178 86.5208 110.982 86.5078V85.873L114.186 85.6582L114.322 85.7949V87.1523H114.371C114.527 86.9961 114.723 86.8105 114.957 86.5957C115.191 86.3743 115.413 86.1953 115.621 86.0586C115.862 85.9023 116.148 85.7721 116.48 85.668C116.812 85.5638 117.187 85.5117 117.604 85.5117C118.528 85.5117 119.212 85.8014 119.654 86.3809C120.104 86.9538 120.328 87.7188 120.328 88.6758V93.6855C120.328 93.9134 120.367 94.099 120.445 94.2422C120.523 94.3789 120.657 94.4863 120.846 94.5645C121.002 94.6296 121.135 94.6751 121.246 94.7012C121.363 94.7272 121.523 94.7467 121.725 94.7598V95.4043ZM131.158 94.4082C131.419 94.6556 131.624 94.9355 131.773 95.248C131.923 95.5605 131.998 95.9479 131.998 96.4102C131.998 96.8724 131.897 97.3053 131.695 97.709C131.493 98.1191 131.188 98.474 130.777 98.7734C130.341 99.0794 129.82 99.3171 129.215 99.4863C128.609 99.6556 127.861 99.7402 126.969 99.7402C125.51 99.7402 124.42 99.5254 123.697 99.0957C122.975 98.6725 122.613 98.0508 122.613 97.2305C122.613 96.5664 122.874 96.0423 123.395 95.6582C123.915 95.2741 124.579 95.0658 125.387 95.0332V94.8965C125.191 94.8379 124.99 94.7663 124.781 94.6816C124.573 94.5905 124.394 94.4863 124.244 94.3691C124.075 94.2324 123.938 94.0729 123.834 93.8906C123.73 93.7018 123.678 93.4707 123.678 93.1973C123.678 92.8522 123.798 92.5365 124.039 92.25C124.286 91.957 124.658 91.7064 125.152 91.498V91.3516C124.527 91.0586 124.042 90.6842 123.697 90.2285C123.352 89.7663 123.18 89.2324 123.18 88.627C123.18 87.7155 123.518 86.9668 124.195 86.3809C124.879 85.7949 125.751 85.502 126.812 85.502C127.105 85.502 127.395 85.5312 127.682 85.5898C127.975 85.6484 128.271 85.7233 128.57 85.8145H131.93V86.752H129.664V86.8105C129.905 87.0905 130.084 87.3997 130.201 87.7383C130.318 88.0768 130.377 88.4089 130.377 88.7344C130.377 89.5807 130.032 90.2969 129.342 90.8828C128.658 91.4688 127.861 91.7617 126.949 91.7617H125.768C125.618 91.8138 125.462 91.9082 125.299 92.0449C125.136 92.1816 125.055 92.3672 125.055 92.6016C125.055 92.8424 125.123 93.028 125.26 93.1582C125.396 93.2819 125.562 93.3665 125.758 93.4121C125.947 93.4642 126.165 93.4967 126.412 93.5098C126.666 93.5228 126.926 93.5326 127.193 93.5391C127.48 93.5456 127.87 93.5651 128.365 93.5977C128.867 93.6302 129.221 93.6497 129.43 93.6562C129.729 93.6693 130.029 93.7409 130.328 93.8711C130.634 94.0013 130.911 94.1803 131.158 94.4082ZM128.521 88.6953C128.521 87.9336 128.365 87.3281 128.053 86.8789C127.747 86.4232 127.314 86.1953 126.754 86.1953C126.448 86.1953 126.184 86.2604 125.963 86.3906C125.748 86.5143 125.572 86.6934 125.436 86.9277C125.305 87.1426 125.211 87.403 125.152 87.709C125.1 88.0085 125.074 88.3177 125.074 88.6367C125.074 89.3594 125.23 89.9486 125.543 90.4043C125.862 90.86 126.272 91.0879 126.773 91.0879C127.333 91.0879 127.763 90.8633 128.062 90.4141C128.368 89.9583 128.521 89.3854 128.521 88.6953ZM130.396 96.7715C130.396 96.4069 130.312 96.1074 130.143 95.873C129.973 95.6387 129.716 95.4792 129.371 95.3945C129.189 95.3685 128.814 95.3392 128.248 95.3066C127.682 95.2741 127.024 95.2578 126.275 95.2578C125.572 95.3945 125.071 95.6224 124.771 95.9414C124.479 96.2669 124.332 96.6836 124.332 97.1914C124.332 97.4193 124.381 97.6374 124.479 97.8457C124.576 98.054 124.745 98.2461 124.986 98.4219C125.214 98.5911 125.52 98.7279 125.904 98.832C126.288 98.9427 126.757 98.998 127.311 98.998C128.268 98.998 129.02 98.8125 129.566 98.4414C130.12 98.0768 130.396 97.5202 130.396 96.7715ZM141.656 93.1387C141.253 93.9069 140.712 94.5189 140.035 94.9746C139.358 95.4303 138.58 95.6582 137.701 95.6582C136.926 95.6582 136.246 95.5215 135.66 95.248C135.081 94.9746 134.602 94.6035 134.225 94.1348C133.847 93.666 133.564 93.1191 133.375 92.4941C133.193 91.8691 133.102 91.2083 133.102 90.5117C133.102 89.8867 133.199 89.2747 133.395 88.6758C133.596 88.0703 133.889 87.5267 134.273 87.0449C134.645 86.5827 135.104 86.2116 135.65 85.9316C136.204 85.6452 136.822 85.502 137.506 85.502C138.209 85.502 138.811 85.6126 139.312 85.834C139.814 86.0553 140.221 86.3581 140.533 86.7422C140.833 87.1068 141.054 87.5365 141.197 88.0312C141.347 88.526 141.422 89.0632 141.422 89.6426V90.2871H135.045C135.045 90.9186 135.104 91.4915 135.221 92.0059C135.344 92.5202 135.536 92.9727 135.797 93.3633C136.051 93.7409 136.383 94.0404 136.793 94.2617C137.203 94.4766 137.691 94.584 138.258 94.584C138.837 94.584 139.335 94.4505 139.752 94.1836C140.175 93.9102 140.582 93.4219 140.973 92.7188L141.656 93.1387ZM139.498 89.4668C139.498 89.1022 139.465 88.7116 139.4 88.2949C139.342 87.8783 139.244 87.5299 139.107 87.25C138.958 86.9505 138.753 86.7064 138.492 86.5176C138.232 86.3288 137.896 86.2344 137.486 86.2344C136.803 86.2344 136.233 86.5208 135.777 87.0938C135.328 87.6602 135.084 88.4512 135.045 89.4668H139.498ZM150.143 87.0156C150.143 87.3477 150.061 87.6439 149.898 87.9043C149.736 88.1582 149.485 88.2852 149.146 88.2852C148.782 88.2852 148.502 88.1908 148.307 88.002C148.118 87.8132 148.023 87.6048 148.023 87.377C148.023 87.2337 148.033 87.1035 148.053 86.9863C148.079 86.8691 148.102 86.752 148.121 86.6348C147.815 86.6348 147.457 86.7585 147.047 87.0059C146.637 87.2533 146.288 87.6048 146.002 88.0605V93.666C146.002 93.8939 146.044 94.0794 146.129 94.2227C146.22 94.3659 146.36 94.4733 146.549 94.5449C146.712 94.61 146.92 94.6589 147.174 94.6914C147.434 94.724 147.659 94.7467 147.848 94.7598V95.4043H142.77V94.7598C142.919 94.7467 143.072 94.7337 143.229 94.7207C143.391 94.7077 143.531 94.6816 143.648 94.6426C143.831 94.584 143.964 94.4831 144.049 94.3398C144.14 94.1901 144.186 93.998 144.186 93.7637V87.8164C144.186 87.6146 144.137 87.416 144.039 87.2207C143.948 87.0254 143.818 86.8691 143.648 86.752C143.525 86.6738 143.378 86.6185 143.209 86.5859C143.04 86.5469 142.857 86.5208 142.662 86.5078V85.873L145.865 85.6582L146.002 85.7949V87.1523H146.051C146.454 86.625 146.904 86.2246 147.398 85.9512C147.893 85.6777 148.346 85.541 148.756 85.541C149.166 85.541 149.498 85.6745 149.752 85.9414C150.012 86.2083 150.143 86.5664 150.143 87.0156ZM159.771 86.918C160.156 87.3737 160.452 87.9043 160.66 88.5098C160.875 89.1087 160.982 89.7956 160.982 90.5703C160.982 91.332 160.855 92.0286 160.602 92.6602C160.348 93.2852 160.012 93.819 159.596 94.2617C159.16 94.7109 158.674 95.056 158.141 95.2969C157.607 95.5378 157.04 95.6582 156.441 95.6582C155.862 95.6582 155.387 95.5931 155.016 95.4629C154.645 95.3327 154.342 95.1797 154.107 95.0039H154.029V97.8945C154.029 98.1289 154.075 98.3242 154.166 98.4805C154.257 98.6367 154.397 98.7507 154.586 98.8223C154.742 98.8809 154.964 98.9362 155.25 98.9883C155.543 99.0469 155.784 99.0794 155.973 99.0859V99.7402H150.592V99.0859C150.794 99.0729 150.989 99.0566 151.178 99.0371C151.367 99.0176 151.536 98.985 151.686 98.9395C151.881 98.8743 152.018 98.7604 152.096 98.5977C152.174 98.4349 152.213 98.2428 152.213 98.0215V87.7773C152.213 87.582 152.164 87.3932 152.066 87.2109C151.969 87.0286 151.842 86.8822 151.686 86.7715C151.568 86.6934 151.406 86.6348 151.197 86.5957C150.989 86.5501 150.787 86.5208 150.592 86.5078V85.873L153.873 85.6582L154.01 85.7754V86.8594L154.088 86.8789C154.426 86.4883 154.846 86.1628 155.348 85.9023C155.849 85.6419 156.347 85.5117 156.842 85.5117C157.441 85.5117 157.988 85.6387 158.482 85.8926C158.984 86.1465 159.413 86.4883 159.771 86.918ZM158.18 93.8418C158.44 93.4382 158.632 92.9694 158.756 92.4355C158.88 91.9017 158.941 91.306 158.941 90.6484C158.941 90.1667 158.889 89.6751 158.785 89.1738C158.681 88.6725 158.518 88.2363 158.297 87.8652C158.076 87.4876 157.786 87.1816 157.428 86.9473C157.07 86.7129 156.64 86.5957 156.139 86.5957C155.657 86.5957 155.247 86.7031 154.908 86.918C154.57 87.1263 154.277 87.377 154.029 87.6699V93.3633C154.088 93.5391 154.182 93.7214 154.312 93.9102C154.449 94.099 154.599 94.2617 154.762 94.3984C154.964 94.5612 155.182 94.6947 155.416 94.7988C155.65 94.8965 155.937 94.9453 156.275 94.9453C156.64 94.9453 156.992 94.8509 157.33 94.6621C157.669 94.4668 157.952 94.1934 158.18 93.8418ZM169.771 87.0156C169.771 87.3477 169.69 87.6439 169.527 87.9043C169.365 88.1582 169.114 88.2852 168.775 88.2852C168.411 88.2852 168.131 88.1908 167.936 88.002C167.747 87.8132 167.652 87.6048 167.652 87.377C167.652 87.2337 167.662 87.1035 167.682 86.9863C167.708 86.8691 167.73 86.752 167.75 86.6348C167.444 86.6348 167.086 86.7585 166.676 87.0059C166.266 87.2533 165.917 87.6048 165.631 88.0605V93.666C165.631 93.8939 165.673 94.0794 165.758 94.2227C165.849 94.3659 165.989 94.4733 166.178 94.5449C166.34 94.61 166.549 94.6589 166.803 94.6914C167.063 94.724 167.288 94.7467 167.477 94.7598V95.4043H162.398V94.7598C162.548 94.7467 162.701 94.7337 162.857 94.7207C163.02 94.7077 163.16 94.6816 163.277 94.6426C163.46 94.584 163.593 94.4831 163.678 94.3398C163.769 94.1901 163.814 93.998 163.814 93.7637V87.8164C163.814 87.6146 163.766 87.416 163.668 87.2207C163.577 87.0254 163.447 86.8691 163.277 86.752C163.154 86.6738 163.007 86.6185 162.838 86.5859C162.669 86.5469 162.486 86.5208 162.291 86.5078V85.873L165.494 85.6582L165.631 85.7949V87.1523H165.68C166.083 86.625 166.533 86.2246 167.027 85.9512C167.522 85.6777 167.975 85.541 168.385 85.541C168.795 85.541 169.127 85.6745 169.381 85.9414C169.641 86.2083 169.771 86.5664 169.771 87.0156ZM175.279 95.4043H170.621V94.7598C170.771 94.7467 170.924 94.7337 171.08 94.7207C171.243 94.7077 171.383 94.6816 171.5 94.6426C171.682 94.584 171.816 94.4831 171.9 94.3398C171.992 94.1901 172.037 93.998 172.037 93.7637V87.8164C172.037 87.6081 171.988 87.4193 171.891 87.25C171.799 87.0742 171.669 86.9277 171.5 86.8105C171.376 86.7324 171.197 86.6673 170.963 86.6152C170.729 86.5566 170.514 86.5208 170.318 86.5078V85.873L173.717 85.6582L173.854 85.7949V93.6465C173.854 93.8743 173.896 94.0632 173.98 94.2129C174.072 94.3626 174.212 94.4733 174.4 94.5449C174.544 94.6035 174.684 94.6523 174.82 94.6914C174.957 94.724 175.11 94.7467 175.279 94.7598V95.4043ZM174.049 81.8594C174.049 82.2305 173.925 82.556 173.678 82.8359C173.437 83.1094 173.137 83.2461 172.779 83.2461C172.447 83.2461 172.158 83.1159 171.91 82.8555C171.669 82.5885 171.549 82.2858 171.549 81.9473C171.549 81.5892 171.669 81.2767 171.91 81.0098C172.158 80.7428 172.447 80.6094 172.779 80.6094C173.15 80.6094 173.453 80.7363 173.688 80.9902C173.928 81.2376 174.049 81.5273 174.049 81.8594ZM187.096 95.4043H182.379V94.7598C182.529 94.7467 182.691 94.7337 182.867 94.7207C183.049 94.7077 183.199 94.6816 183.316 94.6426C183.499 94.584 183.632 94.4831 183.717 94.3398C183.808 94.1901 183.854 93.998 183.854 93.7637V88.8125C183.854 88.1289 183.691 87.6016 183.365 87.2305C183.046 86.8594 182.656 86.6738 182.193 86.6738C181.848 86.6738 181.533 86.7292 181.246 86.8398C180.96 86.944 180.706 87.0742 180.484 87.2305C180.27 87.3802 180.097 87.543 179.967 87.7188C179.843 87.888 179.752 88.0247 179.693 88.1289V93.666C179.693 93.8874 179.739 94.0697 179.83 94.2129C179.921 94.3561 180.058 94.4668 180.24 94.5449C180.377 94.61 180.523 94.6589 180.68 94.6914C180.842 94.724 181.008 94.7467 181.178 94.7598V95.4043H176.461V94.7598C176.611 94.7467 176.764 94.7337 176.92 94.7207C177.083 94.7077 177.223 94.6816 177.34 94.6426C177.522 94.584 177.656 94.4831 177.74 94.3398C177.831 94.1901 177.877 93.998 177.877 93.7637V87.8164C177.877 87.5951 177.828 87.3932 177.73 87.2109C177.639 87.0221 177.509 86.8691 177.34 86.752C177.216 86.6738 177.07 86.6185 176.9 86.5859C176.731 86.5469 176.549 86.5208 176.354 86.5078V85.873L179.557 85.6582L179.693 85.7949V87.1523H179.742C179.898 86.9961 180.094 86.8105 180.328 86.5957C180.562 86.3743 180.784 86.1953 180.992 86.0586C181.233 85.9023 181.52 85.7721 181.852 85.668C182.184 85.5638 182.558 85.5117 182.975 85.5117C183.899 85.5117 184.583 85.8014 185.025 86.3809C185.475 86.9538 185.699 87.7188 185.699 88.6758V93.6855C185.699 93.9134 185.738 94.099 185.816 94.2422C185.895 94.3789 186.028 94.4863 186.217 94.5645C186.373 94.6296 186.507 94.6751 186.617 94.7012C186.734 94.7272 186.894 94.7467 187.096 94.7598V95.4043ZM194.225 94.9844C193.801 95.1602 193.401 95.3066 193.023 95.4238C192.646 95.5475 192.184 95.6094 191.637 95.6094C190.829 95.6094 190.26 95.4076 189.928 95.0039C189.602 94.5938 189.439 94.0176 189.439 93.2754V86.752H187.701V85.8145H189.479V82.8164H191.256V85.8145H194.02V86.752H191.275V92.1328C191.275 92.5365 191.288 92.875 191.314 93.1484C191.347 93.4154 191.419 93.6497 191.529 93.8516C191.633 94.0404 191.79 94.1836 191.998 94.2812C192.206 94.3789 192.486 94.4277 192.838 94.4277C193.001 94.4277 193.238 94.4147 193.551 94.3887C193.87 94.3561 194.094 94.3171 194.225 94.2715V94.9844ZM205.963 94.9844C205.54 95.1602 205.139 95.3066 204.762 95.4238C204.384 95.5475 203.922 95.6094 203.375 95.6094C202.568 95.6094 201.998 95.4076 201.666 95.0039C201.34 94.5938 201.178 94.0176 201.178 93.2754V86.752H199.439V85.8145H201.217V82.8164H202.994V85.8145H205.758V86.752H203.014V92.1328C203.014 92.5365 203.027 92.875 203.053 93.1484C203.085 93.4154 203.157 93.6497 203.268 93.8516C203.372 94.0404 203.528 94.1836 203.736 94.2812C203.945 94.3789 204.225 94.4277 204.576 94.4277C204.739 94.4277 204.977 94.4147 205.289 94.3887C205.608 94.3561 205.833 94.3171 205.963 94.2715V94.9844ZM216.314 90.4922C216.314 91.1693 216.207 91.8366 215.992 92.4941C215.777 93.1452 215.471 93.6986 215.074 94.1543C214.625 94.6751 214.104 95.0625 213.512 95.3164C212.919 95.5703 212.255 95.6973 211.52 95.6973C210.908 95.6973 210.325 95.5833 209.771 95.3555C209.218 95.1211 208.727 94.7826 208.297 94.3398C207.874 93.9036 207.535 93.373 207.281 92.748C207.034 92.1165 206.91 91.4102 206.91 90.6289C206.91 89.125 207.346 87.8945 208.219 86.9375C209.098 85.9805 210.247 85.502 211.666 85.502C213.014 85.502 214.124 85.9577 214.996 86.8691C215.875 87.7741 216.314 88.9818 216.314 90.4922ZM214.293 90.5117C214.293 90.0234 214.244 89.5091 214.146 88.9688C214.049 88.4219 213.902 87.9596 213.707 87.582C213.499 87.1784 213.225 86.8561 212.887 86.6152C212.548 86.3678 212.135 86.2441 211.646 86.2441C211.145 86.2441 210.715 86.3678 210.357 86.6152C210.006 86.8626 209.719 87.2012 209.498 87.6309C209.29 88.028 209.143 88.4805 209.059 88.9883C208.974 89.4961 208.932 89.9876 208.932 90.4629C208.932 91.0879 208.98 91.6673 209.078 92.2012C209.182 92.7285 209.345 93.2005 209.566 93.6172C209.788 94.0339 210.064 94.3626 210.396 94.6035C210.735 94.8379 211.152 94.9551 211.646 94.9551C212.46 94.9551 213.105 94.5612 213.58 93.7734C214.055 92.9857 214.293 91.8984 214.293 90.5117ZM49.6641 118.229C49.3581 118.339 49.0879 118.427 48.8535 118.492C48.6257 118.564 48.3652 118.6 48.0723 118.6C47.5645 118.6 47.1576 118.482 46.8516 118.248C46.5521 118.007 46.36 117.659 46.2754 117.203H46.2168C45.7936 117.672 45.3379 118.03 44.8496 118.277C44.3678 118.525 43.7852 118.648 43.1016 118.648C42.3789 118.648 41.7832 118.427 41.3145 117.984C40.8522 117.542 40.6211 116.962 40.6211 116.246C40.6211 115.875 40.6732 115.543 40.7773 115.25C40.8815 114.957 41.0378 114.693 41.2461 114.459C41.4089 114.264 41.6237 114.091 41.8906 113.941C42.1576 113.785 42.4082 113.661 42.6426 113.57C42.9355 113.46 43.528 113.255 44.4199 112.955C45.3184 112.656 45.9238 112.421 46.2363 112.252V111.285C46.2363 111.201 46.2168 111.038 46.1777 110.797C46.1452 110.556 46.0703 110.328 45.9531 110.113C45.8229 109.872 45.6374 109.664 45.3965 109.488C45.1621 109.306 44.8268 109.215 44.3906 109.215C44.0911 109.215 43.8112 109.267 43.5508 109.371C43.2969 109.469 43.1178 109.573 43.0137 109.684C43.0137 109.814 43.043 110.006 43.1016 110.26C43.1667 110.514 43.1992 110.748 43.1992 110.963C43.1992 111.191 43.0951 111.399 42.8867 111.588C42.6849 111.777 42.4017 111.871 42.0371 111.871C41.7116 111.871 41.4707 111.757 41.3145 111.529C41.1647 111.295 41.0898 111.035 41.0898 110.748C41.0898 110.449 41.194 110.162 41.4023 109.889C41.6172 109.615 41.8939 109.371 42.2324 109.156C42.5254 108.974 42.8802 108.821 43.2969 108.697C43.7135 108.567 44.1204 108.502 44.5176 108.502C45.0645 108.502 45.5397 108.541 45.9434 108.619C46.3535 108.691 46.7246 108.85 47.0566 109.098C47.3887 109.339 47.6393 109.667 47.8086 110.084C47.9844 110.494 48.0723 111.025 48.0723 111.676C48.0723 112.607 48.0625 113.434 48.043 114.156C48.0234 114.872 48.0137 115.657 48.0137 116.51C48.0137 116.764 48.056 116.965 48.1406 117.115C48.2318 117.265 48.3685 117.392 48.5508 117.496C48.6484 117.555 48.8014 117.587 49.0098 117.594C49.2246 117.6 49.4427 117.604 49.6641 117.604V118.229ZM46.2559 113.072C45.7025 113.235 45.2174 113.395 44.8008 113.551C44.3841 113.707 43.9967 113.902 43.6387 114.137C43.3132 114.358 43.056 114.622 42.8672 114.928C42.6784 115.227 42.584 115.585 42.584 116.002C42.584 116.542 42.724 116.939 43.0039 117.193C43.2904 117.447 43.6517 117.574 44.0879 117.574C44.5501 117.574 44.957 117.464 45.3086 117.242C45.6602 117.014 45.9564 116.747 46.1973 116.441L46.2559 113.072ZM60.9434 118.229L57.8086 118.443L57.6621 118.307V117.086H57.6035C57.4473 117.249 57.2715 117.424 57.0762 117.613C56.8809 117.796 56.6562 117.962 56.4023 118.111C56.1094 118.287 55.8262 118.421 55.5527 118.512C55.2793 118.603 54.8919 118.648 54.3906 118.648C53.5378 118.648 52.8867 118.372 52.4375 117.818C51.9948 117.258 51.7734 116.448 51.7734 115.387V110.777C51.7734 110.543 51.7279 110.348 51.6367 110.191C51.5521 110.029 51.4251 109.889 51.2559 109.771C51.1387 109.693 50.9922 109.638 50.8164 109.605C50.6406 109.566 50.4551 109.54 50.2598 109.527V108.893L53.4727 108.658L53.6191 108.795V115.484C53.6191 116.181 53.7754 116.705 54.0879 117.057C54.4004 117.408 54.7747 117.584 55.2109 117.584C55.569 117.584 55.888 117.529 56.168 117.418C56.4479 117.307 56.6823 117.177 56.8711 117.027C57.0469 116.891 57.1999 116.747 57.3301 116.598C57.4668 116.441 57.571 116.298 57.6426 116.168V110.709C57.6426 110.494 57.597 110.305 57.5059 110.143C57.4147 109.973 57.2878 109.83 57.125 109.713C57.0078 109.635 56.832 109.589 56.5977 109.576C56.3698 109.557 56.1126 109.54 55.8262 109.527V108.893L59.3223 108.658L59.4688 108.795V116.441C59.4688 116.663 59.5143 116.852 59.6055 117.008C59.6966 117.164 59.8236 117.298 59.9863 117.408C60.1035 117.48 60.2435 117.529 60.4062 117.555C60.569 117.574 60.748 117.587 60.9434 117.594V118.229ZM68.0723 117.984C67.6491 118.16 67.2487 118.307 66.8711 118.424C66.4935 118.548 66.0312 118.609 65.4844 118.609C64.6771 118.609 64.1074 118.408 63.7754 118.004C63.4499 117.594 63.2871 117.018 63.2871 116.275V109.752H61.5488V108.814H63.3262V105.816H65.1035V108.814H67.8672V109.752H65.123V115.133C65.123 115.536 65.1361 115.875 65.1621 116.148C65.1947 116.415 65.2663 116.65 65.377 116.852C65.4811 117.04 65.6374 117.184 65.8457 117.281C66.054 117.379 66.334 117.428 66.6855 117.428C66.8483 117.428 67.0859 117.415 67.3984 117.389C67.7174 117.356 67.9421 117.317 68.0723 117.271V117.984ZM79.498 118.404H74.7715V117.76C74.9212 117.747 75.0872 117.734 75.2695 117.721C75.4518 117.708 75.6016 117.682 75.7188 117.643C75.901 117.584 76.0345 117.483 76.1191 117.34C76.2103 117.19 76.2559 116.998 76.2559 116.764V111.812C76.2559 111.129 76.0931 110.602 75.7676 110.23C75.4486 109.859 75.0579 109.674 74.5957 109.674C74.2572 109.674 73.9414 109.729 73.6484 109.84C73.362 109.944 73.1048 110.074 72.877 110.23C72.6556 110.393 72.4863 110.556 72.3691 110.719C72.252 110.882 72.1608 111.018 72.0957 111.129V116.666C72.0957 116.887 72.138 117.07 72.2227 117.213C72.3138 117.356 72.4505 117.467 72.6328 117.545C72.776 117.61 72.9225 117.659 73.0723 117.691C73.2285 117.724 73.3978 117.747 73.5801 117.76V118.404H68.8535V117.76C69.0033 117.747 69.1595 117.734 69.3223 117.721C69.485 117.701 69.6217 117.675 69.7324 117.643C69.9147 117.584 70.0514 117.483 70.1426 117.34C70.2337 117.19 70.2793 116.998 70.2793 116.764V105.553C70.2793 105.331 70.2272 105.11 70.123 104.889C70.0254 104.667 69.8952 104.501 69.7324 104.391C69.6152 104.306 69.4069 104.247 69.1074 104.215C68.8145 104.176 68.5768 104.15 68.3945 104.137V103.512L71.959 103.287L72.0957 103.434V110.152H72.1348C72.3496 109.938 72.5449 109.749 72.7207 109.586C72.8965 109.417 73.1276 109.241 73.4141 109.059C73.6615 108.902 73.9512 108.772 74.2832 108.668C74.6217 108.564 74.9993 108.512 75.416 108.512C76.2754 108.512 76.9362 108.785 77.3984 109.332C77.8607 109.872 78.0918 110.654 78.0918 111.676V116.686C78.0918 116.913 78.1309 117.099 78.209 117.242C78.2936 117.379 78.4303 117.486 78.6191 117.564C78.7689 117.623 78.9023 117.669 79.0195 117.701C79.1432 117.727 79.3027 117.747 79.498 117.76V118.404ZM90.0645 113.492C90.0645 114.169 89.957 114.837 89.7422 115.494C89.5273 116.145 89.2214 116.699 88.8242 117.154C88.375 117.675 87.8542 118.062 87.2617 118.316C86.6693 118.57 86.0052 118.697 85.2695 118.697C84.6576 118.697 84.0749 118.583 83.5215 118.355C82.9681 118.121 82.4766 117.783 82.0469 117.34C81.6237 116.904 81.2852 116.373 81.0312 115.748C80.7839 115.117 80.6602 114.41 80.6602 113.629C80.6602 112.125 81.0964 110.895 81.9688 109.938C82.8477 108.98 83.9967 108.502 85.416 108.502C86.7637 108.502 87.8737 108.958 88.7461 109.869C89.625 110.774 90.0645 111.982 90.0645 113.492ZM88.043 113.512C88.043 113.023 87.9941 112.509 87.8965 111.969C87.7988 111.422 87.6523 110.96 87.457 110.582C87.2487 110.178 86.9753 109.856 86.6367 109.615C86.2982 109.368 85.8848 109.244 85.3965 109.244C84.8952 109.244 84.4655 109.368 84.1074 109.615C83.7559 109.863 83.4694 110.201 83.248 110.631C83.0397 111.028 82.8932 111.48 82.8086 111.988C82.724 112.496 82.6816 112.988 82.6816 113.463C82.6816 114.088 82.7305 114.667 82.8281 115.201C82.9323 115.729 83.0951 116.201 83.3164 116.617C83.5378 117.034 83.8145 117.363 84.1465 117.604C84.485 117.838 84.9017 117.955 85.3965 117.955C86.2103 117.955 86.8548 117.561 87.3301 116.773C87.8053 115.986 88.043 114.898 88.043 113.512ZM98.834 110.016C98.834 110.348 98.7526 110.644 98.5898 110.904C98.4271 111.158 98.1764 111.285 97.8379 111.285C97.4733 111.285 97.1934 111.191 96.998 111.002C96.8092 110.813 96.7148 110.605 96.7148 110.377C96.7148 110.234 96.7246 110.104 96.7441 109.986C96.7702 109.869 96.793 109.752 96.8125 109.635C96.5065 109.635 96.1484 109.758 95.7383 110.006C95.3281 110.253 94.9798 110.605 94.6934 111.061V116.666C94.6934 116.894 94.7357 117.079 94.8203 117.223C94.9115 117.366 95.0514 117.473 95.2402 117.545C95.403 117.61 95.6113 117.659 95.8652 117.691C96.1257 117.724 96.3503 117.747 96.5391 117.76V118.404H91.4609V117.76C91.6107 117.747 91.7637 117.734 91.9199 117.721C92.0827 117.708 92.2227 117.682 92.3398 117.643C92.5221 117.584 92.6556 117.483 92.7402 117.34C92.8314 117.19 92.877 116.998 92.877 116.764V110.816C92.877 110.615 92.8281 110.416 92.7305 110.221C92.6393 110.025 92.5091 109.869 92.3398 109.752C92.2161 109.674 92.0697 109.618 91.9004 109.586C91.7311 109.547 91.5488 109.521 91.3535 109.508V108.873L94.5566 108.658L94.6934 108.795V110.152H94.7422C95.1458 109.625 95.5951 109.225 96.0898 108.951C96.5846 108.678 97.0371 108.541 97.4473 108.541C97.8574 108.541 98.1895 108.674 98.4434 108.941C98.7038 109.208 98.834 109.566 98.834 110.016ZM104.342 118.404H99.6836V117.76C99.8333 117.747 99.9863 117.734 100.143 117.721C100.305 117.708 100.445 117.682 100.562 117.643C100.745 117.584 100.878 117.483 100.963 117.34C101.054 117.19 101.1 116.998 101.1 116.764V110.816C101.1 110.608 101.051 110.419 100.953 110.25C100.862 110.074 100.732 109.928 100.562 109.811C100.439 109.732 100.26 109.667 100.025 109.615C99.791 109.557 99.5762 109.521 99.3809 109.508V108.873L102.779 108.658L102.916 108.795V116.646C102.916 116.874 102.958 117.063 103.043 117.213C103.134 117.363 103.274 117.473 103.463 117.545C103.606 117.604 103.746 117.652 103.883 117.691C104.02 117.724 104.173 117.747 104.342 117.76V118.404ZM103.111 104.859C103.111 105.23 102.988 105.556 102.74 105.836C102.499 106.109 102.2 106.246 101.842 106.246C101.51 106.246 101.22 106.116 100.973 105.855C100.732 105.589 100.611 105.286 100.611 104.947C100.611 104.589 100.732 104.277 100.973 104.01C101.22 103.743 101.51 103.609 101.842 103.609C102.213 103.609 102.516 103.736 102.75 103.99C102.991 104.238 103.111 104.527 103.111 104.859ZM111.881 113.688C112.148 113.922 112.353 114.192 112.496 114.498C112.639 114.804 112.711 115.178 112.711 115.621C112.711 116.513 112.376 117.242 111.705 117.809C111.041 118.375 110.178 118.658 109.117 118.658C108.557 118.658 108.04 118.557 107.564 118.355C107.096 118.154 106.76 117.968 106.559 117.799L106.363 118.434H105.631L105.533 115.084H106.207C106.259 115.338 106.37 115.634 106.539 115.973C106.708 116.311 106.913 116.617 107.154 116.891C107.408 117.177 107.711 117.418 108.062 117.613C108.421 117.809 108.821 117.906 109.264 117.906C109.889 117.906 110.37 117.766 110.709 117.486C111.048 117.2 111.217 116.793 111.217 116.266C111.217 115.992 111.161 115.758 111.051 115.562C110.947 115.361 110.79 115.185 110.582 115.035C110.367 114.885 110.104 114.752 109.791 114.635C109.479 114.511 109.13 114.391 108.746 114.273C108.44 114.182 108.098 114.059 107.721 113.902C107.35 113.74 107.031 113.551 106.764 113.336C106.477 113.108 106.243 112.828 106.061 112.496C105.878 112.164 105.787 111.773 105.787 111.324C105.787 110.536 106.08 109.869 106.666 109.322C107.252 108.775 108.036 108.502 109.02 108.502C109.397 108.502 109.781 108.551 110.172 108.648C110.569 108.746 110.891 108.863 111.139 109L111.363 108.492H112.066L112.213 111.588H111.539C111.402 110.898 111.106 110.338 110.65 109.908C110.201 109.472 109.651 109.254 109 109.254C108.466 109.254 108.046 109.387 107.74 109.654C107.434 109.921 107.281 110.243 107.281 110.621C107.281 110.914 107.33 111.158 107.428 111.354C107.532 111.549 107.685 111.715 107.887 111.852C108.082 111.982 108.326 112.105 108.619 112.223C108.919 112.333 109.286 112.46 109.723 112.604C110.152 112.74 110.556 112.9 110.934 113.082C111.318 113.264 111.633 113.466 111.881 113.688ZM122.73 116.139C122.327 116.907 121.786 117.519 121.109 117.975C120.432 118.43 119.654 118.658 118.775 118.658C118.001 118.658 117.32 118.521 116.734 118.248C116.155 117.975 115.676 117.604 115.299 117.135C114.921 116.666 114.638 116.119 114.449 115.494C114.267 114.869 114.176 114.208 114.176 113.512C114.176 112.887 114.273 112.275 114.469 111.676C114.671 111.07 114.964 110.527 115.348 110.045C115.719 109.583 116.178 109.212 116.725 108.932C117.278 108.645 117.896 108.502 118.58 108.502C119.283 108.502 119.885 108.613 120.387 108.834C120.888 109.055 121.295 109.358 121.607 109.742C121.907 110.107 122.128 110.536 122.271 111.031C122.421 111.526 122.496 112.063 122.496 112.643V113.287H116.119C116.119 113.919 116.178 114.492 116.295 115.006C116.419 115.52 116.611 115.973 116.871 116.363C117.125 116.741 117.457 117.04 117.867 117.262C118.277 117.477 118.766 117.584 119.332 117.584C119.911 117.584 120.41 117.451 120.826 117.184C121.249 116.91 121.656 116.422 122.047 115.719L122.73 116.139ZM120.572 112.467C120.572 112.102 120.54 111.712 120.475 111.295C120.416 110.878 120.318 110.53 120.182 110.25C120.032 109.951 119.827 109.706 119.566 109.518C119.306 109.329 118.971 109.234 118.561 109.234C117.877 109.234 117.307 109.521 116.852 110.094C116.402 110.66 116.158 111.451 116.119 112.467H120.572ZM134.615 117.984C134.192 118.16 133.792 118.307 133.414 118.424C133.036 118.548 132.574 118.609 132.027 118.609C131.22 118.609 130.65 118.408 130.318 118.004C129.993 117.594 129.83 117.018 129.83 116.275V109.752H128.092V108.814H129.869V105.816H131.646V108.814H134.41V109.752H131.666V115.133C131.666 115.536 131.679 115.875 131.705 116.148C131.738 116.415 131.809 116.65 131.92 116.852C132.024 117.04 132.18 117.184 132.389 117.281C132.597 117.379 132.877 117.428 133.229 117.428C133.391 117.428 133.629 117.415 133.941 117.389C134.26 117.356 134.485 117.317 134.615 117.271V117.984ZM142.955 110.016C142.955 110.348 142.874 110.644 142.711 110.904C142.548 111.158 142.298 111.285 141.959 111.285C141.594 111.285 141.314 111.191 141.119 111.002C140.93 110.813 140.836 110.605 140.836 110.377C140.836 110.234 140.846 110.104 140.865 109.986C140.891 109.869 140.914 109.752 140.934 109.635C140.628 109.635 140.27 109.758 139.859 110.006C139.449 110.253 139.101 110.605 138.814 111.061V116.666C138.814 116.894 138.857 117.079 138.941 117.223C139.033 117.366 139.173 117.473 139.361 117.545C139.524 117.61 139.732 117.659 139.986 117.691C140.247 117.724 140.471 117.747 140.66 117.76V118.404H135.582V117.76C135.732 117.747 135.885 117.734 136.041 117.721C136.204 117.708 136.344 117.682 136.461 117.643C136.643 117.584 136.777 117.483 136.861 117.34C136.952 117.19 136.998 116.998 136.998 116.764V110.816C136.998 110.615 136.949 110.416 136.852 110.221C136.76 110.025 136.63 109.869 136.461 109.752C136.337 109.674 136.191 109.618 136.021 109.586C135.852 109.547 135.67 109.521 135.475 109.508V108.873L138.678 108.658L138.814 108.795V110.152H138.863C139.267 109.625 139.716 109.225 140.211 108.951C140.706 108.678 141.158 108.541 141.568 108.541C141.979 108.541 142.311 108.674 142.564 108.941C142.825 109.208 142.955 109.566 142.955 110.016ZM152.906 118.229C152.6 118.339 152.33 118.427 152.096 118.492C151.868 118.564 151.607 118.6 151.314 118.6C150.807 118.6 150.4 118.482 150.094 118.248C149.794 118.007 149.602 117.659 149.518 117.203H149.459C149.036 117.672 148.58 118.03 148.092 118.277C147.61 118.525 147.027 118.648 146.344 118.648C145.621 118.648 145.025 118.427 144.557 117.984C144.094 117.542 143.863 116.962 143.863 116.246C143.863 115.875 143.915 115.543 144.02 115.25C144.124 114.957 144.28 114.693 144.488 114.459C144.651 114.264 144.866 114.091 145.133 113.941C145.4 113.785 145.65 113.661 145.885 113.57C146.178 113.46 146.77 113.255 147.662 112.955C148.561 112.656 149.166 112.421 149.479 112.252V111.285C149.479 111.201 149.459 111.038 149.42 110.797C149.387 110.556 149.312 110.328 149.195 110.113C149.065 109.872 148.88 109.664 148.639 109.488C148.404 109.306 148.069 109.215 147.633 109.215C147.333 109.215 147.053 109.267 146.793 109.371C146.539 109.469 146.36 109.573 146.256 109.684C146.256 109.814 146.285 110.006 146.344 110.26C146.409 110.514 146.441 110.748 146.441 110.963C146.441 111.191 146.337 111.399 146.129 111.588C145.927 111.777 145.644 111.871 145.279 111.871C144.954 111.871 144.713 111.757 144.557 111.529C144.407 111.295 144.332 111.035 144.332 110.748C144.332 110.449 144.436 110.162 144.645 109.889C144.859 109.615 145.136 109.371 145.475 109.156C145.768 108.974 146.122 108.821 146.539 108.697C146.956 108.567 147.363 108.502 147.76 108.502C148.307 108.502 148.782 108.541 149.186 108.619C149.596 108.691 149.967 108.85 150.299 109.098C150.631 109.339 150.882 109.667 151.051 110.084C151.227 110.494 151.314 111.025 151.314 111.676C151.314 112.607 151.305 113.434 151.285 114.156C151.266 114.872 151.256 115.657 151.256 116.51C151.256 116.764 151.298 116.965 151.383 117.115C151.474 117.265 151.611 117.392 151.793 117.496C151.891 117.555 152.044 117.587 152.252 117.594C152.467 117.6 152.685 117.604 152.906 117.604V118.229ZM149.498 113.072C148.945 113.235 148.46 113.395 148.043 113.551C147.626 113.707 147.239 113.902 146.881 114.137C146.555 114.358 146.298 114.622 146.109 114.928C145.921 115.227 145.826 115.585 145.826 116.002C145.826 116.542 145.966 116.939 146.246 117.193C146.533 117.447 146.894 117.574 147.33 117.574C147.792 117.574 148.199 117.464 148.551 117.242C148.902 117.014 149.199 116.747 149.439 116.441L149.498 113.072ZM164.498 118.404H159.781V117.76C159.931 117.747 160.094 117.734 160.27 117.721C160.452 117.708 160.602 117.682 160.719 117.643C160.901 117.584 161.035 117.483 161.119 117.34C161.21 117.19 161.256 116.998 161.256 116.764V111.812C161.256 111.129 161.093 110.602 160.768 110.23C160.449 109.859 160.058 109.674 159.596 109.674C159.251 109.674 158.935 109.729 158.648 109.84C158.362 109.944 158.108 110.074 157.887 110.23C157.672 110.38 157.499 110.543 157.369 110.719C157.245 110.888 157.154 111.025 157.096 111.129V116.666C157.096 116.887 157.141 117.07 157.232 117.213C157.324 117.356 157.46 117.467 157.643 117.545C157.779 117.61 157.926 117.659 158.082 117.691C158.245 117.724 158.411 117.747 158.58 117.76V118.404H153.863V117.76C154.013 117.747 154.166 117.734 154.322 117.721C154.485 117.708 154.625 117.682 154.742 117.643C154.924 117.584 155.058 117.483 155.143 117.34C155.234 117.19 155.279 116.998 155.279 116.764V110.816C155.279 110.595 155.23 110.393 155.133 110.211C155.042 110.022 154.911 109.869 154.742 109.752C154.618 109.674 154.472 109.618 154.303 109.586C154.133 109.547 153.951 109.521 153.756 109.508V108.873L156.959 108.658L157.096 108.795V110.152H157.145C157.301 109.996 157.496 109.811 157.73 109.596C157.965 109.374 158.186 109.195 158.395 109.059C158.635 108.902 158.922 108.772 159.254 108.668C159.586 108.564 159.96 108.512 160.377 108.512C161.301 108.512 161.985 108.801 162.428 109.381C162.877 109.954 163.102 110.719 163.102 111.676V116.686C163.102 116.913 163.141 117.099 163.219 117.242C163.297 117.379 163.43 117.486 163.619 117.564C163.775 117.63 163.909 117.675 164.02 117.701C164.137 117.727 164.296 117.747 164.498 117.76V118.404ZM172.037 113.688C172.304 113.922 172.509 114.192 172.652 114.498C172.796 114.804 172.867 115.178 172.867 115.621C172.867 116.513 172.532 117.242 171.861 117.809C171.197 118.375 170.335 118.658 169.273 118.658C168.714 118.658 168.196 118.557 167.721 118.355C167.252 118.154 166.917 117.968 166.715 117.799L166.52 118.434H165.787L165.689 115.084H166.363C166.415 115.338 166.526 115.634 166.695 115.973C166.865 116.311 167.07 116.617 167.311 116.891C167.564 117.177 167.867 117.418 168.219 117.613C168.577 117.809 168.977 117.906 169.42 117.906C170.045 117.906 170.527 117.766 170.865 117.486C171.204 117.2 171.373 116.793 171.373 116.266C171.373 115.992 171.318 115.758 171.207 115.562C171.103 115.361 170.947 115.185 170.738 115.035C170.523 114.885 170.26 114.752 169.947 114.635C169.635 114.511 169.286 114.391 168.902 114.273C168.596 114.182 168.255 114.059 167.877 113.902C167.506 113.74 167.187 113.551 166.92 113.336C166.633 113.108 166.399 112.828 166.217 112.496C166.035 112.164 165.943 111.773 165.943 111.324C165.943 110.536 166.236 109.869 166.822 109.322C167.408 108.775 168.193 108.502 169.176 108.502C169.553 108.502 169.938 108.551 170.328 108.648C170.725 108.746 171.048 108.863 171.295 109L171.52 108.492H172.223L172.369 111.588H171.695C171.559 110.898 171.262 110.338 170.807 109.908C170.357 109.472 169.807 109.254 169.156 109.254C168.622 109.254 168.202 109.387 167.896 109.654C167.59 109.921 167.438 110.243 167.438 110.621C167.438 110.914 167.486 111.158 167.584 111.354C167.688 111.549 167.841 111.715 168.043 111.852C168.238 111.982 168.482 112.105 168.775 112.223C169.075 112.333 169.443 112.46 169.879 112.604C170.309 112.74 170.712 112.9 171.09 113.082C171.474 113.264 171.79 113.466 172.037 113.688ZM183.453 118.229C183.147 118.339 182.877 118.427 182.643 118.492C182.415 118.564 182.154 118.6 181.861 118.6C181.354 118.6 180.947 118.482 180.641 118.248C180.341 118.007 180.149 117.659 180.064 117.203H180.006C179.583 117.672 179.127 118.03 178.639 118.277C178.157 118.525 177.574 118.648 176.891 118.648C176.168 118.648 175.572 118.427 175.104 117.984C174.641 117.542 174.41 116.962 174.41 116.246C174.41 115.875 174.462 115.543 174.566 115.25C174.671 114.957 174.827 114.693 175.035 114.459C175.198 114.264 175.413 114.091 175.68 113.941C175.947 113.785 176.197 113.661 176.432 113.57C176.725 113.46 177.317 113.255 178.209 112.955C179.107 112.656 179.713 112.421 180.025 112.252V111.285C180.025 111.201 180.006 111.038 179.967 110.797C179.934 110.556 179.859 110.328 179.742 110.113C179.612 109.872 179.426 109.664 179.186 109.488C178.951 109.306 178.616 109.215 178.18 109.215C177.88 109.215 177.6 109.267 177.34 109.371C177.086 109.469 176.907 109.573 176.803 109.684C176.803 109.814 176.832 110.006 176.891 110.26C176.956 110.514 176.988 110.748 176.988 110.963C176.988 111.191 176.884 111.399 176.676 111.588C176.474 111.777 176.191 111.871 175.826 111.871C175.501 111.871 175.26 111.757 175.104 111.529C174.954 111.295 174.879 111.035 174.879 110.748C174.879 110.449 174.983 110.162 175.191 109.889C175.406 109.615 175.683 109.371 176.021 109.156C176.314 108.974 176.669 108.821 177.086 108.697C177.503 108.567 177.91 108.502 178.307 108.502C178.854 108.502 179.329 108.541 179.732 108.619C180.143 108.691 180.514 108.85 180.846 109.098C181.178 109.339 181.428 109.667 181.598 110.084C181.773 110.494 181.861 111.025 181.861 111.676C181.861 112.607 181.852 113.434 181.832 114.156C181.812 114.872 181.803 115.657 181.803 116.51C181.803 116.764 181.845 116.965 181.93 117.115C182.021 117.265 182.158 117.392 182.34 117.496C182.438 117.555 182.59 117.587 182.799 117.594C183.014 117.6 183.232 117.604 183.453 117.604V118.229ZM180.045 113.072C179.492 113.235 179.007 113.395 178.59 113.551C178.173 113.707 177.786 113.902 177.428 114.137C177.102 114.358 176.845 114.622 176.656 114.928C176.467 115.227 176.373 115.585 176.373 116.002C176.373 116.542 176.513 116.939 176.793 117.193C177.079 117.447 177.441 117.574 177.877 117.574C178.339 117.574 178.746 117.464 179.098 117.242C179.449 117.014 179.745 116.747 179.986 116.441L180.045 113.072ZM188.863 118.658C187.47 118.658 186.38 118.196 185.592 117.271C184.804 116.347 184.41 115.107 184.41 113.551C184.41 112.874 184.514 112.242 184.723 111.656C184.938 111.064 185.247 110.527 185.65 110.045C186.035 109.583 186.516 109.212 187.096 108.932C187.675 108.645 188.307 108.502 188.99 108.502C189.934 108.502 190.702 108.73 191.295 109.186C191.887 109.635 192.184 110.25 192.184 111.031C192.184 111.357 192.105 111.646 191.949 111.9C191.793 112.148 191.536 112.271 191.178 112.271C190.794 112.271 190.494 112.174 190.279 111.979C190.071 111.783 189.967 111.565 189.967 111.324C189.967 111.031 190.006 110.732 190.084 110.426C190.162 110.113 190.208 109.885 190.221 109.742C190.104 109.54 189.928 109.407 189.693 109.342C189.465 109.27 189.218 109.234 188.951 109.234C188.639 109.234 188.339 109.303 188.053 109.439C187.773 109.57 187.499 109.814 187.232 110.172C186.992 110.497 186.796 110.937 186.646 111.49C186.497 112.044 186.422 112.704 186.422 113.473C186.422 114.684 186.689 115.673 187.223 116.441C187.763 117.203 188.469 117.584 189.342 117.584C189.973 117.584 190.501 117.431 190.924 117.125C191.354 116.819 191.751 116.36 192.115 115.748L192.74 116.158C192.311 116.926 191.744 117.535 191.041 117.984C190.338 118.434 189.612 118.658 188.863 118.658ZM199.439 117.984C199.016 118.16 198.616 118.307 198.238 118.424C197.861 118.548 197.398 118.609 196.852 118.609C196.044 118.609 195.475 118.408 195.143 118.004C194.817 117.594 194.654 117.018 194.654 116.275V109.752H192.916V108.814H194.693V105.816H196.471V108.814H199.234V109.752H196.49V115.133C196.49 115.536 196.503 115.875 196.529 116.148C196.562 116.415 196.633 116.65 196.744 116.852C196.848 117.04 197.005 117.184 197.213 117.281C197.421 117.379 197.701 117.428 198.053 117.428C198.215 117.428 198.453 117.415 198.766 117.389C199.085 117.356 199.309 117.317 199.439 117.271V117.984ZM205.084 118.404H200.426V117.76C200.576 117.747 200.729 117.734 200.885 117.721C201.048 117.708 201.188 117.682 201.305 117.643C201.487 117.584 201.62 117.483 201.705 117.34C201.796 117.19 201.842 116.998 201.842 116.764V110.816C201.842 110.608 201.793 110.419 201.695 110.25C201.604 110.074 201.474 109.928 201.305 109.811C201.181 109.732 201.002 109.667 200.768 109.615C200.533 109.557 200.318 109.521 200.123 109.508V108.873L203.521 108.658L203.658 108.795V116.646C203.658 116.874 203.701 117.063 203.785 117.213C203.876 117.363 204.016 117.473 204.205 117.545C204.348 117.604 204.488 117.652 204.625 117.691C204.762 117.724 204.915 117.747 205.084 117.76V118.404ZM203.854 104.859C203.854 105.23 203.73 105.556 203.482 105.836C203.242 106.109 202.942 106.246 202.584 106.246C202.252 106.246 201.962 106.116 201.715 105.855C201.474 105.589 201.354 105.286 201.354 104.947C201.354 104.589 201.474 104.277 201.715 104.01C201.962 103.743 202.252 103.609 202.584 103.609C202.955 103.609 203.258 103.736 203.492 103.99C203.733 104.238 203.854 104.527 203.854 104.859ZM215.65 113.492C215.65 114.169 215.543 114.837 215.328 115.494C215.113 116.145 214.807 116.699 214.41 117.154C213.961 117.675 213.44 118.062 212.848 118.316C212.255 118.57 211.591 118.697 210.855 118.697C210.243 118.697 209.661 118.583 209.107 118.355C208.554 118.121 208.062 117.783 207.633 117.34C207.21 116.904 206.871 116.373 206.617 115.748C206.37 115.117 206.246 114.41 206.246 113.629C206.246 112.125 206.682 110.895 207.555 109.938C208.434 108.98 209.583 108.502 211.002 108.502C212.35 108.502 213.46 108.958 214.332 109.869C215.211 110.774 215.65 111.982 215.65 113.492ZM213.629 113.512C213.629 113.023 213.58 112.509 213.482 111.969C213.385 111.422 213.238 110.96 213.043 110.582C212.835 110.178 212.561 109.856 212.223 109.615C211.884 109.368 211.471 109.244 210.982 109.244C210.481 109.244 210.051 109.368 209.693 109.615C209.342 109.863 209.055 110.201 208.834 110.631C208.626 111.028 208.479 111.48 208.395 111.988C208.31 112.496 208.268 112.988 208.268 113.463C208.268 114.088 208.316 114.667 208.414 115.201C208.518 115.729 208.681 116.201 208.902 116.617C209.124 117.034 209.4 117.363 209.732 117.604C210.071 117.838 210.488 117.955 210.982 117.955C211.796 117.955 212.441 117.561 212.916 116.773C213.391 115.986 213.629 114.898 213.629 113.512ZM227.682 118.404H222.965V117.76C223.115 117.747 223.277 117.734 223.453 117.721C223.635 117.708 223.785 117.682 223.902 117.643C224.085 117.584 224.218 117.483 224.303 117.34C224.394 117.19 224.439 116.998 224.439 116.764V111.812C224.439 111.129 224.277 110.602 223.951 110.23C223.632 109.859 223.242 109.674 222.779 109.674C222.434 109.674 222.118 109.729 221.832 109.84C221.546 109.944 221.292 110.074 221.07 110.23C220.855 110.38 220.683 110.543 220.553 110.719C220.429 110.888 220.338 111.025 220.279 111.129V116.666C220.279 116.887 220.325 117.07 220.416 117.213C220.507 117.356 220.644 117.467 220.826 117.545C220.963 117.61 221.109 117.659 221.266 117.691C221.428 117.724 221.594 117.747 221.764 117.76V118.404H217.047V117.76C217.197 117.747 217.35 117.734 217.506 117.721C217.669 117.708 217.809 117.682 217.926 117.643C218.108 117.584 218.242 117.483 218.326 117.34C218.417 117.19 218.463 116.998 218.463 116.764V110.816C218.463 110.595 218.414 110.393 218.316 110.211C218.225 110.022 218.095 109.869 217.926 109.752C217.802 109.674 217.656 109.618 217.486 109.586C217.317 109.547 217.135 109.521 216.939 109.508V108.873L220.143 108.658L220.279 108.795V110.152H220.328C220.484 109.996 220.68 109.811 220.914 109.596C221.148 109.374 221.37 109.195 221.578 109.059C221.819 108.902 222.105 108.772 222.438 108.668C222.77 108.564 223.144 108.512 223.561 108.512C224.485 108.512 225.169 108.801 225.611 109.381C226.061 109.954 226.285 110.719 226.285 111.676V116.686C226.285 116.913 226.324 117.099 226.402 117.242C226.48 117.379 226.614 117.486 226.803 117.564C226.959 117.63 227.092 117.675 227.203 117.701C227.32 117.727 227.48 117.747 227.682 117.76V118.404Z" fill="#25387C"/>
</svg>
