<svg width="685" height="567" viewBox="0 0 685 567" fill="none" xmlns="http://www.w3.org/2000/svg">
<rect x="51" width="159" height="302" rx="8" fill="#B7CFED"/>
<path fill-rule="evenodd" clip-rule="evenodd" d="M117 20C118.105 20 119 19.1046 119 18C119 16.8954 118.105 16 117 16C115.895 16 115 16.8954 115 18C115 19.1046 115.895 20 117 20Z" fill="white"/>
<rect x="124" y="16" width="21" height="4" rx="2" fill="white"/>
<rect x="65" y="28" width="131" height="54" rx="4" fill="white"/>
<g clip-path="url(#clip0)">
<rect x="104" y="44.2" width="73" height="8.1" rx="3" fill="#D9E9FD"/>
<rect x="104" y="57.7" width="49" height="8.1" rx="3" fill="#D9E9FD"/>
</g>
<path fill-rule="evenodd" clip-rule="evenodd" d="M86 67C92.6274 67 98 61.6274 98 55C98 48.3726 92.6274 43 86 43C79.3726 43 74 48.3726 74 55C74 61.6274 79.3726 67 86 67Z" fill="#428FF7"/>
<rect x="65" y="90" width="131" height="42" rx="4" fill="white"/>
<g clip-path="url(#clip1)">
<rect x="104" y="102.6" width="73" height="6.3" rx="3" fill="#D9E9FD"/>
<rect x="104" y="113.1" width="49" height="6.3" rx="3" fill="#D9E9FD"/>
</g>
<path fill-rule="evenodd" clip-rule="evenodd" d="M86 123C92.6274 123 98 117.627 98 111C98 104.373 92.6274 99 86 99C79.3726 99 74 104.373 74 111C74 117.627 79.3726 123 86 123Z" fill="#D9E9FD"/>
<rect x="65" y="140" width="131" height="42" rx="4" fill="white"/>
<g clip-path="url(#clip2)">
<rect x="104" y="152.6" width="73" height="6.3" rx="3" fill="#D9E9FD"/>
<rect x="104" y="163.1" width="49" height="6.3" rx="3" fill="#D9E9FD"/>
</g>
<path fill-rule="evenodd" clip-rule="evenodd" d="M86 173C92.6274 173 98 167.627 98 161C98 154.373 92.6274 149 86 149C79.3726 149 74 154.373 74 161C74 167.627 79.3726 173 86 173Z" fill="#428FF7"/>
<rect x="65" y="190" width="131" height="42" rx="4" fill="white"/>
<g clip-path="url(#clip3)">
<rect x="104" y="202.6" width="73" height="6.3" rx="3" fill="#D9E9FD"/>
<rect x="104" y="213.1" width="49" height="6.3" rx="3" fill="#D9E9FD"/>
</g>
<path fill-rule="evenodd" clip-rule="evenodd" d="M86 223C92.6274 223 98 217.627 98 211C98 204.373 92.6274 199 86 199C79.3726 199 74 204.373 74 211C74 217.627 79.3726 223 86 223Z" fill="#D9E9FD"/>
<rect x="117" y="26" width="159" height="302" rx="8" fill="#D9E9FD"/>
<path fill-rule="evenodd" clip-rule="evenodd" d="M196 309C204.284 309 211 302.284 211 294C211 285.716 204.284 279 196 279C187.716 279 181 285.716 181 294C181 302.284 187.716 309 196 309Z" fill="white"/>
<path fill-rule="evenodd" clip-rule="evenodd" d="M183 46C184.105 46 185 45.1046 185 44C185 42.8954 184.105 42 183 42C181.895 42 181 42.8954 181 44C181 45.1046 181.895 46 183 46Z" fill="white"/>
<rect x="190" y="42" width="21" height="4" rx="2" fill="white"/>
<rect x="131" y="54" width="131" height="54" rx="4" fill="white"/>
<g clip-path="url(#clip4)">
<rect x="140" y="70.2" width="73" height="8.1" rx="3" fill="#D9E9FD"/>
<rect x="140" y="83.7" width="49" height="8.1" rx="3" fill="#D9E9FD"/>
</g>
<path fill-rule="evenodd" clip-rule="evenodd" d="M248 88C251.866 88 255 84.866 255 81C255 77.134 251.866 74 248 74C244.134 74 241 77.134 241 81C241 84.866 244.134 88 248 88Z" fill="#DDE3E9"/>
<path fill-rule="evenodd" clip-rule="evenodd" d="M248 84C249.657 84 251 82.6569 251 81C251 79.3431 249.657 78 248 78C246.343 78 245 79.3431 245 81C245 82.6569 246.343 84 248 84Z" fill="#F2F2F2"/>
<rect x="131" y="116" width="131" height="42" rx="4" fill="white"/>
<g clip-path="url(#clip5)">
<rect x="170" y="128.6" width="73" height="6.3" rx="3" fill="#D9E9FD"/>
<rect x="170" y="139.1" width="49" height="6.3" rx="3" fill="#D9E9FD"/>
</g>
<path fill-rule="evenodd" clip-rule="evenodd" d="M152 149C158.627 149 164 143.627 164 137C164 130.373 158.627 125 152 125C145.373 125 140 130.373 140 137C140 143.627 145.373 149 152 149Z" fill="#D9E9FD"/>
<rect x="131" y="166" width="131" height="42" rx="4" fill="white"/>
<g clip-path="url(#clip6)">
<rect x="140" y="178.6" width="73" height="6.3" rx="3" fill="#D9E9FD"/>
<rect x="140" y="189.1" width="49" height="6.3" rx="3" fill="#428FF7"/>
</g>
<path fill-rule="evenodd" clip-rule="evenodd" d="M248 194C251.866 194 255 190.866 255 187C255 183.134 251.866 180 248 180C244.134 180 241 183.134 241 187C241 190.866 244.134 194 248 194Z" fill="#DDE3E9"/>
<path fill-rule="evenodd" clip-rule="evenodd" d="M248 190C249.657 190 251 188.657 251 187C251 185.343 249.657 184 248 184C246.343 184 245 185.343 245 187C245 188.657 246.343 190 248 190Z" fill="#F2F2F2"/>
<rect x="131" y="216" width="131" height="42" rx="4" fill="white"/>
<g clip-path="url(#clip7)">
<rect x="170" y="228.6" width="73" height="6.3" rx="3" fill="#DDE3E9"/>
<rect x="170" y="239.1" width="49" height="6.3" rx="3" fill="#DDE3E9"/>
</g>
<path fill-rule="evenodd" clip-rule="evenodd" d="M152 249C158.627 249 164 243.627 164 237C164 230.373 158.627 225 152 225C145.373 225 140 230.373 140 237C140 243.627 145.373 249 152 249Z" fill="#D9E9FD"/>
<rect x="183" y="51" width="335" height="346" rx="8" fill="#F2F2F2"/>
<rect x="432" y="94" width="70" height="81" rx="8" fill="white"/>
<path fill-rule="evenodd" clip-rule="evenodd" d="M467 141C475.837 141 483 133.837 483 125C483 116.163 475.837 109 467 109C458.163 109 451 116.163 451 125C451 133.837 458.163 141 467 141Z" fill="#D9E9FD"/>
<rect x="442" y="145" width="50" height="6" rx="3" fill="#D9E9FD"/>
<rect x="450" y="155" width="34" height="6" rx="3" fill="#D9E9FD"/>
<path d="M183 59C183 54.5817 186.582 51 191 51H510C514.418 51 518 54.5817 518 59V78H183V59Z" fill="#9AC6FC"/>
<path fill-rule="evenodd" clip-rule="evenodd" d="M196 69C198.209 69 200 67.2091 200 65C200 62.7909 198.209 61 196 61C193.791 61 192 62.7909 192 65C192 67.2091 193.791 69 196 69Z" fill="#F2F2F2"/>
<path fill-rule="evenodd" clip-rule="evenodd" d="M208 69C210.209 69 212 67.2091 212 65C212 62.7909 210.209 61 208 61C205.791 61 204 62.7909 204 65C204 67.2091 205.791 69 208 69Z" fill="#F2F2F2"/>
<path fill-rule="evenodd" clip-rule="evenodd" d="M220 69C222.209 69 224 67.2091 224 65C224 62.7909 222.209 61 220 61C217.791 61 216 62.7909 216 65C216 67.2091 217.791 69 220 69Z" fill="#F2F2F2"/>
<rect x="432" y="183" width="70" height="194" rx="8" fill="white"/>
<rect x="450" y="201" width="34" height="26" rx="4" fill="#D9E9FD"/>
<rect x="450" y="235" width="34" height="25" rx="4" fill="#428FF7"/>
<rect x="450" y="268" width="34" height="25" rx="4" fill="#DDE3E9"/>
<rect x="450" y="334" width="34" height="25" rx="4" fill="#D9E9FD"/>
<rect x="450" y="301" width="34" height="25" rx="4" fill="#9AC6FC"/>
<rect x="199" y="95" width="225" height="47" rx="4" fill="white"/>
<g clip-path="url(#clip8)">
<rect x="208" y="109.1" width="167" height="7.05" rx="3" fill="#D9E9FD"/>
<rect x="208" y="120.85" width="112.096" height="7.05" rx="3" fill="#D9E9FD"/>
</g>
<path fill-rule="evenodd" clip-rule="evenodd" d="M399.954 125.5C403.82 125.5 406.954 122.366 406.954 118.5C406.954 114.634 403.82 111.5 399.954 111.5C396.088 111.5 392.954 114.634 392.954 118.5C392.954 122.366 396.088 125.5 399.954 125.5Z" fill="#DDE3E9"/>
<path fill-rule="evenodd" clip-rule="evenodd" d="M399.954 121.5C401.611 121.5 402.954 120.157 402.954 118.5C402.954 116.843 401.611 115.5 399.954 115.5C398.297 115.5 396.954 116.843 396.954 118.5C396.954 120.157 398.297 121.5 399.954 121.5Z" fill="#F2F2F2"/>
<rect x="199" y="150" width="225" height="39" rx="4" fill="white"/>
<g clip-path="url(#clip9)">
<rect x="208" y="161.7" width="167" height="5.85" rx="2.925" fill="#D9E9FD"/>
<rect x="208" y="171.45" width="112.096" height="5.85" rx="2.925" fill="#D9E9FD"/>
</g>
<path fill-rule="evenodd" clip-rule="evenodd" d="M399.954 176.5C403.82 176.5 406.954 173.366 406.954 169.5C406.954 165.634 403.82 162.5 399.954 162.5C396.088 162.5 392.954 165.634 392.954 169.5C392.954 173.366 396.088 176.5 399.954 176.5Z" fill="#DDE3E9"/>
<path fill-rule="evenodd" clip-rule="evenodd" d="M399.954 172.5C401.611 172.5 402.954 171.157 402.954 169.5C402.954 167.843 401.611 166.5 399.954 166.5C398.297 166.5 396.954 167.843 396.954 169.5C396.954 171.157 398.297 172.5 399.954 172.5Z" fill="#F2F2F2"/>
<rect x="199" y="197" width="225" height="39" rx="4" fill="white"/>
<g clip-path="url(#clip10)">
<rect x="208" y="208.7" width="167" height="5.85" rx="2.925" fill="#D9E9FD"/>
<rect x="208" y="218.45" width="112.096" height="5.85" rx="2.925" fill="#D9E9FD"/>
</g>
<path fill-rule="evenodd" clip-rule="evenodd" d="M399.954 223.5C403.82 223.5 406.954 220.366 406.954 216.5C406.954 212.634 403.82 209.5 399.954 209.5C396.088 209.5 392.954 212.634 392.954 216.5C392.954 220.366 396.088 223.5 399.954 223.5Z" fill="#DDE3E9"/>
<path fill-rule="evenodd" clip-rule="evenodd" d="M399.954 219.5C401.611 219.5 402.954 218.157 402.954 216.5C402.954 214.843 401.611 213.5 399.954 213.5C398.297 213.5 396.954 214.843 396.954 216.5C396.954 218.157 398.297 219.5 399.954 219.5Z" fill="#428FF7"/>
<rect x="199" y="338" width="225" height="39" rx="4" fill="white"/>
<g clip-path="url(#clip11)">
<rect x="208" y="349.7" width="167" height="5.85" rx="2.925" fill="#D9E9FD"/>
<rect x="208" y="359.45" width="112.096" height="5.85" rx="2.925" fill="#D9E9FD"/>
</g>
<path fill-rule="evenodd" clip-rule="evenodd" d="M399.954 364.5C403.82 364.5 406.954 361.366 406.954 357.5C406.954 353.634 403.82 350.5 399.954 350.5C396.088 350.5 392.954 353.634 392.954 357.5C392.954 361.366 396.088 364.5 399.954 364.5Z" fill="#DDE3E9"/>
<path fill-rule="evenodd" clip-rule="evenodd" d="M399.954 360.5C401.611 360.5 402.954 359.157 402.954 357.5C402.954 355.843 401.611 354.5 399.954 354.5C398.297 354.5 396.954 355.843 396.954 357.5C396.954 359.157 398.297 360.5 399.954 360.5Z" fill="#F2F2F2"/>
<rect x="199" y="291" width="225" height="39" rx="4" fill="white"/>
<g clip-path="url(#clip12)">
<rect x="208" y="302.7" width="167" height="5.85" rx="2.925" fill="#D9E9FD"/>
<rect x="208" y="312.45" width="112.096" height="5.85" rx="2.925" fill="#D9E9FD"/>
</g>
<path fill-rule="evenodd" clip-rule="evenodd" d="M399.954 317.5C403.82 317.5 406.954 314.366 406.954 310.5C406.954 306.634 403.82 303.5 399.954 303.5C396.088 303.5 392.954 306.634 392.954 310.5C392.954 314.366 396.088 317.5 399.954 317.5Z" fill="#DDE3E9"/>
<path fill-rule="evenodd" clip-rule="evenodd" d="M399.954 313.5C401.611 313.5 402.954 312.157 402.954 310.5C402.954 308.843 401.611 307.5 399.954 307.5C398.297 307.5 396.954 308.843 396.954 310.5C396.954 312.157 398.297 313.5 399.954 313.5Z" fill="#F2F2F2"/>
<rect x="199" y="244" width="225" height="39" rx="4" fill="white"/>
<g clip-path="url(#clip13)">
<rect x="208" y="255.7" width="167" height="5.85" rx="2.925" fill="#D9E9FD"/>
<rect x="208" y="265.45" width="112.096" height="5.85" rx="2.925" fill="#D9E9FD"/>
</g>
<path fill-rule="evenodd" clip-rule="evenodd" d="M399.954 270.5C403.82 270.5 406.954 267.366 406.954 263.5C406.954 259.634 403.82 256.5 399.954 256.5C396.088 256.5 392.954 259.634 392.954 263.5C392.954 267.366 396.088 270.5 399.954 270.5Z" fill="#D9E9FD"/>
<path fill-rule="evenodd" clip-rule="evenodd" d="M399.954 266.5C401.611 266.5 402.954 265.157 402.954 263.5C402.954 261.843 401.611 260.5 399.954 260.5C398.297 260.5 396.954 261.843 396.954 263.5C396.954 265.157 398.297 266.5 399.954 266.5Z" fill="#F2F2F2"/>
<g clip-path="url(#clip14)">
<path fill-rule="evenodd" clip-rule="evenodd" d="M252.782 329.46L219.053 339.544L227.671 353.853L253.893 338.472C266.136 337.75 271.921 336.548 271.246 334.867C270.678 333.449 269.326 333.207 268.08 332.984C267.11 332.811 266.205 332.648 265.785 331.951C264.826 330.359 268.184 326.217 271.539 322.422C274.894 318.626 272.208 318.449 270.585 318.752C265.008 321.009 259.073 324.578 252.782 329.46ZM106.835 333.319L89.1734 327.515C72.9358 358.268 63.4463 375.048 60.7046 377.854C58.6942 379.912 47.2967 384.45 39.6847 386.686C36.6294 387.583 36.9522 390.104 37.7072 390.99C42.4691 396.582 47.6715 395.466 53.3345 394.251C54.974 393.899 56.6521 393.539 58.3692 393.331C62.8138 392.793 63.8549 395.165 64.8388 397.408C65.7099 399.393 66.5362 401.276 69.64 400.946C69.5753 400.339 69.4879 399.657 69.3935 398.92C68.7838 394.16 67.8845 387.141 70.9441 383.503C72.5142 381.635 84.478 364.907 106.835 333.319Z" fill="#FFDBB4"/>
<path fill-rule="evenodd" clip-rule="evenodd" d="M164.765 268.257L172.564 267.888C187.226 286.022 189.269 325.513 199.728 331.991C209.617 338.116 225.052 335.259 243.492 331.107L247.422 343.821C229.247 359.162 193.26 369.589 180.426 359.538C159.907 343.468 160.646 295.162 164.765 268.257Z" fill="#DB2721"/>
<path fill-rule="evenodd" clip-rule="evenodd" d="M119.715 359.873C119.715 359.873 165.657 365.514 187.303 368.172C190.391 368.551 190.355 364.033 190.184 361.735C188.211 335.209 171.524 304.828 176.05 267.969L156.929 262.528C137.629 286.404 128.144 317.554 119.715 359.873Z" fill="#DDE3E9"/>
<path fill-rule="evenodd" clip-rule="evenodd" d="M174.306 263.21C180.466 268.601 186.889 271.823 190.22 271.574C198.573 270.949 204.53 241.917 200.411 229.314C196.292 216.71 165.43 206.011 159.749 228.504C157.778 236.31 159.839 243.961 163.721 250.598L147.57 290.011L173.157 294.594L174.306 263.21Z" fill="#FFDBB4"/>
<path fill-rule="evenodd" clip-rule="evenodd" d="M179.796 234.807C182.216 231.586 184.505 229.153 187.387 227.821C198.789 228.599 200.232 226.627 200.593 219.742C198.819 218.329 192.431 215.771 185.181 214.765C181.521 213.509 177.109 213.478 172.776 215.027C167.464 216.235 162.865 219.196 160.594 225.072C152.872 236.904 157.582 249.89 164.599 254.609C166.647 252.429 168.446 250.306 170.059 248.269C168.914 247.029 168.251 245.348 168.346 243.531C168.534 239.953 171.591 237.204 175.175 237.392C175.439 237.406 175.698 237.435 175.952 237.479C175.878 241.961 175.749 257.133 177.217 262.482C178.948 268.788 190.862 270.939 195.045 271.158C198.658 271.347 198.714 267.925 198.754 265.472C198.759 265.119 198.765 264.786 198.781 264.486C198.813 263.861 197.999 263.82 197.078 263.773C195.883 263.713 194.509 263.644 194.58 262.275C194.659 260.782 196.785 259.745 198.687 258.818C199.874 258.239 200.974 257.703 201.435 257.125C202.89 255.301 203.481 252.769 201.435 252.662C200.317 252.603 198.749 253.166 196.863 253.844C194.015 254.867 190.442 256.15 186.595 255.949C180.24 255.616 179.801 235.064 179.796 234.807Z" fill="#191847"/>
<path fill-rule="evenodd" clip-rule="evenodd" d="M125.813 356.144C127.418 377.981 230.8 442.271 231.403 444.075C231.805 445.278 199.224 520.102 199.224 520.102L208.261 523.604C208.261 523.604 258.235 444.359 255.668 435.915C251.993 423.826 175.455 356.377 175.455 356.377L125.813 356.144Z" fill="#FFDBB4"/>
<path fill-rule="evenodd" clip-rule="evenodd" d="M201.602 508.837L216.357 514.192C247.469 479.193 259.664 450.317 257.441 435.603C255.217 420.89 177.505 356.198 177.505 356.198L124.755 356.198C126.555 406.768 222.377 444.267 223.659 446.422C224.94 448.577 212.327 469.684 201.602 508.837Z" fill="#2F3676"/>
<path fill-rule="evenodd" clip-rule="evenodd" d="M198.729 518.455C197.879 517.653 196.52 517.665 195.771 518.565C194.564 520.016 192.95 522.106 192.455 523.463C191.632 525.718 190.806 530.319 190.806 530.319C193.43 531.271 237.976 547.436 237.976 547.436C237.976 547.436 242.027 542.042 238.242 540.122C234.457 538.201 231.979 536.861 231.979 536.861L213.693 519.238C213.288 518.848 212.64 518.869 212.26 519.284L209.683 522.097C209.683 522.097 205.393 522.472 203.1 521.64C201.766 521.156 199.986 519.639 198.729 518.455Z" fill="#E4E4E4"/>
<path fill-rule="evenodd" clip-rule="evenodd" d="M137.7 356.144L91.646 466.374L46.3822 559.564H57.0614L173.9 356.144H137.7Z" fill="#FFDBB4"/>
<path fill-rule="evenodd" clip-rule="evenodd" d="M48.4261 554.364C47.3527 553.901 46.0812 554.376 45.6863 555.476C45.0492 557.251 44.2499 559.766 44.2499 561.21C44.2499 563.61 45.052 568.215 45.052 568.215C47.8447 568.215 95.2496 568.215 95.2496 568.215C95.2496 568.215 97.2063 561.765 92.9906 561.251C88.7749 560.737 85.9864 560.323 85.9864 560.323L62.7568 549.998C62.2428 549.769 61.6415 550.01 61.4266 550.53L59.9701 554.052C59.9701 554.052 56.0675 555.867 53.6275 555.867C52.2078 555.867 50.0131 555.048 48.4261 554.364Z" fill="#E4E4E4"/>
<path fill-rule="evenodd" clip-rule="evenodd" d="M50.4697 540.205L74.199 544.641C92.5465 517.748 169.331 407.478 177.75 356.144H124.923C96.8088 393.253 67.9586 512.867 50.4697 540.205Z" fill="#5C63AB"/>
<path fill-rule="evenodd" clip-rule="evenodd" d="M155.894 262.401L155.671 262.373C108.645 283.87 77.1043 322.27 61.0505 377.575L74.8777 382.081C85.6005 372.333 99.3723 355.916 116.193 332.829C110.133 347.237 105.167 362.166 102.427 376.524L163.266 383.994C178.688 355.765 163.39 263.321 163.39 263.321L159.19 262.805L155.894 262.401Z" fill="#FF4133"/>
</g>
<path fill-rule="evenodd" clip-rule="evenodd" d="M549.287 208.37C541.976 210.481 535.3 210.659 532.598 209.132C525.822 205.303 532.295 178.468 540.743 169.468C549.191 160.469 579.372 163.647 575.253 184.859C573.823 192.221 569.064 197.857 563.175 201.92L561.167 241.538L537.84 235.288L549.287 208.37Z" fill="#FFDBB4"/>
<path fill-rule="evenodd" clip-rule="evenodd" d="M537.277 173.597C537.873 172.297 538.843 170.935 539.644 169.769C540.676 168.265 541.967 167.005 543.323 165.855C545.877 163.691 548.73 161.883 551.703 160.545C557.134 158.1 563.369 157.521 568.764 159.698C571.489 160.796 573.934 162.604 575.782 165.018C577.451 167.198 578.835 170.121 581.512 171.021C584.424 172.001 587.841 170.112 590.65 169.132C593.816 168.027 597.022 167.463 600.291 167.786C605.767 168.326 610.218 171.42 612.679 176.696C615.297 182.31 616.292 189.781 612.138 195.177C611.366 196.18 610.507 196.97 609.429 197.527C608.44 198.037 607.02 198.481 606.388 199.551C605.716 200.687 606.314 202.546 606.414 203.761C606.557 205.502 606.576 207.294 605.948 208.975C604.916 211.737 602.411 213.967 600.032 215.327C597.612 216.71 594.967 217.167 592.318 216.995C590.55 216.879 588.785 216.604 587.112 216.022C586.282 215.732 585.598 215.297 584.827 214.889C584.078 214.493 583.575 214.586 582.781 214.843C579.09 216.035 575.497 215.917 571.947 214.641C568.95 213.564 565.617 211.874 563.68 209.102C561.528 206.023 562.446 202.818 564.021 199.553C563.237 199.711 561.265 199.411 562.776 198.349C563.375 197.928 564.291 197.937 564.958 197.774C565.735 197.584 566.551 197.288 567.239 196.824C570.018 194.947 569.207 189.396 566.757 187.86C563.118 185.579 560.725 190.956 557.505 191.65C555.653 192.048 554.256 190.451 553.349 188.959C552.134 186.96 551.575 184.593 551.177 182.231C550.85 180.285 550.584 178.33 550.239 176.39C550.078 175.483 549.383 172.857 550.282 172.122C547.594 170.794 544.113 171.127 541.252 172.022C540.069 172.391 539.109 172.891 538.266 173.877C538.086 174.089 537.641 174.742 537.317 174.686C536.715 174.584 537.127 173.923 537.277 173.597Z" fill="#191847"/>
<path fill-rule="evenodd" clip-rule="evenodd" d="M585.852 421.068C585.852 421.068 549.644 431.206 523.374 431.206C497.104 431.206 474.572 415.594 474.572 415.594C474.572 415.594 510.005 405.189 532.933 405.189C555.861 405.189 585.852 421.068 585.852 421.068Z" fill="#1F28CF"/>
<path fill-rule="evenodd" clip-rule="evenodd" d="M502.478 440.947C502.71 440.597 502.907 440.216 503.063 439.803C506.289 431.262 557.97 339.117 563.119 322.27H504.933C501.019 335.079 483.399 415.46 480.92 431.497C473.096 456.794 456.988 538.721 454.932 544.396C452.768 550.367 464.94 556.587 468.184 549.247C473.345 537.567 485.642 505.25 491.117 485.518C496.25 467.018 500.43 450.375 502.478 440.947Z" fill="#FFDBB4"/>
<path fill-rule="evenodd" clip-rule="evenodd" d="M550.081 452.198C573.709 458.175 660.135 468.982 666.065 470.677C672.166 472.421 677.516 459.833 669.975 457.106C657.975 452.767 624.912 442.742 604.865 438.651C588.741 435.36 574.027 432.675 564.149 431.103C564.986 403.326 568.812 336.667 566.304 322.27H514.821C517.225 336.076 537.551 436.811 541.329 446.894C542.528 450.494 546.105 452.085 550.081 452.198Z" fill="#FFDBB4"/>
<path fill-rule="evenodd" clip-rule="evenodd" d="M667.831 456.291C667.553 455.154 668.243 453.984 669.396 453.781C671.513 453.41 674.678 452.964 676.363 453.262C679.044 453.735 684.029 455.537 684.029 455.537C683.48 458.649 674.174 511.483 674.174 511.483C674.174 511.483 666.587 512.393 666.84 507.593C667.094 502.793 667.178 499.604 667.178 499.604L660.176 471.548C660.04 471.002 660.381 470.451 660.931 470.33L665.283 469.372C665.283 469.372 668.077 465.38 668.556 462.66C668.848 461 668.301 458.212 667.831 456.291Z" fill="#E4E4E4"/>
<path fill-rule="evenodd" clip-rule="evenodd" d="M469.1 547.165C470.172 546.693 471.446 547.17 471.845 548.272C472.578 550.294 473.566 553.336 473.566 555.049C473.566 557.773 472.659 563 472.659 563C469.501 563 415.906 563 415.906 563C415.906 563 413.694 555.679 418.46 555.095C423.227 554.512 426.379 554.041 426.379 554.041L452.762 542.268C453.277 542.038 453.88 542.279 454.095 542.8L455.793 546.923C455.793 546.923 460.205 548.984 462.963 548.984C464.646 548.984 467.292 547.962 469.1 547.165Z" fill="#E4E4E4"/>
<path fill-rule="evenodd" clip-rule="evenodd" d="M566.138 322.27C566.138 322.27 532.107 312.524 501.74 322.27C494.696 354.439 477.582 367.207 474.572 416.527C508.783 433.543 551.044 404.391 586.262 420.985C596.324 397.774 582.237 341.876 566.138 322.27Z" fill="#2B44FF"/>
<path fill-rule="evenodd" clip-rule="evenodd" d="M481.394 231.029L512.464 255.951L497.356 267.358L476.403 240.045C463.878 234.091 458.325 230.373 459.746 228.889C460.944 227.638 462.464 227.957 463.864 228.25C464.954 228.479 465.972 228.693 466.708 228.137C468.389 226.868 466.629 221.083 464.724 215.665C462.819 210.247 465.709 211.199 467.281 212.207C472.169 216.948 476.873 223.222 481.394 231.029ZM442.146 251.391L455.789 262.363L452.253 277.388C452.253 277.388 443.714 268.593 435.71 264.759C425.505 259.87 421.565 256.817 417.5 249.202C415.324 245.127 414.211 237.512 417.296 235.639C418.479 234.921 421.923 237.718 425.436 240.572C428.114 242.747 430.832 244.955 432.622 245.665C435.031 246.621 435.31 243.326 435.533 240.693C435.693 238.803 435.824 237.255 436.693 237.862C441.102 238.718 442.146 251.391 442.146 251.391Z" fill="#FFDBB4"/>
<path fill-rule="evenodd" clip-rule="evenodd" d="M529.955 254.704C517.93 252.452 502.314 247.073 487.093 233.158L477.711 246.999C487.464 260.83 502.388 273.412 516.997 275.567C528.51 277.265 536.811 264.426 529.955 254.704Z" fill="#2026A2"/>
<path fill-rule="evenodd" clip-rule="evenodd" d="M544.293 363.389C556.01 363.914 566.776 364.396 572.796 366.725C583.805 345.211 580.52 329.864 577.487 315.696C575.659 307.157 573.923 299.047 575.464 290.273C579.949 264.723 566.391 221.787 563.376 221.256L562.51 221.103L538.616 216.89L535.881 216.407C531.864 232 523.599 248.191 515.282 264.486C513.339 268.292 511.394 272.103 509.499 275.914C488.716 276.931 447.133 253.302 447.133 253.302C447.133 253.302 431.842 274.524 430.945 284.551C454.39 302.609 475.463 312.533 493.63 316.146C491.14 326.875 490.64 337.414 493.404 347.612C497.107 361.276 522.365 362.407 544.293 363.389Z" fill="#1F28CF"/>
<path fill-rule="evenodd" clip-rule="evenodd" d="M425.238 222.549C425.237 222.554 425.237 222.559 425.235 222.565C425.237 222.56 425.236 222.54 425.238 222.549Z" fill="#C5CFD6"/>
<path fill-rule="evenodd" clip-rule="evenodd" d="M425.236 222.557C425.236 222.558 425.235 222.56 425.236 222.562C425.235 222.557 425.24 222.541 425.236 222.557Z" fill="#C5CFD6"/>
<path fill-rule="evenodd" clip-rule="evenodd" d="M425.248 222.47C425.246 222.49 425.242 222.51 425.24 222.53C425.241 222.52 425.243 222.512 425.244 222.501C425.208 222.769 425.23 222.596 425.248 222.47Z" fill="#C5CFD6"/>
<path fill-rule="evenodd" clip-rule="evenodd" d="M425.241 222.531C425.24 222.541 425.238 222.551 425.237 222.56C425.223 222.619 425.241 222.531 425.241 222.531Z" fill="#C5CFD6"/>
<path fill-rule="evenodd" clip-rule="evenodd" d="M425.236 222.557C425.236 222.556 425.236 222.556 425.237 222.555C425.236 222.556 425.236 222.556 425.236 222.557Z" fill="#C5CFD6"/>
<path fill-rule="evenodd" clip-rule="evenodd" d="M425.233 222.565C425.231 222.577 425.249 222.515 425.233 222.565V222.565Z" fill="#C5CFD6"/>
<path fill-rule="evenodd" clip-rule="evenodd" d="M425.236 222.557L425.237 222.555C425.236 222.556 425.237 222.557 425.236 222.557Z" fill="#C5CFD6"/>
<path fill-rule="evenodd" clip-rule="evenodd" d="M446.637 195.851C451.553 194.625 454.545 189.646 453.319 184.729C452.093 179.813 447.114 176.821 442.198 178.047C437.282 179.273 434.29 184.252 435.516 189.168C436.741 194.085 441.721 197.076 446.637 195.851Z" fill="white"/>
<defs>
<clipPath id="clip0">
<rect x="104" y="44.2" width="73" height="21.6" fill="white"/>
</clipPath>
<clipPath id="clip1">
<rect x="104" y="102.6" width="73" height="16.8" fill="white"/>
</clipPath>
<clipPath id="clip2">
<rect x="104" y="152.6" width="73" height="16.8" fill="white"/>
</clipPath>
<clipPath id="clip3">
<rect x="104" y="202.6" width="73" height="16.8" fill="white"/>
</clipPath>
<clipPath id="clip4">
<rect x="140" y="70.2" width="73" height="21.6" fill="white"/>
</clipPath>
<clipPath id="clip5">
<rect x="170" y="128.6" width="73" height="16.8" fill="white"/>
</clipPath>
<clipPath id="clip6">
<rect x="140" y="178.6" width="73" height="16.8" fill="white"/>
</clipPath>
<clipPath id="clip7">
<rect x="170" y="228.6" width="73" height="16.8" fill="white"/>
</clipPath>
<clipPath id="clip8">
<rect x="208" y="109.1" width="167" height="18.8" fill="white"/>
</clipPath>
<clipPath id="clip9">
<rect x="208" y="161.7" width="167" height="15.6" fill="white"/>
</clipPath>
<clipPath id="clip10">
<rect x="208" y="208.7" width="167" height="15.6" fill="white"/>
</clipPath>
<clipPath id="clip11">
<rect x="208" y="349.7" width="167" height="15.6" fill="white"/>
</clipPath>
<clipPath id="clip12">
<rect x="208" y="302.7" width="167" height="15.6" fill="white"/>
</clipPath>
<clipPath id="clip13">
<rect x="208" y="255.7" width="167" height="15.6" fill="white"/>
</clipPath>
<clipPath id="clip14">
<rect y="74" width="533" height="493" fill="white"/>
</clipPath>
</defs>
</svg>
