<svg width="634" height="625" viewBox="0 0 634 625" fill="none" xmlns="http://www.w3.org/2000/svg">
<rect y="62" width="159" height="302" rx="8" fill="#F2F2F2"/>
<path fill-rule="evenodd" clip-rule="evenodd" d="M79 345C87.2843 345 94 338.284 94 330C94 321.716 87.2843 315 79 315C70.7157 315 64 321.716 64 330C64 338.284 70.7157 345 79 345Z" fill="white"/>
<path fill-rule="evenodd" clip-rule="evenodd" d="M66 82C67.1046 82 68 81.1046 68 80C68 78.8954 67.1046 78 66 78C64.8954 78 64 78.8954 64 80C64 81.1046 64.8954 82 66 82Z" fill="white"/>
<rect x="73" y="78" width="21" height="4" rx="2" fill="white"/>
<rect x="14" y="90" width="131" height="54" rx="4" fill="white"/>
<g clip-path="url(#clip0)">
<rect x="53" y="106.2" width="73" height="8.1" rx="3" fill="#DDE3E9"/>
<rect x="53" y="119.7" width="49" height="8.1" rx="3" fill="#DDE3E9"/>
</g>
<path fill-rule="evenodd" clip-rule="evenodd" d="M35 129C41.6274 129 47 123.627 47 117C47 110.373 41.6274 105 35 105C28.3726 105 23 110.373 23 117C23 123.627 28.3726 129 35 129Z" fill="#C5CFD6"/>
<rect x="14" y="152" width="131" height="42" rx="4" fill="white"/>
<g clip-path="url(#clip1)">
<rect x="53" y="164.6" width="73" height="6.3" rx="3" fill="#DDE3E9"/>
<rect x="53" y="175.1" width="49" height="6.3" rx="3" fill="#DDE3E9"/>
</g>
<path fill-rule="evenodd" clip-rule="evenodd" d="M35 185C41.6274 185 47 179.627 47 173C47 166.373 41.6274 161 35 161C28.3726 161 23 166.373 23 173C23 179.627 28.3726 185 35 185Z" fill="#C5CFD6"/>
<rect x="14" y="202" width="131" height="42" rx="4" fill="white"/>
<g clip-path="url(#clip2)">
<rect x="53" y="214.6" width="73" height="6.3" rx="3" fill="#DDE3E9"/>
<rect x="53" y="225.1" width="49" height="6.3" rx="3" fill="#DDE3E9"/>
</g>
<path fill-rule="evenodd" clip-rule="evenodd" d="M35 235C41.6274 235 47 229.627 47 223C47 216.373 41.6274 211 35 211C28.3726 211 23 216.373 23 223C23 229.627 28.3726 235 35 235Z" fill="#AFB9C5"/>
<rect x="14" y="252" width="131" height="42" rx="4" fill="white"/>
<g clip-path="url(#clip3)">
<rect x="53" y="264.6" width="73" height="6.3" rx="3" fill="#DDE3E9"/>
<rect x="53" y="275.1" width="49" height="6.3" rx="3" fill="#DDE3E9"/>
</g>
<path fill-rule="evenodd" clip-rule="evenodd" d="M35 285C41.6274 285 47 279.627 47 273C47 266.373 41.6274 261 35 261C28.3726 261 23 266.373 23 273C23 279.627 28.3726 285 35 285Z" fill="#C5CFD6"/>
<rect x="66" y="88" width="159" height="302" rx="8" fill="#DDE3E9"/>
<path fill-rule="evenodd" clip-rule="evenodd" d="M145 371C153.284 371 160 364.284 160 356C160 347.716 153.284 341 145 341C136.716 341 130 347.716 130 356C130 364.284 136.716 371 145 371Z" fill="white"/>
<path fill-rule="evenodd" clip-rule="evenodd" d="M132 108C133.105 108 134 107.105 134 106C134 104.895 133.105 104 132 104C130.895 104 130 104.895 130 106C130 107.105 130.895 108 132 108Z" fill="white"/>
<rect x="139" y="104" width="21" height="4" rx="2" fill="white"/>
<rect x="80" y="116" width="131" height="54" rx="4" fill="white"/>
<g clip-path="url(#clip4)">
<rect x="89" y="132.2" width="73" height="8.1" rx="3" fill="#DDE3E9"/>
<rect x="89" y="145.7" width="49" height="8.1" rx="3" fill="#DDE3E9"/>
</g>
<path fill-rule="evenodd" clip-rule="evenodd" d="M197 150C200.866 150 204 146.866 204 143C204 139.134 200.866 136 197 136C193.134 136 190 139.134 190 143C190 146.866 193.134 150 197 150Z" fill="#DDE3E9"/>
<path fill-rule="evenodd" clip-rule="evenodd" d="M197 146C198.657 146 200 144.657 200 143C200 141.343 198.657 140 197 140C195.343 140 194 141.343 194 143C194 144.657 195.343 146 197 146Z" fill="#F2F2F2"/>
<rect x="80" y="178" width="131" height="42" rx="4" fill="white"/>
<g clip-path="url(#clip5)">
<rect x="119" y="190.6" width="73" height="6.3" rx="3" fill="#DDE3E9"/>
<rect x="119" y="201.1" width="49" height="6.3" rx="3" fill="#DDE3E9"/>
</g>
<path fill-rule="evenodd" clip-rule="evenodd" d="M101 211C107.627 211 113 205.627 113 199C113 192.373 107.627 187 101 187C94.3726 187 89 192.373 89 199C89 205.627 94.3726 211 101 211Z" fill="#C5CFD6"/>
<rect x="80" y="228" width="131" height="42" rx="4" fill="white"/>
<g clip-path="url(#clip6)">
<rect x="89" y="240.6" width="73" height="6.3" rx="3" fill="#DDE3E9"/>
<rect x="89" y="251.1" width="49" height="6.3" rx="3" fill="#AFB9C5"/>
</g>
<path fill-rule="evenodd" clip-rule="evenodd" d="M197 256C200.866 256 204 252.866 204 249C204 245.134 200.866 242 197 242C193.134 242 190 245.134 190 249C190 252.866 193.134 256 197 256Z" fill="#DDE3E9"/>
<path fill-rule="evenodd" clip-rule="evenodd" d="M197 252C198.657 252 200 250.657 200 249C200 247.343 198.657 246 197 246C195.343 246 194 247.343 194 249C194 250.657 195.343 252 197 252Z" fill="#F2F2F2"/>
<rect x="80" y="278" width="131" height="42" rx="4" fill="white"/>
<g clip-path="url(#clip7)">
<rect x="119" y="290.6" width="73" height="6.3" rx="3" fill="#DDE3E9"/>
<rect x="119" y="301.1" width="49" height="6.3" rx="3" fill="#DDE3E9"/>
</g>
<path fill-rule="evenodd" clip-rule="evenodd" d="M101 311C107.627 311 113 305.627 113 299C113 292.373 107.627 287 101 287C94.3726 287 89 292.373 89 299C89 305.627 94.3726 311 101 311Z" fill="#C5CFD6"/>
<rect x="132" y="113" width="335" height="346" rx="8" fill="#F2F2F2"/>
<rect x="381" y="156" width="70" height="81" rx="8" fill="white"/>
<path fill-rule="evenodd" clip-rule="evenodd" d="M416 203C424.837 203 432 195.837 432 187C432 178.163 424.837 171 416 171C407.163 171 400 178.163 400 187C400 195.837 407.163 203 416 203Z" fill="#DDE3E9"/>
<rect x="391" y="207" width="50" height="6" rx="3" fill="#DDE3E9"/>
<rect x="399" y="217" width="34" height="6" rx="3" fill="#DDE3E9"/>
<path d="M132 121C132 116.582 135.582 113 140 113H459C463.418 113 467 116.582 467 121V140H132V121Z" fill="#C5CFD6"/>
<path fill-rule="evenodd" clip-rule="evenodd" d="M145 131C147.209 131 149 129.209 149 127C149 124.791 147.209 123 145 123C142.791 123 141 124.791 141 127C141 129.209 142.791 131 145 131Z" fill="#F2F2F2"/>
<path fill-rule="evenodd" clip-rule="evenodd" d="M157 131C159.209 131 161 129.209 161 127C161 124.791 159.209 123 157 123C154.791 123 153 124.791 153 127C153 129.209 154.791 131 157 131Z" fill="#F2F2F2"/>
<path fill-rule="evenodd" clip-rule="evenodd" d="M169 131C171.209 131 173 129.209 173 127C173 124.791 171.209 123 169 123C166.791 123 165 124.791 165 127C165 129.209 166.791 131 169 131Z" fill="#F2F2F2"/>
<rect x="381" y="245" width="70" height="194" rx="8" fill="white"/>
<rect x="399" y="263" width="34" height="26" rx="4" fill="#DDE3E9"/>
<rect x="399" y="297" width="34" height="25" rx="4" fill="#AFB9C5"/>
<rect x="399" y="330" width="34" height="25" rx="4" fill="#DDE3E9"/>
<rect x="399" y="396" width="34" height="25" rx="4" fill="#DDE3E9"/>
<rect x="399" y="363" width="34" height="25" rx="4" fill="#C5CFD6"/>
<rect x="148" y="157" width="225" height="47" rx="4" fill="white"/>
<g clip-path="url(#clip8)">
<rect x="157" y="171.1" width="167" height="7.05" rx="3" fill="#DDE3E9"/>
<rect x="157" y="182.85" width="112.096" height="7.05" rx="3" fill="#DDE3E9"/>
</g>
<path fill-rule="evenodd" clip-rule="evenodd" d="M348.954 187.5C352.82 187.5 355.954 184.366 355.954 180.5C355.954 176.634 352.82 173.5 348.954 173.5C345.088 173.5 341.954 176.634 341.954 180.5C341.954 184.366 345.088 187.5 348.954 187.5Z" fill="#DDE3E9"/>
<path fill-rule="evenodd" clip-rule="evenodd" d="M348.954 183.5C350.611 183.5 351.954 182.157 351.954 180.5C351.954 178.843 350.611 177.5 348.954 177.5C347.297 177.5 345.954 178.843 345.954 180.5C345.954 182.157 347.297 183.5 348.954 183.5Z" fill="#F2F2F2"/>
<rect x="148" y="212" width="225" height="39" rx="4" fill="white"/>
<g clip-path="url(#clip9)">
<rect x="157" y="223.7" width="167" height="5.85" rx="2.925" fill="#DDE3E9"/>
<rect x="157" y="233.45" width="112.096" height="5.85" rx="2.925" fill="#DDE3E9"/>
</g>
<path fill-rule="evenodd" clip-rule="evenodd" d="M348.954 238.5C352.82 238.5 355.954 235.366 355.954 231.5C355.954 227.634 352.82 224.5 348.954 224.5C345.088 224.5 341.954 227.634 341.954 231.5C341.954 235.366 345.088 238.5 348.954 238.5Z" fill="#DDE3E9"/>
<path fill-rule="evenodd" clip-rule="evenodd" d="M348.954 234.5C350.611 234.5 351.954 233.157 351.954 231.5C351.954 229.843 350.611 228.5 348.954 228.5C347.297 228.5 345.954 229.843 345.954 231.5C345.954 233.157 347.297 234.5 348.954 234.5Z" fill="#F2F2F2"/>
<rect x="148" y="259" width="225" height="39" rx="4" fill="white"/>
<g clip-path="url(#clip10)">
<rect x="157" y="270.7" width="167" height="5.85" rx="2.925" fill="#DDE3E9"/>
<rect x="157" y="280.45" width="112.096" height="5.85" rx="2.925" fill="#DDE3E9"/>
</g>
<path fill-rule="evenodd" clip-rule="evenodd" d="M348.954 285.5C352.82 285.5 355.954 282.366 355.954 278.5C355.954 274.634 352.82 271.5 348.954 271.5C345.088 271.5 341.954 274.634 341.954 278.5C341.954 282.366 345.088 285.5 348.954 285.5Z" fill="#DDE3E9"/>
<path fill-rule="evenodd" clip-rule="evenodd" d="M348.954 281.5C350.611 281.5 351.954 280.157 351.954 278.5C351.954 276.843 350.611 275.5 348.954 275.5C347.297 275.5 345.954 276.843 345.954 278.5C345.954 280.157 347.297 281.5 348.954 281.5Z" fill="#AFB9C5"/>
<rect x="148" y="400" width="225" height="39" rx="4" fill="white"/>
<g clip-path="url(#clip11)">
<rect x="157" y="411.7" width="167" height="5.85" rx="2.925" fill="#DDE3E9"/>
<rect x="157" y="421.45" width="112.096" height="5.85" rx="2.925" fill="#DDE3E9"/>
</g>
<path fill-rule="evenodd" clip-rule="evenodd" d="M348.954 426.5C352.82 426.5 355.954 423.366 355.954 419.5C355.954 415.634 352.82 412.5 348.954 412.5C345.088 412.5 341.954 415.634 341.954 419.5C341.954 423.366 345.088 426.5 348.954 426.5Z" fill="#DDE3E9"/>
<path fill-rule="evenodd" clip-rule="evenodd" d="M348.954 422.5C350.611 422.5 351.954 421.157 351.954 419.5C351.954 417.843 350.611 416.5 348.954 416.5C347.297 416.5 345.954 417.843 345.954 419.5C345.954 421.157 347.297 422.5 348.954 422.5Z" fill="#F2F2F2"/>
<rect x="148" y="353" width="225" height="39" rx="4" fill="white"/>
<g clip-path="url(#clip12)">
<rect x="157" y="364.7" width="167" height="5.85" rx="2.925" fill="#DDE3E9"/>
<rect x="157" y="374.45" width="112.096" height="5.85" rx="2.925" fill="#DDE3E9"/>
</g>
<path fill-rule="evenodd" clip-rule="evenodd" d="M348.954 379.5C352.82 379.5 355.954 376.366 355.954 372.5C355.954 368.634 352.82 365.5 348.954 365.5C345.088 365.5 341.954 368.634 341.954 372.5C341.954 376.366 345.088 379.5 348.954 379.5Z" fill="#DDE3E9"/>
<path fill-rule="evenodd" clip-rule="evenodd" d="M348.954 375.5C350.611 375.5 351.954 374.157 351.954 372.5C351.954 370.843 350.611 369.5 348.954 369.5C347.297 369.5 345.954 370.843 345.954 372.5C345.954 374.157 347.297 375.5 348.954 375.5Z" fill="#F2F2F2"/>
<rect x="148" y="306" width="225" height="39" rx="4" fill="white"/>
<g clip-path="url(#clip13)">
<rect x="157" y="317.7" width="167" height="5.85" rx="2.925" fill="#DDE3E9"/>
<rect x="157" y="327.45" width="112.096" height="5.85" rx="2.925" fill="#DDE3E9"/>
</g>
<path fill-rule="evenodd" clip-rule="evenodd" d="M348.954 332.5C352.82 332.5 355.954 329.366 355.954 325.5C355.954 321.634 352.82 318.5 348.954 318.5C345.088 318.5 341.954 321.634 341.954 325.5C341.954 329.366 345.088 332.5 348.954 332.5Z" fill="#DDE3E9"/>
<path fill-rule="evenodd" clip-rule="evenodd" d="M348.954 328.5C350.611 328.5 351.954 327.157 351.954 325.5C351.954 323.843 350.611 322.5 348.954 322.5C347.297 322.5 345.954 323.843 345.954 325.5C345.954 327.157 347.297 328.5 348.954 328.5Z" fill="#F2F2F2"/>
<g clip-path="url(#clip14)">
<path fill-rule="evenodd" clip-rule="evenodd" d="M325.782 255.46L292.053 265.544L300.671 279.853L326.893 264.472C339.136 263.75 344.921 262.548 344.246 260.867C343.678 259.449 342.326 259.207 341.08 258.984C340.11 258.811 339.205 258.648 338.785 257.951C337.826 256.359 341.184 252.217 344.539 248.422C347.894 244.626 345.208 244.449 343.585 244.752C338.008 247.009 332.073 250.578 325.782 255.46ZM179.835 259.319L162.173 253.515C145.936 284.268 136.446 301.048 133.705 303.854C131.694 305.912 120.297 310.45 112.685 312.686C109.629 313.583 109.952 316.104 110.707 316.99C115.469 322.582 120.672 321.466 126.335 320.251C127.974 319.899 129.652 319.539 131.369 319.331C135.814 318.793 136.855 321.165 137.839 323.408C138.71 325.393 139.536 327.276 142.64 326.946C142.575 326.339 142.488 325.657 142.394 324.92C141.784 320.16 140.885 313.141 143.944 309.503C145.514 307.635 157.478 290.907 179.835 259.319Z" fill="#FFDBB4"/>
<path fill-rule="evenodd" clip-rule="evenodd" d="M237.765 194.257L245.564 193.888C260.226 212.022 262.269 251.513 272.728 257.991C282.617 264.116 298.052 261.259 316.492 257.107L320.422 269.821C302.247 285.162 266.26 295.589 253.426 285.538C232.907 269.468 233.646 221.162 237.765 194.257Z" fill="#DB2721"/>
<path fill-rule="evenodd" clip-rule="evenodd" d="M192.715 285.873C192.715 285.873 238.657 291.514 260.303 294.172C263.391 294.551 263.355 290.033 263.184 287.735C261.211 261.209 244.524 230.828 249.05 193.969L229.929 188.528C210.629 212.404 201.144 243.554 192.715 285.873Z" fill="#DDE3E9"/>
<path fill-rule="evenodd" clip-rule="evenodd" d="M247.306 189.21C253.466 194.601 259.889 197.823 263.22 197.574C271.573 196.949 277.53 167.917 273.411 155.314C269.292 142.71 238.43 132.011 232.749 154.504C230.778 162.31 232.839 169.961 236.721 176.598L220.57 216.012L246.157 220.594L247.306 189.21Z" fill="#FFDBB4"/>
<path fill-rule="evenodd" clip-rule="evenodd" d="M252.796 160.807C255.216 157.586 257.505 155.153 260.387 153.821C271.789 154.599 273.232 152.627 273.593 145.742C271.819 144.329 265.431 141.771 258.181 140.765C254.521 139.509 250.109 139.478 245.776 141.027C240.464 142.235 235.865 145.196 233.594 151.072C225.872 162.904 230.582 175.89 237.599 180.609C239.647 178.429 241.446 176.306 243.059 174.269C241.914 173.029 241.251 171.348 241.346 169.531C241.534 165.953 244.591 163.204 248.175 163.392C248.439 163.406 248.698 163.435 248.952 163.479C248.878 167.961 248.749 183.133 250.217 188.482C251.948 194.788 263.862 196.939 268.045 197.158C271.658 197.347 271.714 193.925 271.754 191.472C271.759 191.119 271.765 190.786 271.781 190.486C271.813 189.861 270.999 189.82 270.078 189.773C268.883 189.713 267.509 189.644 267.58 188.275C267.659 186.782 269.785 185.745 271.687 184.818C272.874 184.239 273.974 183.703 274.435 183.125C275.89 181.301 276.481 178.769 274.435 178.662C273.317 178.603 271.749 179.166 269.863 179.844C267.015 180.867 263.442 182.151 259.595 181.949C253.24 181.616 252.801 161.064 252.796 160.807Z" fill="#191847"/>
<path fill-rule="evenodd" clip-rule="evenodd" d="M198.813 282.144C200.418 303.981 303.8 368.271 304.403 370.075C304.805 371.278 272.224 446.102 272.224 446.102L281.261 449.604C281.261 449.604 331.235 370.359 328.668 361.915C324.993 349.826 248.455 282.377 248.455 282.377L198.813 282.144Z" fill="#FFDBB4"/>
<path fill-rule="evenodd" clip-rule="evenodd" d="M274.602 434.837L289.357 440.192C320.469 405.193 332.664 376.317 330.441 361.603C328.217 346.89 250.505 282.198 250.505 282.198L197.755 282.198C199.555 332.768 295.377 370.267 296.659 372.422C297.94 374.577 285.327 395.684 274.602 434.837Z" fill="#2F3676"/>
<path fill-rule="evenodd" clip-rule="evenodd" d="M271.729 444.455C270.879 443.653 269.52 443.665 268.771 444.565C267.564 446.016 265.95 448.106 265.455 449.463C264.632 451.718 263.806 456.319 263.806 456.319C266.43 457.271 310.976 473.436 310.976 473.436C310.976 473.436 315.027 468.042 311.242 466.122C307.457 464.201 304.979 462.861 304.979 462.861L286.693 445.238C286.288 444.848 285.64 444.869 285.26 445.284L282.683 448.097C282.683 448.097 278.393 448.472 276.1 447.64C274.766 447.156 272.986 445.639 271.729 444.455Z" fill="#E4E4E4"/>
<path fill-rule="evenodd" clip-rule="evenodd" d="M210.7 282.144L164.646 392.374L119.382 485.564H130.061L246.9 282.144H210.7Z" fill="#FFDBB4"/>
<path fill-rule="evenodd" clip-rule="evenodd" d="M121.426 480.364C120.353 479.901 119.081 480.376 118.686 481.476C118.049 483.251 117.25 485.766 117.25 487.21C117.25 489.61 118.052 494.215 118.052 494.215C120.845 494.215 168.25 494.215 168.25 494.215C168.25 494.215 170.206 487.765 165.991 487.251C161.775 486.737 158.986 486.323 158.986 486.323L135.757 475.998C135.243 475.769 134.642 476.01 134.427 476.53L132.97 480.052C132.97 480.052 129.067 481.867 126.628 481.867C125.208 481.867 123.013 481.048 121.426 480.364Z" fill="#E4E4E4"/>
<path fill-rule="evenodd" clip-rule="evenodd" d="M123.47 466.205L147.199 470.641C165.546 443.748 242.331 333.478 250.75 282.144H197.923C169.809 319.253 140.959 438.867 123.47 466.205Z" fill="#5C63AB"/>
<path fill-rule="evenodd" clip-rule="evenodd" d="M228.894 188.401L228.671 188.373C181.645 209.87 150.104 248.27 134.05 303.575L147.878 308.081C158.601 298.333 172.372 281.916 189.193 258.829C183.133 273.237 178.167 288.166 175.427 302.524L236.266 309.994C251.688 281.765 236.39 189.321 236.39 189.321L232.19 188.805L228.894 188.401Z" fill="#FF4133"/>
</g>
<path fill-rule="evenodd" clip-rule="evenodd" d="M498.287 270.37C490.976 272.481 484.3 272.659 481.598 271.132C474.822 267.303 481.295 240.468 489.743 231.468C498.191 222.469 528.372 225.647 524.253 246.859C522.823 254.221 518.064 259.858 512.175 263.92L510.167 303.538L486.84 297.288L498.287 270.37Z" fill="#FFDBB4"/>
<path fill-rule="evenodd" clip-rule="evenodd" d="M486.277 235.597C486.873 234.297 487.843 232.935 488.644 231.769C489.676 230.265 490.967 229.005 492.323 227.855C494.877 225.691 497.73 223.883 500.703 222.545C506.134 220.1 512.369 219.522 517.764 221.698C520.489 222.796 522.934 224.604 524.782 227.018C526.451 229.198 527.835 232.121 530.512 233.022C533.424 234.001 536.841 232.112 539.65 231.132C542.816 230.027 546.022 229.463 549.291 229.786C554.767 230.326 559.218 233.42 561.679 238.696C564.297 244.31 565.292 251.781 561.138 257.177C560.366 258.18 559.507 258.97 558.429 259.527C557.44 260.037 556.02 260.481 555.388 261.551C554.716 262.687 555.314 264.546 555.414 265.761C555.557 267.502 555.576 269.294 554.948 270.976C553.916 273.737 551.411 275.967 549.032 277.327C546.612 278.71 543.967 279.167 541.318 278.995C539.55 278.879 537.785 278.604 536.112 278.022C535.282 277.732 534.598 277.297 533.827 276.889C533.078 276.493 532.575 276.586 531.781 276.843C528.09 278.035 524.497 277.917 520.947 276.641C517.95 275.564 514.617 273.874 512.68 271.102C510.528 268.023 511.446 264.818 513.021 261.554C512.237 261.711 510.265 261.411 511.776 260.349C512.375 259.928 513.291 259.937 513.958 259.774C514.735 259.584 515.551 259.289 516.239 258.824C519.018 256.947 518.207 251.396 515.757 249.86C512.118 247.579 509.725 252.956 506.505 253.65C504.653 254.048 503.256 252.451 502.349 250.959C501.134 248.96 500.575 246.593 500.177 244.231C499.85 242.285 499.584 240.33 499.239 238.39C499.078 237.483 498.383 234.857 499.282 234.122C496.594 232.794 493.113 233.127 490.252 234.022C489.069 234.391 488.109 234.891 487.266 235.877C487.086 236.089 486.641 236.742 486.317 236.686C485.715 236.584 486.127 235.923 486.277 235.597Z" fill="#191847"/>
<path fill-rule="evenodd" clip-rule="evenodd" d="M534.852 483.068C534.852 483.068 498.644 493.206 472.374 493.206C446.104 493.206 423.572 477.594 423.572 477.594C423.572 477.594 459.005 467.189 481.933 467.189C504.861 467.189 534.852 483.068 534.852 483.068Z" fill="#1F28CF"/>
<path fill-rule="evenodd" clip-rule="evenodd" d="M451.478 502.947C451.71 502.597 451.907 502.216 452.063 501.803C455.289 493.262 506.97 401.117 512.119 384.27H453.933C450.019 397.079 432.399 477.46 429.92 493.497C422.096 518.794 405.988 600.721 403.932 606.396C401.768 612.367 413.94 618.587 417.184 611.247C422.345 599.567 434.642 567.25 440.117 547.518C445.25 529.018 449.43 512.375 451.478 502.947Z" fill="#FFDBB4"/>
<path fill-rule="evenodd" clip-rule="evenodd" d="M499.081 514.198C522.709 520.175 609.135 530.982 615.065 532.677C621.166 534.421 626.516 521.833 618.975 519.106C606.975 514.767 573.912 504.742 553.865 500.651C537.741 497.36 523.027 494.675 513.149 493.103C513.986 465.326 517.812 398.667 515.304 384.27H463.821C466.225 398.076 486.551 498.811 490.329 508.894C491.528 512.494 495.105 514.085 499.081 514.198Z" fill="#FFDBB4"/>
<path fill-rule="evenodd" clip-rule="evenodd" d="M616.831 518.291C616.553 517.154 617.243 515.984 618.396 515.782C620.513 515.41 623.678 514.964 625.363 515.262C628.044 515.735 633.029 517.537 633.029 517.537C632.48 520.649 623.174 573.484 623.174 573.484C623.174 573.484 615.587 574.393 615.84 569.593C616.094 564.793 616.178 561.604 616.178 561.604L609.176 533.548C609.04 533.002 609.381 532.451 609.931 532.33L614.283 531.372C614.283 531.372 617.077 527.38 617.556 524.661C617.848 523 617.301 520.212 616.831 518.291Z" fill="#E4E4E4"/>
<path fill-rule="evenodd" clip-rule="evenodd" d="M418.1 609.165C419.172 608.693 420.446 609.17 420.845 610.272C421.578 612.294 422.566 615.336 422.566 617.049C422.566 619.773 421.659 625 421.659 625C418.501 625 364.906 625 364.906 625C364.906 625 362.694 617.679 367.46 617.095C372.227 616.512 375.379 616.041 375.379 616.041L401.762 604.268C402.277 604.038 402.88 604.279 403.095 604.8L404.793 608.923C404.793 608.923 409.205 610.984 411.963 610.984C413.646 610.984 416.292 609.962 418.1 609.165Z" fill="#E4E4E4"/>
<path fill-rule="evenodd" clip-rule="evenodd" d="M515.138 384.27C515.138 384.27 481.107 374.524 450.74 384.27C443.696 416.439 426.582 429.207 423.572 478.527C457.783 495.543 500.044 466.391 535.262 482.985C545.324 459.774 531.237 403.876 515.138 384.27Z" fill="#2B44FF"/>
<path fill-rule="evenodd" clip-rule="evenodd" d="M430.394 293.029L461.464 317.951L446.356 329.358L425.403 302.045C412.878 296.091 407.325 292.373 408.746 290.889C409.944 289.638 411.464 289.957 412.864 290.25C413.954 290.479 414.972 290.693 415.708 290.137C417.389 288.868 415.629 283.083 413.724 277.665C411.819 272.247 414.709 273.199 416.281 274.207C421.169 278.948 425.873 285.222 430.394 293.029ZM391.146 313.391L404.789 324.363L401.253 339.388C401.253 339.388 392.714 330.593 384.71 326.759C374.505 321.87 370.565 318.817 366.5 311.202C364.324 307.127 363.211 299.512 366.296 297.639C367.479 296.921 370.923 299.718 374.436 302.572C377.114 304.747 379.832 306.955 381.622 307.665C384.031 308.621 384.31 305.326 384.533 302.693C384.693 300.803 384.824 299.255 385.693 299.862C390.102 300.718 391.146 313.391 391.146 313.391Z" fill="#FFDBB4"/>
<path fill-rule="evenodd" clip-rule="evenodd" d="M478.955 316.704C466.93 314.452 451.314 309.073 436.093 295.158L426.711 308.999C436.464 322.83 451.388 335.412 465.997 337.567C477.51 339.265 485.811 326.426 478.955 316.704Z" fill="#2026A2"/>
<path fill-rule="evenodd" clip-rule="evenodd" d="M493.293 425.389C505.01 425.914 515.776 426.396 521.796 428.725C532.805 407.211 529.52 391.864 526.487 377.696C524.659 369.157 522.923 361.047 524.464 352.273C528.949 326.723 515.391 283.787 512.376 283.256L511.51 283.103L487.616 278.89L484.881 278.407C480.864 294 472.599 310.191 464.282 326.486C462.339 330.292 460.394 334.103 458.499 337.914C437.716 338.931 396.133 315.302 396.133 315.302C396.133 315.302 380.842 336.524 379.945 346.551C403.39 364.609 424.463 374.533 442.63 378.146C440.14 388.875 439.64 399.414 442.404 409.612C446.107 423.276 471.365 424.407 493.293 425.389Z" fill="#1F28CF"/>
<path fill-rule="evenodd" clip-rule="evenodd" d="M374.238 284.549C374.237 284.554 374.237 284.559 374.235 284.565C374.237 284.56 374.236 284.54 374.238 284.549Z" fill="#C5CFD6"/>
<path fill-rule="evenodd" clip-rule="evenodd" d="M374.236 284.557C374.236 284.558 374.235 284.56 374.236 284.562C374.235 284.557 374.24 284.541 374.236 284.557Z" fill="#C5CFD6"/>
<path fill-rule="evenodd" clip-rule="evenodd" d="M374.248 284.47C374.246 284.49 374.242 284.51 374.24 284.53C374.241 284.52 374.243 284.512 374.244 284.501C374.208 284.769 374.23 284.596 374.248 284.47Z" fill="#C5CFD6"/>
<path fill-rule="evenodd" clip-rule="evenodd" d="M374.241 284.531C374.24 284.541 374.238 284.551 374.237 284.56C374.223 284.619 374.241 284.531 374.241 284.531Z" fill="#C5CFD6"/>
<path fill-rule="evenodd" clip-rule="evenodd" d="M374.236 284.557C374.236 284.556 374.236 284.556 374.237 284.555C374.236 284.556 374.236 284.556 374.236 284.557Z" fill="#C5CFD6"/>
<path fill-rule="evenodd" clip-rule="evenodd" d="M374.233 284.565C374.231 284.577 374.249 284.515 374.233 284.565V284.565Z" fill="#C5CFD6"/>
<path fill-rule="evenodd" clip-rule="evenodd" d="M374.236 284.557L374.237 284.555C374.236 284.556 374.237 284.557 374.236 284.557Z" fill="#C5CFD6"/>
<path fill-rule="evenodd" clip-rule="evenodd" d="M395.637 257.851C400.553 256.625 403.545 251.646 402.319 246.729C401.093 241.813 396.114 238.821 391.198 240.047C386.282 241.273 383.29 246.252 384.516 251.168C385.741 256.085 390.721 259.076 395.637 257.851Z" fill="white"/>
<defs>
<clipPath id="clip0">
<rect width="73" height="21.6" fill="white" transform="translate(53 106.2)"/>
</clipPath>
<clipPath id="clip1">
<rect width="73" height="16.8" fill="white" transform="translate(53 164.6)"/>
</clipPath>
<clipPath id="clip2">
<rect width="73" height="16.8" fill="white" transform="translate(53 214.6)"/>
</clipPath>
<clipPath id="clip3">
<rect width="73" height="16.8" fill="white" transform="translate(53 264.6)"/>
</clipPath>
<clipPath id="clip4">
<rect width="73" height="21.6" fill="white" transform="translate(89 132.2)"/>
</clipPath>
<clipPath id="clip5">
<rect width="73" height="16.8" fill="white" transform="translate(119 190.6)"/>
</clipPath>
<clipPath id="clip6">
<rect width="73" height="16.8" fill="white" transform="translate(89 240.6)"/>
</clipPath>
<clipPath id="clip7">
<rect width="73" height="16.8" fill="white" transform="translate(119 290.6)"/>
</clipPath>
<clipPath id="clip8">
<rect width="167" height="18.8" fill="white" transform="translate(157 171.1)"/>
</clipPath>
<clipPath id="clip9">
<rect width="167" height="15.6" fill="white" transform="translate(157 223.7)"/>
</clipPath>
<clipPath id="clip10">
<rect width="167" height="15.6" fill="white" transform="translate(157 270.7)"/>
</clipPath>
<clipPath id="clip11">
<rect width="167" height="15.6" fill="white" transform="translate(157 411.7)"/>
</clipPath>
<clipPath id="clip12">
<rect width="167" height="15.6" fill="white" transform="translate(157 364.7)"/>
</clipPath>
<clipPath id="clip13">
<rect width="167" height="15.6" fill="white" transform="translate(157 317.7)"/>
</clipPath>
<clipPath id="clip14">
<rect width="533" height="493" fill="white" transform="translate(73)"/>
</clipPath>
</defs>
</svg>
