<svg width="537" height="1048" viewBox="0 0 537 1048" fill="none" xmlns="http://www.w3.org/2000/svg">
<path fill-rule="evenodd" clip-rule="evenodd" d="M186 210C220.794 210 249 181.794 249 147C249 112.206 220.794 84 186 84C151.206 84 123 112.206 123 147C123 181.794 151.206 210 186 210Z" stroke="#44AB96" stroke-width="13" stroke-linecap="round" stroke-linejoin="round"/>
<path d="M186.5 284C264.095 284 327 221.992 327 145.5C327 69.0084 264.095 7 186.5 7C108.905 7 46 69.0084 46 145.5" stroke="#FFB017" stroke-width="13" stroke-linecap="round" stroke-linejoin="round"/>
<path d="M330.5 304C298.743 304 273 329.743 273 361.5C273 393.257 298.743 419 330.5 419C362.257 419 388 393.257 388 361.5V304" stroke="#44AB96" stroke-width="13" stroke-linecap="round" stroke-linejoin="round"/>
<path d="M64.5 458.708C32.7436 458.708 7 484.069 7 515.354C7 546.639 32.7436 572 64.5 572C96.2564 572 122 546.639 122 515.354V284" stroke="#DA774A" stroke-width="13" stroke-linecap="round" stroke-linejoin="round"/>
<path d="M677 93H542.319C457.091 93 388 162.396 388 248" stroke="#44AB96" stroke-width="13" stroke-linecap="round" stroke-linejoin="round"/>
<path d="M46.5 216C46.5 225.313 46.5 342.548 46.5 400" stroke="#44AB96" stroke-width="13" stroke-linecap="round" stroke-linejoin="round"/>
<path d="M269 873C269 814.459 315.847 767 373.635 767H558" stroke="#44AB96" stroke-width="13" stroke-linecap="round" stroke-linejoin="round"/>
<path d="M571 523V576.755C571 631.014 526.998 675 472.712 675H396" stroke="#4484AB" stroke-width="13" stroke-linecap="round" stroke-linejoin="round"/>
<path d="M489.5 216C489.5 212.41 486.59 209.5 483 209.5C479.41 209.5 476.5 212.41 476.5 216H489.5ZM368.579 581.605C364.989 581.605 362.079 584.515 362.079 588.105C362.079 591.695 364.989 594.605 368.579 594.605V581.605ZM204 714.5C200.41 714.5 197.5 717.41 197.5 721C197.5 724.59 200.41 727.5 204 727.5V714.5ZM337.461 620.938C337.461 617.348 334.551 614.438 330.961 614.438C327.371 614.438 324.461 617.348 324.461 620.938H337.461ZM476.5 216V358.331H489.5V216H476.5ZM476.5 358.331C476.5 377.086 461.165 392.366 442.135 392.366V405.366C468.244 405.366 489.5 384.366 489.5 358.331H476.5ZM442.135 392.366C416.023 392.366 394.77 413.384 394.77 439.417H407.77C407.77 420.658 423.108 405.366 442.135 405.366V392.366ZM394.77 439.417V447.828H407.77V439.417H394.77ZM394.77 447.828C394.77 473.86 416.023 494.879 442.135 494.879V481.879C423.108 481.879 407.77 466.586 407.77 447.828H394.77ZM442.135 494.879C461.162 494.879 476.5 510.171 476.5 528.931H489.5C489.5 502.897 468.247 481.879 442.135 481.879V494.879ZM476.5 528.931V538.242H489.5V528.931H476.5ZM476.5 538.242C476.5 562.144 456.961 581.605 432.751 581.605V594.605C464.046 594.605 489.5 569.418 489.5 538.242H476.5ZM432.751 581.605H406.719V594.605H432.751V581.605ZM406.719 581.605H368.579V594.605H406.719V581.605ZM204 727.5H230.776V714.5H204V727.5ZM230.776 727.5C289.689 727.5 337.461 679.798 337.461 620.938H324.461C324.461 672.604 282.525 714.5 230.776 714.5V727.5Z" fill="#FFB017"/>
<path fill-rule="evenodd" clip-rule="evenodd" d="M339 914.967C339 874.672 371.683 842 412 842V842C452.313 842 485 874.672 485 914.967V968.033C485 1008.33 452.313 1041 412 1041V1041C371.683 1041 339 1008.33 339 968.033V914.967Z" stroke="#4484AB" stroke-width="13" stroke-linecap="round" stroke-linejoin="round"/>
<path fill-rule="evenodd" clip-rule="evenodd" d="M217 638C249.033 638 275 612.256 275 580.5C275 548.744 249.033 523 217 523C184.967 523 159 548.744 159 580.5C159 612.256 184.967 638 217 638Z" stroke="#E53855" stroke-width="13" stroke-linecap="round" stroke-linejoin="round"/>
</svg>
