<svg width="295" height="498" viewBox="0 0 295 498" fill="none" xmlns="http://www.w3.org/2000/svg">
<g clip-path="url(#clip0)">
<rect width="295" height="498" transform="matrix(-1 0 0 1 295 0)" fill="white"/>
<path fill-rule="evenodd" clip-rule="evenodd" d="M154.108 88.3601C147.095 92.5886 140.204 94.6317 136.969 93.7976C128.857 91.7062 128.111 62.0245 134.388 50.323C140.664 38.6216 172.929 33.5213 174.556 56.7057C175.12 64.7522 171.742 71.9332 166.751 77.7928L175.7 119.513H149.706L154.108 88.3601Z" fill="#B28B67"/>
<path fill-rule="evenodd" clip-rule="evenodd" d="M149.204 36.8372C152.63 36.2753 161.854 35.8889 163.555 35.8892C164.643 35.8892 165.821 36.1376 166.465 35.1391C166.992 34.3215 166.799 32.9387 166.956 31.9899C167.139 30.8877 167.398 29.7997 167.661 28.7144C168.408 25.6263 169.538 22.6883 171.118 19.9299C174.084 14.7548 178.429 10.7011 183.914 8.34228C189.971 5.73777 196.825 5.14139 203.34 5.66967C210.312 6.23487 216.624 8.53708 223.207 10.7036C229.48 12.7681 236.05 13.5807 242.611 12.5725C249.222 11.5569 254.217 7.97313 259.793 4.5717C265.501 1.08946 272.024 -1.18805 278.772 -0.664508C285.071 -0.175632 290.876 2.42588 296.085 5.90114C300.958 9.15266 304.979 13.0647 307.25 18.5705C309.692 24.4931 309.69 30.9942 305.673 36.2284C299.852 43.8154 289.045 45.7774 280.055 45.5824C274.854 45.4699 269.747 44.5203 264.837 42.793C258.289 40.4893 252.631 36.5848 246.505 33.4169C243.63 31.9303 240.659 30.7093 237.544 29.8299C234.521 28.9761 231.545 28.5845 228.808 30.4108C225.913 32.3428 223.319 34.2407 220.007 35.4502C216.83 36.6105 213.465 37.2595 210.08 37.2333C203.494 37.1824 197.002 35.1299 190.605 33.7551C185.389 32.6342 179.808 31.517 174.49 32.5945C172.271 33.0442 169.03 33.9726 168.229 36.2793C181.718 38.7246 187.016 55.4113 183.213 67.6608C181.161 74.2724 168.823 82.0012 164.026 78.5254C160.987 76.3234 162.832 73.4326 164.026 71.5242C166.313 67.8696 167.095 63.1752 162.864 60.6308C159.214 58.4363 155.377 63.6476 155.304 63.6418C154.301 63.5627 145.634 58.6596 139.662 51.5047C133.77 51.854 132.877 47.9685 134.283 44.7909C135.69 41.6133 144.47 37.6142 149.204 36.8372Z" fill="#191847"/>
<path fill-rule="evenodd" clip-rule="evenodd" d="M182.199 209.432L101.719 344.014L41.3816 457.791H28.3855L129.481 209.432L182.199 209.432Z" fill="#997659"/>
<path fill-rule="evenodd" clip-rule="evenodd" d="M46.4898 451.256C47.5599 450.78 48.8343 451.256 49.2363 452.356C50.0302 454.527 51.1455 457.914 51.1455 459.802C51.1455 462.732 50.1694 468.354 50.1694 468.354C46.7708 468.354 -10.9186 468.354 -10.9186 468.354C-10.9186 468.354 -13.2998 460.48 -8.16947 459.852C-3.03916 459.224 0.354206 458.718 0.354206 458.718L28.8252 446.023C29.3399 445.793 29.9424 446.034 30.1571 446.555L32.0147 451.062C32.0147 451.062 36.7641 453.279 39.7334 453.279C41.5924 453.279 44.5431 452.121 46.4898 451.256Z" fill="#E4E4E4"/>
<path fill-rule="evenodd" clip-rule="evenodd" d="M58.1391 439.572L33.0764 431.989C33.0764 431.989 49.5474 382.737 73.4514 323.59C97.3554 264.442 124.795 209.432 124.795 209.432H195.582C195.582 209.432 165.074 279.017 130.898 335.887C96.7211 392.756 58.1391 439.572 58.1391 439.572Z" fill="#DB2721"/>
<path fill-rule="evenodd" clip-rule="evenodd" d="M187.488 209.432C195.084 256.725 209.734 317.147 211.116 319.012C212.038 320.255 245.221 331.377 310.664 352.377L307.856 363.84C229.816 352.577 188.695 343.839 184.494 337.626C178.193 328.306 146.729 254.676 134.543 209.432H187.488Z" fill="#B28B67"/>
<path fill-rule="evenodd" clip-rule="evenodd" d="M287.66 342.468L282.715 360.93C224.345 366.051 188.581 362.351 175.421 349.83C162.262 337.31 147.265 290.51 130.429 209.432H197.928C208.594 275.824 214.558 310.414 215.818 313.201C217.078 315.988 241.025 325.744 287.66 342.468Z" fill="#FF4133"/>
<path fill-rule="evenodd" clip-rule="evenodd" d="M305.702 350.174C305.42 349.038 306.109 347.866 307.262 347.661C309.538 347.256 313.067 346.745 314.925 347.073C317.81 347.582 323.176 349.52 323.176 349.52C322.586 352.867 312.568 409.694 312.568 409.694C312.568 409.694 304.402 410.673 304.675 405.51C304.948 400.347 305.039 396.917 305.039 396.917L297.483 366.666C297.346 366.12 297.688 365.568 298.238 365.447L302.999 364.4C302.999 364.4 306.006 360.107 306.521 357.182C306.844 355.35 306.217 352.242 305.702 350.174Z" fill="#E4E4E4"/>
<path fill-rule="evenodd" clip-rule="evenodd" d="M58.3244 222.169L89.0059 192.23L99.1964 209.867L67.2916 228.682C59.2918 241.287 54.5934 246.734 53.1964 245.022C52.0184 243.578 52.5583 241.995 53.0556 240.538C53.443 239.402 53.8045 238.343 53.308 237.483C52.1741 235.521 45.7686 236.645 39.7355 237.971C33.7024 239.298 35.0984 236.333 36.3807 234.786C42.0826 230.184 49.3972 225.978 58.3244 222.169ZM239.172 265.667C235.998 259.226 225.189 196.453 225.189 196.453L202.556 196.542C202.556 196.542 223.518 264.23 225.189 268.372C227.36 273.752 223.673 281.569 221.173 286.87C220.786 287.69 220.428 288.45 220.124 289.131C223.593 290.683 225.259 288.807 227.016 286.828C229 284.594 231.099 282.229 236.042 284.529C237.951 285.418 239.758 286.468 241.523 287.495C247.621 291.04 253.223 294.297 260.843 289.594C262.051 288.848 263.375 286.041 260.177 283.847C252.207 278.381 240.724 268.815 239.172 265.667Z" fill="#B28B67"/>
<path fill-rule="evenodd" clip-rule="evenodd" d="M160.868 101.455L151.502 99.848C135.378 140.138 107.226 176.747 67.0473 209.675L97.4085 246.57C137.583 199.686 162.346 151.314 160.868 101.455Z" fill="#191847"/>
<path fill-rule="evenodd" clip-rule="evenodd" d="M201.695 219.181H118.297C118.297 219.181 147.279 148.696 147.279 99.4279L172.436 95.6787C192.207 127.484 197.79 166.643 201.695 219.181Z" fill="#DDE3E9"/>
<path fill-rule="evenodd" clip-rule="evenodd" d="M239.603 254.932C230.482 152.009 172.988 95.6787 172.988 95.6787L172.968 95.6965C172.965 95.6906 172.962 95.6846 172.959 95.6787H171.316C168.369 95.7802 162.338 96.0445 162.338 96.0445L156.259 113.421C155.294 145.199 144.994 241.505 144.994 241.505H199.583C199.49 245.921 199.284 250.399 198.954 254.932H239.603Z" fill="#2F3676"/>
<path fill-rule="evenodd" clip-rule="evenodd" d="M199.574 241.932C200.009 222.702 198.304 204.647 195.459 188.308C193.971 207.696 190.861 231.026 184.365 241.932H199.574Z" fill="black" fill-opacity="0.1"/>
<path fill-rule="evenodd" clip-rule="evenodd" d="M187.495 208.348L160.538 195.812V208.348H187.495Z" fill="white" fill-opacity="0.2"/>
</g>
<defs>
<clipPath id="clip0">
<rect width="295" height="498" transform="matrix(-1 0 0 1 295 0)" fill="white"/>
</clipPath>
</defs>
</svg>
