<svg width="371" height="545" viewBox="0 0 371 545" fill="none" xmlns="http://www.w3.org/2000/svg">
<path d="M204 379.883C196.544 379.883 190.5 373.839 190.5 366.383L190.5 90.0006C190.5 82.5448 196.544 76.5006 204 76.5006L355.876 76.5006C363.332 76.5006 369.376 82.5448 369.376 90.0006L369.376 366.383C369.376 373.839 363.332 379.883 355.876 379.883L204 379.883Z" fill="#FC534B" stroke="#25387C" stroke-width="3"/>
<circle cx="328.154" cy="116.503" r="13.6478" transform="rotate(-90 328.154 116.503)" fill="#FD9C3A" stroke="#070E55" stroke-width="2"/>
<circle cx="328.154" cy="136.033" r="13.6478" transform="rotate(-90 328.154 136.033)" fill="#FC534B" stroke="#070E55" stroke-width="2"/>
<rect x="328.154" y="347.205" width="119.623" height="3.66194" rx="1.83097" transform="rotate(-90 328.154 347.205)" fill="#070E55"/>
<rect x="309.844" y="282.511" width="54.9291" height="3.66194" rx="1.83097" transform="rotate(-90 309.844 282.511)" fill="#070E55"/>
<path d="M1.5 50C1.5 23.2142 23.2142 1.5 50 1.5H210.2C236.985 1.5 258.7 23.2142 258.7 50V495C258.7 521.786 236.985 543.5 210.2 543.5H50C23.2142 543.5 1.5 521.786 1.5 495V50Z" fill="#F2F2F2" stroke="#25387C" stroke-width="3"/>
<path d="M87.6025 1.5H172.597V13.6545C172.597 18.3489 168.792 22.1545 164.097 22.1545H96.1025C91.4081 22.1545 87.6025 18.3489 87.6025 13.6545V1.5Z" stroke="#25387C" stroke-width="3"/>
<ellipse cx="129.711" cy="234.881" rx="51.031" ry="49.519" fill="#25387C" fill-opacity="0.5"/>
<circle cx="129.711" cy="234.881" r="75.2355" stroke="#25387C" stroke-width="3"/>
<circle cx="157.066" cy="11.3539" r="3.7309" stroke="#25387C" stroke-width="2"/>
<path d="M139.623 455.215C138.109 451.427 133.241 449.391 128.75 450.668C124.541 451.865 122.11 455.573 123.147 459.217C126.236 468.276 137.536 476.406 147.885 483.314C148.628 483.811 149.707 483.705 150.296 483.078C150.885 482.451 150.759 481.541 150.016 481.044C140.083 474.414 129.253 466.652 126.446 458.417C125.66 456.111 127.24 453.704 129.974 453.041C132.709 452.378 135.562 453.711 136.348 456.017C138.222 461.518 147.541 468.317 156.407 474.234C157.151 474.731 158.23 474.625 158.819 473.998C159.407 473.372 159.282 472.461 158.539 471.964C153.857 468.847 141.459 460.572 139.623 455.215Z" fill="#25387C" fill-opacity="0.5"/>
<path d="M152.631 451.483C148.9 441.833 136.812 436.383 125.227 439.126C113.383 441.992 106.537 452.415 109.935 462.406C109.938 462.413 109.94 462.42 109.942 462.427C112.76 470.685 106.719 472.975 104.794 473.478C103.889 473.718 103.387 474.531 103.671 475.294C103.956 476.057 104.919 476.48 105.823 476.241C111.072 474.857 116.169 470.201 113.241 461.625C110.354 453.174 116.136 444.35 126.155 441.915C126.16 441.914 126.166 441.912 126.171 441.911C136.077 439.562 146.398 444.298 149.443 452.589C149.483 452.702 149.541 452.81 149.614 452.91C149.793 453.159 150.16 453.683 161.192 461.234C161.927 461.739 163.009 461.645 163.607 461.024C164.205 460.404 164.093 459.492 163.358 458.987C159.349 456.243 153.49 452.163 152.631 451.483Z" fill="#25387C" fill-opacity="0.5"/>
<path d="M146.227 453.614C143.856 446.71 135.313 442.721 127.118 444.694C119.072 446.789 114.401 453.852 116.515 460.728C119.982 474.046 117.391 477.121 110.279 478.997C109.374 479.237 108.872 480.05 109.156 480.813C109.44 481.575 110.404 481.999 111.308 481.759C121.245 479.154 123.404 473.676 119.889 460.105C118.182 454.724 121.792 449.162 128.086 447.476C134.464 445.949 141.106 449.054 142.952 454.425C143.638 456.399 145.461 459.109 159.517 468.493C160.26 468.99 161.34 468.884 161.928 468.257C162.517 467.63 162.392 466.72 161.648 466.223C148.89 457.711 146.707 455.015 146.227 453.614Z" fill="#25387C" fill-opacity="0.5"/>
<path d="M150.949 473.765C145.142 470.048 135.421 463.829 133.029 456.816C132.751 456.052 131.792 455.622 130.885 455.856C130.001 456.084 129.49 456.862 129.73 457.615C132.435 465.554 142.725 472.138 148.873 476.073C150.122 476.832 151.325 477.643 152.477 478.505C153.158 479.06 154.245 479.045 154.904 478.47C155.546 477.909 155.546 477.019 154.904 476.458C153.647 475.498 152.326 474.599 150.949 473.765Z" fill="#25387C" fill-opacity="0.5"/>
<path d="M141.662 483.835C139.928 481.121 136.732 479.29 133.102 478.931C127.266 478.931 126.364 487.298 126.237 488.974C126.178 489.772 126.897 490.459 127.843 490.509H127.953C128.861 490.51 129.613 489.915 129.669 489.151C129.886 486.169 131.238 481.826 133.102 481.826C135.645 481.826 137.451 483.893 138.899 485.552C139.378 486.128 139.902 486.675 140.468 487.191C141.149 487.747 142.236 487.731 142.894 487.156C143.537 486.594 143.537 485.705 142.894 485.144C142.45 484.731 142.039 484.294 141.662 483.835Z" fill="#25387C" fill-opacity="0.5"/>
<path d="M126.158 471.252C125.835 470.5 124.851 470.112 123.96 470.384C123.122 470.64 122.655 471.395 122.887 472.121C124.356 475.992 121.469 483.589 117.127 484.779C116.223 485.018 115.719 485.83 116.002 486.593C116.285 487.356 117.248 487.781 118.153 487.542C118.165 487.539 118.176 487.536 118.188 487.532C124.792 485.737 127.977 476.061 126.158 471.252Z" fill="#25387C" fill-opacity="0.5"/>
<path d="M162.806 451.494C160.66 450.915 158.975 448.599 157.022 445.956C152.889 440.321 147.222 432.605 131.385 432.605C115.28 432.621 102.228 443.63 102.209 457.216C102.209 458.015 102.978 458.663 103.926 458.663C104.874 458.663 105.642 458.015 105.642 457.216C105.657 445.228 117.174 435.514 131.385 435.501C145.311 435.501 150.188 442.143 154.108 447.482C156.415 450.623 158.405 453.336 161.749 454.251C162.647 454.506 163.62 454.099 163.923 453.341C164.226 452.583 163.743 451.762 162.845 451.507C162.833 451.504 162.821 451.501 162.809 451.497L162.806 451.494Z" fill="#25387C" fill-opacity="0.5"/>
<path d="M105.642 468.797C106.59 468.797 107.358 468.149 107.358 467.349C107.358 467.124 107.296 466.902 107.176 466.701C106.444 465.543 105.926 464.297 105.642 463.006C105.642 462.207 104.874 461.559 103.926 461.559C102.978 461.559 102.209 462.207 102.209 463.006C102.485 464.752 103.128 466.443 104.108 467.998C104.399 468.487 104.992 468.797 105.642 468.797Z" fill="#25387C" fill-opacity="0.5"/>
<path d="M104.749 438.185C105.558 438.601 106.614 438.385 107.108 437.703C107.109 437.701 107.11 437.7 107.11 437.699C108.6 435.626 115.939 429.711 129.669 429.711C142.863 429.711 152.251 435.348 153.943 437.699C154.435 438.382 155.49 438.6 156.301 438.185C157.111 437.77 157.369 436.88 156.877 436.196C154.523 432.924 144.126 426.815 129.669 426.815C114.295 426.815 106.053 433.588 104.172 436.199C103.683 436.882 103.94 437.771 104.749 438.185Z" fill="#25387C" fill-opacity="0.5"/>
<path d="M100.253 449.211C100.006 449.991 99.0646 450.475 98.151 450.291C97.2917 450.119 96.7535 449.413 96.9127 448.668C97.6733 446.456 98.6747 444.302 99.9038 442.234C100.331 441.508 101.363 441.192 102.207 441.53C103.052 441.868 103.39 442.731 102.963 443.457C101.861 445.309 100.955 447.235 100.253 449.211Z" fill="#25387C" fill-opacity="0.5"/>
<rect x="81.7993" y="417.566" width="28.6367" height="3.87339" rx="1.9367" fill="#25387C"/>
<path d="M85.7354 417.566V443.449C85.7354 444.536 84.8541 445.417 83.767 445.417C82.6799 445.417 81.7986 444.536 81.7986 443.449V417.566H85.7354Z" fill="#25387C"/>
<rect width="28.6367" height="3.76362" rx="1.88181" transform="matrix(-1 0 0 1 178.4 418.319)" fill="#25387C"/>
<path d="M174.582 418.319V444.261C174.582 445.315 175.437 446.17 176.491 446.17C177.546 446.17 178.4 445.315 178.4 444.261V418.319H174.582Z" fill="#25387C"/>
<rect width="28.6367" height="3.87339" rx="1.9367" transform="matrix(1 0 0 -1 81.7993 503.377)" fill="#25387C"/>
<path d="M85.7354 503.377V477.495C85.7354 476.407 84.8541 475.526 83.767 475.526C82.6799 475.526 81.7986 476.407 81.7986 477.495V503.377H85.7354Z" fill="#25387C"/>
<rect x="178.4" y="503.377" width="28.6367" height="3.87339" rx="1.9367" transform="rotate(-180 178.4 503.377)" fill="#25387C"/>
<path d="M174.464 503.377V477.495C174.464 476.407 175.345 475.526 176.432 475.526C177.519 475.526 178.401 476.407 178.401 477.495V503.377H174.464Z" fill="#25387C"/>
<line x1="130.6" y1="311.612" x2="131.379" y2="408.992" stroke="#25387C"/>
<path d="M60.5723 88.6426C60.8652 88.9681 61.0801 89.3262 61.2168 89.7168C61.36 90.1009 61.4316 90.5501 61.4316 91.0645C61.4316 92.2884 60.9792 93.2975 60.0742 94.0918C59.1693 94.8861 58.0462 95.2832 56.7051 95.2832C56.0866 95.2832 55.4681 95.1888 54.8496 95C54.2311 94.8047 53.6973 94.5703 53.248 94.2969L52.8281 95.0098H52.0469L51.9102 90.2637H52.7012C52.8639 90.8496 53.0527 91.3802 53.2676 91.8555C53.4889 92.3242 53.7786 92.7637 54.1367 93.1738C54.4753 93.5579 54.8691 93.8639 55.3184 94.0918C55.7741 94.3197 56.3014 94.4336 56.9004 94.4336C57.3496 94.4336 57.7402 94.375 58.0723 94.2578C58.4108 94.1406 58.6842 93.9746 58.8926 93.7598C59.1009 93.5449 59.2539 93.2943 59.3516 93.0078C59.4557 92.7148 59.5078 92.3796 59.5078 92.002C59.5078 91.4486 59.3516 90.9342 59.0391 90.459C58.7266 89.9772 58.2611 89.6126 57.6426 89.3652C57.2194 89.196 56.7344 89.0104 56.1875 88.8086C55.6406 88.6003 55.1686 88.4049 54.7715 88.2227C53.9902 87.8711 53.3815 87.4121 52.9453 86.8457C52.5156 86.2728 52.3008 85.5273 52.3008 84.6094C52.3008 84.082 52.4082 83.5905 52.623 83.1348C52.8379 82.679 53.1439 82.2721 53.541 81.9141C53.9186 81.5755 54.3646 81.3118 54.8789 81.123C55.3932 80.9277 55.9303 80.8301 56.4902 80.8301C57.1283 80.8301 57.6979 80.9277 58.1992 81.123C58.707 81.3184 59.1693 81.5462 59.5859 81.8066L59.9863 81.1426H60.7676L60.8457 85.7422H60.0547C59.9115 85.2148 59.7487 84.7103 59.5664 84.2285C59.3906 83.7467 59.1595 83.3105 58.873 82.9199C58.5931 82.5423 58.2513 82.2428 57.8477 82.0215C57.444 81.7936 56.9492 81.6797 56.3633 81.6797C55.7448 81.6797 55.2174 81.8783 54.7812 82.2754C54.3451 82.6725 54.127 83.1576 54.127 83.7305C54.127 84.3294 54.2669 84.8275 54.5469 85.2246C54.8268 85.6152 55.2337 85.9375 55.7676 86.1914C56.2428 86.4193 56.7083 86.6178 57.1641 86.7871C57.6263 86.9499 58.0723 87.1257 58.502 87.3145C58.8926 87.4837 59.2669 87.6758 59.625 87.8906C59.9896 88.1055 60.3053 88.3561 60.5723 88.6426ZM67.3789 95.2539C65.9857 95.2539 64.8952 94.7917 64.1074 93.8672C63.3197 92.9427 62.9258 91.7025 62.9258 90.1465C62.9258 89.4694 63.0299 88.8379 63.2383 88.252C63.4531 87.6595 63.7624 87.1224 64.166 86.6406C64.5501 86.1784 65.0319 85.8073 65.6113 85.5273C66.1908 85.2409 66.8223 85.0977 67.5059 85.0977C68.4499 85.0977 69.2181 85.3255 69.8105 85.7812C70.403 86.2305 70.6992 86.8457 70.6992 87.627C70.6992 87.9525 70.6211 88.2422 70.4648 88.4961C70.3086 88.7435 70.0514 88.8672 69.6934 88.8672C69.3092 88.8672 69.0098 88.7695 68.7949 88.5742C68.5866 88.3789 68.4824 88.1608 68.4824 87.9199C68.4824 87.627 68.5215 87.3275 68.5996 87.0215C68.6777 86.709 68.7233 86.4811 68.7363 86.3379C68.6191 86.1361 68.4434 86.0026 68.209 85.9375C67.9811 85.8659 67.7337 85.8301 67.4668 85.8301C67.1543 85.8301 66.8548 85.8984 66.5684 86.0352C66.2884 86.1654 66.015 86.4095 65.748 86.7676C65.5072 87.0931 65.3118 87.5326 65.1621 88.0859C65.0124 88.6393 64.9375 89.3001 64.9375 90.0684C64.9375 91.2793 65.2044 92.2689 65.7383 93.0371C66.2786 93.7988 66.985 94.1797 67.8574 94.1797C68.4889 94.1797 69.0163 94.0267 69.4395 93.7207C69.8691 93.4147 70.2663 92.9557 70.6309 92.3438L71.2559 92.7539C70.8262 93.5221 70.2598 94.1309 69.5566 94.5801C68.8535 95.0293 68.1276 95.2539 67.3789 95.2539ZM81.1289 94.8242C80.8229 94.9349 80.5527 95.0228 80.3184 95.0879C80.0905 95.1595 79.8301 95.1953 79.5371 95.1953C79.0293 95.1953 78.6224 95.0781 78.3164 94.8438C78.0169 94.6029 77.8249 94.2546 77.7402 93.7988H77.6816C77.2585 94.2676 76.8027 94.6257 76.3145 94.873C75.8327 95.1204 75.25 95.2441 74.5664 95.2441C73.8438 95.2441 73.248 95.0228 72.7793 94.5801C72.3171 94.1374 72.0859 93.5579 72.0859 92.8418C72.0859 92.4707 72.138 92.1387 72.2422 91.8457C72.3464 91.5527 72.5026 91.2891 72.7109 91.0547C72.8737 90.8594 73.0885 90.6868 73.3555 90.5371C73.6224 90.3809 73.873 90.2572 74.1074 90.166C74.4004 90.0553 74.9928 89.8503 75.8848 89.5508C76.7832 89.2513 77.3887 89.0169 77.7012 88.8477V87.8809C77.7012 87.7962 77.6816 87.6335 77.6426 87.3926C77.61 87.1517 77.5352 86.9238 77.418 86.709C77.2878 86.4681 77.1022 86.2598 76.8613 86.084C76.627 85.9017 76.2917 85.8105 75.8555 85.8105C75.556 85.8105 75.276 85.8626 75.0156 85.9668C74.7617 86.0645 74.5827 86.1686 74.4785 86.2793C74.4785 86.4095 74.5078 86.6016 74.5664 86.8555C74.6315 87.1094 74.6641 87.3438 74.6641 87.5586C74.6641 87.7865 74.5599 87.9948 74.3516 88.1836C74.1497 88.3724 73.8665 88.4668 73.502 88.4668C73.1764 88.4668 72.9355 88.3529 72.7793 88.125C72.6296 87.8906 72.5547 87.6302 72.5547 87.3438C72.5547 87.0443 72.6589 86.7578 72.8672 86.4844C73.082 86.2109 73.3587 85.9668 73.6973 85.752C73.9902 85.5697 74.3451 85.4167 74.7617 85.293C75.1784 85.1628 75.5853 85.0977 75.9824 85.0977C76.5293 85.0977 77.0046 85.1367 77.4082 85.2148C77.8184 85.2865 78.1895 85.446 78.5215 85.6934C78.8535 85.9342 79.1042 86.263 79.2734 86.6797C79.4492 87.0898 79.5371 87.6204 79.5371 88.2715C79.5371 89.2025 79.5273 90.0293 79.5078 90.752C79.4883 91.4681 79.4785 92.2526 79.4785 93.1055C79.4785 93.3594 79.5208 93.5612 79.6055 93.7109C79.6966 93.8607 79.8333 93.9876 80.0156 94.0918C80.1133 94.1504 80.2663 94.1829 80.4746 94.1895C80.6895 94.196 80.9076 94.1992 81.1289 94.1992V94.8242ZM77.7207 89.668C77.1673 89.8307 76.6823 89.9902 76.2656 90.1465C75.849 90.3027 75.4616 90.498 75.1035 90.7324C74.778 90.9538 74.5208 91.2174 74.332 91.5234C74.1432 91.8229 74.0488 92.181 74.0488 92.5977C74.0488 93.138 74.1888 93.5352 74.4688 93.7891C74.7552 94.043 75.1165 94.1699 75.5527 94.1699C76.015 94.1699 76.4219 94.0592 76.7734 93.8379C77.125 93.61 77.4212 93.3431 77.6621 93.0371L77.7207 89.668ZM92.7207 95H88.0039V94.3555C88.1536 94.3424 88.3164 94.3294 88.4922 94.3164C88.6745 94.3034 88.8242 94.2773 88.9414 94.2383C89.1237 94.1797 89.2572 94.0788 89.3418 93.9355C89.4329 93.7858 89.4785 93.5938 89.4785 93.3594V88.4082C89.4785 87.7246 89.3158 87.1973 88.9902 86.8262C88.6712 86.4551 88.2806 86.2695 87.8184 86.2695C87.4733 86.2695 87.1576 86.3249 86.8711 86.4355C86.5846 86.5397 86.3307 86.6699 86.1094 86.8262C85.8945 86.9759 85.722 87.1387 85.5918 87.3145C85.4681 87.4837 85.377 87.6204 85.3184 87.7246V93.2617C85.3184 93.4831 85.3639 93.6654 85.4551 93.8086C85.5462 93.9518 85.6829 94.0625 85.8652 94.1406C86.002 94.2057 86.1484 94.2546 86.3047 94.2871C86.4674 94.3197 86.6335 94.3424 86.8027 94.3555V95H82.0859V94.3555C82.2357 94.3424 82.3887 94.3294 82.5449 94.3164C82.7077 94.3034 82.8477 94.2773 82.9648 94.2383C83.1471 94.1797 83.2806 94.0788 83.3652 93.9355C83.4564 93.7858 83.502 93.5938 83.502 93.3594V87.4121C83.502 87.1908 83.4531 86.9889 83.3555 86.8066C83.2643 86.6178 83.1341 86.4648 82.9648 86.3477C82.8411 86.2695 82.6947 86.2142 82.5254 86.1816C82.3561 86.1426 82.1738 86.1165 81.9785 86.1035V85.4688L85.1816 85.2539L85.3184 85.3906V86.748H85.3672C85.5234 86.5918 85.7188 86.4062 85.9531 86.1914C86.1875 85.9701 86.4089 85.791 86.6172 85.6543C86.8581 85.498 87.1445 85.3678 87.4766 85.2637C87.8086 85.1595 88.1829 85.1074 88.5996 85.1074C89.5241 85.1074 90.2077 85.3971 90.6504 85.9766C91.0996 86.5495 91.3242 87.3145 91.3242 88.2715V93.2812C91.3242 93.5091 91.3633 93.6947 91.4414 93.8379C91.5195 93.9746 91.653 94.082 91.8418 94.1602C91.998 94.2253 92.1315 94.2708 92.2422 94.2969C92.3594 94.3229 92.5189 94.3424 92.7207 94.3555V95ZM105.895 81.0449C105.895 81.3379 105.816 81.5853 105.66 81.7871C105.504 81.9889 105.266 82.0898 104.947 82.0898C104.745 82.0898 104.566 82.0475 104.41 81.9629C104.26 81.8783 104.12 81.7643 103.99 81.6211C103.86 81.4779 103.74 81.3151 103.629 81.1328C103.518 80.9505 103.424 80.804 103.346 80.6934C102.91 80.7129 102.571 81.0189 102.33 81.6113C102.096 82.1973 101.979 83.1348 101.979 84.4238V85.4102H104.459V86.3477H101.979V93.2617C101.979 93.4896 102.021 93.6751 102.105 93.8184C102.197 93.9616 102.337 94.069 102.525 94.1406C102.682 94.1992 102.89 94.248 103.15 94.2871C103.411 94.3197 103.635 94.3424 103.824 94.3555V95H98.7461V94.3555C98.8958 94.3424 99.0488 94.3294 99.2051 94.3164C99.3678 94.3034 99.5078 94.2773 99.625 94.2383C99.8073 94.1797 99.9408 94.0788 100.025 93.9355C100.117 93.7858 100.162 93.5938 100.162 93.3594V86.3477H98.2578V85.4102H100.162V84.7949C100.162 83.3301 100.54 82.1452 101.295 81.2402C102.057 80.3288 103.007 79.873 104.146 79.873C104.726 79.873 105.162 79.987 105.455 80.2148C105.748 80.4427 105.895 80.7194 105.895 81.0449ZM109.908 95H105.25V94.3555C105.4 94.3424 105.553 94.3294 105.709 94.3164C105.872 94.3034 106.012 94.2773 106.129 94.2383C106.311 94.1797 106.445 94.0788 106.529 93.9355C106.62 93.7858 106.666 93.5938 106.666 93.3594V87.4121C106.666 87.2038 106.617 87.015 106.52 86.8457C106.428 86.6699 106.298 86.5234 106.129 86.4062C106.005 86.3281 105.826 86.263 105.592 86.2109C105.357 86.1523 105.143 86.1165 104.947 86.1035V85.4688L108.346 85.2539L108.482 85.3906V93.2422C108.482 93.4701 108.525 93.6589 108.609 93.8086C108.701 93.9583 108.84 94.069 109.029 94.1406C109.173 94.1992 109.312 94.248 109.449 94.2871C109.586 94.3197 109.739 94.3424 109.908 94.3555V95ZM108.678 81.4551C108.678 81.8262 108.554 82.1517 108.307 82.4316C108.066 82.7051 107.766 82.8418 107.408 82.8418C107.076 82.8418 106.786 82.7116 106.539 82.4512C106.298 82.1842 106.178 81.8815 106.178 81.543C106.178 81.1849 106.298 80.8724 106.539 80.6055C106.786 80.3385 107.076 80.2051 107.408 80.2051C107.779 80.2051 108.082 80.332 108.316 80.5859C108.557 80.8333 108.678 81.123 108.678 81.4551ZM121.725 95H117.008V94.3555C117.158 94.3424 117.32 94.3294 117.496 94.3164C117.678 94.3034 117.828 94.2773 117.945 94.2383C118.128 94.1797 118.261 94.0788 118.346 93.9355C118.437 93.7858 118.482 93.5938 118.482 93.3594V88.4082C118.482 87.7246 118.32 87.1973 117.994 86.8262C117.675 86.4551 117.285 86.2695 116.822 86.2695C116.477 86.2695 116.161 86.3249 115.875 86.4355C115.589 86.5397 115.335 86.6699 115.113 86.8262C114.898 86.9759 114.726 87.1387 114.596 87.3145C114.472 87.4837 114.381 87.6204 114.322 87.7246V93.2617C114.322 93.4831 114.368 93.6654 114.459 93.8086C114.55 93.9518 114.687 94.0625 114.869 94.1406C115.006 94.2057 115.152 94.2546 115.309 94.2871C115.471 94.3197 115.637 94.3424 115.807 94.3555V95H111.09V94.3555C111.24 94.3424 111.393 94.3294 111.549 94.3164C111.712 94.3034 111.852 94.2773 111.969 94.2383C112.151 94.1797 112.285 94.0788 112.369 93.9355C112.46 93.7858 112.506 93.5938 112.506 93.3594V87.4121C112.506 87.1908 112.457 86.9889 112.359 86.8066C112.268 86.6178 112.138 86.4648 111.969 86.3477C111.845 86.2695 111.699 86.2142 111.529 86.1816C111.36 86.1426 111.178 86.1165 110.982 86.1035V85.4688L114.186 85.2539L114.322 85.3906V86.748H114.371C114.527 86.5918 114.723 86.4062 114.957 86.1914C115.191 85.9701 115.413 85.791 115.621 85.6543C115.862 85.498 116.148 85.3678 116.48 85.2637C116.812 85.1595 117.187 85.1074 117.604 85.1074C118.528 85.1074 119.212 85.3971 119.654 85.9766C120.104 86.5495 120.328 87.3145 120.328 88.2715V93.2812C120.328 93.5091 120.367 93.6947 120.445 93.8379C120.523 93.9746 120.657 94.082 120.846 94.1602C121.002 94.2253 121.135 94.2708 121.246 94.2969C121.363 94.3229 121.523 94.3424 121.725 94.3555V95ZM131.158 94.0039C131.419 94.2513 131.624 94.5312 131.773 94.8438C131.923 95.1562 131.998 95.5436 131.998 96.0059C131.998 96.4681 131.897 96.901 131.695 97.3047C131.493 97.7148 131.188 98.0697 130.777 98.3691C130.341 98.6751 129.82 98.9128 129.215 99.082C128.609 99.2513 127.861 99.3359 126.969 99.3359C125.51 99.3359 124.42 99.1211 123.697 98.6914C122.975 98.2682 122.613 97.6465 122.613 96.8262C122.613 96.1621 122.874 95.638 123.395 95.2539C123.915 94.8698 124.579 94.6615 125.387 94.6289V94.4922C125.191 94.4336 124.99 94.362 124.781 94.2773C124.573 94.1862 124.394 94.082 124.244 93.9648C124.075 93.8281 123.938 93.6686 123.834 93.4863C123.73 93.2975 123.678 93.0664 123.678 92.793C123.678 92.4479 123.798 92.1322 124.039 91.8457C124.286 91.5527 124.658 91.3021 125.152 91.0938V90.9473C124.527 90.6543 124.042 90.2799 123.697 89.8242C123.352 89.362 123.18 88.8281 123.18 88.2227C123.18 87.3112 123.518 86.5625 124.195 85.9766C124.879 85.3906 125.751 85.0977 126.812 85.0977C127.105 85.0977 127.395 85.127 127.682 85.1855C127.975 85.2441 128.271 85.319 128.57 85.4102H131.93V86.3477H129.664V86.4062C129.905 86.6862 130.084 86.9954 130.201 87.334C130.318 87.6725 130.377 88.0046 130.377 88.3301C130.377 89.1764 130.032 89.8926 129.342 90.4785C128.658 91.0645 127.861 91.3574 126.949 91.3574H125.768C125.618 91.4095 125.462 91.5039 125.299 91.6406C125.136 91.7773 125.055 91.9629 125.055 92.1973C125.055 92.4382 125.123 92.6237 125.26 92.7539C125.396 92.8776 125.562 92.9622 125.758 93.0078C125.947 93.0599 126.165 93.0924 126.412 93.1055C126.666 93.1185 126.926 93.1283 127.193 93.1348C127.48 93.1413 127.87 93.1608 128.365 93.1934C128.867 93.2259 129.221 93.2454 129.43 93.252C129.729 93.265 130.029 93.3366 130.328 93.4668C130.634 93.597 130.911 93.776 131.158 94.0039ZM128.521 88.291C128.521 87.5293 128.365 86.9238 128.053 86.4746C127.747 86.0189 127.314 85.791 126.754 85.791C126.448 85.791 126.184 85.8561 125.963 85.9863C125.748 86.11 125.572 86.2891 125.436 86.5234C125.305 86.7383 125.211 86.9987 125.152 87.3047C125.1 87.6042 125.074 87.9134 125.074 88.2324C125.074 88.9551 125.23 89.5443 125.543 90C125.862 90.4557 126.272 90.6836 126.773 90.6836C127.333 90.6836 127.763 90.459 128.062 90.0098C128.368 89.554 128.521 88.9811 128.521 88.291ZM130.396 96.3672C130.396 96.0026 130.312 95.7031 130.143 95.4688C129.973 95.2344 129.716 95.0749 129.371 94.9902C129.189 94.9642 128.814 94.9349 128.248 94.9023C127.682 94.8698 127.024 94.8535 126.275 94.8535C125.572 94.9902 125.071 95.2181 124.771 95.5371C124.479 95.8626 124.332 96.2793 124.332 96.7871C124.332 97.015 124.381 97.2331 124.479 97.4414C124.576 97.6497 124.745 97.8418 124.986 98.0176C125.214 98.1868 125.52 98.3236 125.904 98.4277C126.288 98.5384 126.757 98.5938 127.311 98.5938C128.268 98.5938 129.02 98.4082 129.566 98.0371C130.12 97.6725 130.396 97.1159 130.396 96.3672ZM141.656 92.7344C141.253 93.5026 140.712 94.1146 140.035 94.5703C139.358 95.026 138.58 95.2539 137.701 95.2539C136.926 95.2539 136.246 95.1172 135.66 94.8438C135.081 94.5703 134.602 94.1992 134.225 93.7305C133.847 93.2617 133.564 92.7148 133.375 92.0898C133.193 91.4648 133.102 90.804 133.102 90.1074C133.102 89.4824 133.199 88.8704 133.395 88.2715C133.596 87.666 133.889 87.1224 134.273 86.6406C134.645 86.1784 135.104 85.8073 135.65 85.5273C136.204 85.2409 136.822 85.0977 137.506 85.0977C138.209 85.0977 138.811 85.2083 139.312 85.4297C139.814 85.651 140.221 85.9538 140.533 86.3379C140.833 86.7025 141.054 87.1322 141.197 87.627C141.347 88.1217 141.422 88.6589 141.422 89.2383V89.8828H135.045C135.045 90.5143 135.104 91.0872 135.221 91.6016C135.344 92.1159 135.536 92.5684 135.797 92.959C136.051 93.3366 136.383 93.6361 136.793 93.8574C137.203 94.0723 137.691 94.1797 138.258 94.1797C138.837 94.1797 139.335 94.0462 139.752 93.7793C140.175 93.5059 140.582 93.0176 140.973 92.3145L141.656 92.7344ZM139.498 89.0625C139.498 88.6979 139.465 88.3073 139.4 87.8906C139.342 87.474 139.244 87.1257 139.107 86.8457C138.958 86.5462 138.753 86.3021 138.492 86.1133C138.232 85.9245 137.896 85.8301 137.486 85.8301C136.803 85.8301 136.233 86.1165 135.777 86.6895C135.328 87.2559 135.084 88.0469 135.045 89.0625H139.498ZM150.143 86.6113C150.143 86.9434 150.061 87.2396 149.898 87.5C149.736 87.7539 149.485 87.8809 149.146 87.8809C148.782 87.8809 148.502 87.7865 148.307 87.5977C148.118 87.4089 148.023 87.2005 148.023 86.9727C148.023 86.8294 148.033 86.6992 148.053 86.582C148.079 86.4648 148.102 86.3477 148.121 86.2305C147.815 86.2305 147.457 86.3542 147.047 86.6016C146.637 86.849 146.288 87.2005 146.002 87.6562V93.2617C146.002 93.4896 146.044 93.6751 146.129 93.8184C146.22 93.9616 146.36 94.069 146.549 94.1406C146.712 94.2057 146.92 94.2546 147.174 94.2871C147.434 94.3197 147.659 94.3424 147.848 94.3555V95H142.77V94.3555C142.919 94.3424 143.072 94.3294 143.229 94.3164C143.391 94.3034 143.531 94.2773 143.648 94.2383C143.831 94.1797 143.964 94.0788 144.049 93.9355C144.14 93.7858 144.186 93.5938 144.186 93.3594V87.4121C144.186 87.2103 144.137 87.0117 144.039 86.8164C143.948 86.6211 143.818 86.4648 143.648 86.3477C143.525 86.2695 143.378 86.2142 143.209 86.1816C143.04 86.1426 142.857 86.1165 142.662 86.1035V85.4688L145.865 85.2539L146.002 85.3906V86.748H146.051C146.454 86.2207 146.904 85.8203 147.398 85.5469C147.893 85.2734 148.346 85.1367 148.756 85.1367C149.166 85.1367 149.498 85.2702 149.752 85.5371C150.012 85.804 150.143 86.1621 150.143 86.6113ZM159.771 86.5137C160.156 86.9694 160.452 87.5 160.66 88.1055C160.875 88.7044 160.982 89.3913 160.982 90.166C160.982 90.9277 160.855 91.6243 160.602 92.2559C160.348 92.8809 160.012 93.4147 159.596 93.8574C159.16 94.3066 158.674 94.6517 158.141 94.8926C157.607 95.1335 157.04 95.2539 156.441 95.2539C155.862 95.2539 155.387 95.1888 155.016 95.0586C154.645 94.9284 154.342 94.7754 154.107 94.5996H154.029V97.4902C154.029 97.7246 154.075 97.9199 154.166 98.0762C154.257 98.2324 154.397 98.3464 154.586 98.418C154.742 98.4766 154.964 98.5319 155.25 98.584C155.543 98.6426 155.784 98.6751 155.973 98.6816V99.3359H150.592V98.6816C150.794 98.6686 150.989 98.6523 151.178 98.6328C151.367 98.6133 151.536 98.5807 151.686 98.5352C151.881 98.4701 152.018 98.3561 152.096 98.1934C152.174 98.0306 152.213 97.8385 152.213 97.6172V87.373C152.213 87.1777 152.164 86.9889 152.066 86.8066C151.969 86.6243 151.842 86.4779 151.686 86.3672C151.568 86.2891 151.406 86.2305 151.197 86.1914C150.989 86.1458 150.787 86.1165 150.592 86.1035V85.4688L153.873 85.2539L154.01 85.3711V86.4551L154.088 86.4746C154.426 86.084 154.846 85.7585 155.348 85.498C155.849 85.2376 156.347 85.1074 156.842 85.1074C157.441 85.1074 157.988 85.2344 158.482 85.4883C158.984 85.7422 159.413 86.084 159.771 86.5137ZM158.18 93.4375C158.44 93.0339 158.632 92.5651 158.756 92.0312C158.88 91.4974 158.941 90.9017 158.941 90.2441C158.941 89.7624 158.889 89.2708 158.785 88.7695C158.681 88.2682 158.518 87.832 158.297 87.4609C158.076 87.0833 157.786 86.7773 157.428 86.543C157.07 86.3086 156.64 86.1914 156.139 86.1914C155.657 86.1914 155.247 86.2988 154.908 86.5137C154.57 86.722 154.277 86.9727 154.029 87.2656V92.959C154.088 93.1348 154.182 93.3171 154.312 93.5059C154.449 93.6947 154.599 93.8574 154.762 93.9941C154.964 94.1569 155.182 94.2904 155.416 94.3945C155.65 94.4922 155.937 94.541 156.275 94.541C156.64 94.541 156.992 94.4466 157.33 94.2578C157.669 94.0625 157.952 93.7891 158.18 93.4375ZM169.771 86.6113C169.771 86.9434 169.69 87.2396 169.527 87.5C169.365 87.7539 169.114 87.8809 168.775 87.8809C168.411 87.8809 168.131 87.7865 167.936 87.5977C167.747 87.4089 167.652 87.2005 167.652 86.9727C167.652 86.8294 167.662 86.6992 167.682 86.582C167.708 86.4648 167.73 86.3477 167.75 86.2305C167.444 86.2305 167.086 86.3542 166.676 86.6016C166.266 86.849 165.917 87.2005 165.631 87.6562V93.2617C165.631 93.4896 165.673 93.6751 165.758 93.8184C165.849 93.9616 165.989 94.069 166.178 94.1406C166.34 94.2057 166.549 94.2546 166.803 94.2871C167.063 94.3197 167.288 94.3424 167.477 94.3555V95H162.398V94.3555C162.548 94.3424 162.701 94.3294 162.857 94.3164C163.02 94.3034 163.16 94.2773 163.277 94.2383C163.46 94.1797 163.593 94.0788 163.678 93.9355C163.769 93.7858 163.814 93.5938 163.814 93.3594V87.4121C163.814 87.2103 163.766 87.0117 163.668 86.8164C163.577 86.6211 163.447 86.4648 163.277 86.3477C163.154 86.2695 163.007 86.2142 162.838 86.1816C162.669 86.1426 162.486 86.1165 162.291 86.1035V85.4688L165.494 85.2539L165.631 85.3906V86.748H165.68C166.083 86.2207 166.533 85.8203 167.027 85.5469C167.522 85.2734 167.975 85.1367 168.385 85.1367C168.795 85.1367 169.127 85.2702 169.381 85.5371C169.641 85.804 169.771 86.1621 169.771 86.6113ZM175.279 95H170.621V94.3555C170.771 94.3424 170.924 94.3294 171.08 94.3164C171.243 94.3034 171.383 94.2773 171.5 94.2383C171.682 94.1797 171.816 94.0788 171.9 93.9355C171.992 93.7858 172.037 93.5938 172.037 93.3594V87.4121C172.037 87.2038 171.988 87.015 171.891 86.8457C171.799 86.6699 171.669 86.5234 171.5 86.4062C171.376 86.3281 171.197 86.263 170.963 86.2109C170.729 86.1523 170.514 86.1165 170.318 86.1035V85.4688L173.717 85.2539L173.854 85.3906V93.2422C173.854 93.4701 173.896 93.6589 173.98 93.8086C174.072 93.9583 174.212 94.069 174.4 94.1406C174.544 94.1992 174.684 94.248 174.82 94.2871C174.957 94.3197 175.11 94.3424 175.279 94.3555V95ZM174.049 81.4551C174.049 81.8262 173.925 82.1517 173.678 82.4316C173.437 82.7051 173.137 82.8418 172.779 82.8418C172.447 82.8418 172.158 82.7116 171.91 82.4512C171.669 82.1842 171.549 81.8815 171.549 81.543C171.549 81.1849 171.669 80.8724 171.91 80.6055C172.158 80.3385 172.447 80.2051 172.779 80.2051C173.15 80.2051 173.453 80.332 173.688 80.5859C173.928 80.8333 174.049 81.123 174.049 81.4551ZM187.096 95H182.379V94.3555C182.529 94.3424 182.691 94.3294 182.867 94.3164C183.049 94.3034 183.199 94.2773 183.316 94.2383C183.499 94.1797 183.632 94.0788 183.717 93.9355C183.808 93.7858 183.854 93.5938 183.854 93.3594V88.4082C183.854 87.7246 183.691 87.1973 183.365 86.8262C183.046 86.4551 182.656 86.2695 182.193 86.2695C181.848 86.2695 181.533 86.3249 181.246 86.4355C180.96 86.5397 180.706 86.6699 180.484 86.8262C180.27 86.9759 180.097 87.1387 179.967 87.3145C179.843 87.4837 179.752 87.6204 179.693 87.7246V93.2617C179.693 93.4831 179.739 93.6654 179.83 93.8086C179.921 93.9518 180.058 94.0625 180.24 94.1406C180.377 94.2057 180.523 94.2546 180.68 94.2871C180.842 94.3197 181.008 94.3424 181.178 94.3555V95H176.461V94.3555C176.611 94.3424 176.764 94.3294 176.92 94.3164C177.083 94.3034 177.223 94.2773 177.34 94.2383C177.522 94.1797 177.656 94.0788 177.74 93.9355C177.831 93.7858 177.877 93.5938 177.877 93.3594V87.4121C177.877 87.1908 177.828 86.9889 177.73 86.8066C177.639 86.6178 177.509 86.4648 177.34 86.3477C177.216 86.2695 177.07 86.2142 176.9 86.1816C176.731 86.1426 176.549 86.1165 176.354 86.1035V85.4688L179.557 85.2539L179.693 85.3906V86.748H179.742C179.898 86.5918 180.094 86.4062 180.328 86.1914C180.562 85.9701 180.784 85.791 180.992 85.6543C181.233 85.498 181.52 85.3678 181.852 85.2637C182.184 85.1595 182.558 85.1074 182.975 85.1074C183.899 85.1074 184.583 85.3971 185.025 85.9766C185.475 86.5495 185.699 87.3145 185.699 88.2715V93.2812C185.699 93.5091 185.738 93.6947 185.816 93.8379C185.895 93.9746 186.028 94.082 186.217 94.1602C186.373 94.2253 186.507 94.2708 186.617 94.2969C186.734 94.3229 186.894 94.3424 187.096 94.3555V95ZM194.225 94.5801C193.801 94.7559 193.401 94.9023 193.023 95.0195C192.646 95.1432 192.184 95.2051 191.637 95.2051C190.829 95.2051 190.26 95.0033 189.928 94.5996C189.602 94.1895 189.439 93.6133 189.439 92.8711V86.3477H187.701V85.4102H189.479V82.4121H191.256V85.4102H194.02V86.3477H191.275V91.7285C191.275 92.1322 191.288 92.4707 191.314 92.7441C191.347 93.0111 191.419 93.2454 191.529 93.4473C191.633 93.6361 191.79 93.7793 191.998 93.877C192.206 93.9746 192.486 94.0234 192.838 94.0234C193.001 94.0234 193.238 94.0104 193.551 93.9844C193.87 93.9518 194.094 93.9128 194.225 93.8672V94.5801ZM205.963 94.5801C205.54 94.7559 205.139 94.9023 204.762 95.0195C204.384 95.1432 203.922 95.2051 203.375 95.2051C202.568 95.2051 201.998 95.0033 201.666 94.5996C201.34 94.1895 201.178 93.6133 201.178 92.8711V86.3477H199.439V85.4102H201.217V82.4121H202.994V85.4102H205.758V86.3477H203.014V91.7285C203.014 92.1322 203.027 92.4707 203.053 92.7441C203.085 93.0111 203.157 93.2454 203.268 93.4473C203.372 93.6361 203.528 93.7793 203.736 93.877C203.945 93.9746 204.225 94.0234 204.576 94.0234C204.739 94.0234 204.977 94.0104 205.289 93.9844C205.608 93.9518 205.833 93.9128 205.963 93.8672V94.5801ZM216.314 90.0879C216.314 90.765 216.207 91.4323 215.992 92.0898C215.777 92.7409 215.471 93.2943 215.074 93.75C214.625 94.2708 214.104 94.6582 213.512 94.9121C212.919 95.166 212.255 95.293 211.52 95.293C210.908 95.293 210.325 95.179 209.771 94.9512C209.218 94.7168 208.727 94.3783 208.297 93.9355C207.874 93.4993 207.535 92.9688 207.281 92.3438C207.034 91.7122 206.91 91.0059 206.91 90.2246C206.91 88.7207 207.346 87.4902 208.219 86.5332C209.098 85.5762 210.247 85.0977 211.666 85.0977C213.014 85.0977 214.124 85.5534 214.996 86.4648C215.875 87.3698 216.314 88.5775 216.314 90.0879ZM214.293 90.1074C214.293 89.6191 214.244 89.1048 214.146 88.5645C214.049 88.0176 213.902 87.5553 213.707 87.1777C213.499 86.7741 213.225 86.4518 212.887 86.2109C212.548 85.9635 212.135 85.8398 211.646 85.8398C211.145 85.8398 210.715 85.9635 210.357 86.2109C210.006 86.4583 209.719 86.7969 209.498 87.2266C209.29 87.6237 209.143 88.0762 209.059 88.584C208.974 89.0918 208.932 89.5833 208.932 90.0586C208.932 90.6836 208.98 91.263 209.078 91.7969C209.182 92.3242 209.345 92.7962 209.566 93.2129C209.788 93.6296 210.064 93.9583 210.396 94.1992C210.735 94.4336 211.152 94.5508 211.646 94.5508C212.46 94.5508 213.105 94.1569 213.58 93.3691C214.055 92.5814 214.293 91.4941 214.293 90.1074ZM49.6641 117.824C49.3581 117.935 49.0879 118.023 48.8535 118.088C48.6257 118.16 48.3652 118.195 48.0723 118.195C47.5645 118.195 47.1576 118.078 46.8516 117.844C46.5521 117.603 46.36 117.255 46.2754 116.799H46.2168C45.7936 117.268 45.3379 117.626 44.8496 117.873C44.3678 118.12 43.7852 118.244 43.1016 118.244C42.3789 118.244 41.7832 118.023 41.3145 117.58C40.8522 117.137 40.6211 116.558 40.6211 115.842C40.6211 115.471 40.6732 115.139 40.7773 114.846C40.8815 114.553 41.0378 114.289 41.2461 114.055C41.4089 113.859 41.6237 113.687 41.8906 113.537C42.1576 113.381 42.4082 113.257 42.6426 113.166C42.9355 113.055 43.528 112.85 44.4199 112.551C45.3184 112.251 45.9238 112.017 46.2363 111.848V110.881C46.2363 110.796 46.2168 110.633 46.1777 110.393C46.1452 110.152 46.0703 109.924 45.9531 109.709C45.8229 109.468 45.6374 109.26 45.3965 109.084C45.1621 108.902 44.8268 108.811 44.3906 108.811C44.0911 108.811 43.8112 108.863 43.5508 108.967C43.2969 109.064 43.1178 109.169 43.0137 109.279C43.0137 109.41 43.043 109.602 43.1016 109.855C43.1667 110.109 43.1992 110.344 43.1992 110.559C43.1992 110.786 43.0951 110.995 42.8867 111.184C42.6849 111.372 42.4017 111.467 42.0371 111.467C41.7116 111.467 41.4707 111.353 41.3145 111.125C41.1647 110.891 41.0898 110.63 41.0898 110.344C41.0898 110.044 41.194 109.758 41.4023 109.484C41.6172 109.211 41.8939 108.967 42.2324 108.752C42.5254 108.57 42.8802 108.417 43.2969 108.293C43.7135 108.163 44.1204 108.098 44.5176 108.098C45.0645 108.098 45.5397 108.137 45.9434 108.215C46.3535 108.286 46.7246 108.446 47.0566 108.693C47.3887 108.934 47.6393 109.263 47.8086 109.68C47.9844 110.09 48.0723 110.62 48.0723 111.271C48.0723 112.202 48.0625 113.029 48.043 113.752C48.0234 114.468 48.0137 115.253 48.0137 116.105C48.0137 116.359 48.056 116.561 48.1406 116.711C48.2318 116.861 48.3685 116.988 48.5508 117.092C48.6484 117.15 48.8014 117.183 49.0098 117.189C49.2246 117.196 49.4427 117.199 49.6641 117.199V117.824ZM46.2559 112.668C45.7025 112.831 45.2174 112.99 44.8008 113.146C44.3841 113.303 43.9967 113.498 43.6387 113.732C43.3132 113.954 43.056 114.217 42.8672 114.523C42.6784 114.823 42.584 115.181 42.584 115.598C42.584 116.138 42.724 116.535 43.0039 116.789C43.2904 117.043 43.6517 117.17 44.0879 117.17C44.5501 117.17 44.957 117.059 45.3086 116.838C45.6602 116.61 45.9564 116.343 46.1973 116.037L46.2559 112.668ZM60.9434 117.824L57.8086 118.039L57.6621 117.902V116.682H57.6035C57.4473 116.844 57.2715 117.02 57.0762 117.209C56.8809 117.391 56.6562 117.557 56.4023 117.707C56.1094 117.883 55.8262 118.016 55.5527 118.107C55.2793 118.199 54.8919 118.244 54.3906 118.244C53.5378 118.244 52.8867 117.967 52.4375 117.414C51.9948 116.854 51.7734 116.044 51.7734 114.982V110.373C51.7734 110.139 51.7279 109.943 51.6367 109.787C51.5521 109.624 51.4251 109.484 51.2559 109.367C51.1387 109.289 50.9922 109.234 50.8164 109.201C50.6406 109.162 50.4551 109.136 50.2598 109.123V108.488L53.4727 108.254L53.6191 108.391V115.08C53.6191 115.777 53.7754 116.301 54.0879 116.652C54.4004 117.004 54.7747 117.18 55.2109 117.18C55.569 117.18 55.888 117.124 56.168 117.014C56.4479 116.903 56.6823 116.773 56.8711 116.623C57.0469 116.486 57.1999 116.343 57.3301 116.193C57.4668 116.037 57.571 115.894 57.6426 115.764V110.305C57.6426 110.09 57.597 109.901 57.5059 109.738C57.4147 109.569 57.2878 109.426 57.125 109.309C57.0078 109.23 56.832 109.185 56.5977 109.172C56.3698 109.152 56.1126 109.136 55.8262 109.123V108.488L59.3223 108.254L59.4688 108.391V116.037C59.4688 116.258 59.5143 116.447 59.6055 116.604C59.6966 116.76 59.8236 116.893 59.9863 117.004C60.1035 117.076 60.2435 117.124 60.4062 117.15C60.569 117.17 60.748 117.183 60.9434 117.189V117.824ZM68.0723 117.58C67.6491 117.756 67.2487 117.902 66.8711 118.02C66.4935 118.143 66.0312 118.205 65.4844 118.205C64.6771 118.205 64.1074 118.003 63.7754 117.6C63.4499 117.189 63.2871 116.613 63.2871 115.871V109.348H61.5488V108.41H63.3262V105.412H65.1035V108.41H67.8672V109.348H65.123V114.729C65.123 115.132 65.1361 115.471 65.1621 115.744C65.1947 116.011 65.2663 116.245 65.377 116.447C65.4811 116.636 65.6374 116.779 65.8457 116.877C66.054 116.975 66.334 117.023 66.6855 117.023C66.8483 117.023 67.0859 117.01 67.3984 116.984C67.7174 116.952 67.9421 116.913 68.0723 116.867V117.58ZM79.498 118H74.7715V117.355C74.9212 117.342 75.0872 117.329 75.2695 117.316C75.4518 117.303 75.6016 117.277 75.7188 117.238C75.901 117.18 76.0345 117.079 76.1191 116.936C76.2103 116.786 76.2559 116.594 76.2559 116.359V111.408C76.2559 110.725 76.0931 110.197 75.7676 109.826C75.4486 109.455 75.0579 109.27 74.5957 109.27C74.2572 109.27 73.9414 109.325 73.6484 109.436C73.362 109.54 73.1048 109.67 72.877 109.826C72.6556 109.989 72.4863 110.152 72.3691 110.314C72.252 110.477 72.1608 110.614 72.0957 110.725V116.262C72.0957 116.483 72.138 116.665 72.2227 116.809C72.3138 116.952 72.4505 117.062 72.6328 117.141C72.776 117.206 72.9225 117.255 73.0723 117.287C73.2285 117.32 73.3978 117.342 73.5801 117.355V118H68.8535V117.355C69.0033 117.342 69.1595 117.329 69.3223 117.316C69.485 117.297 69.6217 117.271 69.7324 117.238C69.9147 117.18 70.0514 117.079 70.1426 116.936C70.2337 116.786 70.2793 116.594 70.2793 116.359V105.148C70.2793 104.927 70.2272 104.706 70.123 104.484C70.0254 104.263 69.8952 104.097 69.7324 103.986C69.6152 103.902 69.4069 103.843 69.1074 103.811C68.8145 103.771 68.5768 103.745 68.3945 103.732V103.107L71.959 102.883L72.0957 103.029V109.748H72.1348C72.3496 109.533 72.5449 109.344 72.7207 109.182C72.8965 109.012 73.1276 108.837 73.4141 108.654C73.6615 108.498 73.9512 108.368 74.2832 108.264C74.6217 108.16 74.9993 108.107 75.416 108.107C76.2754 108.107 76.9362 108.381 77.3984 108.928C77.8607 109.468 78.0918 110.249 78.0918 111.271V116.281C78.0918 116.509 78.1309 116.695 78.209 116.838C78.2936 116.975 78.4303 117.082 78.6191 117.16C78.7689 117.219 78.9023 117.264 79.0195 117.297C79.1432 117.323 79.3027 117.342 79.498 117.355V118ZM90.0645 113.088C90.0645 113.765 89.957 114.432 89.7422 115.09C89.5273 115.741 89.2214 116.294 88.8242 116.75C88.375 117.271 87.8542 117.658 87.2617 117.912C86.6693 118.166 86.0052 118.293 85.2695 118.293C84.6576 118.293 84.0749 118.179 83.5215 117.951C82.9681 117.717 82.4766 117.378 82.0469 116.936C81.6237 116.499 81.2852 115.969 81.0312 115.344C80.7839 114.712 80.6602 114.006 80.6602 113.225C80.6602 111.721 81.0964 110.49 81.9688 109.533C82.8477 108.576 83.9967 108.098 85.416 108.098C86.7637 108.098 87.8737 108.553 88.7461 109.465C89.625 110.37 90.0645 111.577 90.0645 113.088ZM88.043 113.107C88.043 112.619 87.9941 112.105 87.8965 111.564C87.7988 111.018 87.6523 110.555 87.457 110.178C87.2487 109.774 86.9753 109.452 86.6367 109.211C86.2982 108.964 85.8848 108.84 85.3965 108.84C84.8952 108.84 84.4655 108.964 84.1074 109.211C83.7559 109.458 83.4694 109.797 83.248 110.227C83.0397 110.624 82.8932 111.076 82.8086 111.584C82.724 112.092 82.6816 112.583 82.6816 113.059C82.6816 113.684 82.7305 114.263 82.8281 114.797C82.9323 115.324 83.0951 115.796 83.3164 116.213C83.5378 116.63 83.8145 116.958 84.1465 117.199C84.485 117.434 84.9017 117.551 85.3965 117.551C86.2103 117.551 86.8548 117.157 87.3301 116.369C87.8053 115.581 88.043 114.494 88.043 113.107ZM98.834 109.611C98.834 109.943 98.7526 110.24 98.5898 110.5C98.4271 110.754 98.1764 110.881 97.8379 110.881C97.4733 110.881 97.1934 110.786 96.998 110.598C96.8092 110.409 96.7148 110.201 96.7148 109.973C96.7148 109.829 96.7246 109.699 96.7441 109.582C96.7702 109.465 96.793 109.348 96.8125 109.23C96.5065 109.23 96.1484 109.354 95.7383 109.602C95.3281 109.849 94.9798 110.201 94.6934 110.656V116.262C94.6934 116.49 94.7357 116.675 94.8203 116.818C94.9115 116.962 95.0514 117.069 95.2402 117.141C95.403 117.206 95.6113 117.255 95.8652 117.287C96.1257 117.32 96.3503 117.342 96.5391 117.355V118H91.4609V117.355C91.6107 117.342 91.7637 117.329 91.9199 117.316C92.0827 117.303 92.2227 117.277 92.3398 117.238C92.5221 117.18 92.6556 117.079 92.7402 116.936C92.8314 116.786 92.877 116.594 92.877 116.359V110.412C92.877 110.21 92.8281 110.012 92.7305 109.816C92.6393 109.621 92.5091 109.465 92.3398 109.348C92.2161 109.27 92.0697 109.214 91.9004 109.182C91.7311 109.143 91.5488 109.117 91.3535 109.104V108.469L94.5566 108.254L94.6934 108.391V109.748H94.7422C95.1458 109.221 95.5951 108.82 96.0898 108.547C96.5846 108.273 97.0371 108.137 97.4473 108.137C97.8574 108.137 98.1895 108.27 98.4434 108.537C98.7038 108.804 98.834 109.162 98.834 109.611ZM104.342 118H99.6836V117.355C99.8333 117.342 99.9863 117.329 100.143 117.316C100.305 117.303 100.445 117.277 100.562 117.238C100.745 117.18 100.878 117.079 100.963 116.936C101.054 116.786 101.1 116.594 101.1 116.359V110.412C101.1 110.204 101.051 110.015 100.953 109.846C100.862 109.67 100.732 109.523 100.562 109.406C100.439 109.328 100.26 109.263 100.025 109.211C99.791 109.152 99.5762 109.117 99.3809 109.104V108.469L102.779 108.254L102.916 108.391V116.242C102.916 116.47 102.958 116.659 103.043 116.809C103.134 116.958 103.274 117.069 103.463 117.141C103.606 117.199 103.746 117.248 103.883 117.287C104.02 117.32 104.173 117.342 104.342 117.355V118ZM103.111 104.455C103.111 104.826 102.988 105.152 102.74 105.432C102.499 105.705 102.2 105.842 101.842 105.842C101.51 105.842 101.22 105.712 100.973 105.451C100.732 105.184 100.611 104.882 100.611 104.543C100.611 104.185 100.732 103.872 100.973 103.605C101.22 103.339 101.51 103.205 101.842 103.205C102.213 103.205 102.516 103.332 102.75 103.586C102.991 103.833 103.111 104.123 103.111 104.455ZM111.881 113.283C112.148 113.518 112.353 113.788 112.496 114.094C112.639 114.4 112.711 114.774 112.711 115.217C112.711 116.109 112.376 116.838 111.705 117.404C111.041 117.971 110.178 118.254 109.117 118.254C108.557 118.254 108.04 118.153 107.564 117.951C107.096 117.749 106.76 117.564 106.559 117.395L106.363 118.029H105.631L105.533 114.68H106.207C106.259 114.934 106.37 115.23 106.539 115.568C106.708 115.907 106.913 116.213 107.154 116.486C107.408 116.773 107.711 117.014 108.062 117.209C108.421 117.404 108.821 117.502 109.264 117.502C109.889 117.502 110.37 117.362 110.709 117.082C111.048 116.796 111.217 116.389 111.217 115.861C111.217 115.588 111.161 115.354 111.051 115.158C110.947 114.956 110.79 114.781 110.582 114.631C110.367 114.481 110.104 114.348 109.791 114.23C109.479 114.107 109.13 113.986 108.746 113.869C108.44 113.778 108.098 113.654 107.721 113.498C107.35 113.335 107.031 113.146 106.764 112.932C106.477 112.704 106.243 112.424 106.061 112.092C105.878 111.76 105.787 111.369 105.787 110.92C105.787 110.132 106.08 109.465 106.666 108.918C107.252 108.371 108.036 108.098 109.02 108.098C109.397 108.098 109.781 108.146 110.172 108.244C110.569 108.342 110.891 108.459 111.139 108.596L111.363 108.088H112.066L112.213 111.184H111.539C111.402 110.493 111.106 109.934 110.65 109.504C110.201 109.068 109.651 108.85 109 108.85C108.466 108.85 108.046 108.983 107.74 109.25C107.434 109.517 107.281 109.839 107.281 110.217C107.281 110.51 107.33 110.754 107.428 110.949C107.532 111.145 107.685 111.311 107.887 111.447C108.082 111.577 108.326 111.701 108.619 111.818C108.919 111.929 109.286 112.056 109.723 112.199C110.152 112.336 110.556 112.495 110.934 112.678C111.318 112.86 111.633 113.062 111.881 113.283ZM122.73 115.734C122.327 116.503 121.786 117.115 121.109 117.57C120.432 118.026 119.654 118.254 118.775 118.254C118.001 118.254 117.32 118.117 116.734 117.844C116.155 117.57 115.676 117.199 115.299 116.73C114.921 116.262 114.638 115.715 114.449 115.09C114.267 114.465 114.176 113.804 114.176 113.107C114.176 112.482 114.273 111.87 114.469 111.271C114.671 110.666 114.964 110.122 115.348 109.641C115.719 109.178 116.178 108.807 116.725 108.527C117.278 108.241 117.896 108.098 118.58 108.098C119.283 108.098 119.885 108.208 120.387 108.43C120.888 108.651 121.295 108.954 121.607 109.338C121.907 109.702 122.128 110.132 122.271 110.627C122.421 111.122 122.496 111.659 122.496 112.238V112.883H116.119C116.119 113.514 116.178 114.087 116.295 114.602C116.419 115.116 116.611 115.568 116.871 115.959C117.125 116.337 117.457 116.636 117.867 116.857C118.277 117.072 118.766 117.18 119.332 117.18C119.911 117.18 120.41 117.046 120.826 116.779C121.249 116.506 121.656 116.018 122.047 115.314L122.73 115.734ZM120.572 112.062C120.572 111.698 120.54 111.307 120.475 110.891C120.416 110.474 120.318 110.126 120.182 109.846C120.032 109.546 119.827 109.302 119.566 109.113C119.306 108.924 118.971 108.83 118.561 108.83C117.877 108.83 117.307 109.117 116.852 109.689C116.402 110.256 116.158 111.047 116.119 112.062H120.572ZM134.615 117.58C134.192 117.756 133.792 117.902 133.414 118.02C133.036 118.143 132.574 118.205 132.027 118.205C131.22 118.205 130.65 118.003 130.318 117.6C129.993 117.189 129.83 116.613 129.83 115.871V109.348H128.092V108.41H129.869V105.412H131.646V108.41H134.41V109.348H131.666V114.729C131.666 115.132 131.679 115.471 131.705 115.744C131.738 116.011 131.809 116.245 131.92 116.447C132.024 116.636 132.18 116.779 132.389 116.877C132.597 116.975 132.877 117.023 133.229 117.023C133.391 117.023 133.629 117.01 133.941 116.984C134.26 116.952 134.485 116.913 134.615 116.867V117.58ZM142.955 109.611C142.955 109.943 142.874 110.24 142.711 110.5C142.548 110.754 142.298 110.881 141.959 110.881C141.594 110.881 141.314 110.786 141.119 110.598C140.93 110.409 140.836 110.201 140.836 109.973C140.836 109.829 140.846 109.699 140.865 109.582C140.891 109.465 140.914 109.348 140.934 109.23C140.628 109.23 140.27 109.354 139.859 109.602C139.449 109.849 139.101 110.201 138.814 110.656V116.262C138.814 116.49 138.857 116.675 138.941 116.818C139.033 116.962 139.173 117.069 139.361 117.141C139.524 117.206 139.732 117.255 139.986 117.287C140.247 117.32 140.471 117.342 140.66 117.355V118H135.582V117.355C135.732 117.342 135.885 117.329 136.041 117.316C136.204 117.303 136.344 117.277 136.461 117.238C136.643 117.18 136.777 117.079 136.861 116.936C136.952 116.786 136.998 116.594 136.998 116.359V110.412C136.998 110.21 136.949 110.012 136.852 109.816C136.76 109.621 136.63 109.465 136.461 109.348C136.337 109.27 136.191 109.214 136.021 109.182C135.852 109.143 135.67 109.117 135.475 109.104V108.469L138.678 108.254L138.814 108.391V109.748H138.863C139.267 109.221 139.716 108.82 140.211 108.547C140.706 108.273 141.158 108.137 141.568 108.137C141.979 108.137 142.311 108.27 142.564 108.537C142.825 108.804 142.955 109.162 142.955 109.611ZM152.906 117.824C152.6 117.935 152.33 118.023 152.096 118.088C151.868 118.16 151.607 118.195 151.314 118.195C150.807 118.195 150.4 118.078 150.094 117.844C149.794 117.603 149.602 117.255 149.518 116.799H149.459C149.036 117.268 148.58 117.626 148.092 117.873C147.61 118.12 147.027 118.244 146.344 118.244C145.621 118.244 145.025 118.023 144.557 117.58C144.094 117.137 143.863 116.558 143.863 115.842C143.863 115.471 143.915 115.139 144.02 114.846C144.124 114.553 144.28 114.289 144.488 114.055C144.651 113.859 144.866 113.687 145.133 113.537C145.4 113.381 145.65 113.257 145.885 113.166C146.178 113.055 146.77 112.85 147.662 112.551C148.561 112.251 149.166 112.017 149.479 111.848V110.881C149.479 110.796 149.459 110.633 149.42 110.393C149.387 110.152 149.312 109.924 149.195 109.709C149.065 109.468 148.88 109.26 148.639 109.084C148.404 108.902 148.069 108.811 147.633 108.811C147.333 108.811 147.053 108.863 146.793 108.967C146.539 109.064 146.36 109.169 146.256 109.279C146.256 109.41 146.285 109.602 146.344 109.855C146.409 110.109 146.441 110.344 146.441 110.559C146.441 110.786 146.337 110.995 146.129 111.184C145.927 111.372 145.644 111.467 145.279 111.467C144.954 111.467 144.713 111.353 144.557 111.125C144.407 110.891 144.332 110.63 144.332 110.344C144.332 110.044 144.436 109.758 144.645 109.484C144.859 109.211 145.136 108.967 145.475 108.752C145.768 108.57 146.122 108.417 146.539 108.293C146.956 108.163 147.363 108.098 147.76 108.098C148.307 108.098 148.782 108.137 149.186 108.215C149.596 108.286 149.967 108.446 150.299 108.693C150.631 108.934 150.882 109.263 151.051 109.68C151.227 110.09 151.314 110.62 151.314 111.271C151.314 112.202 151.305 113.029 151.285 113.752C151.266 114.468 151.256 115.253 151.256 116.105C151.256 116.359 151.298 116.561 151.383 116.711C151.474 116.861 151.611 116.988 151.793 117.092C151.891 117.15 152.044 117.183 152.252 117.189C152.467 117.196 152.685 117.199 152.906 117.199V117.824ZM149.498 112.668C148.945 112.831 148.46 112.99 148.043 113.146C147.626 113.303 147.239 113.498 146.881 113.732C146.555 113.954 146.298 114.217 146.109 114.523C145.921 114.823 145.826 115.181 145.826 115.598C145.826 116.138 145.966 116.535 146.246 116.789C146.533 117.043 146.894 117.17 147.33 117.17C147.792 117.17 148.199 117.059 148.551 116.838C148.902 116.61 149.199 116.343 149.439 116.037L149.498 112.668ZM164.498 118H159.781V117.355C159.931 117.342 160.094 117.329 160.27 117.316C160.452 117.303 160.602 117.277 160.719 117.238C160.901 117.18 161.035 117.079 161.119 116.936C161.21 116.786 161.256 116.594 161.256 116.359V111.408C161.256 110.725 161.093 110.197 160.768 109.826C160.449 109.455 160.058 109.27 159.596 109.27C159.251 109.27 158.935 109.325 158.648 109.436C158.362 109.54 158.108 109.67 157.887 109.826C157.672 109.976 157.499 110.139 157.369 110.314C157.245 110.484 157.154 110.62 157.096 110.725V116.262C157.096 116.483 157.141 116.665 157.232 116.809C157.324 116.952 157.46 117.062 157.643 117.141C157.779 117.206 157.926 117.255 158.082 117.287C158.245 117.32 158.411 117.342 158.58 117.355V118H153.863V117.355C154.013 117.342 154.166 117.329 154.322 117.316C154.485 117.303 154.625 117.277 154.742 117.238C154.924 117.18 155.058 117.079 155.143 116.936C155.234 116.786 155.279 116.594 155.279 116.359V110.412C155.279 110.191 155.23 109.989 155.133 109.807C155.042 109.618 154.911 109.465 154.742 109.348C154.618 109.27 154.472 109.214 154.303 109.182C154.133 109.143 153.951 109.117 153.756 109.104V108.469L156.959 108.254L157.096 108.391V109.748H157.145C157.301 109.592 157.496 109.406 157.73 109.191C157.965 108.97 158.186 108.791 158.395 108.654C158.635 108.498 158.922 108.368 159.254 108.264C159.586 108.16 159.96 108.107 160.377 108.107C161.301 108.107 161.985 108.397 162.428 108.977C162.877 109.549 163.102 110.314 163.102 111.271V116.281C163.102 116.509 163.141 116.695 163.219 116.838C163.297 116.975 163.43 117.082 163.619 117.16C163.775 117.225 163.909 117.271 164.02 117.297C164.137 117.323 164.296 117.342 164.498 117.355V118ZM172.037 113.283C172.304 113.518 172.509 113.788 172.652 114.094C172.796 114.4 172.867 114.774 172.867 115.217C172.867 116.109 172.532 116.838 171.861 117.404C171.197 117.971 170.335 118.254 169.273 118.254C168.714 118.254 168.196 118.153 167.721 117.951C167.252 117.749 166.917 117.564 166.715 117.395L166.52 118.029H165.787L165.689 114.68H166.363C166.415 114.934 166.526 115.23 166.695 115.568C166.865 115.907 167.07 116.213 167.311 116.486C167.564 116.773 167.867 117.014 168.219 117.209C168.577 117.404 168.977 117.502 169.42 117.502C170.045 117.502 170.527 117.362 170.865 117.082C171.204 116.796 171.373 116.389 171.373 115.861C171.373 115.588 171.318 115.354 171.207 115.158C171.103 114.956 170.947 114.781 170.738 114.631C170.523 114.481 170.26 114.348 169.947 114.23C169.635 114.107 169.286 113.986 168.902 113.869C168.596 113.778 168.255 113.654 167.877 113.498C167.506 113.335 167.187 113.146 166.92 112.932C166.633 112.704 166.399 112.424 166.217 112.092C166.035 111.76 165.943 111.369 165.943 110.92C165.943 110.132 166.236 109.465 166.822 108.918C167.408 108.371 168.193 108.098 169.176 108.098C169.553 108.098 169.938 108.146 170.328 108.244C170.725 108.342 171.048 108.459 171.295 108.596L171.52 108.088H172.223L172.369 111.184H171.695C171.559 110.493 171.262 109.934 170.807 109.504C170.357 109.068 169.807 108.85 169.156 108.85C168.622 108.85 168.202 108.983 167.896 109.25C167.59 109.517 167.438 109.839 167.438 110.217C167.438 110.51 167.486 110.754 167.584 110.949C167.688 111.145 167.841 111.311 168.043 111.447C168.238 111.577 168.482 111.701 168.775 111.818C169.075 111.929 169.443 112.056 169.879 112.199C170.309 112.336 170.712 112.495 171.09 112.678C171.474 112.86 171.79 113.062 172.037 113.283ZM183.453 117.824C183.147 117.935 182.877 118.023 182.643 118.088C182.415 118.16 182.154 118.195 181.861 118.195C181.354 118.195 180.947 118.078 180.641 117.844C180.341 117.603 180.149 117.255 180.064 116.799H180.006C179.583 117.268 179.127 117.626 178.639 117.873C178.157 118.12 177.574 118.244 176.891 118.244C176.168 118.244 175.572 118.023 175.104 117.58C174.641 117.137 174.41 116.558 174.41 115.842C174.41 115.471 174.462 115.139 174.566 114.846C174.671 114.553 174.827 114.289 175.035 114.055C175.198 113.859 175.413 113.687 175.68 113.537C175.947 113.381 176.197 113.257 176.432 113.166C176.725 113.055 177.317 112.85 178.209 112.551C179.107 112.251 179.713 112.017 180.025 111.848V110.881C180.025 110.796 180.006 110.633 179.967 110.393C179.934 110.152 179.859 109.924 179.742 109.709C179.612 109.468 179.426 109.26 179.186 109.084C178.951 108.902 178.616 108.811 178.18 108.811C177.88 108.811 177.6 108.863 177.34 108.967C177.086 109.064 176.907 109.169 176.803 109.279C176.803 109.41 176.832 109.602 176.891 109.855C176.956 110.109 176.988 110.344 176.988 110.559C176.988 110.786 176.884 110.995 176.676 111.184C176.474 111.372 176.191 111.467 175.826 111.467C175.501 111.467 175.26 111.353 175.104 111.125C174.954 110.891 174.879 110.63 174.879 110.344C174.879 110.044 174.983 109.758 175.191 109.484C175.406 109.211 175.683 108.967 176.021 108.752C176.314 108.57 176.669 108.417 177.086 108.293C177.503 108.163 177.91 108.098 178.307 108.098C178.854 108.098 179.329 108.137 179.732 108.215C180.143 108.286 180.514 108.446 180.846 108.693C181.178 108.934 181.428 109.263 181.598 109.68C181.773 110.09 181.861 110.62 181.861 111.271C181.861 112.202 181.852 113.029 181.832 113.752C181.812 114.468 181.803 115.253 181.803 116.105C181.803 116.359 181.845 116.561 181.93 116.711C182.021 116.861 182.158 116.988 182.34 117.092C182.438 117.15 182.59 117.183 182.799 117.189C183.014 117.196 183.232 117.199 183.453 117.199V117.824ZM180.045 112.668C179.492 112.831 179.007 112.99 178.59 113.146C178.173 113.303 177.786 113.498 177.428 113.732C177.102 113.954 176.845 114.217 176.656 114.523C176.467 114.823 176.373 115.181 176.373 115.598C176.373 116.138 176.513 116.535 176.793 116.789C177.079 117.043 177.441 117.17 177.877 117.17C178.339 117.17 178.746 117.059 179.098 116.838C179.449 116.61 179.745 116.343 179.986 116.037L180.045 112.668ZM188.863 118.254C187.47 118.254 186.38 117.792 185.592 116.867C184.804 115.943 184.41 114.702 184.41 113.146C184.41 112.469 184.514 111.838 184.723 111.252C184.938 110.66 185.247 110.122 185.65 109.641C186.035 109.178 186.516 108.807 187.096 108.527C187.675 108.241 188.307 108.098 188.99 108.098C189.934 108.098 190.702 108.326 191.295 108.781C191.887 109.23 192.184 109.846 192.184 110.627C192.184 110.952 192.105 111.242 191.949 111.496C191.793 111.743 191.536 111.867 191.178 111.867C190.794 111.867 190.494 111.77 190.279 111.574C190.071 111.379 189.967 111.161 189.967 110.92C189.967 110.627 190.006 110.327 190.084 110.021C190.162 109.709 190.208 109.481 190.221 109.338C190.104 109.136 189.928 109.003 189.693 108.938C189.465 108.866 189.218 108.83 188.951 108.83C188.639 108.83 188.339 108.898 188.053 109.035C187.773 109.165 187.499 109.41 187.232 109.768C186.992 110.093 186.796 110.533 186.646 111.086C186.497 111.639 186.422 112.3 186.422 113.068C186.422 114.279 186.689 115.269 187.223 116.037C187.763 116.799 188.469 117.18 189.342 117.18C189.973 117.18 190.501 117.027 190.924 116.721C191.354 116.415 191.751 115.956 192.115 115.344L192.74 115.754C192.311 116.522 191.744 117.131 191.041 117.58C190.338 118.029 189.612 118.254 188.863 118.254ZM199.439 117.58C199.016 117.756 198.616 117.902 198.238 118.02C197.861 118.143 197.398 118.205 196.852 118.205C196.044 118.205 195.475 118.003 195.143 117.6C194.817 117.189 194.654 116.613 194.654 115.871V109.348H192.916V108.41H194.693V105.412H196.471V108.41H199.234V109.348H196.49V114.729C196.49 115.132 196.503 115.471 196.529 115.744C196.562 116.011 196.633 116.245 196.744 116.447C196.848 116.636 197.005 116.779 197.213 116.877C197.421 116.975 197.701 117.023 198.053 117.023C198.215 117.023 198.453 117.01 198.766 116.984C199.085 116.952 199.309 116.913 199.439 116.867V117.58ZM205.084 118H200.426V117.355C200.576 117.342 200.729 117.329 200.885 117.316C201.048 117.303 201.188 117.277 201.305 117.238C201.487 117.18 201.62 117.079 201.705 116.936C201.796 116.786 201.842 116.594 201.842 116.359V110.412C201.842 110.204 201.793 110.015 201.695 109.846C201.604 109.67 201.474 109.523 201.305 109.406C201.181 109.328 201.002 109.263 200.768 109.211C200.533 109.152 200.318 109.117 200.123 109.104V108.469L203.521 108.254L203.658 108.391V116.242C203.658 116.47 203.701 116.659 203.785 116.809C203.876 116.958 204.016 117.069 204.205 117.141C204.348 117.199 204.488 117.248 204.625 117.287C204.762 117.32 204.915 117.342 205.084 117.355V118ZM203.854 104.455C203.854 104.826 203.73 105.152 203.482 105.432C203.242 105.705 202.942 105.842 202.584 105.842C202.252 105.842 201.962 105.712 201.715 105.451C201.474 105.184 201.354 104.882 201.354 104.543C201.354 104.185 201.474 103.872 201.715 103.605C201.962 103.339 202.252 103.205 202.584 103.205C202.955 103.205 203.258 103.332 203.492 103.586C203.733 103.833 203.854 104.123 203.854 104.455ZM215.65 113.088C215.65 113.765 215.543 114.432 215.328 115.09C215.113 115.741 214.807 116.294 214.41 116.75C213.961 117.271 213.44 117.658 212.848 117.912C212.255 118.166 211.591 118.293 210.855 118.293C210.243 118.293 209.661 118.179 209.107 117.951C208.554 117.717 208.062 117.378 207.633 116.936C207.21 116.499 206.871 115.969 206.617 115.344C206.37 114.712 206.246 114.006 206.246 113.225C206.246 111.721 206.682 110.49 207.555 109.533C208.434 108.576 209.583 108.098 211.002 108.098C212.35 108.098 213.46 108.553 214.332 109.465C215.211 110.37 215.65 111.577 215.65 113.088ZM213.629 113.107C213.629 112.619 213.58 112.105 213.482 111.564C213.385 111.018 213.238 110.555 213.043 110.178C212.835 109.774 212.561 109.452 212.223 109.211C211.884 108.964 211.471 108.84 210.982 108.84C210.481 108.84 210.051 108.964 209.693 109.211C209.342 109.458 209.055 109.797 208.834 110.227C208.626 110.624 208.479 111.076 208.395 111.584C208.31 112.092 208.268 112.583 208.268 113.059C208.268 113.684 208.316 114.263 208.414 114.797C208.518 115.324 208.681 115.796 208.902 116.213C209.124 116.63 209.4 116.958 209.732 117.199C210.071 117.434 210.488 117.551 210.982 117.551C211.796 117.551 212.441 117.157 212.916 116.369C213.391 115.581 213.629 114.494 213.629 113.107ZM227.682 118H222.965V117.355C223.115 117.342 223.277 117.329 223.453 117.316C223.635 117.303 223.785 117.277 223.902 117.238C224.085 117.18 224.218 117.079 224.303 116.936C224.394 116.786 224.439 116.594 224.439 116.359V111.408C224.439 110.725 224.277 110.197 223.951 109.826C223.632 109.455 223.242 109.27 222.779 109.27C222.434 109.27 222.118 109.325 221.832 109.436C221.546 109.54 221.292 109.67 221.07 109.826C220.855 109.976 220.683 110.139 220.553 110.314C220.429 110.484 220.338 110.62 220.279 110.725V116.262C220.279 116.483 220.325 116.665 220.416 116.809C220.507 116.952 220.644 117.062 220.826 117.141C220.963 117.206 221.109 117.255 221.266 117.287C221.428 117.32 221.594 117.342 221.764 117.355V118H217.047V117.355C217.197 117.342 217.35 117.329 217.506 117.316C217.669 117.303 217.809 117.277 217.926 117.238C218.108 117.18 218.242 117.079 218.326 116.936C218.417 116.786 218.463 116.594 218.463 116.359V110.412C218.463 110.191 218.414 109.989 218.316 109.807C218.225 109.618 218.095 109.465 217.926 109.348C217.802 109.27 217.656 109.214 217.486 109.182C217.317 109.143 217.135 109.117 216.939 109.104V108.469L220.143 108.254L220.279 108.391V109.748H220.328C220.484 109.592 220.68 109.406 220.914 109.191C221.148 108.97 221.37 108.791 221.578 108.654C221.819 108.498 222.105 108.368 222.438 108.264C222.77 108.16 223.144 108.107 223.561 108.107C224.485 108.107 225.169 108.397 225.611 108.977C226.061 109.549 226.285 110.314 226.285 111.271V116.281C226.285 116.509 226.324 116.695 226.402 116.838C226.48 116.975 226.614 117.082 226.803 117.16C226.959 117.225 227.092 117.271 227.203 117.297C227.32 117.323 227.48 117.342 227.682 117.355V118Z" fill="#25387C"/>
</svg>
