<svg width="693" height="483" viewBox="0 0 693 483" fill="none" xmlns="http://www.w3.org/2000/svg">
<path d="M280.814 215.553H286.682L281.642 240.753H275.774L280.814 215.553ZM292.627 215.553H303.175C305.743 215.553 307.951 215.985 309.799 216.849C311.671 217.689 313.099 218.901 314.083 220.485C315.091 222.069 315.595 223.929 315.595 226.065C315.595 228.993 314.935 231.573 313.615 233.805C312.295 236.013 310.447 237.729 308.071 238.953C305.719 240.153 302.995 240.753 299.899 240.753H287.587L292.627 215.553ZM300.079 235.965C302.047 235.965 303.751 235.557 305.191 234.741C306.655 233.901 307.771 232.761 308.539 231.321C309.307 229.857 309.691 228.213 309.691 226.389C309.691 224.493 309.079 223.017 307.855 221.961C306.631 220.881 304.855 220.341 302.527 220.341H297.523L294.391 235.965H300.079ZM327.229 220.233L326.149 225.705H337.849L336.949 230.241H325.213L324.061 236.073H337.813L336.841 240.753H317.329L322.369 215.553H341.413L340.441 220.233H327.229ZM359.41 235.353H347.674L344.398 240.753H338.169L354.478 215.553H360.238L366.43 240.753H360.598L359.41 235.353ZM358.438 230.925L356.314 221.205L350.374 230.925H358.438ZM371.996 247.737C371.42 246.489 370.952 244.917 370.592 243.021C370.232 241.125 370.052 239.229 370.052 237.333C370.052 233.013 370.772 228.801 372.212 224.697C373.652 220.593 375.668 217.041 378.26 214.041H383.876C381.116 217.617 379.028 221.397 377.612 225.381C376.196 229.365 375.488 233.445 375.488 237.621C375.488 240.981 376.04 244.353 377.144 247.737H371.996ZM390.695 241.185C388.703 241.185 386.795 240.921 384.971 240.393C383.147 239.865 381.683 239.193 380.579 238.377L382.955 233.877C384.107 234.717 385.403 235.365 386.843 235.821C388.283 236.277 389.759 236.505 391.271 236.505C392.879 236.505 394.151 236.241 395.087 235.713C396.023 235.185 396.491 234.465 396.491 233.553C396.491 232.809 396.119 232.245 395.375 231.861C394.631 231.453 393.443 231.021 391.811 230.565C390.179 230.085 388.847 229.629 387.815 229.197C386.783 228.741 385.883 228.069 385.115 227.181C384.371 226.293 383.999 225.117 383.999 223.653C383.999 221.949 384.467 220.449 385.403 219.153C386.363 217.857 387.707 216.861 389.435 216.165C391.187 215.469 393.215 215.121 395.519 215.121C397.223 215.121 398.831 215.313 400.343 215.697C401.855 216.057 403.151 216.585 404.231 217.281L402.035 221.745C401.099 221.097 400.043 220.617 398.867 220.305C397.691 219.969 396.467 219.801 395.195 219.801C393.539 219.801 392.231 220.089 391.271 220.665C390.311 221.241 389.831 221.985 389.831 222.897C389.831 223.449 390.035 223.917 390.443 224.301C390.851 224.661 391.367 224.961 391.991 225.201C392.615 225.417 393.491 225.681 394.619 225.993C396.227 226.425 397.547 226.869 398.579 227.325C399.611 227.757 400.487 228.405 401.207 229.269C401.951 230.109 402.323 231.225 402.323 232.617C402.323 234.345 401.843 235.857 400.883 237.153C399.923 238.425 398.567 239.421 396.815 240.141C395.063 240.837 393.023 241.185 390.695 241.185ZM401.7 247.737C404.46 244.161 406.548 240.381 407.964 236.397C409.38 232.413 410.088 228.333 410.088 224.157C410.088 220.797 409.536 217.425 408.432 214.041H413.58C414.156 215.289 414.624 216.861 414.984 218.757C415.344 220.653 415.524 222.549 415.524 224.445C415.524 228.765 414.804 232.977 413.364 237.081C411.924 241.185 409.908 244.737 407.316 247.737H401.7Z" fill="white"/>
<path d="M542.052 253.216C540.18 253.216 538.38 252.916 536.652 252.316C534.948 251.716 533.628 250.924 532.692 249.94L533.736 247.888C534.648 248.8 535.86 249.544 537.372 250.12C538.884 250.672 540.444 250.948 542.052 250.948C544.308 250.948 546 250.54 547.128 249.724C548.256 248.884 548.82 247.804 548.82 246.484C548.82 245.476 548.508 244.672 547.884 244.072C547.284 243.472 546.54 243.016 545.652 242.704C544.764 242.368 543.528 242.008 541.944 241.624C540.048 241.144 538.536 240.688 537.408 240.256C536.28 239.8 535.308 239.116 534.492 238.204C533.7 237.292 533.304 236.056 533.304 234.496C533.304 233.224 533.64 232.072 534.312 231.04C534.984 229.984 536.016 229.144 537.408 228.52C538.8 227.896 540.528 227.584 542.592 227.584C544.032 227.584 545.436 227.788 546.804 228.196C548.196 228.58 549.396 229.12 550.404 229.816L549.504 231.94C548.448 231.244 547.32 230.728 546.12 230.392C544.92 230.032 543.744 229.852 542.592 229.852C540.384 229.852 538.716 230.284 537.588 231.148C536.484 231.988 535.932 233.08 535.932 234.424C535.932 235.432 536.232 236.248 536.832 236.872C537.456 237.472 538.224 237.94 539.136 238.276C540.072 238.588 541.32 238.936 542.88 239.32C544.728 239.776 546.216 240.232 547.344 240.688C548.496 241.12 549.468 241.792 550.26 242.704C551.052 243.592 551.448 244.804 551.448 246.34C551.448 247.612 551.1 248.776 550.404 249.832C549.732 250.864 548.688 251.692 547.272 252.316C545.856 252.916 544.116 253.216 542.052 253.216ZM563.732 243.496L559.268 247.6V253H556.712V226.288H559.268V244.396L570.572 234.064H573.74L565.64 241.804L574.496 253H571.364L563.732 243.496ZM594.048 244.324H578.208C578.352 246.292 579.108 247.888 580.476 249.112C581.844 250.312 583.572 250.912 585.66 250.912C586.836 250.912 587.916 250.708 588.9 250.3C589.884 249.868 590.736 249.244 591.456 248.428L592.896 250.084C592.056 251.092 591 251.86 589.728 252.388C588.48 252.916 587.1 253.18 585.588 253.18C583.644 253.18 581.916 252.772 580.404 251.956C578.916 251.116 577.752 249.964 576.912 248.5C576.072 247.036 575.652 245.38 575.652 243.532C575.652 241.684 576.048 240.028 576.84 238.564C577.656 237.1 578.76 235.96 580.152 235.144C581.568 234.328 583.152 233.92 584.904 233.92C586.656 233.92 588.228 234.328 589.62 235.144C591.012 235.96 592.104 237.1 592.896 238.564C593.688 240.004 594.084 241.66 594.084 243.532L594.048 244.324ZM584.904 236.116C583.08 236.116 581.544 236.704 580.296 237.88C579.072 239.032 578.376 240.544 578.208 242.416H591.636C591.468 240.544 590.76 239.032 589.512 237.88C588.288 236.704 586.752 236.116 584.904 236.116ZM609.259 251.848C608.779 252.28 608.179 252.616 607.459 252.856C606.763 253.072 606.031 253.18 605.263 253.18C603.487 253.18 602.119 252.7 601.159 251.74C600.199 250.78 599.719 249.424 599.719 247.672V236.224H596.335V234.064H599.719V229.924H602.275V234.064H608.035V236.224H602.275V247.528C602.275 248.656 602.551 249.52 603.103 250.12C603.679 250.696 604.495 250.984 605.551 250.984C606.079 250.984 606.583 250.9 607.063 250.732C607.567 250.564 607.999 250.324 608.359 250.012L609.259 251.848ZM621.092 253.18C619.22 253.18 617.54 252.772 616.052 251.956C614.588 251.14 613.436 250 612.596 248.536C611.756 247.048 611.336 245.38 611.336 243.532C611.336 241.684 611.756 240.028 612.596 238.564C613.436 237.1 614.588 235.96 616.052 235.144C617.54 234.328 619.22 233.92 621.092 233.92C622.724 233.92 624.176 234.244 625.448 234.892C626.744 235.516 627.764 236.44 628.508 237.664L626.6 238.96C625.976 238.024 625.184 237.328 624.224 236.872C623.264 236.392 622.22 236.152 621.092 236.152C619.724 236.152 618.488 236.464 617.384 237.088C616.304 237.688 615.452 238.552 614.828 239.68C614.228 240.808 613.928 242.092 613.928 243.532C613.928 244.996 614.228 246.292 614.828 247.42C615.452 248.524 616.304 249.388 617.384 250.012C618.488 250.612 619.724 250.912 621.092 250.912C622.22 250.912 623.264 250.684 624.224 250.228C625.184 249.772 625.976 249.076 626.6 248.14L628.508 249.436C627.764 250.66 626.744 251.596 625.448 252.244C624.152 252.868 622.7 253.18 621.092 253.18ZM642.896 233.92C645.272 233.92 647.156 234.616 648.548 236.008C649.964 237.376 650.672 239.38 650.672 242.02V253H648.116V242.272C648.116 240.304 647.624 238.804 646.64 237.772C645.656 236.74 644.252 236.224 642.428 236.224C640.388 236.224 638.768 236.836 637.568 238.06C636.392 239.26 635.804 240.928 635.804 243.064V253H633.248V226.288H635.804V237.376C636.5 236.272 637.46 235.42 638.684 234.82C639.908 234.22 641.312 233.92 642.896 233.92Z" fill="white"/>
<path d="M86.4062 208.104H77.5503V205.8H97.9263V208.104H89.0703V231H86.4062V208.104ZM116.161 222.324H100.321C100.465 224.292 101.221 225.888 102.589 227.112C103.957 228.312 105.685 228.912 107.773 228.912C108.949 228.912 110.029 228.708 111.013 228.3C111.997 227.868 112.849 227.244 113.569 226.428L115.009 228.084C114.169 229.092 113.113 229.86 111.841 230.388C110.593 230.916 109.213 231.18 107.701 231.18C105.757 231.18 104.029 230.772 102.517 229.956C101.029 229.116 99.8654 227.964 99.0254 226.5C98.1854 225.036 97.7654 223.38 97.7654 221.532C97.7654 219.684 98.1614 218.028 98.9534 216.564C99.7694 215.1 100.873 213.96 102.265 213.144C103.681 212.328 105.265 211.92 107.017 211.92C108.769 211.92 110.341 212.328 111.733 213.144C113.125 213.96 114.217 215.1 115.009 216.564C115.801 218.004 116.197 219.66 116.197 221.532L116.161 222.324ZM107.017 214.116C105.193 214.116 103.657 214.704 102.409 215.88C101.185 217.032 100.489 218.544 100.321 220.416H113.749C113.581 218.544 112.873 217.032 111.625 215.88C110.401 214.704 108.865 214.116 107.017 214.116ZM126.476 231.18C124.94 231.18 123.464 230.964 122.048 230.532C120.656 230.076 119.564 229.512 118.772 228.84L119.924 226.824C120.716 227.448 121.712 227.964 122.912 228.372C124.112 228.756 125.36 228.948 126.656 228.948C128.384 228.948 129.656 228.684 130.472 228.156C131.312 227.604 131.732 226.836 131.732 225.852C131.732 225.156 131.504 224.616 131.048 224.232C130.592 223.824 130.016 223.524 129.32 223.332C128.624 223.116 127.7 222.912 126.548 222.72C125.012 222.432 123.776 222.144 122.84 221.856C121.904 221.544 121.1 221.028 120.428 220.308C119.78 219.588 119.456 218.592 119.456 217.32C119.456 215.736 120.116 214.44 121.436 213.432C122.756 212.424 124.592 211.92 126.944 211.92C128.168 211.92 129.392 212.088 130.616 212.424C131.84 212.736 132.848 213.156 133.64 213.684L132.524 215.736C130.964 214.656 129.104 214.116 126.944 214.116C125.312 214.116 124.076 214.404 123.236 214.98C122.42 215.556 122.012 216.312 122.012 217.248C122.012 217.968 122.24 218.544 122.696 218.976C123.176 219.408 123.764 219.732 124.46 219.948C125.156 220.14 126.116 220.344 127.34 220.56C128.852 220.848 130.064 221.136 130.976 221.424C131.888 221.712 132.668 222.204 133.316 222.9C133.964 223.596 134.288 224.556 134.288 225.78C134.288 227.436 133.592 228.756 132.2 229.74C130.832 230.7 128.924 231.18 126.476 231.18ZM148.985 229.848C148.505 230.28 147.905 230.616 147.185 230.856C146.489 231.072 145.757 231.18 144.989 231.18C143.213 231.18 141.845 230.7 140.885 229.74C139.925 228.78 139.445 227.424 139.445 225.672V214.224H136.061V212.064H139.445V207.924H142.001V212.064H147.761V214.224H142.001V225.528C142.001 226.656 142.277 227.52 142.829 228.12C143.405 228.696 144.221 228.984 145.277 228.984C145.805 228.984 146.309 228.9 146.789 228.732C147.293 228.564 147.725 228.324 148.085 228.012L148.985 229.848ZM181.636 231.396L178.144 227.796C176.008 230.076 173.2 231.216 169.72 231.216C168.088 231.216 166.624 230.952 165.328 230.424C164.056 229.872 163.06 229.116 162.34 228.156C161.62 227.172 161.26 226.056 161.26 224.808C161.26 223.296 161.74 221.94 162.7 220.74C163.66 219.54 165.292 218.28 167.596 216.96C166.396 215.712 165.568 214.656 165.112 213.792C164.656 212.904 164.428 211.968 164.428 210.984C164.428 209.376 165.004 208.08 166.156 207.096C167.308 206.112 168.856 205.62 170.8 205.62C172.6 205.62 174.028 206.064 175.084 206.952C176.14 207.84 176.668 209.064 176.668 210.624C176.668 211.872 176.248 213 175.408 214.008C174.568 214.992 173.116 216.084 171.052 217.284L177.964 224.412C178.732 223.044 179.296 221.424 179.656 219.552L181.744 220.2C181.288 222.456 180.544 224.388 179.512 225.996L183.112 229.704L181.636 231.396ZM170.8 207.528C169.552 207.528 168.568 207.84 167.848 208.464C167.152 209.088 166.804 209.916 166.804 210.948C166.804 211.692 166.996 212.4 167.38 213.072C167.764 213.744 168.52 214.656 169.648 215.808C171.472 214.752 172.732 213.852 173.428 213.108C174.124 212.364 174.472 211.548 174.472 210.66C174.472 209.7 174.148 208.944 173.5 208.392C172.852 207.816 171.952 207.528 170.8 207.528ZM169.864 229.092C172.648 229.092 174.904 228.144 176.632 226.248L169.036 218.436C167.044 219.564 165.664 220.584 164.896 221.496C164.152 222.408 163.78 223.428 163.78 224.556C163.78 225.924 164.332 227.028 165.436 227.868C166.564 228.684 168.04 229.092 169.864 229.092ZM73.0013 245.8L61.8413 271H59.2133L48.0533 245.8H50.9333L60.5813 267.688L70.3013 245.8H73.0013ZM81.3013 251.92C83.7733 251.92 85.6693 252.544 86.9893 253.792C88.3093 255.016 88.9693 256.84 88.9693 259.264V271H86.5213V268.048C85.9453 269.032 85.0933 269.8 83.9653 270.352C82.8613 270.904 81.5413 271.18 80.0053 271.18C77.8933 271.18 76.2133 270.676 74.9653 269.668C73.7173 268.66 73.0933 267.328 73.0933 265.672C73.0933 264.064 73.6693 262.768 74.8213 261.784C75.9973 260.8 77.8573 260.308 80.4013 260.308H86.4133V259.156C86.4133 257.524 85.9573 256.288 85.0453 255.448C84.1333 254.584 82.8013 254.152 81.0493 254.152C79.8493 254.152 78.6973 254.356 77.5933 254.764C76.4893 255.148 75.5413 255.688 74.7493 256.384L73.5973 254.476C74.5573 253.66 75.7093 253.036 77.0533 252.604C78.3973 252.148 79.8133 251.92 81.3013 251.92ZM80.4013 269.164C81.8413 269.164 83.0773 268.84 84.1093 268.192C85.1413 267.52 85.9093 266.56 86.4133 265.312V262.216H80.4733C77.2333 262.216 75.6133 263.344 75.6133 265.6C75.6133 266.704 76.0333 267.58 76.8733 268.228C77.7133 268.852 78.8893 269.164 80.4013 269.164ZM95.9117 244.288H98.4677V271H95.9117V244.288ZM105.58 252.064H108.136V271H105.58V252.064ZM106.876 247.924C106.348 247.924 105.904 247.744 105.544 247.384C105.184 247.024 105.004 246.592 105.004 246.088C105.004 245.608 105.184 245.188 105.544 244.828C105.904 244.468 106.348 244.288 106.876 244.288C107.404 244.288 107.848 244.468 108.208 244.828C108.568 245.164 108.748 245.572 108.748 246.052C108.748 246.58 108.568 247.024 108.208 247.384C107.848 247.744 107.404 247.924 106.876 247.924ZM132.528 244.288V271H130.08V267.256C129.312 268.528 128.292 269.5 127.02 270.172C125.772 270.844 124.356 271.18 122.772 271.18C120.996 271.18 119.388 270.772 117.948 269.956C116.508 269.14 115.38 268 114.564 266.536C113.748 265.072 113.34 263.404 113.34 261.532C113.34 259.66 113.748 257.992 114.564 256.528C115.38 255.064 116.508 253.936 117.948 253.144C119.388 252.328 120.996 251.92 122.772 251.92C124.308 251.92 125.688 252.244 126.912 252.892C128.16 253.516 129.18 254.44 129.972 255.664V244.288H132.528ZM122.988 268.912C124.308 268.912 125.496 268.612 126.552 268.012C127.632 267.388 128.472 266.512 129.072 265.384C129.696 264.256 130.008 262.972 130.008 261.532C130.008 260.092 129.696 258.808 129.072 257.68C128.472 256.552 127.632 255.688 126.552 255.088C125.496 254.464 124.308 254.152 122.988 254.152C121.644 254.152 120.432 254.464 119.352 255.088C118.296 255.688 117.456 256.552 116.832 257.68C116.232 258.808 115.932 260.092 115.932 261.532C115.932 262.972 116.232 264.256 116.832 265.384C117.456 266.512 118.296 267.388 119.352 268.012C120.432 268.612 121.644 268.912 122.988 268.912ZM146.27 251.92C148.742 251.92 150.638 252.544 151.958 253.792C153.278 255.016 153.938 256.84 153.938 259.264V271H151.49V268.048C150.914 269.032 150.062 269.8 148.934 270.352C147.83 270.904 146.51 271.18 144.974 271.18C142.862 271.18 141.182 270.676 139.934 269.668C138.686 268.66 138.062 267.328 138.062 265.672C138.062 264.064 138.638 262.768 139.79 261.784C140.966 260.8 142.826 260.308 145.37 260.308H151.382V259.156C151.382 257.524 150.926 256.288 150.014 255.448C149.102 254.584 147.77 254.152 146.018 254.152C144.818 254.152 143.666 254.356 142.562 254.764C141.458 255.148 140.51 255.688 139.718 256.384L138.566 254.476C139.526 253.66 140.678 253.036 142.022 252.604C143.366 252.148 144.782 251.92 146.27 251.92ZM145.37 269.164C146.81 269.164 148.046 268.84 149.078 268.192C150.11 267.52 150.878 266.56 151.382 265.312V262.216H145.442C142.202 262.216 140.582 263.344 140.582 265.6C140.582 266.704 141.002 267.58 141.842 268.228C142.682 268.852 143.858 269.164 145.37 269.164ZM170.852 269.848C170.372 270.28 169.772 270.616 169.052 270.856C168.356 271.072 167.624 271.18 166.856 271.18C165.08 271.18 163.712 270.7 162.752 269.74C161.792 268.78 161.312 267.424 161.312 265.672V254.224H157.928V252.064H161.312V247.924H163.868V252.064H169.628V254.224H163.868V265.528C163.868 266.656 164.144 267.52 164.696 268.12C165.272 268.696 166.088 268.984 167.144 268.984C167.672 268.984 168.176 268.9 168.656 268.732C169.16 268.564 169.592 268.324 169.952 268.012L170.852 269.848ZM191.325 262.324H175.485C175.629 264.292 176.385 265.888 177.753 267.112C179.121 268.312 180.849 268.912 182.937 268.912C184.113 268.912 185.193 268.708 186.177 268.3C187.161 267.868 188.013 267.244 188.733 266.428L190.173 268.084C189.333 269.092 188.277 269.86 187.005 270.388C185.757 270.916 184.377 271.18 182.865 271.18C180.921 271.18 179.193 270.772 177.681 269.956C176.193 269.116 175.029 267.964 174.189 266.5C173.349 265.036 172.929 263.38 172.929 261.532C172.929 259.684 173.325 258.028 174.117 256.564C174.933 255.1 176.037 253.96 177.429 253.144C178.845 252.328 180.429 251.92 182.181 251.92C183.933 251.92 185.505 252.328 186.897 253.144C188.289 253.96 189.381 255.1 190.173 256.564C190.965 258.004 191.361 259.66 191.361 261.532L191.325 262.324ZM182.181 254.116C180.357 254.116 178.821 254.704 177.573 255.88C176.349 257.032 175.653 258.544 175.485 260.416H188.913C188.745 258.544 188.037 257.032 186.789 255.88C185.565 254.704 184.029 254.116 182.181 254.116Z" fill="white"/>
<path d="M286.104 17.8H288.768V43H286.104V17.8ZM313.707 16.288V43H311.259V39.256C310.491 40.528 309.471 41.5 308.199 42.172C306.951 42.844 305.535 43.18 303.951 43.18C302.175 43.18 300.567 42.772 299.127 41.956C297.687 41.14 296.559 40 295.743 38.536C294.927 37.072 294.519 35.404 294.519 33.532C294.519 31.66 294.927 29.992 295.743 28.528C296.559 27.064 297.687 25.936 299.127 25.144C300.567 24.328 302.175 23.92 303.951 23.92C305.487 23.92 306.867 24.244 308.091 24.892C309.339 25.516 310.359 26.44 311.151 27.664V16.288H313.707ZM304.167 40.912C305.487 40.912 306.675 40.612 307.731 40.012C308.811 39.388 309.651 38.512 310.251 37.384C310.875 36.256 311.187 34.972 311.187 33.532C311.187 32.092 310.875 30.808 310.251 29.68C309.651 28.552 308.811 27.688 307.731 27.088C306.675 26.464 305.487 26.152 304.167 26.152C302.823 26.152 301.611 26.464 300.531 27.088C299.475 27.688 298.635 28.552 298.011 29.68C297.411 30.808 297.111 32.092 297.111 33.532C297.111 34.972 297.411 36.256 298.011 37.384C298.635 38.512 299.475 39.388 300.531 40.012C301.611 40.612 302.823 40.912 304.167 40.912ZM337.314 34.324H321.474C321.618 36.292 322.374 37.888 323.742 39.112C325.11 40.312 326.838 40.912 328.926 40.912C330.102 40.912 331.182 40.708 332.166 40.3C333.15 39.868 334.002 39.244 334.722 38.428L336.162 40.084C335.322 41.092 334.266 41.86 332.994 42.388C331.746 42.916 330.366 43.18 328.854 43.18C326.91 43.18 325.182 42.772 323.67 41.956C322.182 41.116 321.018 39.964 320.178 38.5C319.338 37.036 318.918 35.38 318.918 33.532C318.918 31.684 319.314 30.028 320.106 28.564C320.922 27.1 322.026 25.96 323.418 25.144C324.834 24.328 326.418 23.92 328.17 23.92C329.922 23.92 331.494 24.328 332.886 25.144C334.278 25.96 335.37 27.1 336.162 28.564C336.954 30.004 337.35 31.66 337.35 33.532L337.314 34.324ZM328.17 26.116C326.346 26.116 324.81 26.704 323.562 27.88C322.338 29.032 321.642 30.544 321.474 32.416H334.902C334.734 30.544 334.026 29.032 332.778 27.88C331.554 26.704 330.018 26.116 328.17 26.116ZM348.649 23.92C351.121 23.92 353.017 24.544 354.337 25.792C355.657 27.016 356.317 28.84 356.317 31.264V43H353.869V40.048C353.293 41.032 352.441 41.8 351.313 42.352C350.209 42.904 348.889 43.18 347.353 43.18C345.241 43.18 343.561 42.676 342.313 41.668C341.065 40.66 340.441 39.328 340.441 37.672C340.441 36.064 341.017 34.768 342.169 33.784C343.345 32.8 345.205 32.308 347.749 32.308H353.761V31.156C353.761 29.524 353.305 28.288 352.393 27.448C351.481 26.584 350.149 26.152 348.397 26.152C347.197 26.152 346.045 26.356 344.941 26.764C343.837 27.148 342.889 27.688 342.097 28.384L340.945 26.476C341.905 25.66 343.057 25.036 344.401 24.604C345.745 24.148 347.161 23.92 348.649 23.92ZM347.749 41.164C349.189 41.164 350.425 40.84 351.457 40.192C352.489 39.52 353.257 38.56 353.761 37.312V34.216H347.821C344.581 34.216 342.961 35.344 342.961 37.6C342.961 38.704 343.381 39.58 344.221 40.228C345.061 40.852 346.237 41.164 347.749 41.164ZM373.231 41.848C372.751 42.28 372.151 42.616 371.431 42.856C370.735 43.072 370.003 43.18 369.235 43.18C367.459 43.18 366.091 42.7 365.131 41.74C364.171 40.78 363.691 39.424 363.691 37.672V26.224H360.307V24.064H363.691V19.924H366.247V24.064H372.007V26.224H366.247V37.528C366.247 38.656 366.523 39.52 367.075 40.12C367.651 40.696 368.467 40.984 369.523 40.984C370.051 40.984 370.555 40.9 371.035 40.732C371.539 40.564 371.971 40.324 372.331 40.012L373.231 41.848ZM393.704 34.324H377.864C378.008 36.292 378.764 37.888 380.132 39.112C381.5 40.312 383.228 40.912 385.316 40.912C386.492 40.912 387.572 40.708 388.556 40.3C389.54 39.868 390.392 39.244 391.112 38.428L392.552 40.084C391.712 41.092 390.656 41.86 389.384 42.388C388.136 42.916 386.756 43.18 385.244 43.18C383.3 43.18 381.572 42.772 380.06 41.956C378.572 41.116 377.408 39.964 376.568 38.5C375.728 37.036 375.308 35.38 375.308 33.532C375.308 31.684 375.704 30.028 376.496 28.564C377.312 27.1 378.416 25.96 379.808 25.144C381.224 24.328 382.808 23.92 384.56 23.92C386.312 23.92 387.884 24.328 389.276 25.144C390.668 25.96 391.76 27.1 392.552 28.564C393.344 30.004 393.74 31.66 393.74 33.532L393.704 34.324ZM384.56 26.116C382.736 26.116 381.2 26.704 379.952 27.88C378.728 29.032 378.032 30.544 377.864 32.416H391.292C391.124 30.544 390.416 29.032 389.168 27.88C387.944 26.704 386.408 26.116 384.56 26.116Z" fill="white"/>
<path d="M251.536 434.8C254.752 434.8 257.272 435.568 259.096 437.104C260.92 438.64 261.832 440.752 261.832 443.44C261.832 446.128 260.92 448.24 259.096 449.776C257.272 451.288 254.752 452.044 251.536 452.044H244.768V460H242.104V434.8H251.536ZM251.464 449.704C253.96 449.704 255.868 449.164 257.188 448.084C258.508 446.98 259.168 445.432 259.168 443.44C259.168 441.4 258.508 439.84 257.188 438.76C255.868 437.656 253.96 437.104 251.464 437.104H244.768V449.704H251.464ZM269.008 444.772C269.608 443.5 270.496 442.54 271.672 441.892C272.872 441.244 274.348 440.92 276.1 440.92V443.404L275.488 443.368C273.496 443.368 271.936 443.98 270.808 445.204C269.68 446.428 269.116 448.144 269.116 450.352V460H266.56V441.064H269.008V444.772ZM288.292 460.18C286.468 460.18 284.824 459.772 283.36 458.956C281.896 458.116 280.744 456.964 279.904 455.5C279.064 454.036 278.644 452.38 278.644 450.532C278.644 448.684 279.064 447.028 279.904 445.564C280.744 444.1 281.896 442.96 283.36 442.144C284.824 441.328 286.468 440.92 288.292 440.92C290.116 440.92 291.76 441.328 293.224 442.144C294.688 442.96 295.828 444.1 296.644 445.564C297.484 447.028 297.904 448.684 297.904 450.532C297.904 452.38 297.484 454.036 296.644 455.5C295.828 456.964 294.688 458.116 293.224 458.956C291.76 459.772 290.116 460.18 288.292 460.18ZM288.292 457.912C289.636 457.912 290.836 457.612 291.892 457.012C292.972 456.388 293.812 455.512 294.412 454.384C295.012 453.256 295.312 451.972 295.312 450.532C295.312 449.092 295.012 447.808 294.412 446.68C293.812 445.552 292.972 444.688 291.892 444.088C290.836 443.464 289.636 443.152 288.292 443.152C286.948 443.152 285.736 443.464 284.656 444.088C283.6 444.688 282.76 445.552 282.136 446.68C281.536 447.808 281.236 449.092 281.236 450.532C281.236 451.972 281.536 453.256 282.136 454.384C282.76 455.512 283.6 456.388 284.656 457.012C285.736 457.612 286.948 457.912 288.292 457.912ZM313.095 458.848C312.615 459.28 312.015 459.616 311.295 459.856C310.599 460.072 309.867 460.18 309.099 460.18C307.323 460.18 305.955 459.7 304.995 458.74C304.035 457.78 303.555 456.424 303.555 454.672V443.224H300.171V441.064H303.555V436.924H306.111V441.064H311.871V443.224H306.111V454.528C306.111 455.656 306.387 456.52 306.939 457.12C307.515 457.696 308.331 457.984 309.387 457.984C309.915 457.984 310.419 457.9 310.899 457.732C311.403 457.564 311.835 457.324 312.195 457.012L313.095 458.848ZM324.82 460.18C322.996 460.18 321.352 459.772 319.888 458.956C318.424 458.116 317.272 456.964 316.432 455.5C315.592 454.036 315.172 452.38 315.172 450.532C315.172 448.684 315.592 447.028 316.432 445.564C317.272 444.1 318.424 442.96 319.888 442.144C321.352 441.328 322.996 440.92 324.82 440.92C326.644 440.92 328.288 441.328 329.752 442.144C331.216 442.96 332.356 444.1 333.172 445.564C334.012 447.028 334.432 448.684 334.432 450.532C334.432 452.38 334.012 454.036 333.172 455.5C332.356 456.964 331.216 458.116 329.752 458.956C328.288 459.772 326.644 460.18 324.82 460.18ZM324.82 457.912C326.164 457.912 327.364 457.612 328.42 457.012C329.5 456.388 330.34 455.512 330.94 454.384C331.54 453.256 331.84 451.972 331.84 450.532C331.84 449.092 331.54 447.808 330.94 446.68C330.34 445.552 329.5 444.688 328.42 444.088C327.364 443.464 326.164 443.152 324.82 443.152C323.476 443.152 322.264 443.464 321.184 444.088C320.128 444.688 319.288 445.552 318.664 446.68C318.064 447.808 317.764 449.092 317.764 450.532C317.764 451.972 318.064 453.256 318.664 454.384C319.288 455.512 320.128 456.388 321.184 457.012C322.264 457.612 323.476 457.912 324.82 457.912ZM349.622 458.848C349.142 459.28 348.542 459.616 347.822 459.856C347.126 460.072 346.394 460.18 345.626 460.18C343.85 460.18 342.482 459.7 341.522 458.74C340.562 457.78 340.082 456.424 340.082 454.672V443.224H336.698V441.064H340.082V436.924H342.638V441.064H348.398V443.224H342.638V454.528C342.638 455.656 342.914 456.52 343.466 457.12C344.042 457.696 344.858 457.984 345.914 457.984C346.442 457.984 346.946 457.9 347.426 457.732C347.93 457.564 348.362 457.324 348.722 457.012L349.622 458.848ZM369.835 441.064L360.367 462.268C359.599 464.044 358.711 465.304 357.703 466.048C356.695 466.792 355.483 467.164 354.067 467.164C353.155 467.164 352.303 467.02 351.511 466.732C350.719 466.444 350.035 466.012 349.459 465.436L350.647 463.528C351.607 464.488 352.759 464.968 354.103 464.968C354.967 464.968 355.699 464.728 356.299 464.248C356.923 463.768 357.499 462.952 358.027 461.8L358.855 459.964L350.395 441.064H353.059L360.187 457.156L367.315 441.064H369.835ZM383.191 440.92C384.967 440.92 386.575 441.328 388.015 442.144C389.455 442.936 390.583 444.064 391.399 445.528C392.215 446.992 392.623 448.66 392.623 450.532C392.623 452.428 392.215 454.108 391.399 455.572C390.583 457.036 389.455 458.176 388.015 458.992C386.599 459.784 384.991 460.18 383.191 460.18C381.655 460.18 380.263 459.868 379.015 459.244C377.791 458.596 376.783 457.66 375.991 456.436V466.984H373.435V441.064H375.883V444.808C376.651 443.56 377.659 442.6 378.907 441.928C380.179 441.256 381.607 440.92 383.191 440.92ZM383.011 457.912C384.331 457.912 385.531 457.612 386.611 457.012C387.691 456.388 388.531 455.512 389.131 454.384C389.755 453.256 390.067 451.972 390.067 450.532C390.067 449.092 389.755 447.82 389.131 446.716C388.531 445.588 387.691 444.712 386.611 444.088C385.531 443.464 384.331 443.152 383.011 443.152C381.667 443.152 380.455 443.464 379.375 444.088C378.319 444.712 377.479 445.588 376.855 446.716C376.255 447.82 375.955 449.092 375.955 450.532C375.955 451.972 376.255 453.256 376.855 454.384C377.479 455.512 378.319 456.388 379.375 457.012C380.455 457.612 381.667 457.912 383.011 457.912ZM414.322 451.324H398.482C398.626 453.292 399.382 454.888 400.75 456.112C402.118 457.312 403.846 457.912 405.934 457.912C407.11 457.912 408.19 457.708 409.174 457.3C410.158 456.868 411.01 456.244 411.73 455.428L413.17 457.084C412.33 458.092 411.274 458.86 410.002 459.388C408.754 459.916 407.374 460.18 405.862 460.18C403.918 460.18 402.19 459.772 400.678 458.956C399.19 458.116 398.026 456.964 397.186 455.5C396.346 454.036 395.926 452.38 395.926 450.532C395.926 448.684 396.322 447.028 397.114 445.564C397.93 444.1 399.034 442.96 400.426 442.144C401.842 441.328 403.426 440.92 405.178 440.92C406.93 440.92 408.502 441.328 409.894 442.144C411.286 442.96 412.378 444.1 413.17 445.564C413.962 447.004 414.358 448.66 414.358 450.532L414.322 451.324ZM405.178 443.116C403.354 443.116 401.818 443.704 400.57 444.88C399.346 446.032 398.65 447.544 398.482 449.416H411.91C411.742 447.544 411.034 446.032 409.786 444.88C408.562 443.704 407.026 443.116 405.178 443.116Z" fill="white"/>
<path d="M218.019 132.07C219.34 130.458 219.145 128.049 217.59 126.687C216.024 125.318 213.697 125.523 212.383 127.131C211.568 128.127 210.763 129.127 209.973 130.137C208.685 131.775 208.93 134.181 210.514 135.509C211.2 136.083 212.022 136.363 212.838 136.363C213.913 136.363 214.981 135.882 215.71 134.949C216.471 133.983 217.24 133.021 218.019 132.07Z" fill="white"/>
<path d="M200.018 151.231C200.635 151.641 201.328 151.835 202.01 151.835C203.226 151.835 204.417 151.216 205.124 150.078C205.777 149.026 206.441 147.986 207.112 146.953C208.249 145.199 207.798 142.827 206.105 141.652C204.413 140.47 202.111 140.943 200.978 142.693C200.278 143.771 199.585 144.856 198.903 145.953C197.802 147.725 198.3 150.089 200.018 151.231Z" fill="white"/>
<path d="M230.437 118.533C231.92 117.086 231.989 114.669 230.589 113.132C229.185 111.603 226.851 111.532 225.364 112.975C224.451 113.871 223.542 114.773 222.643 115.687C221.193 117.172 221.178 119.589 222.611 121.092C223.336 121.845 224.289 122.226 225.241 122.226C226.179 122.226 227.118 121.86 227.839 121.125C228.694 120.249 229.56 119.384 230.437 118.533Z" fill="white"/>
<path d="M191.277 168.053C191.807 168.325 192.367 168.452 192.919 168.452C194.279 168.452 195.585 167.676 196.231 166.333C196.769 165.214 197.317 164.099 197.873 162.999C198.818 161.13 198.122 158.821 196.314 157.844C194.503 156.859 192.273 157.59 191.327 159.455C190.743 160.608 190.173 161.768 189.614 162.932C188.704 164.823 189.451 167.113 191.277 168.053Z" fill="white"/>
<path d="M277.072 82.4314C276.239 80.503 274.049 79.6451 272.19 80.5105C271.036 81.0439 269.892 81.5959 268.759 82.1554C266.919 83.0692 266.139 85.3483 267.02 87.2506C267.655 88.6232 268.979 89.4214 270.357 89.4214C270.891 89.4214 271.436 89.3021 271.949 89.0484C273.031 88.5113 274.117 87.9891 275.214 87.4781C277.076 86.6165 277.91 84.3561 277.072 82.4314Z" fill="white"/>
<path d="M244.949 101.137C243.722 99.4583 241.406 99.1152 239.775 100.383C238.772 101.167 237.776 101.961 236.791 102.763C235.185 104.069 234.911 106.471 236.17 108.127C236.899 109.085 237.985 109.585 239.079 109.585C239.876 109.585 240.684 109.317 241.359 108.768C242.308 107.996 243.261 107.232 244.22 106.486C245.851 105.214 246.176 102.819 244.949 101.137Z" fill="white"/>
<path d="M260.506 90.8461C259.46 89.0333 257.19 88.4328 255.44 89.5182C254.358 90.1859 253.286 90.8573 252.225 91.5436C250.493 92.6589 249.963 95.0125 251.042 96.8029C251.742 97.9667 252.947 98.6045 254.181 98.6045C254.848 98.6045 255.523 98.418 256.129 98.0263C257.154 97.3699 258.183 96.7208 259.222 96.083C260.975 95.005 261.549 92.6589 260.506 90.8461Z" fill="white"/>
<path d="M287.423 82.1508C287.827 82.1508 288.242 82.0836 288.646 81.9344L290.031 81.4458C291.969 80.7856 293.019 78.6222 292.377 76.6192C291.738 74.6199 289.66 73.5307 287.708 74.1947L286.199 74.7281C284.273 75.4256 283.262 77.6039 283.937 79.5957C284.471 81.1661 285.896 82.1508 287.423 82.1508Z" fill="white"/>
<path d="M266.28 389.44C265.212 388.854 264.151 388.258 263.093 387.653C261.311 386.62 259.059 387.292 258.071 389.138C257.078 390.98 257.724 393.308 259.507 394.33C260.607 394.964 261.711 395.583 262.823 396.191C263.371 396.493 263.963 396.635 264.548 396.635C265.872 396.635 267.153 395.897 267.817 394.602C268.773 392.741 268.084 390.428 266.28 389.44Z" fill="white"/>
<path d="M233.726 366.027C232.204 364.625 229.865 364.763 228.509 366.34C227.152 367.918 227.289 370.331 228.812 371.734C229.75 372.596 230.695 373.45 231.648 374.293C232.344 374.912 233.2 375.214 234.051 375.214C235.09 375.214 236.126 374.763 236.855 373.879C238.186 372.279 238.006 369.869 236.454 368.496C235.538 367.683 234.628 366.859 233.726 366.027Z" fill="white"/>
<path d="M193.538 309.178C193.047 308.044 192.567 306.902 192.102 305.757C191.308 303.81 189.139 302.911 187.263 303.717C185.383 304.534 184.499 306.772 185.289 308.719C185.776 309.916 186.278 311.11 186.79 312.296C187.404 313.713 188.753 314.556 190.168 314.556C190.669 314.556 191.182 314.452 191.673 314.224C193.534 313.363 194.372 311.102 193.538 309.178Z" fill="white"/>
<path d="M282.7 397.225C281.574 396.767 280.455 396.3 279.347 395.823C277.453 394.991 275.299 395.924 274.512 397.867C273.722 399.814 274.61 402.052 276.49 402.865C277.655 403.373 278.824 403.861 280 404.335C280.444 404.514 280.899 404.6 281.35 404.6C282.826 404.6 284.219 403.678 284.789 402.175C285.536 400.209 284.598 397.994 282.7 397.225Z" fill="white"/>
<path d="M247.832 377.687C246.165 376.46 243.862 376.863 242.679 378.582C241.495 380.302 241.881 382.685 243.545 383.909C244.57 384.666 245.605 385.408 246.648 386.139C247.283 386.587 248.005 386.8 248.719 386.8C249.903 386.8 251.065 386.214 251.779 385.125C252.927 383.379 252.486 381.003 250.798 379.821C249.798 379.119 248.813 378.407 247.832 377.687Z" fill="white"/>
<path d="M209.663 338.28C208.476 336.567 206.17 336.168 204.507 337.396C202.847 338.626 202.464 341.01 203.652 342.726C204.384 343.785 205.127 344.829 205.878 345.87C206.603 346.873 207.715 347.403 208.84 347.403C209.609 347.403 210.385 347.157 211.049 346.642C212.683 345.381 213.019 342.987 211.796 341.297C211.074 340.301 210.367 339.294 209.663 338.28Z" fill="white"/>
<path d="M220.948 352.842C219.58 351.268 217.246 351.141 215.73 352.551C214.211 353.961 214.085 356.374 215.449 357.945C216.289 358.911 217.137 359.873 217.996 360.82C218.725 361.622 219.71 362.029 220.695 362.029C221.601 362.029 222.507 361.686 223.221 360.999C224.711 359.556 224.787 357.139 223.394 355.598C222.572 354.688 221.752 353.771 220.948 352.842Z" fill="white"/>
<path d="M200.005 322.52C199.005 320.681 196.753 320.024 194.974 321.05C193.196 322.08 192.557 324.407 193.553 326.25C194.166 327.38 194.794 328.51 195.429 329.629C196.118 330.841 197.352 331.513 198.619 331.513C199.254 331.513 199.9 331.345 200.488 330.987C202.249 329.916 202.833 327.574 201.801 325.757C201.188 324.683 200.589 323.605 200.005 322.52Z" fill="white"/>
<path d="M390.097 401.32C388.946 401.686 387.791 402.04 386.63 402.387C384.667 402.965 383.534 405.08 384.097 407.109C384.558 408.787 386.038 409.877 387.647 409.877C387.983 409.877 388.326 409.828 388.665 409.727C389.87 409.373 391.075 409.004 392.269 408.623C394.222 408 395.315 405.863 394.716 403.849C394.113 401.838 392.057 400.69 390.097 401.32Z" fill="white"/>
<path d="M407.001 394.834C405.901 395.33 404.793 395.815 403.682 396.285C401.794 397.087 400.889 399.318 401.661 401.269C402.249 402.746 403.627 403.641 405.082 403.641C405.551 403.641 406.023 403.551 406.482 403.357C407.644 402.865 408.802 402.358 409.953 401.839C411.826 400.996 412.681 398.743 411.865 396.811C411.053 394.883 408.881 393.995 407.001 394.834Z" fill="white"/>
<path d="M438.224 376.244C437.253 376.979 436.271 377.706 435.286 378.422C433.619 379.635 433.215 382.018 434.388 383.745C435.106 384.801 436.253 385.368 437.415 385.368C438.148 385.368 438.891 385.144 439.537 384.674C440.565 383.928 441.583 383.171 442.597 382.398C444.242 381.149 444.596 378.762 443.387 377.061C442.182 375.36 439.862 374.991 438.224 376.244Z" fill="white"/>
<path d="M497.748 301.319C495.872 300.539 493.703 301.476 492.938 303.434C492.487 304.59 492.025 305.746 491.549 306.895C490.748 308.835 491.621 311.08 493.497 311.908C493.97 312.117 494.461 312.214 494.948 312.214C496.38 312.214 497.748 311.345 498.347 309.894C498.838 308.701 499.321 307.5 499.794 306.291C500.555 304.337 499.642 302.11 497.748 301.319Z" fill="white"/>
<path d="M490.27 318.79C488.476 317.791 486.232 318.488 485.265 320.346C484.698 321.439 484.117 322.524 483.518 323.602C482.504 325.434 483.118 327.768 484.89 328.817C485.47 329.16 486.102 329.32 486.723 329.32C488.004 329.32 489.252 328.63 489.934 327.399C490.562 326.262 491.172 325.116 491.774 323.964C492.741 322.106 492.067 319.79 490.27 318.79Z" fill="white"/>
<path d="M503.289 283.094C501.319 282.519 499.284 283.713 498.739 285.746C498.414 286.951 498.078 288.152 497.728 289.349C497.137 291.371 498.244 293.5 500.197 294.108C500.554 294.22 500.911 294.273 501.265 294.273C502.852 294.273 504.321 293.209 504.801 291.557C505.165 290.308 505.515 289.054 505.854 287.797C506.403 285.764 505.256 283.657 503.289 283.094Z" fill="white"/>
<path d="M423.113 386.438C422.074 387.057 421.027 387.665 419.973 388.258C418.18 389.269 417.52 391.589 418.498 393.439C419.169 394.711 420.435 395.431 421.745 395.431C422.344 395.431 422.95 395.282 423.51 394.965C424.614 394.342 425.711 393.704 426.8 393.055C428.569 392.003 429.178 389.668 428.157 387.841C427.14 386.013 424.884 385.382 423.113 386.438Z" fill="white"/>
<path d="M452.16 364.378C451.272 365.221 450.374 366.053 449.468 366.877C447.938 368.276 447.794 370.689 449.143 372.271C449.876 373.125 450.893 373.561 451.915 373.561C452.784 373.561 453.657 373.248 454.361 372.606C455.303 371.745 456.237 370.876 457.161 369.995C458.666 368.567 458.76 366.153 457.378 364.602C456.003 363.046 453.654 362.946 452.16 364.378Z" fill="white"/>
<path d="M475.823 336.262C475.141 337.288 474.441 338.302 473.738 339.309C472.54 341.018 472.908 343.405 474.56 344.643C475.217 345.136 475.975 345.371 476.725 345.371C477.869 345.371 478.998 344.822 479.72 343.793C480.46 342.741 481.189 341.674 481.907 340.604C483.065 338.866 482.643 336.489 480.965 335.288C479.28 334.095 476.985 334.524 475.823 336.262Z" fill="white"/>
<path d="M464.74 351.003C463.95 351.943 463.149 352.871 462.341 353.789C460.97 355.352 461.081 357.765 462.59 359.186C463.301 359.85 464.188 360.178 465.076 360.178C466.079 360.178 467.082 359.757 467.811 358.929C468.655 357.966 469.493 356.993 470.319 356.008C471.658 354.416 471.492 352.006 469.951 350.622C468.41 349.235 466.075 349.402 464.74 351.003Z" fill="white"/>
<path d="M494.455 182.037C494.873 183.201 495.277 184.368 495.674 185.54C496.205 187.117 497.634 188.106 499.164 188.106C499.568 188.106 499.976 188.039 500.376 187.893C502.307 187.2 503.324 185.025 502.653 183.033C502.242 181.802 501.816 180.582 501.376 179.367C500.665 177.39 498.532 176.39 496.623 177.125C494.711 177.86 493.74 180.06 494.455 182.037Z" fill="white"/>
<path d="M499.792 199.843C500.084 201.045 500.362 202.249 500.626 203.462C501.012 205.237 502.538 206.442 504.227 206.442C504.497 206.442 504.768 206.412 505.042 206.349C507.034 205.886 508.283 203.842 507.835 201.783C507.557 200.511 507.265 199.239 506.958 197.978C506.46 195.934 504.447 194.696 502.473 195.207C500.496 195.722 499.294 197.796 499.792 199.843Z" fill="white"/>
<path d="M487.219 164.961C487.76 166.068 488.291 167.184 488.807 168.303C489.442 169.675 490.766 170.474 492.144 170.474C492.678 170.474 493.223 170.354 493.736 170.101C495.576 169.187 496.355 166.908 495.475 165.005C494.93 163.834 494.378 162.667 493.808 161.507C492.888 159.627 490.672 158.862 488.843 159.828C487.024 160.779 486.295 163.077 487.219 164.961Z" fill="white"/>
<path d="M394.065 81.4423C395.206 81.8377 396.342 82.248 397.472 82.6732C397.89 82.8298 398.316 82.9044 398.738 82.9044C400.246 82.9044 401.665 81.9421 402.209 80.3941C402.909 78.4098 401.921 76.2203 400.005 75.4966C398.818 75.049 397.623 74.6164 396.425 74.1986C394.477 73.5347 392.391 74.6089 391.742 76.6007C391.092 78.6037 392.131 80.7671 394.065 81.4423Z" fill="white"/>
<path d="M480.131 151.944C480.831 153.107 482.037 153.749 483.274 153.749C483.938 153.749 484.613 153.563 485.219 153.175C486.955 152.063 487.485 149.706 486.41 147.915C485.742 146.807 485.064 145.707 484.371 144.618C483.256 142.857 480.961 142.358 479.255 143.521C477.548 144.678 477.075 147.046 478.194 148.811C478.85 149.847 479.5 150.888 480.131 151.944Z" fill="white"/>
<path d="M469.746 136.68C470.475 137.638 471.561 138.138 472.655 138.138C473.452 138.138 474.26 137.87 474.935 137.321C476.541 136.016 476.815 133.614 475.556 131.958C474.776 130.932 473.986 129.921 473.185 128.918C471.886 127.295 469.562 127.06 467.982 128.403C466.408 129.746 466.185 132.152 467.484 133.782C468.249 134.74 469.003 135.706 469.746 136.68Z" fill="white"/>
<path d="M419.035 88.2906C419.944 86.3995 419.197 84.1093 417.371 83.1693C416.238 82.5874 415.102 82.0242 413.958 81.4684C412.114 80.5807 409.909 81.405 409.043 83.311C408.181 85.2208 408.978 87.4961 410.826 88.3913C411.919 88.9172 413.005 89.4581 414.081 90.0101C414.611 90.2824 415.17 90.4092 415.722 90.4092C417.083 90.4092 418.389 89.6334 419.035 88.2906Z" fill="white"/>
<path d="M449.097 104.23C448.112 103.405 447.127 102.596 446.131 101.798C444.518 100.511 442.198 100.817 440.946 102.48C439.697 104.148 439.993 106.55 441.606 107.84C442.559 108.601 443.501 109.373 444.435 110.16C445.121 110.735 445.947 111.014 446.762 111.014C447.838 111.014 448.906 110.533 449.635 109.601C450.919 107.963 450.681 105.561 449.097 104.23Z" fill="white"/>
<path d="M463.065 117.329C462.181 116.404 461.29 115.49 460.388 114.588C458.923 113.114 456.578 113.155 455.163 114.662C453.738 116.177 453.774 118.594 455.235 120.063C456.101 120.936 456.956 121.813 457.804 122.7C458.53 123.454 459.482 123.834 460.435 123.834C461.373 123.834 462.311 123.469 463.033 122.734C464.484 121.249 464.498 118.832 463.065 117.329Z" fill="white"/>
<path d="M434.913 98.0593C436.014 96.2875 435.516 93.9227 433.798 92.7813C432.737 92.0764 431.669 91.3863 430.59 90.7075C428.855 89.6071 426.574 90.1815 425.513 91.9794C424.449 93.781 425.001 96.1309 426.744 97.2275C427.772 97.8765 428.79 98.5367 429.807 99.2119C430.424 99.6222 431.117 99.8161 431.799 99.8161C433.015 99.8161 434.206 99.1969 434.913 98.0593Z" fill="white"/>
</svg>
