<svg width="693" height="483" viewBox="0 0 693 483" fill="none" xmlns="http://www.w3.org/2000/svg">
<path d="M416.768 180.837C415.652 179.092 413.219 178.515 411.322 179.53C409.425 180.549 408.788 182.782 409.896 184.52L411.905 187.669C412.648 188.83 413.977 189.474 415.345 189.474C416.029 189.474 416.718 189.314 417.351 188.976C419.248 187.957 419.886 185.724 418.778 183.986L416.768 180.837Z" fill="white"/>
<path d="M436.864 212.319C435.748 210.574 433.319 209.994 431.418 211.012C429.521 212.031 428.883 214.264 429.991 216.002L432.001 219.151C432.743 220.312 434.073 220.957 435.441 220.957C436.125 220.957 436.813 220.796 437.447 220.458C439.344 219.439 439.981 217.206 438.873 215.468L436.864 212.319Z" fill="white"/>
<path d="M472.19 282.114C472.933 283.275 474.262 283.92 475.63 283.92C476.315 283.92 477.007 283.76 477.636 283.421C479.533 282.403 480.171 280.169 479.063 278.431L477.053 275.286C475.938 273.541 473.493 272.961 471.607 273.979C469.71 274.998 469.073 277.231 470.181 278.969L472.19 282.114Z" fill="white"/>
<path d="M447.496 236.2C449.393 235.182 450.03 232.949 448.922 231.211L446.913 228.062C445.797 226.32 443.364 225.736 441.467 226.755C439.57 227.774 438.932 230.007 440.04 231.745L442.05 234.893C442.792 236.054 444.122 236.699 445.49 236.699C446.174 236.699 446.862 236.539 447.496 236.2Z" fill="white"/>
<path d="M482.239 297.856C482.982 299.017 484.311 299.662 485.679 299.662C486.363 299.662 487.052 299.502 487.685 299.163C489.582 298.145 490.22 295.912 489.112 294.174L487.102 291.025C485.986 289.28 483.557 288.699 481.656 289.718C479.759 290.737 479.122 292.97 480.23 294.708L482.239 297.856Z" fill="white"/>
<path d="M492.286 313.599C493.029 314.76 494.358 315.404 495.726 315.404C496.41 315.404 497.098 315.244 497.732 314.906C499.629 313.887 500.266 311.654 499.159 309.916L497.149 306.767C496.033 305.026 493.6 304.442 491.703 305.46C489.806 306.479 489.169 308.712 490.276 310.45L492.286 313.599Z" fill="white"/>
<path d="M452.093 250.629C452.831 251.79 454.164 252.438 455.533 252.438C456.213 252.438 456.905 252.278 457.535 251.939C459.435 250.924 460.073 248.691 458.965 246.953L456.959 243.805C455.855 242.066 453.414 241.479 451.517 242.494C449.617 243.509 448.979 245.742 450.087 247.48L452.093 250.629Z" fill="white"/>
<path d="M462.142 266.375C462.884 267.536 464.213 268.181 465.582 268.181C466.266 268.181 466.954 268.021 467.587 267.682C469.484 266.664 470.122 264.43 469.014 262.692L467.004 259.544C465.889 257.799 463.455 257.222 461.559 258.237C459.662 259.255 459.024 261.488 460.132 263.227L462.142 266.375Z" fill="white"/>
<path d="M426.815 196.58C425.699 194.834 423.266 194.254 421.369 195.273C419.472 196.291 418.835 198.524 419.942 200.262L421.952 203.411C422.695 204.572 424.024 205.217 425.392 205.217C426.076 205.217 426.764 205.056 427.398 204.718C429.295 203.699 429.932 201.466 428.825 199.728L426.815 196.58Z" fill="white"/>
<path d="M354.848 291.464C354.848 289.448 353.067 287.817 350.867 287.817C348.667 287.817 346.887 289.448 346.887 291.464V295.111C346.887 297.127 348.667 298.758 350.867 298.758C353.067 298.758 354.848 297.127 354.848 295.111V291.464Z" fill="white"/>
<path d="M354.848 273.228C354.848 271.212 353.067 269.581 350.867 269.581C348.667 269.581 346.887 271.212 346.887 273.228V276.875C346.887 278.891 348.667 280.522 350.867 280.522C353.067 280.522 354.848 278.891 354.848 276.875V273.228Z" fill="white"/>
<path d="M350.867 306.052C348.667 306.052 346.887 307.684 346.887 309.699V313.347C346.887 315.363 348.667 316.994 350.867 316.994C353.067 316.994 354.848 315.363 354.848 313.347V309.699C354.848 307.684 353.067 306.052 350.867 306.052Z" fill="white"/>
<path d="M349.346 55.7087C351.546 55.7087 353.326 54.0774 353.326 52.0615V41.6472C353.326 39.6312 351.546 38 349.346 38C347.146 38 345.365 39.6312 345.365 41.6472V52.0615C345.365 54.0774 347.146 55.7087 349.346 55.7087Z" fill="white"/>
<path d="M377.376 60.9055C377.866 61.0907 378.379 61.1762 378.88 61.1762C380.447 61.1762 381.936 60.3214 382.565 58.9074L386.864 49.2659C387.696 47.4032 386.721 45.2733 384.684 44.5111C382.666 43.7489 380.326 44.6429 379.495 46.5092L375.195 56.1506C374.364 58.0134 375.339 60.1433 377.376 60.9055Z" fill="white"/>
<path d="M400.664 73.503C401.819 73.503 402.962 73.0471 403.747 72.1674L410.95 64.1109C412.345 62.5508 412.092 60.2536 410.394 58.9785C408.691 57.6963 406.18 57.9349 404.792 59.4878L397.59 67.5443C396.194 69.1043 396.447 71.4016 398.145 72.6767C398.884 73.2323 399.778 73.503 400.664 73.503Z" fill="white"/>
<path d="M316.338 58.907C316.968 60.321 318.457 61.1758 320.023 61.1758C320.525 61.1758 321.034 61.0903 321.528 60.9051C323.564 60.1429 324.54 58.0166 323.708 56.1503L319.413 46.5088C318.581 44.6389 316.257 43.745 314.224 44.5107C312.187 45.2729 311.211 47.3992 312.043 49.2656L316.338 58.907Z" fill="white"/>
<path d="M295.159 72.1675C295.944 73.0473 297.087 73.5031 298.242 73.5031C299.128 73.5031 300.022 73.2325 300.761 72.6768C302.463 71.3982 302.708 69.1009 301.316 67.5445L294.11 59.4879C292.718 57.9315 290.207 57.6964 288.508 58.9786C286.806 60.2573 286.561 62.5545 287.953 64.111L295.159 72.1675Z" fill="white"/>
<path d="M410.88 152.409C414.405 144.808 416.193 136.766 416.193 128.499C416.193 111.634 408.87 95.9203 395.572 84.2523C382.282 72.5913 364.817 66.5863 346.373 67.3058C313.294 68.6201 285.334 93.3345 282.71 123.57C281.847 133.582 283.577 143.308 287.852 152.494C287.907 152.654 287.973 152.807 288.047 152.961L302.258 181.18C305.539 187.694 307.999 194.561 309.577 201.613L312.322 213.491C313.48 218.517 318.393 222.168 324.006 222.168H374.706C380.315 222.168 385.228 218.517 386.387 213.491L389.139 201.588C390.709 194.565 393.166 187.698 396.451 181.18L410.662 152.961C410.751 152.783 410.825 152.597 410.88 152.409ZM345.125 124.211H348.596C348.886 124.211 349.141 124.113 349.413 124.06C349.685 124.113 349.939 124.211 350.229 124.211H353.7C354.454 130.675 360.436 135.726 367.686 135.726H379.964L360.625 214.873H338.192L318.854 135.726H331.139C338.389 135.726 344.371 130.675 345.125 124.211ZM337.242 116.916H331.139C327.773 116.916 325.033 114.405 325.033 111.303C325.033 108.219 327.773 105.711 331.139 105.711C334.506 105.711 337.242 108.219 337.242 111.303V116.916ZM403.358 149.976C403.296 150.101 403.245 150.229 403.202 150.361L389.221 178.124C385.683 185.151 383.032 192.556 381.345 200.103L378.597 211.981C378.212 213.659 376.576 214.873 374.706 214.873H368.782L391.899 120.261C392.381 118.295 391.032 116.343 388.886 115.905C386.729 115.47 384.61 116.706 384.132 118.665L381.746 128.431H367.686C364.837 128.431 362.438 126.633 361.77 124.211H367.686C375.445 124.211 381.753 118.43 381.753 111.303C381.753 104.198 375.445 98.4171 367.686 98.4171C359.931 98.4171 353.622 104.198 353.622 111.303V116.916H350.229C349.939 116.916 349.685 117.013 349.413 117.067C349.141 117.013 348.886 116.916 348.596 116.916H345.203V111.303C345.203 104.198 338.894 98.4171 331.139 98.4171C323.381 98.4171 317.072 104.198 317.072 111.321C317.072 118.43 323.381 124.211 331.139 124.211H337.055C336.387 126.633 333.989 128.431 331.139 128.431H317.071L314.685 118.665C314.207 116.703 312.108 115.467 309.931 115.905C307.786 116.343 306.437 118.295 306.919 120.261L330.036 214.873H324.006C322.137 214.873 320.496 213.659 320.112 211.981L317.371 200.124C315.676 192.549 313.021 185.147 309.488 178.124L295.463 150.272C295.425 150.172 295.382 150.072 295.335 149.972C291.452 141.78 289.874 133.094 290.647 124.147C292.956 97.5195 317.585 75.7505 346.715 74.593C362.983 73.9448 378.356 79.2481 390.064 89.52C401.78 99.799 408.232 113.643 408.232 128.499C408.232 135.932 406.592 143.155 403.358 149.976ZM361.583 116.916V111.303C361.583 108.219 364.32 105.711 367.686 105.711C371.052 105.711 373.793 108.219 373.793 111.321C373.793 114.405 371.052 116.916 367.686 116.916H361.583Z" fill="white"/>
<path d="M382.71 229.462C382.71 227.446 380.93 225.815 378.729 225.815H319.023C316.823 225.815 315.043 227.446 315.043 229.462C315.043 231.478 316.823 233.109 319.023 233.109H378.729C380.93 233.109 382.71 231.478 382.71 229.462Z" fill="white"/>
<path d="M374.747 240.403C374.747 238.388 372.967 236.756 370.767 236.756H326.982C324.782 236.756 323.002 238.388 323.002 240.403C323.002 242.419 324.782 244.051 326.982 244.051H370.767C372.967 244.051 374.747 242.419 374.747 240.403Z" fill="white"/>
<path d="M370.767 251.345C370.767 249.329 368.987 247.698 366.786 247.698H330.963C328.763 247.698 326.982 249.329 326.982 251.345C326.982 253.361 328.763 254.992 330.963 254.992H366.786C368.987 254.992 370.767 253.361 370.767 251.345Z" fill="white"/>
<path d="M214.045 296.236C214.67 296.571 215.358 296.727 216.035 296.727C217.407 296.727 218.744 296.076 219.483 294.907L221.477 291.752C222.581 290.01 221.932 287.777 220.027 286.769C218.13 285.754 215.693 286.352 214.589 288.097L212.595 291.253C211.491 292.995 212.14 295.228 214.045 296.236Z" fill="white"/>
<path d="M259.949 223.663C258.048 222.648 255.611 223.246 254.511 224.991L252.517 228.147C251.413 229.889 252.062 232.122 253.966 233.13C254.592 233.465 255.28 233.621 255.957 233.621C257.329 233.621 258.666 232.97 259.405 231.801L261.399 228.646C262.503 226.904 261.853 224.671 259.949 223.663Z" fill="white"/>
<path d="M194.984 326.357C195.614 326.691 196.302 326.848 196.978 326.848C198.35 326.848 199.688 326.196 200.426 325.032L201.515 323.311C202.618 321.566 201.969 319.336 200.069 318.325C198.16 317.306 195.727 317.912 194.627 319.65L193.538 321.37C192.434 323.115 193.083 325.345 194.984 326.357Z" fill="white"/>
<path d="M204.056 312.014C204.686 312.349 205.374 312.506 206.051 312.506C207.423 312.506 208.76 311.854 209.498 310.689L211.496 307.533C212.6 305.792 211.951 303.559 210.05 302.547C208.138 301.532 205.708 302.134 204.608 303.872L202.61 307.028C201.507 308.769 202.156 311.002 204.056 312.014Z" fill="white"/>
<path d="M239.994 255.216C238.085 254.201 235.652 254.799 234.552 256.541L232.554 259.696C231.45 261.438 232.099 263.671 234 264.683C234.63 265.017 235.318 265.174 235.994 265.174C237.366 265.174 238.703 264.522 239.442 263.358L241.44 260.202C242.544 258.46 241.895 256.227 239.994 255.216Z" fill="white"/>
<path d="M269.937 207.884C268.029 206.866 265.599 207.471 264.495 209.209L262.497 212.365C261.393 214.107 262.042 216.34 263.943 217.351C264.573 217.686 265.261 217.843 265.937 217.843C267.309 217.843 268.647 217.191 269.385 216.026L271.383 212.871C272.487 211.129 271.838 208.896 269.937 207.884Z" fill="white"/>
<path d="M230.007 270.994C228.11 269.979 225.669 270.578 224.569 272.323L222.575 275.478C221.471 277.22 222.12 279.453 224.025 280.461C224.651 280.796 225.339 280.953 226.015 280.953C227.387 280.953 228.725 280.301 229.463 279.133L231.457 275.977C232.561 274.235 231.912 272.002 230.007 270.994Z" fill="white"/>
<path d="M249.97 239.441C248.058 238.423 245.628 239.028 244.528 240.766L242.534 243.918C241.43 245.663 242.079 247.893 243.98 248.905C244.61 249.239 245.298 249.396 245.974 249.396C247.347 249.396 248.684 248.744 249.422 247.58L251.416 244.428C252.52 242.682 251.871 240.453 249.97 239.441Z" fill="white"/>
<path d="M289.895 176.332C287.983 175.313 285.553 175.919 284.453 177.657L282.455 180.812C281.351 182.554 282.001 184.787 283.901 185.799C284.531 186.134 285.219 186.29 285.896 186.29C287.268 186.29 288.605 185.639 289.343 184.474L291.341 181.318C292.445 179.577 291.796 177.343 289.895 176.332Z" fill="white"/>
<path d="M279.91 192.111C278.009 191.095 275.572 191.694 274.472 193.439L272.478 196.595C271.374 198.336 272.023 200.569 273.927 201.577C274.553 201.912 275.241 202.069 275.918 202.069C277.29 202.069 278.627 201.417 279.365 200.249L281.36 197.093C282.463 195.352 281.814 193.118 279.91 192.111Z" fill="white"/>
<path d="M298.41 367.8H308.67C311.334 367.8 313.686 368.34 315.726 369.42C317.766 370.476 319.35 371.964 320.478 373.884C321.606 375.78 322.17 377.952 322.17 380.4C322.17 382.848 321.606 385.032 320.478 386.952C319.35 388.848 317.766 390.336 315.726 391.416C313.686 392.472 311.334 393 308.67 393H298.41V367.8ZM308.526 390.696C310.734 390.696 312.666 390.264 314.322 389.4C315.978 388.512 317.262 387.3 318.174 385.764C319.086 384.204 319.542 382.416 319.542 380.4C319.542 378.384 319.086 376.608 318.174 375.072C317.262 373.512 315.978 372.3 314.322 371.436C312.666 370.548 310.734 370.104 308.526 370.104H301.074V390.696H308.526ZM344.1 384.324H328.26C328.404 386.292 329.16 387.888 330.528 389.112C331.896 390.312 333.624 390.912 335.712 390.912C336.888 390.912 337.968 390.708 338.952 390.3C339.936 389.868 340.788 389.244 341.508 388.428L342.948 390.084C342.108 391.092 341.052 391.86 339.78 392.388C338.532 392.916 337.152 393.18 335.64 393.18C333.696 393.18 331.968 392.772 330.456 391.956C328.968 391.116 327.804 389.964 326.964 388.5C326.124 387.036 325.704 385.38 325.704 383.532C325.704 381.684 326.1 380.028 326.892 378.564C327.708 377.1 328.812 375.96 330.204 375.144C331.62 374.328 333.204 373.92 334.956 373.92C336.708 373.92 338.28 374.328 339.672 375.144C341.064 375.96 342.156 377.1 342.948 378.564C343.74 380.004 344.136 381.66 344.136 383.532L344.1 384.324ZM334.956 376.116C333.132 376.116 331.596 376.704 330.348 377.88C329.124 379.032 328.428 380.544 328.26 382.416H341.688C341.52 380.544 340.812 379.032 339.564 377.88C338.34 376.704 336.804 376.116 334.956 376.116ZM354.415 393.18C352.879 393.18 351.403 392.964 349.987 392.532C348.595 392.076 347.503 391.512 346.711 390.84L347.863 388.824C348.655 389.448 349.651 389.964 350.851 390.372C352.051 390.756 353.299 390.948 354.595 390.948C356.323 390.948 357.595 390.684 358.411 390.156C359.251 389.604 359.671 388.836 359.671 387.852C359.671 387.156 359.443 386.616 358.987 386.232C358.531 385.824 357.955 385.524 357.259 385.332C356.563 385.116 355.639 384.912 354.487 384.72C352.951 384.432 351.715 384.144 350.779 383.856C349.843 383.544 349.039 383.028 348.367 382.308C347.719 381.588 347.395 380.592 347.395 379.32C347.395 377.736 348.055 376.44 349.375 375.432C350.695 374.424 352.531 373.92 354.883 373.92C356.107 373.92 357.331 374.088 358.555 374.424C359.779 374.736 360.787 375.156 361.579 375.684L360.463 377.736C358.903 376.656 357.043 376.116 354.883 376.116C353.251 376.116 352.015 376.404 351.175 376.98C350.359 377.556 349.951 378.312 349.951 379.248C349.951 379.968 350.179 380.544 350.635 380.976C351.115 381.408 351.703 381.732 352.399 381.948C353.095 382.14 354.055 382.344 355.279 382.56C356.791 382.848 358.003 383.136 358.915 383.424C359.827 383.712 360.607 384.204 361.255 384.9C361.903 385.596 362.227 386.556 362.227 387.78C362.227 389.436 361.531 390.756 360.139 391.74C358.771 392.7 356.863 393.18 354.415 393.18ZM366.952 374.064H369.508V393H366.952V374.064ZM368.248 369.924C367.72 369.924 367.276 369.744 366.916 369.384C366.556 369.024 366.376 368.592 366.376 368.088C366.376 367.608 366.556 367.188 366.916 366.828C367.276 366.468 367.72 366.288 368.248 366.288C368.776 366.288 369.22 366.468 369.58 366.828C369.94 367.164 370.12 367.572 370.12 368.052C370.12 368.58 369.94 369.024 369.58 369.384C369.22 369.744 368.776 369.924 368.248 369.924ZM394.152 374.064V390.696C394.152 393.912 393.36 396.288 391.776 397.824C390.216 399.384 387.852 400.164 384.684 400.164C382.932 400.164 381.264 399.9 379.68 399.372C378.12 398.868 376.848 398.16 375.864 397.248L377.16 395.304C378.072 396.12 379.176 396.756 380.472 397.212C381.792 397.668 383.172 397.896 384.612 397.896C387.012 397.896 388.776 397.332 389.904 396.204C391.032 395.1 391.596 393.372 391.596 391.02V388.608C390.804 389.808 389.76 390.72 388.464 391.344C387.192 391.968 385.776 392.28 384.216 392.28C382.44 392.28 380.82 391.896 379.356 391.128C377.916 390.336 376.776 389.244 375.936 387.852C375.12 386.436 374.712 384.84 374.712 383.064C374.712 381.288 375.12 379.704 375.936 378.312C376.776 376.92 377.916 375.84 379.356 375.072C380.796 374.304 382.416 373.92 384.216 373.92C385.824 373.92 387.276 374.244 388.572 374.892C389.868 375.54 390.912 376.476 391.704 377.7V374.064H394.152ZM384.468 390.012C385.836 390.012 387.072 389.724 388.176 389.148C389.28 388.548 390.132 387.72 390.732 386.664C391.356 385.608 391.668 384.408 391.668 383.064C391.668 381.72 391.356 380.532 390.732 379.5C390.132 378.444 389.28 377.628 388.176 377.052C387.096 376.452 385.86 376.152 384.468 376.152C383.1 376.152 381.864 376.44 380.76 377.016C379.68 377.592 378.828 378.408 378.204 379.464C377.604 380.52 377.304 381.72 377.304 383.064C377.304 384.408 377.604 385.608 378.204 386.664C378.828 387.72 379.68 388.548 380.76 389.148C381.864 389.724 383.1 390.012 384.468 390.012ZM410.948 373.92C413.324 373.92 415.208 374.616 416.6 376.008C418.016 377.376 418.724 379.38 418.724 382.02V393H416.168V382.272C416.168 380.304 415.676 378.804 414.692 377.772C413.708 376.74 412.304 376.224 410.48 376.224C408.44 376.224 406.82 376.836 405.62 378.06C404.444 379.26 403.856 380.928 403.856 383.064V393H401.3V374.064H403.748V377.556C404.444 376.404 405.404 375.516 406.628 374.892C407.876 374.244 409.316 373.92 410.948 373.92Z" fill="white"/>
<path d="M534.886 362.8C538.102 362.8 540.622 363.568 542.446 365.104C544.27 366.64 545.182 368.752 545.182 371.44C545.182 374.128 544.27 376.24 542.446 377.776C540.622 379.288 538.102 380.044 534.886 380.044H528.118V388H525.454V362.8H534.886ZM534.814 377.704C537.31 377.704 539.218 377.164 540.538 376.084C541.858 374.98 542.518 373.432 542.518 371.44C542.518 369.4 541.858 367.84 540.538 366.76C539.218 365.656 537.31 365.104 534.814 365.104H528.118V377.704H534.814ZM552.358 372.772C552.958 371.5 553.846 370.54 555.022 369.892C556.222 369.244 557.698 368.92 559.45 368.92V371.404L558.838 371.368C556.846 371.368 555.286 371.98 554.158 373.204C553.03 374.428 552.466 376.144 552.466 378.352V388H549.91V369.064H552.358V372.772ZM571.642 388.18C569.818 388.18 568.174 387.772 566.71 386.956C565.246 386.116 564.094 384.964 563.254 383.5C562.414 382.036 561.994 380.38 561.994 378.532C561.994 376.684 562.414 375.028 563.254 373.564C564.094 372.1 565.246 370.96 566.71 370.144C568.174 369.328 569.818 368.92 571.642 368.92C573.466 368.92 575.11 369.328 576.574 370.144C578.038 370.96 579.178 372.1 579.994 373.564C580.834 375.028 581.254 376.684 581.254 378.532C581.254 380.38 580.834 382.036 579.994 383.5C579.178 384.964 578.038 386.116 576.574 386.956C575.11 387.772 573.466 388.18 571.642 388.18ZM571.642 385.912C572.986 385.912 574.186 385.612 575.242 385.012C576.322 384.388 577.162 383.512 577.762 382.384C578.362 381.256 578.662 379.972 578.662 378.532C578.662 377.092 578.362 375.808 577.762 374.68C577.162 373.552 576.322 372.688 575.242 372.088C574.186 371.464 572.986 371.152 571.642 371.152C570.298 371.152 569.086 371.464 568.006 372.088C566.95 372.688 566.11 373.552 565.486 374.68C564.886 375.808 564.586 377.092 564.586 378.532C564.586 379.972 564.886 381.256 565.486 382.384C566.11 383.512 566.95 384.388 568.006 385.012C569.086 385.612 570.298 385.912 571.642 385.912ZM603.752 361.288V388H601.304V384.256C600.536 385.528 599.516 386.5 598.244 387.172C596.996 387.844 595.58 388.18 593.996 388.18C592.22 388.18 590.612 387.772 589.172 386.956C587.732 386.14 586.604 385 585.788 383.536C584.972 382.072 584.564 380.404 584.564 378.532C584.564 376.66 584.972 374.992 585.788 373.528C586.604 372.064 587.732 370.936 589.172 370.144C590.612 369.328 592.22 368.92 593.996 368.92C595.532 368.92 596.912 369.244 598.136 369.892C599.384 370.516 600.404 371.44 601.196 372.664V361.288H603.752ZM594.212 385.912C595.532 385.912 596.72 385.612 597.776 385.012C598.856 384.388 599.696 383.512 600.296 382.384C600.92 381.256 601.232 379.972 601.232 378.532C601.232 377.092 600.92 375.808 600.296 374.68C599.696 373.552 598.856 372.688 597.776 372.088C596.72 371.464 595.532 371.152 594.212 371.152C592.868 371.152 591.656 371.464 590.576 372.088C589.52 372.688 588.68 373.552 588.056 374.68C587.456 375.808 587.156 377.092 587.156 378.532C587.156 379.972 587.456 381.256 588.056 382.384C588.68 383.512 589.52 384.388 590.576 385.012C591.656 385.612 592.868 385.912 594.212 385.912ZM627.935 369.064V388H625.487V384.544C624.815 385.696 623.891 386.596 622.715 387.244C621.539 387.868 620.195 388.18 618.683 388.18C616.211 388.18 614.255 387.496 612.815 386.128C611.399 384.736 610.691 382.708 610.691 380.044V369.064H613.247V379.792C613.247 381.784 613.739 383.296 614.723 384.328C615.707 385.36 617.111 385.876 618.935 385.876C620.927 385.876 622.499 385.276 623.651 384.076C624.803 382.852 625.379 381.16 625.379 379V369.064H627.935ZM642.941 388.18C641.069 388.18 639.389 387.772 637.901 386.956C636.437 386.14 635.285 385 634.445 383.536C633.605 382.048 633.185 380.38 633.185 378.532C633.185 376.684 633.605 375.028 634.445 373.564C635.285 372.1 636.437 370.96 637.901 370.144C639.389 369.328 641.069 368.92 642.941 368.92C644.573 368.92 646.025 369.244 647.297 369.892C648.593 370.516 649.613 371.44 650.357 372.664L648.449 373.96C647.825 373.024 647.033 372.328 646.073 371.872C645.113 371.392 644.069 371.152 642.941 371.152C641.573 371.152 640.337 371.464 639.233 372.088C638.153 372.688 637.301 373.552 636.677 374.68C636.077 375.808 635.777 377.092 635.777 378.532C635.777 379.996 636.077 381.292 636.677 382.42C637.301 383.524 638.153 384.388 639.233 385.012C640.337 385.612 641.573 385.912 642.941 385.912C644.069 385.912 645.113 385.684 646.073 385.228C647.033 384.772 647.825 384.076 648.449 383.14L650.357 384.436C649.613 385.66 648.593 386.596 647.297 387.244C646.001 387.868 644.549 388.18 642.941 388.18ZM665.561 386.848C665.081 387.28 664.481 387.616 663.761 387.856C663.065 388.072 662.333 388.18 661.565 388.18C659.789 388.18 658.421 387.7 657.461 386.74C656.501 385.78 656.021 384.424 656.021 382.672V371.224H652.637V369.064H656.021V364.924H658.577V369.064H664.337V371.224H658.577V382.528C658.577 383.656 658.853 384.52 659.405 385.12C659.981 385.696 660.797 385.984 661.853 385.984C662.381 385.984 662.885 385.9 663.365 385.732C663.869 385.564 664.301 385.324 664.661 385.012L665.561 386.848ZM568.342 402.8V428H565.786V407.84L555.886 424.796H554.626L544.726 407.948V428H542.17V402.8H544.366L555.31 421.484L566.146 402.8H568.342ZM593.545 409.064V425.696C593.545 428.912 592.753 431.288 591.169 432.824C589.609 434.384 587.245 435.164 584.077 435.164C582.325 435.164 580.657 434.9 579.073 434.372C577.513 433.868 576.241 433.16 575.257 432.248L576.553 430.304C577.465 431.12 578.569 431.756 579.865 432.212C581.185 432.668 582.565 432.896 584.005 432.896C586.405 432.896 588.169 432.332 589.297 431.204C590.425 430.1 590.989 428.372 590.989 426.02V423.608C590.197 424.808 589.153 425.72 587.857 426.344C586.585 426.968 585.169 427.28 583.609 427.28C581.833 427.28 580.213 426.896 578.749 426.128C577.309 425.336 576.169 424.244 575.329 422.852C574.513 421.436 574.105 419.84 574.105 418.064C574.105 416.288 574.513 414.704 575.329 413.312C576.169 411.92 577.309 410.84 578.749 410.072C580.189 409.304 581.809 408.92 583.609 408.92C585.217 408.92 586.669 409.244 587.965 409.892C589.261 410.54 590.305 411.476 591.097 412.7V409.064H593.545ZM583.861 425.012C585.229 425.012 586.465 424.724 587.569 424.148C588.673 423.548 589.525 422.72 590.125 421.664C590.749 420.608 591.061 419.408 591.061 418.064C591.061 416.72 590.749 415.532 590.125 414.5C589.525 413.444 588.673 412.628 587.569 412.052C586.489 411.452 585.253 411.152 583.861 411.152C582.493 411.152 581.257 411.44 580.153 412.016C579.073 412.592 578.221 413.408 577.597 414.464C576.997 415.52 576.697 416.72 576.697 418.064C576.697 419.408 576.997 420.608 577.597 421.664C578.221 422.72 579.073 423.548 580.153 424.148C581.257 424.724 582.493 425.012 583.861 425.012ZM624.309 408.92C626.685 408.92 628.545 409.604 629.889 410.972C631.257 412.34 631.941 414.356 631.941 417.02V428H629.385V417.272C629.385 415.304 628.905 413.804 627.945 412.772C627.009 411.74 625.677 411.224 623.949 411.224C621.981 411.224 620.433 411.836 619.305 413.06C618.177 414.26 617.613 415.928 617.613 418.064V428H615.057V417.272C615.057 415.304 614.577 413.804 613.617 412.772C612.681 411.74 611.337 411.224 609.585 411.224C607.641 411.224 606.093 411.836 604.941 413.06C603.813 414.26 603.249 415.928 603.249 418.064V428H600.693V409.064H603.141V412.52C603.813 411.368 604.749 410.48 605.949 409.856C607.149 409.232 608.529 408.92 610.089 408.92C611.673 408.92 613.041 409.256 614.193 409.928C615.369 410.6 616.245 411.596 616.821 412.916C617.517 411.668 618.513 410.696 619.809 410C621.129 409.28 622.629 408.92 624.309 408.92ZM648.845 426.848C648.365 427.28 647.765 427.616 647.045 427.856C646.349 428.072 645.617 428.18 644.849 428.18C643.073 428.18 641.705 427.7 640.745 426.74C639.785 425.78 639.305 424.424 639.305 422.672V411.224H635.921V409.064H639.305V404.924H641.861V409.064H647.621V411.224H641.861V422.528C641.861 423.656 642.137 424.52 642.689 425.12C643.265 425.696 644.081 425.984 645.137 425.984C645.665 425.984 646.169 425.9 646.649 425.732C647.153 425.564 647.585 425.324 647.945 425.012L648.845 426.848Z" fill="white"/>
<path d="M53.0744 389.696V392H35.2544V366.8H52.5344V369.104H37.9184V378.068H50.9504V380.336H37.9184V389.696H53.0744ZM68.4444 372.92C70.8204 372.92 72.7044 373.616 74.0964 375.008C75.5124 376.376 76.2204 378.38 76.2204 381.02V392H73.6644V381.272C73.6644 379.304 73.1724 377.804 72.1884 376.772C71.2044 375.74 69.8004 375.224 67.9764 375.224C65.9364 375.224 64.3164 375.836 63.1164 377.06C61.9404 378.26 61.3524 379.928 61.3524 382.064V392H58.7964V373.064H61.2444V376.556C61.9404 375.404 62.9004 374.516 64.1244 373.892C65.3724 373.244 66.8124 372.92 68.4444 372.92ZM100.762 373.064V389.696C100.762 392.912 99.97 395.288 98.386 396.824C96.826 398.384 94.462 399.164 91.294 399.164C89.542 399.164 87.874 398.9 86.29 398.372C84.73 397.868 83.458 397.16 82.474 396.248L83.77 394.304C84.682 395.12 85.786 395.756 87.082 396.212C88.402 396.668 89.782 396.896 91.222 396.896C93.622 396.896 95.386 396.332 96.514 395.204C97.642 394.1 98.206 392.372 98.206 390.02V387.608C97.414 388.808 96.37 389.72 95.074 390.344C93.802 390.968 92.386 391.28 90.826 391.28C89.05 391.28 87.43 390.896 85.966 390.128C84.526 389.336 83.386 388.244 82.546 386.852C81.73 385.436 81.322 383.84 81.322 382.064C81.322 380.288 81.73 378.704 82.546 377.312C83.386 375.92 84.526 374.84 85.966 374.072C87.406 373.304 89.026 372.92 90.826 372.92C92.434 372.92 93.886 373.244 95.182 373.892C96.478 374.54 97.522 375.476 98.314 376.7V373.064H100.762ZM91.078 389.012C92.446 389.012 93.682 388.724 94.786 388.148C95.89 387.548 96.742 386.72 97.342 385.664C97.966 384.608 98.278 383.408 98.278 382.064C98.278 380.72 97.966 379.532 97.342 378.5C96.742 377.444 95.89 376.628 94.786 376.052C93.706 375.452 92.47 375.152 91.078 375.152C89.71 375.152 88.474 375.44 87.37 376.016C86.29 376.592 85.438 377.408 84.814 378.464C84.214 379.52 83.914 380.72 83.914 382.064C83.914 383.408 84.214 384.608 84.814 385.664C85.438 386.72 86.29 387.548 87.37 388.148C88.474 388.724 89.71 389.012 91.078 389.012ZM107.91 373.064H110.466V392H107.91V373.064ZM109.206 368.924C108.678 368.924 108.234 368.744 107.874 368.384C107.514 368.024 107.334 367.592 107.334 367.088C107.334 366.608 107.514 366.188 107.874 365.828C108.234 365.468 108.678 365.288 109.206 365.288C109.734 365.288 110.178 365.468 110.538 365.828C110.898 366.164 111.078 366.572 111.078 367.052C111.078 367.58 110.898 368.024 110.538 368.384C110.178 368.744 109.734 368.924 109.206 368.924ZM127.226 372.92C129.602 372.92 131.486 373.616 132.878 375.008C134.294 376.376 135.002 378.38 135.002 381.02V392H132.446V381.272C132.446 379.304 131.954 377.804 130.97 376.772C129.986 375.74 128.582 375.224 126.758 375.224C124.718 375.224 123.098 375.836 121.898 377.06C120.722 378.26 120.134 379.928 120.134 382.064V392H117.578V373.064H120.026V376.556C120.722 375.404 121.682 374.516 122.906 373.892C124.154 373.244 125.594 372.92 127.226 372.92ZM158.499 383.324H142.659C142.803 385.292 143.559 386.888 144.927 388.112C146.295 389.312 148.023 389.912 150.111 389.912C151.287 389.912 152.367 389.708 153.351 389.3C154.335 388.868 155.187 388.244 155.907 387.428L157.347 389.084C156.507 390.092 155.451 390.86 154.179 391.388C152.931 391.916 151.551 392.18 150.039 392.18C148.095 392.18 146.367 391.772 144.855 390.956C143.367 390.116 142.203 388.964 141.363 387.5C140.523 386.036 140.103 384.38 140.103 382.532C140.103 380.684 140.499 379.028 141.291 377.564C142.107 376.1 143.211 374.96 144.603 374.144C146.019 373.328 147.603 372.92 149.355 372.92C151.107 372.92 152.679 373.328 154.071 374.144C155.463 374.96 156.555 376.1 157.347 377.564C158.139 379.004 158.535 380.66 158.535 382.532L158.499 383.324ZM149.355 375.116C147.531 375.116 145.995 375.704 144.747 376.88C143.523 378.032 142.827 379.544 142.659 381.416H156.087C155.919 379.544 155.211 378.032 153.963 376.88C152.739 375.704 151.203 375.116 149.355 375.116ZM180.226 383.324H164.386C164.53 385.292 165.286 386.888 166.654 388.112C168.022 389.312 169.75 389.912 171.838 389.912C173.014 389.912 174.094 389.708 175.078 389.3C176.062 388.868 176.914 388.244 177.634 387.428L179.074 389.084C178.234 390.092 177.178 390.86 175.906 391.388C174.658 391.916 173.278 392.18 171.766 392.18C169.822 392.18 168.094 391.772 166.582 390.956C165.094 390.116 163.93 388.964 163.09 387.5C162.25 386.036 161.83 384.38 161.83 382.532C161.83 380.684 162.226 379.028 163.018 377.564C163.834 376.1 164.938 374.96 166.33 374.144C167.746 373.328 169.33 372.92 171.082 372.92C172.834 372.92 174.406 373.328 175.798 374.144C177.19 374.96 178.282 376.1 179.074 377.564C179.866 379.004 180.262 380.66 180.262 382.532L180.226 383.324ZM171.082 375.116C169.258 375.116 167.722 375.704 166.474 376.88C165.25 378.032 164.554 379.544 164.386 381.416H177.814C177.646 379.544 176.938 378.032 175.69 376.88C174.466 375.704 172.93 375.116 171.082 375.116ZM187.912 376.772C188.512 375.5 189.4 374.54 190.576 373.892C191.776 373.244 193.252 372.92 195.004 372.92V375.404L194.392 375.368C192.4 375.368 190.84 375.98 189.712 377.204C188.584 378.428 188.02 380.144 188.02 382.352V392H185.464V373.064H187.912V376.772ZM199.632 373.064H202.188V392H199.632V373.064ZM200.928 368.924C200.4 368.924 199.956 368.744 199.596 368.384C199.236 368.024 199.056 367.592 199.056 367.088C199.056 366.608 199.236 366.188 199.596 365.828C199.956 365.468 200.4 365.288 200.928 365.288C201.456 365.288 201.9 365.468 202.26 365.828C202.62 366.164 202.8 366.572 202.8 367.052C202.8 367.58 202.62 368.024 202.26 368.384C201.9 368.744 201.456 368.924 200.928 368.924ZM218.948 372.92C221.324 372.92 223.208 373.616 224.6 375.008C226.016 376.376 226.724 378.38 226.724 381.02V392H224.168V381.272C224.168 379.304 223.676 377.804 222.692 376.772C221.708 375.74 220.304 375.224 218.48 375.224C216.44 375.224 214.82 375.836 213.62 377.06C212.444 378.26 211.856 379.928 211.856 382.064V392H209.3V373.064H211.748V376.556C212.444 375.404 213.404 374.516 214.628 373.892C215.876 373.244 217.316 372.92 218.948 372.92ZM251.266 373.064V389.696C251.266 392.912 250.474 395.288 248.89 396.824C247.33 398.384 244.966 399.164 241.798 399.164C240.046 399.164 238.378 398.9 236.794 398.372C235.234 397.868 233.962 397.16 232.978 396.248L234.274 394.304C235.186 395.12 236.29 395.756 237.586 396.212C238.906 396.668 240.286 396.896 241.726 396.896C244.126 396.896 245.89 396.332 247.018 395.204C248.146 394.1 248.71 392.372 248.71 390.02V387.608C247.918 388.808 246.874 389.72 245.578 390.344C244.306 390.968 242.89 391.28 241.33 391.28C239.554 391.28 237.934 390.896 236.47 390.128C235.03 389.336 233.89 388.244 233.05 386.852C232.234 385.436 231.826 383.84 231.826 382.064C231.826 380.288 232.234 378.704 233.05 377.312C233.89 375.92 235.03 374.84 236.47 374.072C237.91 373.304 239.53 372.92 241.33 372.92C242.938 372.92 244.39 373.244 245.686 373.892C246.982 374.54 248.026 375.476 248.818 376.7V373.064H251.266ZM241.582 389.012C242.95 389.012 244.186 388.724 245.29 388.148C246.394 387.548 247.246 386.72 247.846 385.664C248.47 384.608 248.782 383.408 248.782 382.064C248.782 380.72 248.47 379.532 247.846 378.5C247.246 377.444 246.394 376.628 245.29 376.052C244.21 375.452 242.974 375.152 241.582 375.152C240.214 375.152 238.978 375.44 237.874 376.016C236.794 376.592 235.942 377.408 235.318 378.464C234.718 379.52 234.418 380.72 234.418 382.064C234.418 383.408 234.718 384.608 235.318 385.664C235.942 386.72 236.794 387.548 237.874 388.148C238.978 388.724 240.214 389.012 241.582 389.012Z" fill="white"/>
</svg>
