<svg width="693" height="483" viewBox="0 0 693 483" fill="none" xmlns="http://www.w3.org/2000/svg">
<path d="M544.958 209.8C548.174 209.8 550.694 210.568 552.518 212.104C554.342 213.64 555.254 215.752 555.254 218.44C555.254 221.128 554.342 223.24 552.518 224.776C550.694 226.288 548.174 227.044 544.958 227.044H538.19V235H535.526V209.8H544.958ZM544.886 224.704C547.382 224.704 549.29 224.164 550.61 223.084C551.93 221.98 552.59 220.432 552.59 218.44C552.59 216.4 551.93 214.84 550.61 213.76C549.29 212.656 547.382 212.104 544.886 212.104H538.19V224.704H544.886ZM562.43 219.772C563.03 218.5 563.918 217.54 565.094 216.892C566.294 216.244 567.77 215.92 569.522 215.92V218.404L568.91 218.368C566.918 218.368 565.358 218.98 564.23 220.204C563.102 221.428 562.538 223.144 562.538 225.352V235H559.982V216.064H562.43V219.772ZM581.714 235.18C579.89 235.18 578.246 234.772 576.782 233.956C575.318 233.116 574.166 231.964 573.326 230.5C572.486 229.036 572.066 227.38 572.066 225.532C572.066 223.684 572.486 222.028 573.326 220.564C574.166 219.1 575.318 217.96 576.782 217.144C578.246 216.328 579.89 215.92 581.714 215.92C583.538 215.92 585.182 216.328 586.646 217.144C588.11 217.96 589.25 219.1 590.066 220.564C590.906 222.028 591.326 223.684 591.326 225.532C591.326 227.38 590.906 229.036 590.066 230.5C589.25 231.964 588.11 233.116 586.646 233.956C585.182 234.772 583.538 235.18 581.714 235.18ZM581.714 232.912C583.058 232.912 584.258 232.612 585.314 232.012C586.394 231.388 587.234 230.512 587.834 229.384C588.434 228.256 588.734 226.972 588.734 225.532C588.734 224.092 588.434 222.808 587.834 221.68C587.234 220.552 586.394 219.688 585.314 219.088C584.258 218.464 583.058 218.152 581.714 218.152C580.37 218.152 579.158 218.464 578.078 219.088C577.022 219.688 576.182 220.552 575.558 221.68C574.958 222.808 574.658 224.092 574.658 225.532C574.658 226.972 574.958 228.256 575.558 229.384C576.182 230.512 577.022 231.388 578.078 232.012C579.158 232.612 580.37 232.912 581.714 232.912ZM613.824 208.288V235H611.376V231.256C610.608 232.528 609.588 233.5 608.316 234.172C607.068 234.844 605.652 235.18 604.068 235.18C602.292 235.18 600.684 234.772 599.244 233.956C597.804 233.14 596.676 232 595.86 230.536C595.044 229.072 594.636 227.404 594.636 225.532C594.636 223.66 595.044 221.992 595.86 220.528C596.676 219.064 597.804 217.936 599.244 217.144C600.684 216.328 602.292 215.92 604.068 215.92C605.604 215.92 606.984 216.244 608.208 216.892C609.456 217.516 610.476 218.44 611.268 219.664V208.288H613.824ZM604.284 232.912C605.604 232.912 606.792 232.612 607.848 232.012C608.928 231.388 609.768 230.512 610.368 229.384C610.992 228.256 611.304 226.972 611.304 225.532C611.304 224.092 610.992 222.808 610.368 221.68C609.768 220.552 608.928 219.688 607.848 219.088C606.792 218.464 605.604 218.152 604.284 218.152C602.94 218.152 601.728 218.464 600.648 219.088C599.592 219.688 598.752 220.552 598.128 221.68C597.528 222.808 597.228 224.092 597.228 225.532C597.228 226.972 597.528 228.256 598.128 229.384C598.752 230.512 599.592 231.388 600.648 232.012C601.728 232.612 602.94 232.912 604.284 232.912ZM638.007 216.064V235H635.559V231.544C634.887 232.696 633.963 233.596 632.787 234.244C631.611 234.868 630.267 235.18 628.755 235.18C626.283 235.18 624.327 234.496 622.887 233.128C621.471 231.736 620.763 229.708 620.763 227.044V216.064H623.319V226.792C623.319 228.784 623.811 230.296 624.795 231.328C625.779 232.36 627.183 232.876 629.007 232.876C630.999 232.876 632.571 232.276 633.723 231.076C634.875 229.852 635.451 228.16 635.451 226V216.064H638.007ZM653.014 235.18C651.142 235.18 649.462 234.772 647.974 233.956C646.51 233.14 645.358 232 644.518 230.536C643.678 229.048 643.258 227.38 643.258 225.532C643.258 223.684 643.678 222.028 644.518 220.564C645.358 219.1 646.51 217.96 647.974 217.144C649.462 216.328 651.142 215.92 653.014 215.92C654.646 215.92 656.098 216.244 657.37 216.892C658.666 217.516 659.686 218.44 660.43 219.664L658.522 220.96C657.898 220.024 657.106 219.328 656.146 218.872C655.186 218.392 654.142 218.152 653.014 218.152C651.646 218.152 650.41 218.464 649.306 219.088C648.226 219.688 647.374 220.552 646.75 221.68C646.15 222.808 645.85 224.092 645.85 225.532C645.85 226.996 646.15 228.292 646.75 229.42C647.374 230.524 648.226 231.388 649.306 232.012C650.41 232.612 651.646 232.912 653.014 232.912C654.142 232.912 655.186 232.684 656.146 232.228C657.106 231.772 657.898 231.076 658.522 230.14L660.43 231.436C659.686 232.66 658.666 233.596 657.37 234.244C656.074 234.868 654.622 235.18 653.014 235.18ZM675.634 233.848C675.154 234.28 674.554 234.616 673.834 234.856C673.138 235.072 672.406 235.18 671.638 235.18C669.862 235.18 668.494 234.7 667.534 233.74C666.574 232.78 666.094 231.424 666.094 229.672V218.224H662.71V216.064H666.094V211.924H668.65V216.064H674.41V218.224H668.65V229.528C668.65 230.656 668.926 231.52 669.478 232.12C670.054 232.696 670.87 232.984 671.926 232.984C672.454 232.984 672.958 232.9 673.438 232.732C673.942 232.564 674.374 232.324 674.734 232.012L675.634 233.848ZM541.908 268.268H527.868L524.844 275H522.072L533.592 249.8H536.22L547.74 275H544.932L541.908 268.268ZM540.936 266.108L534.888 252.572L528.84 266.108H540.936ZM568.473 248.288V275H566.025V271.256C565.257 272.528 564.237 273.5 562.965 274.172C561.717 274.844 560.301 275.18 558.717 275.18C556.941 275.18 555.333 274.772 553.893 273.956C552.453 273.14 551.325 272 550.509 270.536C549.693 269.072 549.285 267.404 549.285 265.532C549.285 263.66 549.693 261.992 550.509 260.528C551.325 259.064 552.453 257.936 553.893 257.144C555.333 256.328 556.941 255.92 558.717 255.92C560.253 255.92 561.633 256.244 562.857 256.892C564.105 257.516 565.125 258.44 565.917 259.664V248.288H568.473ZM558.933 272.912C560.253 272.912 561.441 272.612 562.497 272.012C563.577 271.388 564.417 270.512 565.017 269.384C565.641 268.256 565.953 266.972 565.953 265.532C565.953 264.092 565.641 262.808 565.017 261.68C564.417 260.552 563.577 259.688 562.497 259.088C561.441 258.464 560.253 258.152 558.933 258.152C557.589 258.152 556.377 258.464 555.297 259.088C554.241 259.688 553.401 260.552 552.777 261.68C552.177 262.808 551.877 264.092 551.877 265.532C551.877 266.972 552.177 268.256 552.777 269.384C553.401 270.512 554.241 271.388 555.297 272.012C556.377 272.612 557.589 272.912 558.933 272.912ZM583.331 275.18C581.507 275.18 579.863 274.772 578.399 273.956C576.935 273.116 575.783 271.964 574.943 270.5C574.103 269.036 573.683 267.38 573.683 265.532C573.683 263.684 574.103 262.028 574.943 260.564C575.783 259.1 576.935 257.96 578.399 257.144C579.863 256.328 581.507 255.92 583.331 255.92C585.155 255.92 586.799 256.328 588.263 257.144C589.727 257.96 590.867 259.1 591.683 260.564C592.523 262.028 592.943 263.684 592.943 265.532C592.943 267.38 592.523 269.036 591.683 270.5C590.867 271.964 589.727 273.116 588.263 273.956C586.799 274.772 585.155 275.18 583.331 275.18ZM583.331 272.912C584.675 272.912 585.875 272.612 586.931 272.012C588.011 271.388 588.851 270.512 589.451 269.384C590.051 268.256 590.351 266.972 590.351 265.532C590.351 264.092 590.051 262.808 589.451 261.68C588.851 260.552 588.011 259.688 586.931 259.088C585.875 258.464 584.675 258.152 583.331 258.152C581.987 258.152 580.775 258.464 579.695 259.088C578.639 259.688 577.799 260.552 577.175 261.68C576.575 262.808 576.275 264.092 576.275 265.532C576.275 266.972 576.575 268.256 577.175 269.384C577.799 270.512 578.639 271.388 579.695 272.012C580.775 272.612 581.987 272.912 583.331 272.912ZM607.918 255.92C609.694 255.92 611.302 256.328 612.742 257.144C614.182 257.936 615.31 259.064 616.126 260.528C616.942 261.992 617.35 263.66 617.35 265.532C617.35 267.428 616.942 269.108 616.126 270.572C615.31 272.036 614.182 273.176 612.742 273.992C611.326 274.784 609.718 275.18 607.918 275.18C606.382 275.18 604.99 274.868 603.742 274.244C602.518 273.596 601.51 272.66 600.718 271.436V281.984H598.162V256.064H600.61V259.808C601.378 258.56 602.386 257.6 603.634 256.928C604.906 256.256 606.334 255.92 607.918 255.92ZM607.738 272.912C609.058 272.912 610.258 272.612 611.338 272.012C612.418 271.388 613.258 270.512 613.858 269.384C614.482 268.256 614.794 266.972 614.794 265.532C614.794 264.092 614.482 262.82 613.858 261.716C613.258 260.588 612.418 259.712 611.338 259.088C610.258 258.464 609.058 258.152 607.738 258.152C606.394 258.152 605.182 258.464 604.102 259.088C603.046 259.712 602.206 260.588 601.582 261.716C600.982 262.82 600.682 264.092 600.682 265.532C600.682 266.972 600.982 268.256 601.582 269.384C602.206 270.512 603.046 271.388 604.102 272.012C605.182 272.612 606.394 272.912 607.738 272.912ZM632.532 273.848C632.052 274.28 631.452 274.616 630.732 274.856C630.036 275.072 629.304 275.18 628.536 275.18C626.76 275.18 625.392 274.7 624.432 273.74C623.472 272.78 622.992 271.424 622.992 269.672V258.224H619.608V256.064H622.992V251.924H625.548V256.064H631.308V258.224H625.548V269.528C625.548 270.656 625.824 271.52 626.376 272.12C626.952 272.696 627.768 272.984 628.824 272.984C629.352 272.984 629.856 272.9 630.336 272.732C630.84 272.564 631.272 272.324 631.632 272.012L632.532 273.848ZM637.185 256.064H639.741V275H637.185V256.064ZM638.481 251.924C637.953 251.924 637.509 251.744 637.149 251.384C636.789 251.024 636.609 250.592 636.609 250.088C636.609 249.608 636.789 249.188 637.149 248.828C637.509 248.468 637.953 248.288 638.481 248.288C639.009 248.288 639.453 248.468 639.813 248.828C640.173 249.164 640.353 249.572 640.353 250.052C640.353 250.58 640.173 251.024 639.813 251.384C639.453 251.744 639.009 251.924 638.481 251.924ZM654.593 275.18C652.769 275.18 651.125 274.772 649.661 273.956C648.197 273.116 647.045 271.964 646.205 270.5C645.365 269.036 644.945 267.38 644.945 265.532C644.945 263.684 645.365 262.028 646.205 260.564C647.045 259.1 648.197 257.96 649.661 257.144C651.125 256.328 652.769 255.92 654.593 255.92C656.417 255.92 658.061 256.328 659.525 257.144C660.989 257.96 662.129 259.1 662.945 260.564C663.785 262.028 664.205 263.684 664.205 265.532C664.205 267.38 663.785 269.036 662.945 270.5C662.129 271.964 660.989 273.116 659.525 273.956C658.061 274.772 656.417 275.18 654.593 275.18ZM654.593 272.912C655.937 272.912 657.137 272.612 658.193 272.012C659.273 271.388 660.113 270.512 660.713 269.384C661.313 268.256 661.613 266.972 661.613 265.532C661.613 264.092 661.313 262.808 660.713 261.68C660.113 260.552 659.273 259.688 658.193 259.088C657.137 258.464 655.937 258.152 654.593 258.152C653.249 258.152 652.037 258.464 650.957 259.088C649.901 259.688 649.061 260.552 648.437 261.68C647.837 262.808 647.537 264.092 647.537 265.532C647.537 266.972 647.837 268.256 648.437 269.384C649.061 270.512 649.901 271.388 650.957 272.012C652.037 272.612 653.249 272.912 654.593 272.912ZM679.071 255.92C681.447 255.92 683.331 256.616 684.723 258.008C686.139 259.376 686.847 261.38 686.847 264.02V275H684.291V264.272C684.291 262.304 683.799 260.804 682.815 259.772C681.831 258.74 680.427 258.224 678.603 258.224C676.563 258.224 674.943 258.836 673.743 260.06C672.567 261.26 671.979 262.928 671.979 265.064V275H669.423V256.064H671.871V259.556C672.567 258.404 673.527 257.516 674.751 256.892C675.999 256.244 677.439 255.92 679.071 255.92Z" fill="white"/>
<path d="M15.048 247.216C12.552 247.216 10.296 246.664 8.28 245.56C6.288 244.456 4.716 242.932 3.564 240.988C2.436 239.02 1.872 236.824 1.872 234.4C1.872 231.976 2.436 229.792 3.564 227.848C4.716 225.88 6.3 224.344 8.316 223.24C10.332 222.136 12.588 221.584 15.084 221.584C16.956 221.584 18.684 221.896 20.268 222.52C21.852 223.144 23.196 224.056 24.3 225.256L22.608 226.948C20.64 224.956 18.156 223.96 15.156 223.96C13.164 223.96 11.352 224.416 9.72 225.328C8.088 226.24 6.804 227.488 5.868 229.072C4.956 230.656 4.5 232.432 4.5 234.4C4.5 236.368 4.956 238.144 5.868 239.728C6.804 241.312 8.088 242.56 9.72 243.472C11.352 244.384 13.164 244.84 15.156 244.84C18.18 244.84 20.664 243.832 22.608 241.816L24.3 243.508C23.196 244.708 21.84 245.632 20.232 246.28C18.648 246.904 16.92 247.216 15.048 247.216ZM36.3353 247.18C34.5113 247.18 32.8673 246.772 31.4033 245.956C29.9393 245.116 28.7873 243.964 27.9473 242.5C27.1073 241.036 26.6873 239.38 26.6873 237.532C26.6873 235.684 27.1073 234.028 27.9473 232.564C28.7873 231.1 29.9393 229.96 31.4033 229.144C32.8673 228.328 34.5113 227.92 36.3353 227.92C38.1593 227.92 39.8033 228.328 41.2673 229.144C42.7313 229.96 43.8713 231.1 44.6873 232.564C45.5273 234.028 45.9473 235.684 45.9473 237.532C45.9473 239.38 45.5273 241.036 44.6873 242.5C43.8713 243.964 42.7313 245.116 41.2673 245.956C39.8033 246.772 38.1593 247.18 36.3353 247.18ZM36.3353 244.912C37.6793 244.912 38.8793 244.612 39.9353 244.012C41.0153 243.388 41.8553 242.512 42.4553 241.384C43.0553 240.256 43.3553 238.972 43.3553 237.532C43.3553 236.092 43.0553 234.808 42.4553 233.68C41.8553 232.552 41.0153 231.688 39.9353 231.088C38.8793 230.464 37.6793 230.152 36.3353 230.152C34.9913 230.152 33.7793 230.464 32.6993 231.088C31.6433 231.688 30.8033 232.552 30.1793 233.68C29.5793 234.808 29.2793 236.092 29.2793 237.532C29.2793 238.972 29.5793 240.256 30.1793 241.384C30.8033 242.512 31.6433 243.388 32.6993 244.012C33.7793 244.612 34.9913 244.912 36.3353 244.912ZM60.8136 227.92C63.1896 227.92 65.0736 228.616 66.4656 230.008C67.8816 231.376 68.5896 233.38 68.5896 236.02V247H66.0336V236.272C66.0336 234.304 65.5416 232.804 64.5576 231.772C63.5736 230.74 62.1696 230.224 60.3456 230.224C58.3056 230.224 56.6856 230.836 55.4856 232.06C54.3096 233.26 53.7216 234.928 53.7216 237.064V247H51.1656V228.064H53.6136V231.556C54.3096 230.404 55.2696 229.516 56.4936 228.892C57.7416 228.244 59.1816 227.92 60.8136 227.92ZM91.0893 228.064L82.6653 247H80.0373L71.6493 228.064H74.3133L81.4053 244.192L88.5693 228.064H91.0893ZM110.65 238.324H94.8097C94.9537 240.292 95.7097 241.888 97.0777 243.112C98.4457 244.312 100.174 244.912 102.262 244.912C103.438 244.912 104.518 244.708 105.502 244.3C106.486 243.868 107.338 243.244 108.058 242.428L109.498 244.084C108.658 245.092 107.602 245.86 106.33 246.388C105.082 246.916 103.702 247.18 102.19 247.18C100.246 247.18 98.5177 246.772 97.0057 245.956C95.5177 245.116 94.3537 243.964 93.5137 242.5C92.6737 241.036 92.2537 239.38 92.2537 237.532C92.2537 235.684 92.6497 234.028 93.4417 232.564C94.2577 231.1 95.3617 229.96 96.7537 229.144C98.1697 228.328 99.7537 227.92 101.506 227.92C103.258 227.92 104.83 228.328 106.222 229.144C107.614 229.96 108.706 231.1 109.498 232.564C110.29 234.004 110.686 235.66 110.686 237.532L110.65 238.324ZM101.506 230.116C99.6817 230.116 98.1457 230.704 96.8977 231.88C95.6737 233.032 94.9777 234.544 94.8097 236.416H108.238C108.07 234.544 107.362 233.032 106.114 231.88C104.89 230.704 103.354 230.116 101.506 230.116ZM118.336 231.772C118.936 230.5 119.824 229.54 121 228.892C122.2 228.244 123.676 227.92 125.428 227.92V230.404L124.816 230.368C122.824 230.368 121.264 230.98 120.136 232.204C119.008 233.428 118.444 235.144 118.444 237.352V247H115.888V228.064H118.336V231.772ZM135.273 247.18C133.737 247.18 132.261 246.964 130.845 246.532C129.453 246.076 128.361 245.512 127.569 244.84L128.721 242.824C129.513 243.448 130.509 243.964 131.709 244.372C132.909 244.756 134.157 244.948 135.453 244.948C137.181 244.948 138.453 244.684 139.269 244.156C140.109 243.604 140.529 242.836 140.529 241.852C140.529 241.156 140.301 240.616 139.845 240.232C139.389 239.824 138.813 239.524 138.117 239.332C137.421 239.116 136.497 238.912 135.345 238.72C133.809 238.432 132.573 238.144 131.637 237.856C130.701 237.544 129.897 237.028 129.225 236.308C128.577 235.588 128.253 234.592 128.253 233.32C128.253 231.736 128.913 230.44 130.233 229.432C131.553 228.424 133.389 227.92 135.741 227.92C136.965 227.92 138.189 228.088 139.413 228.424C140.637 228.736 141.645 229.156 142.437 229.684L141.321 231.736C139.761 230.656 137.901 230.116 135.741 230.116C134.109 230.116 132.873 230.404 132.033 230.98C131.217 231.556 130.809 232.312 130.809 233.248C130.809 233.968 131.037 234.544 131.493 234.976C131.973 235.408 132.561 235.732 133.257 235.948C133.953 236.14 134.913 236.344 136.137 236.56C137.649 236.848 138.861 237.136 139.773 237.424C140.685 237.712 141.465 238.204 142.113 238.9C142.761 239.596 143.085 240.556 143.085 241.78C143.085 243.436 142.389 244.756 140.997 245.74C139.629 246.7 137.721 247.18 135.273 247.18ZM147.81 228.064H150.366V247H147.81V228.064ZM149.106 223.924C148.578 223.924 148.134 223.744 147.774 223.384C147.414 223.024 147.234 222.592 147.234 222.088C147.234 221.608 147.414 221.188 147.774 220.828C148.134 220.468 148.578 220.288 149.106 220.288C149.634 220.288 150.078 220.468 150.438 220.828C150.798 221.164 150.978 221.572 150.978 222.052C150.978 222.58 150.798 223.024 150.438 223.384C150.078 223.744 149.634 223.924 149.106 223.924ZM165.218 247.18C163.394 247.18 161.75 246.772 160.286 245.956C158.822 245.116 157.67 243.964 156.83 242.5C155.99 241.036 155.57 239.38 155.57 237.532C155.57 235.684 155.99 234.028 156.83 232.564C157.67 231.1 158.822 229.96 160.286 229.144C161.75 228.328 163.394 227.92 165.218 227.92C167.042 227.92 168.686 228.328 170.15 229.144C171.614 229.96 172.754 231.1 173.57 232.564C174.41 234.028 174.83 235.684 174.83 237.532C174.83 239.38 174.41 241.036 173.57 242.5C172.754 243.964 171.614 245.116 170.15 245.956C168.686 246.772 167.042 247.18 165.218 247.18ZM165.218 244.912C166.562 244.912 167.762 244.612 168.818 244.012C169.898 243.388 170.738 242.512 171.338 241.384C171.938 240.256 172.238 238.972 172.238 237.532C172.238 236.092 171.938 234.808 171.338 233.68C170.738 232.552 169.898 231.688 168.818 231.088C167.762 230.464 166.562 230.152 165.218 230.152C163.874 230.152 162.662 230.464 161.582 231.088C160.526 231.688 159.686 232.552 159.062 233.68C158.462 234.808 158.162 236.092 158.162 237.532C158.162 238.972 158.462 240.256 159.062 241.384C159.686 242.512 160.526 243.388 161.582 244.012C162.662 244.612 163.874 244.912 165.218 244.912ZM189.696 227.92C192.072 227.92 193.956 228.616 195.348 230.008C196.764 231.376 197.472 233.38 197.472 236.02V247H194.916V236.272C194.916 234.304 194.424 232.804 193.44 231.772C192.456 230.74 191.052 230.224 189.228 230.224C187.188 230.224 185.568 230.836 184.368 232.06C183.192 233.26 182.604 234.928 182.604 237.064V247H180.048V228.064H182.496V231.556C183.192 230.404 184.152 229.516 185.376 228.892C186.624 228.244 188.064 227.92 189.696 227.92Z" fill="white"/>
<path d="M204.98 36.004C206.636 36.364 207.908 37.084 208.796 38.164C209.708 39.22 210.164 40.588 210.164 42.268C210.164 44.428 209.36 46.096 207.752 47.272C206.168 48.424 203.816 49 200.696 49H189.104V23.8H199.976C202.784 23.8 204.956 24.364 206.492 25.492C208.052 26.62 208.832 28.216 208.832 30.28C208.832 31.672 208.484 32.86 207.788 33.844C207.116 34.804 206.18 35.524 204.98 36.004ZM191.768 25.996V35.14H199.796C201.836 35.14 203.408 34.756 204.512 33.988C205.616 33.196 206.168 32.056 206.168 30.568C206.168 29.08 205.616 27.952 204.512 27.184C203.408 26.392 201.836 25.996 199.796 25.996H191.768ZM200.66 46.804C202.916 46.804 204.62 46.42 205.772 45.652C206.924 44.884 207.5 43.684 207.5 42.052C207.5 38.908 205.22 37.336 200.66 37.336H191.768V46.804H200.66ZM218.153 33.772C218.753 32.5 219.641 31.54 220.817 30.892C222.017 30.244 223.493 29.92 225.245 29.92V32.404L224.633 32.368C222.641 32.368 221.081 32.98 219.953 34.204C218.825 35.428 218.261 37.144 218.261 39.352V49H215.705V30.064H218.153V33.772ZM236.461 29.92C238.933 29.92 240.829 30.544 242.149 31.792C243.469 33.016 244.129 34.84 244.129 37.264V49H241.681V46.048C241.105 47.032 240.253 47.8 239.125 48.352C238.021 48.904 236.701 49.18 235.165 49.18C233.053 49.18 231.373 48.676 230.125 47.668C228.877 46.66 228.253 45.328 228.253 43.672C228.253 42.064 228.829 40.768 229.981 39.784C231.157 38.8 233.017 38.308 235.561 38.308H241.573V37.156C241.573 35.524 241.117 34.288 240.205 33.448C239.293 32.584 237.961 32.152 236.209 32.152C235.009 32.152 233.857 32.356 232.753 32.764C231.649 33.148 230.701 33.688 229.909 34.384L228.757 32.476C229.717 31.66 230.869 31.036 232.213 30.604C233.557 30.148 234.973 29.92 236.461 29.92ZM235.561 47.164C237.001 47.164 238.237 46.84 239.269 46.192C240.301 45.52 241.069 44.56 241.573 43.312V40.216H235.633C232.393 40.216 230.773 41.344 230.773 43.6C230.773 44.704 231.193 45.58 232.033 46.228C232.873 46.852 234.049 47.164 235.561 47.164ZM260.72 29.92C263.096 29.92 264.98 30.616 266.372 32.008C267.788 33.376 268.496 35.38 268.496 38.02V49H265.94V38.272C265.94 36.304 265.448 34.804 264.464 33.772C263.48 32.74 262.076 32.224 260.252 32.224C258.212 32.224 256.592 32.836 255.392 34.06C254.216 35.26 253.628 36.928 253.628 39.064V49H251.072V30.064H253.52V33.556C254.216 32.404 255.176 31.516 256.4 30.892C257.648 30.244 259.088 29.92 260.72 29.92ZM292.785 22.288V49H290.337V45.256C289.569 46.528 288.549 47.5 287.277 48.172C286.029 48.844 284.613 49.18 283.029 49.18C281.253 49.18 279.645 48.772 278.205 47.956C276.765 47.14 275.637 46 274.821 44.536C274.005 43.072 273.597 41.404 273.597 39.532C273.597 37.66 274.005 35.992 274.821 34.528C275.637 33.064 276.765 31.936 278.205 31.144C279.645 30.328 281.253 29.92 283.029 29.92C284.565 29.92 285.945 30.244 287.169 30.892C288.417 31.516 289.437 32.44 290.229 33.664V22.288H292.785ZM283.245 46.912C284.565 46.912 285.753 46.612 286.809 46.012C287.889 45.388 288.729 44.512 289.329 43.384C289.953 42.256 290.265 40.972 290.265 39.532C290.265 38.092 289.953 36.808 289.329 35.68C288.729 34.552 287.889 33.688 286.809 33.088C285.753 32.464 284.565 32.152 283.245 32.152C281.901 32.152 280.689 32.464 279.609 33.088C278.553 33.688 277.713 34.552 277.089 35.68C276.489 36.808 276.189 38.092 276.189 39.532C276.189 40.972 276.489 42.256 277.089 43.384C277.713 44.512 278.553 45.388 279.609 46.012C280.689 46.612 281.901 46.912 283.245 46.912ZM315.95 29.92C318.422 29.92 320.318 30.544 321.638 31.792C322.958 33.016 323.618 34.84 323.618 37.264V49H321.17V46.048C320.594 47.032 319.742 47.8 318.614 48.352C317.51 48.904 316.19 49.18 314.654 49.18C312.542 49.18 310.862 48.676 309.614 47.668C308.366 46.66 307.742 45.328 307.742 43.672C307.742 42.064 308.318 40.768 309.47 39.784C310.646 38.8 312.506 38.308 315.05 38.308H321.062V37.156C321.062 35.524 320.606 34.288 319.694 33.448C318.782 32.584 317.45 32.152 315.698 32.152C314.498 32.152 313.346 32.356 312.242 32.764C311.138 33.148 310.19 33.688 309.398 34.384L308.246 32.476C309.206 31.66 310.358 31.036 311.702 30.604C313.046 30.148 314.462 29.92 315.95 29.92ZM315.05 47.164C316.49 47.164 317.726 46.84 318.758 46.192C319.79 45.52 320.558 44.56 321.062 43.312V40.216H315.122C311.882 40.216 310.262 41.344 310.262 43.6C310.262 44.704 310.682 45.58 311.522 46.228C312.362 46.852 313.538 47.164 315.05 47.164ZM358.001 30.064L350.837 49H348.425L342.449 33.484L336.473 49H334.061L326.933 30.064H329.381L335.321 46.156L341.405 30.064H343.601L349.649 46.156L355.661 30.064H358.001ZM367.911 29.92C370.383 29.92 372.279 30.544 373.599 31.792C374.919 33.016 375.579 34.84 375.579 37.264V49H373.131V46.048C372.555 47.032 371.703 47.8 370.575 48.352C369.471 48.904 368.151 49.18 366.615 49.18C364.503 49.18 362.823 48.676 361.575 47.668C360.327 46.66 359.703 45.328 359.703 43.672C359.703 42.064 360.279 40.768 361.431 39.784C362.607 38.8 364.467 38.308 367.011 38.308H373.023V37.156C373.023 35.524 372.567 34.288 371.655 33.448C370.743 32.584 369.411 32.152 367.659 32.152C366.459 32.152 365.307 32.356 364.203 32.764C363.099 33.148 362.151 33.688 361.359 34.384L360.207 32.476C361.167 31.66 362.319 31.036 363.663 30.604C365.007 30.148 366.423 29.92 367.911 29.92ZM367.011 47.164C368.451 47.164 369.687 46.84 370.719 46.192C371.751 45.52 372.519 44.56 373.023 43.312V40.216H367.083C363.843 40.216 362.223 41.344 362.223 43.6C362.223 44.704 362.643 45.58 363.483 46.228C364.323 46.852 365.499 47.164 367.011 47.164ZM384.969 33.772C385.569 32.5 386.457 31.54 387.633 30.892C388.833 30.244 390.309 29.92 392.061 29.92V32.404L391.449 32.368C389.457 32.368 387.897 32.98 386.769 34.204C385.641 35.428 385.077 37.144 385.077 39.352V49H382.521V30.064H384.969V33.772ZM413.001 40.324H397.161C397.305 42.292 398.061 43.888 399.429 45.112C400.797 46.312 402.525 46.912 404.613 46.912C405.789 46.912 406.869 46.708 407.853 46.3C408.837 45.868 409.689 45.244 410.409 44.428L411.849 46.084C411.009 47.092 409.953 47.86 408.681 48.388C407.433 48.916 406.053 49.18 404.541 49.18C402.597 49.18 400.869 48.772 399.357 47.956C397.869 47.116 396.705 45.964 395.865 44.5C395.025 43.036 394.605 41.38 394.605 39.532C394.605 37.684 395.001 36.028 395.793 34.564C396.609 33.1 397.713 31.96 399.105 31.144C400.521 30.328 402.105 29.92 403.857 29.92C405.609 29.92 407.181 30.328 408.573 31.144C409.965 31.96 411.057 33.1 411.849 34.564C412.641 36.004 413.037 37.66 413.037 39.532L413.001 40.324ZM403.857 32.116C402.033 32.116 400.497 32.704 399.249 33.88C398.025 35.032 397.329 36.544 397.161 38.416H410.589C410.421 36.544 409.713 35.032 408.465 33.88C407.241 32.704 405.705 32.116 403.857 32.116ZM427.888 29.92C430.264 29.92 432.148 30.616 433.54 32.008C434.956 33.376 435.664 35.38 435.664 38.02V49H433.108V38.272C433.108 36.304 432.616 34.804 431.632 33.772C430.648 32.74 429.244 32.224 427.42 32.224C425.38 32.224 423.76 32.836 422.56 34.06C421.384 35.26 420.796 36.928 420.796 39.064V49H418.24V30.064H420.688V33.556C421.384 32.404 422.344 31.516 423.568 30.892C424.816 30.244 426.256 29.92 427.888 29.92ZM459.161 40.324H443.321C443.465 42.292 444.221 43.888 445.589 45.112C446.957 46.312 448.685 46.912 450.773 46.912C451.949 46.912 453.029 46.708 454.013 46.3C454.997 45.868 455.849 45.244 456.569 44.428L458.009 46.084C457.169 47.092 456.113 47.86 454.841 48.388C453.593 48.916 452.213 49.18 450.701 49.18C448.757 49.18 447.029 48.772 445.517 47.956C444.029 47.116 442.865 45.964 442.025 44.5C441.185 43.036 440.765 41.38 440.765 39.532C440.765 37.684 441.161 36.028 441.953 34.564C442.769 33.1 443.873 31.96 445.265 31.144C446.681 30.328 448.265 29.92 450.017 29.92C451.769 29.92 453.341 30.328 454.733 31.144C456.125 31.96 457.217 33.1 458.009 34.564C458.801 36.004 459.197 37.66 459.197 39.532L459.161 40.324ZM450.017 32.116C448.193 32.116 446.657 32.704 445.409 33.88C444.185 35.032 443.489 36.544 443.321 38.416H456.749C456.581 36.544 455.873 35.032 454.625 33.88C453.401 32.704 451.865 32.116 450.017 32.116ZM469.476 49.18C467.94 49.18 466.464 48.964 465.048 48.532C463.656 48.076 462.564 47.512 461.772 46.84L462.924 44.824C463.716 45.448 464.712 45.964 465.912 46.372C467.112 46.756 468.36 46.948 469.656 46.948C471.384 46.948 472.656 46.684 473.472 46.156C474.312 45.604 474.732 44.836 474.732 43.852C474.732 43.156 474.504 42.616 474.048 42.232C473.592 41.824 473.016 41.524 472.32 41.332C471.624 41.116 470.7 40.912 469.548 40.72C468.012 40.432 466.776 40.144 465.84 39.856C464.904 39.544 464.1 39.028 463.428 38.308C462.78 37.588 462.456 36.592 462.456 35.32C462.456 33.736 463.116 32.44 464.436 31.432C465.756 30.424 467.592 29.92 469.944 29.92C471.168 29.92 472.392 30.088 473.616 30.424C474.84 30.736 475.848 31.156 476.64 31.684L475.524 33.736C473.964 32.656 472.104 32.116 469.944 32.116C468.312 32.116 467.076 32.404 466.236 32.98C465.42 33.556 465.012 34.312 465.012 35.248C465.012 35.968 465.24 36.544 465.696 36.976C466.176 37.408 466.764 37.732 467.46 37.948C468.156 38.14 469.116 38.344 470.34 38.56C471.852 38.848 473.064 39.136 473.976 39.424C474.888 39.712 475.668 40.204 476.316 40.9C476.964 41.596 477.288 42.556 477.288 43.78C477.288 45.436 476.592 46.756 475.2 47.74C473.832 48.7 471.924 49.18 469.476 49.18ZM487.089 49.18C485.553 49.18 484.077 48.964 482.661 48.532C481.269 48.076 480.177 47.512 479.385 46.84L480.537 44.824C481.329 45.448 482.325 45.964 483.525 46.372C484.725 46.756 485.973 46.948 487.269 46.948C488.997 46.948 490.269 46.684 491.085 46.156C491.925 45.604 492.345 44.836 492.345 43.852C492.345 43.156 492.117 42.616 491.661 42.232C491.205 41.824 490.629 41.524 489.933 41.332C489.237 41.116 488.313 40.912 487.161 40.72C485.625 40.432 484.389 40.144 483.453 39.856C482.517 39.544 481.713 39.028 481.041 38.308C480.393 37.588 480.069 36.592 480.069 35.32C480.069 33.736 480.729 32.44 482.049 31.432C483.369 30.424 485.205 29.92 487.557 29.92C488.781 29.92 490.005 30.088 491.229 30.424C492.453 30.736 493.461 31.156 494.253 31.684L493.137 33.736C491.577 32.656 489.717 32.116 487.557 32.116C485.925 32.116 484.689 32.404 483.849 32.98C483.033 33.556 482.625 34.312 482.625 35.248C482.625 35.968 482.853 36.544 483.309 36.976C483.789 37.408 484.377 37.732 485.073 37.948C485.769 38.14 486.729 38.344 487.953 38.56C489.465 38.848 490.677 39.136 491.589 39.424C492.501 39.712 493.281 40.204 493.929 40.9C494.577 41.596 494.901 42.556 494.901 43.78C494.901 45.436 494.205 46.756 492.813 47.74C491.445 48.7 489.537 49.18 487.089 49.18Z" fill="white"/>
<path d="M199.256 457.216C195.992 457.216 193.448 456.28 191.624 454.408C189.8 452.536 188.888 449.812 188.888 446.236V431.8H191.552V446.128C191.552 449.056 192.212 451.24 193.532 452.68C194.852 454.12 196.76 454.84 199.256 454.84C201.776 454.84 203.696 454.12 205.016 452.68C206.336 451.24 206.996 449.056 206.996 446.128V431.8H209.588V446.236C209.588 449.812 208.676 452.536 206.852 454.408C205.052 456.28 202.52 457.216 199.256 457.216ZM222.152 457.18C220.616 457.18 219.14 456.964 217.724 456.532C216.332 456.076 215.24 455.512 214.448 454.84L215.6 452.824C216.392 453.448 217.388 453.964 218.588 454.372C219.788 454.756 221.036 454.948 222.332 454.948C224.06 454.948 225.332 454.684 226.148 454.156C226.988 453.604 227.408 452.836 227.408 451.852C227.408 451.156 227.18 450.616 226.724 450.232C226.268 449.824 225.692 449.524 224.996 449.332C224.3 449.116 223.376 448.912 222.224 448.72C220.688 448.432 219.452 448.144 218.516 447.856C217.58 447.544 216.776 447.028 216.104 446.308C215.456 445.588 215.132 444.592 215.132 443.32C215.132 441.736 215.792 440.44 217.112 439.432C218.432 438.424 220.268 437.92 222.62 437.92C223.844 437.92 225.068 438.088 226.292 438.424C227.516 438.736 228.524 439.156 229.316 439.684L228.2 441.736C226.64 440.656 224.78 440.116 222.62 440.116C220.988 440.116 219.752 440.404 218.912 440.98C218.096 441.556 217.688 442.312 217.688 443.248C217.688 443.968 217.916 444.544 218.372 444.976C218.852 445.408 219.44 445.732 220.136 445.948C220.832 446.14 221.792 446.344 223.016 446.56C224.528 446.848 225.74 447.136 226.652 447.424C227.564 447.712 228.344 448.204 228.992 448.9C229.64 449.596 229.964 450.556 229.964 451.78C229.964 453.436 229.268 454.756 227.876 455.74C226.508 456.7 224.6 457.18 222.152 457.18ZM251.177 448.324H235.337C235.481 450.292 236.237 451.888 237.605 453.112C238.973 454.312 240.701 454.912 242.789 454.912C243.965 454.912 245.045 454.708 246.029 454.3C247.013 453.868 247.865 453.244 248.585 452.428L250.025 454.084C249.185 455.092 248.129 455.86 246.857 456.388C245.609 456.916 244.229 457.18 242.717 457.18C240.773 457.18 239.045 456.772 237.533 455.956C236.045 455.116 234.881 453.964 234.041 452.5C233.201 451.036 232.781 449.38 232.781 447.532C232.781 445.684 233.177 444.028 233.969 442.564C234.785 441.1 235.889 439.96 237.281 439.144C238.697 438.328 240.281 437.92 242.033 437.92C243.785 437.92 245.357 438.328 246.749 439.144C248.141 439.96 249.233 441.1 250.025 442.564C250.817 444.004 251.213 445.66 251.213 447.532L251.177 448.324ZM242.033 440.116C240.209 440.116 238.673 440.704 237.425 441.88C236.201 443.032 235.505 444.544 235.337 446.416H248.765C248.597 444.544 247.889 443.032 246.641 441.88C245.417 440.704 243.881 440.116 242.033 440.116ZM258.864 441.772C259.464 440.5 260.352 439.54 261.528 438.892C262.728 438.244 264.204 437.92 265.956 437.92V440.404L265.344 440.368C263.352 440.368 261.792 440.98 260.664 442.204C259.536 443.428 258.972 445.144 258.972 447.352V457H256.416V438.064H258.864V441.772ZM298.647 454.696V457H280.827V431.8H298.107V434.104H283.491V443.068H296.523V445.336H283.491V454.696H298.647ZM314.017 437.92C316.393 437.92 318.277 438.616 319.669 440.008C321.085 441.376 321.793 443.38 321.793 446.02V457H319.237V446.272C319.237 444.304 318.745 442.804 317.761 441.772C316.777 440.74 315.373 440.224 313.549 440.224C311.509 440.224 309.889 440.836 308.689 442.06C307.513 443.26 306.925 444.928 306.925 447.064V457H304.369V438.064H306.817V441.556C307.513 440.404 308.473 439.516 309.697 438.892C310.945 438.244 312.385 437.92 314.017 437.92ZM346.334 438.064V454.696C346.334 457.912 345.542 460.288 343.958 461.824C342.398 463.384 340.034 464.164 336.866 464.164C335.114 464.164 333.446 463.9 331.862 463.372C330.302 462.868 329.03 462.16 328.046 461.248L329.342 459.304C330.254 460.12 331.358 460.756 332.654 461.212C333.974 461.668 335.354 461.896 336.794 461.896C339.194 461.896 340.958 461.332 342.086 460.204C343.214 459.1 343.778 457.372 343.778 455.02V452.608C342.986 453.808 341.942 454.72 340.646 455.344C339.374 455.968 337.958 456.28 336.398 456.28C334.622 456.28 333.002 455.896 331.538 455.128C330.098 454.336 328.958 453.244 328.118 451.852C327.302 450.436 326.894 448.84 326.894 447.064C326.894 445.288 327.302 443.704 328.118 442.312C328.958 440.92 330.098 439.84 331.538 439.072C332.978 438.304 334.598 437.92 336.398 437.92C338.006 437.92 339.458 438.244 340.754 438.892C342.05 439.54 343.094 440.476 343.886 441.7V438.064H346.334ZM336.65 454.012C338.018 454.012 339.254 453.724 340.358 453.148C341.462 452.548 342.314 451.72 342.914 450.664C343.538 449.608 343.85 448.408 343.85 447.064C343.85 445.72 343.538 444.532 342.914 443.5C342.314 442.444 341.462 441.628 340.358 441.052C339.278 440.452 338.042 440.152 336.65 440.152C335.282 440.152 334.046 440.44 332.942 441.016C331.862 441.592 331.01 442.408 330.386 443.464C329.786 444.52 329.486 445.72 329.486 447.064C329.486 448.408 329.786 449.608 330.386 450.664C331.01 451.72 331.862 452.548 332.942 453.148C334.046 453.724 335.282 454.012 336.65 454.012ZM360.106 437.92C362.578 437.92 364.474 438.544 365.794 439.792C367.114 441.016 367.774 442.84 367.774 445.264V457H365.326V454.048C364.75 455.032 363.898 455.8 362.77 456.352C361.666 456.904 360.346 457.18 358.81 457.18C356.698 457.18 355.018 456.676 353.77 455.668C352.522 454.66 351.898 453.328 351.898 451.672C351.898 450.064 352.474 448.768 353.626 447.784C354.802 446.8 356.662 446.308 359.206 446.308H365.218V445.156C365.218 443.524 364.762 442.288 363.85 441.448C362.938 440.584 361.606 440.152 359.854 440.152C358.654 440.152 357.502 440.356 356.398 440.764C355.294 441.148 354.346 441.688 353.554 442.384L352.402 440.476C353.362 439.66 354.514 439.036 355.858 438.604C357.202 438.148 358.618 437.92 360.106 437.92ZM359.206 455.164C360.646 455.164 361.882 454.84 362.914 454.192C363.946 453.52 364.714 452.56 365.218 451.312V448.216H359.278C356.038 448.216 354.418 449.344 354.418 451.6C354.418 452.704 354.838 453.58 355.678 454.228C356.518 454.852 357.694 455.164 359.206 455.164ZM392.319 438.064V454.696C392.319 457.912 391.527 460.288 389.943 461.824C388.383 463.384 386.019 464.164 382.851 464.164C381.099 464.164 379.431 463.9 377.847 463.372C376.287 462.868 375.015 462.16 374.031 461.248L375.327 459.304C376.239 460.12 377.343 460.756 378.639 461.212C379.959 461.668 381.339 461.896 382.779 461.896C385.179 461.896 386.943 461.332 388.071 460.204C389.199 459.1 389.763 457.372 389.763 455.02V452.608C388.971 453.808 387.927 454.72 386.631 455.344C385.359 455.968 383.943 456.28 382.383 456.28C380.607 456.28 378.987 455.896 377.523 455.128C376.083 454.336 374.943 453.244 374.103 451.852C373.287 450.436 372.879 448.84 372.879 447.064C372.879 445.288 373.287 443.704 374.103 442.312C374.943 440.92 376.083 439.84 377.523 439.072C378.963 438.304 380.583 437.92 382.383 437.92C383.991 437.92 385.443 438.244 386.739 438.892C388.035 439.54 389.079 440.476 389.871 441.7V438.064H392.319ZM382.635 454.012C384.003 454.012 385.239 453.724 386.343 453.148C387.447 452.548 388.299 451.72 388.899 450.664C389.523 449.608 389.835 448.408 389.835 447.064C389.835 445.72 389.523 444.532 388.899 443.5C388.299 442.444 387.447 441.628 386.343 441.052C385.263 440.452 384.027 440.152 382.635 440.152C381.267 440.152 380.031 440.44 378.927 441.016C377.847 441.592 376.995 442.408 376.371 443.464C375.771 444.52 375.471 445.72 375.471 447.064C375.471 448.408 375.771 449.608 376.371 450.664C376.995 451.72 377.847 452.548 378.927 453.148C380.031 453.724 381.267 454.012 382.635 454.012ZM415.954 448.324H400.114C400.258 450.292 401.014 451.888 402.382 453.112C403.75 454.312 405.478 454.912 407.566 454.912C408.742 454.912 409.822 454.708 410.806 454.3C411.79 453.868 412.642 453.244 413.362 452.428L414.802 454.084C413.962 455.092 412.906 455.86 411.634 456.388C410.386 456.916 409.006 457.18 407.494 457.18C405.55 457.18 403.822 456.772 402.31 455.956C400.822 455.116 399.658 453.964 398.818 452.5C397.978 451.036 397.558 449.38 397.558 447.532C397.558 445.684 397.954 444.028 398.746 442.564C399.562 441.1 400.666 439.96 402.058 439.144C403.474 438.328 405.058 437.92 406.81 437.92C408.562 437.92 410.134 438.328 411.526 439.144C412.918 439.96 414.01 441.1 414.802 442.564C415.594 444.004 415.99 445.66 415.99 447.532L415.954 448.324ZM406.81 440.116C404.986 440.116 403.45 440.704 402.202 441.88C400.978 443.032 400.282 444.544 400.114 446.416H413.542C413.374 444.544 412.666 443.032 411.418 441.88C410.194 440.704 408.658 440.116 406.81 440.116ZM444.809 437.92C447.185 437.92 449.045 438.604 450.389 439.972C451.757 441.34 452.441 443.356 452.441 446.02V457H449.885V446.272C449.885 444.304 449.405 442.804 448.445 441.772C447.509 440.74 446.177 440.224 444.449 440.224C442.481 440.224 440.933 440.836 439.805 442.06C438.677 443.26 438.113 444.928 438.113 447.064V457H435.557V446.272C435.557 444.304 435.077 442.804 434.117 441.772C433.181 440.74 431.837 440.224 430.085 440.224C428.141 440.224 426.593 440.836 425.441 442.06C424.313 443.26 423.749 444.928 423.749 447.064V457H421.193V438.064H423.641V441.52C424.313 440.368 425.249 439.48 426.449 438.856C427.649 438.232 429.029 437.92 430.589 437.92C432.173 437.92 433.541 438.256 434.693 438.928C435.869 439.6 436.745 440.596 437.321 441.916C438.017 440.668 439.013 439.696 440.309 439C441.629 438.28 443.129 437.92 444.809 437.92ZM475.931 448.324H460.091C460.235 450.292 460.991 451.888 462.359 453.112C463.727 454.312 465.455 454.912 467.543 454.912C468.719 454.912 469.799 454.708 470.783 454.3C471.767 453.868 472.619 453.244 473.339 452.428L474.779 454.084C473.939 455.092 472.883 455.86 471.611 456.388C470.363 456.916 468.983 457.18 467.471 457.18C465.527 457.18 463.799 456.772 462.287 455.956C460.799 455.116 459.635 453.964 458.795 452.5C457.955 451.036 457.535 449.38 457.535 447.532C457.535 445.684 457.931 444.028 458.723 442.564C459.539 441.1 460.643 439.96 462.035 439.144C463.451 438.328 465.035 437.92 466.787 437.92C468.539 437.92 470.111 438.328 471.503 439.144C472.895 439.96 473.987 441.1 474.779 442.564C475.571 444.004 475.967 445.66 475.967 447.532L475.931 448.324ZM466.787 440.116C464.963 440.116 463.427 440.704 462.179 441.88C460.955 443.032 460.259 444.544 460.091 446.416H473.519C473.351 444.544 472.643 443.032 471.395 441.88C470.171 440.704 468.635 440.116 466.787 440.116ZM490.817 437.92C493.193 437.92 495.077 438.616 496.469 440.008C497.885 441.376 498.593 443.38 498.593 446.02V457H496.037V446.272C496.037 444.304 495.545 442.804 494.561 441.772C493.577 440.74 492.173 440.224 490.349 440.224C488.309 440.224 486.689 440.836 485.489 442.06C484.313 443.26 483.725 444.928 483.725 447.064V457H481.169V438.064H483.617V441.556C484.313 440.404 485.273 439.516 486.497 438.892C487.745 438.244 489.185 437.92 490.817 437.92ZM515.505 455.848C515.025 456.28 514.425 456.616 513.705 456.856C513.009 457.072 512.277 457.18 511.509 457.18C509.733 457.18 508.365 456.7 507.405 455.74C506.445 454.78 505.965 453.424 505.965 451.672V440.224H502.581V438.064H505.965V433.924H508.521V438.064H514.281V440.224H508.521V451.528C508.521 452.656 508.797 453.52 509.349 454.12C509.925 454.696 510.741 454.984 511.797 454.984C512.325 454.984 512.829 454.9 513.309 454.732C513.813 454.564 514.245 454.324 514.605 454.012L515.505 455.848Z" fill="white"/>
<path d="M219.544 136.366C220.845 134.829 220.653 132.532 219.121 131.234C217.577 129.929 215.283 130.124 213.989 131.657C213.185 132.607 212.392 133.56 211.613 134.524C210.344 136.085 210.585 138.379 212.147 139.645C212.822 140.192 213.633 140.459 214.437 140.459C215.497 140.459 216.549 140 217.268 139.111C218.018 138.19 218.776 137.273 219.544 136.366Z" fill="white"/>
<path d="M201.803 154.635C202.411 155.026 203.094 155.211 203.766 155.211C204.965 155.211 206.138 154.62 206.835 153.536C207.479 152.533 208.133 151.541 208.795 150.556C209.915 148.884 209.47 146.622 207.802 145.502C206.135 144.375 203.866 144.826 202.749 146.494C202.059 147.522 201.376 148.557 200.704 149.602C199.619 151.292 200.11 153.546 201.803 154.635Z" fill="white"/>
<path d="M231.783 123.46C233.245 122.08 233.313 119.775 231.933 118.31C230.549 116.852 228.248 116.784 226.783 118.161C225.883 119.014 224.987 119.875 224.102 120.746C222.672 122.162 222.658 124.466 224.07 125.899C224.784 126.618 225.723 126.98 226.662 126.98C227.587 126.98 228.511 126.632 229.223 125.931C230.066 125.096 230.919 124.27 231.783 123.46Z" fill="white"/>
<path d="M193.186 170.674C193.709 170.933 194.26 171.054 194.804 171.054C196.145 171.054 197.432 170.314 198.069 169.034C198.599 167.967 199.14 166.904 199.687 165.855C200.619 164.073 199.933 161.872 198.151 160.94C196.366 160.001 194.168 160.698 193.236 162.476C192.66 163.575 192.098 164.681 191.547 165.791C190.651 167.594 191.387 169.777 193.186 170.674Z" fill="white"/>
<path d="M277.746 89.0387C276.924 87.2001 274.766 86.3822 272.934 87.2072C271.796 87.7158 270.669 88.2421 269.552 88.7756C267.738 89.6469 266.97 91.8198 267.838 93.6335C268.464 94.9422 269.769 95.7033 271.128 95.7033C271.654 95.7033 272.191 95.5895 272.696 95.3477C273.763 94.8356 274.833 94.3377 275.914 93.8504C277.75 93.0289 278.571 90.8738 277.746 89.0387Z" fill="white"/>
<path d="M246.086 106.873C244.876 105.273 242.593 104.946 240.986 106.155C239.997 106.902 239.016 107.659 238.045 108.424C236.462 109.668 236.192 111.959 237.433 113.538C238.151 114.452 239.222 114.928 240.299 114.928C241.085 114.928 241.882 114.672 242.547 114.149C243.482 113.413 244.421 112.684 245.367 111.973C246.975 110.76 247.295 108.477 246.086 106.873Z" fill="white"/>
<path d="M261.419 97.0619C260.387 95.3335 258.15 94.7609 256.426 95.7958C255.359 96.4324 254.302 97.0725 253.257 97.7269C251.55 98.7902 251.027 101.034 252.09 102.741C252.78 103.851 253.968 104.459 255.184 104.459C255.842 104.459 256.507 104.281 257.105 103.908C258.115 103.282 259.128 102.663 260.153 102.055C261.881 101.027 262.446 98.7902 261.419 97.0619Z" fill="white"/>
<path d="M287.947 88.7713C288.345 88.7713 288.754 88.7073 289.153 88.565L290.518 88.0992C292.428 87.4697 293.463 85.407 292.83 83.4973C292.2 81.5911 290.152 80.5526 288.228 81.1857L286.741 81.6942C284.842 82.3593 283.847 84.4362 284.512 86.3352C285.038 87.8324 286.443 88.7713 287.947 88.7713Z" fill="white"/>
<path d="M267.108 381.752C266.056 381.194 265.01 380.625 263.968 380.049C262.211 379.064 259.992 379.704 259.018 381.464C258.04 383.221 258.676 385.44 260.433 386.414C261.518 387.019 262.606 387.609 263.701 388.189C264.242 388.477 264.825 388.612 265.401 388.612C266.706 388.612 267.969 387.908 268.623 386.674C269.566 384.899 268.886 382.695 267.108 381.752Z" fill="white"/>
<path d="M235.024 359.429C233.523 358.092 231.219 358.224 229.882 359.728C228.544 361.232 228.679 363.533 230.18 364.871C231.105 365.692 232.037 366.506 232.976 367.31C233.662 367.901 234.505 368.189 235.344 368.189C236.368 368.189 237.389 367.758 238.107 366.915C239.42 365.39 239.242 363.092 237.713 361.784C236.809 361.008 235.913 360.222 235.024 359.429Z" fill="white"/>
<path d="M195.415 305.227C194.931 304.146 194.458 303.058 194 301.966C193.217 300.11 191.08 299.253 189.23 300.021C187.378 300.8 186.506 302.933 187.285 304.79C187.765 305.931 188.26 307.069 188.765 308.2C189.369 309.552 190.699 310.355 192.093 310.355C192.588 310.355 193.093 310.256 193.576 310.039C195.411 309.217 196.236 307.062 195.415 305.227Z" fill="white"/>
<path d="M283.291 389.175C282.182 388.738 281.079 388.293 279.988 387.838C278.121 387.045 275.997 387.934 275.222 389.787C274.443 391.643 275.318 393.777 277.171 394.552C278.32 395.036 279.472 395.502 280.631 395.953C281.069 396.124 281.517 396.206 281.961 396.206C283.416 396.206 284.789 395.327 285.351 393.894C286.087 392.02 285.162 389.908 283.291 389.175Z" fill="white"/>
<path d="M248.927 370.547C247.284 369.377 245.015 369.761 243.848 371.4C242.682 373.04 243.062 375.312 244.702 376.479C245.712 377.201 246.733 377.908 247.76 378.605C248.386 379.032 249.097 379.235 249.802 379.235C250.968 379.235 252.113 378.676 252.817 377.638C253.948 375.974 253.514 373.708 251.85 372.581C250.865 371.912 249.894 371.233 248.927 370.547Z" fill="white"/>
<path d="M211.308 332.974C210.138 331.341 207.866 330.961 206.226 332.131C204.59 333.305 204.213 335.577 205.383 337.213C206.105 338.223 206.838 339.219 207.578 340.211C208.292 341.168 209.388 341.673 210.497 341.673C211.255 341.673 212.019 341.438 212.674 340.947C214.285 339.745 214.615 337.462 213.41 335.851C212.699 334.901 212.002 333.941 211.308 332.974Z" fill="white"/>
<path d="M222.431 346.858C221.083 345.358 218.782 345.237 217.288 346.581C215.791 347.925 215.667 350.226 217.011 351.723C217.839 352.645 218.675 353.562 219.522 354.465C220.24 355.23 221.211 355.618 222.182 355.618C223.074 355.618 223.967 355.29 224.671 354.636C226.14 353.26 226.215 350.955 224.842 349.487C224.031 348.619 223.224 347.744 222.431 346.858Z" fill="white"/>
<path d="M201.788 317.948C200.803 316.195 198.584 315.569 196.83 316.547C195.077 317.528 194.448 319.748 195.429 321.504C196.034 322.582 196.653 323.659 197.278 324.726C197.958 325.882 199.174 326.522 200.422 326.522C201.048 326.522 201.685 326.362 202.264 326.021C204 325 204.576 322.767 203.559 321.035C202.954 320.011 202.364 318.983 201.788 317.948Z" fill="white"/>
<path d="M389.141 393.079C388.007 393.428 386.869 393.765 385.724 394.096C383.789 394.647 382.672 396.664 383.227 398.599C383.682 400.199 385.14 401.237 386.726 401.237C387.057 401.237 387.395 401.191 387.729 401.095C388.917 400.757 390.105 400.405 391.282 400.042C393.206 399.448 394.284 397.411 393.693 395.49C393.099 393.573 391.072 392.478 389.141 393.079Z" fill="white"/>
<path d="M405.801 386.895C404.717 387.368 403.625 387.831 402.529 388.279C400.669 389.043 399.777 391.17 400.538 393.03C401.118 394.438 402.476 395.292 403.909 395.292C404.372 395.292 404.837 395.207 405.289 395.022C406.434 394.552 407.576 394.069 408.71 393.574C410.556 392.77 411.399 390.622 410.595 388.78C409.795 386.942 407.654 386.095 405.801 386.895Z" fill="white"/>
<path d="M436.572 369.171C435.615 369.871 434.648 370.565 433.677 371.247C432.034 372.403 431.636 374.676 432.791 376.322C433.499 377.329 434.63 377.869 435.775 377.869C436.497 377.869 437.23 377.656 437.866 377.208C438.88 376.497 439.883 375.775 440.882 375.038C442.504 373.847 442.852 371.571 441.661 369.949C440.473 368.328 438.186 367.976 436.572 369.171Z" fill="white"/>
<path d="M495.238 297.734C493.389 296.991 491.252 297.884 490.498 299.751C490.053 300.853 489.598 301.956 489.129 303.051C488.339 304.9 489.2 307.041 491.049 307.831C491.515 308.03 491.998 308.122 492.479 308.122C493.89 308.122 495.238 307.294 495.829 305.91C496.312 304.772 496.789 303.627 497.255 302.475C498.005 300.611 497.105 298.488 495.238 297.734Z" fill="white"/>
<path d="M487.868 314.392C486.1 313.439 483.888 314.104 482.935 315.875C482.377 316.917 481.804 317.952 481.214 318.98C480.215 320.726 480.819 322.952 482.565 323.952C483.138 324.279 483.76 324.432 484.372 324.432C485.634 324.432 486.865 323.774 487.537 322.6C488.156 321.515 488.757 320.424 489.351 319.325C490.304 317.554 489.639 315.345 487.868 314.392Z" fill="white"/>
<path d="M500.7 280.358C498.759 279.81 496.753 280.948 496.216 282.886C495.896 284.035 495.565 285.18 495.22 286.322C494.637 288.249 495.729 290.28 497.653 290.859C498.005 290.966 498.357 291.016 498.705 291.016C500.27 291.016 501.717 290.002 502.19 288.427C502.55 287.236 502.895 286.041 503.229 284.842C503.769 282.904 502.639 280.895 500.7 280.358Z" fill="white"/>
<path d="M421.679 378.89C420.655 379.48 419.624 380.06 418.585 380.626C416.818 381.589 416.167 383.801 417.131 385.565C417.792 386.778 419.04 387.464 420.331 387.464C420.922 387.464 421.519 387.322 422.07 387.02C423.158 386.426 424.24 385.818 425.314 385.199C427.056 384.196 427.657 381.97 426.651 380.227C425.648 378.485 423.425 377.884 421.679 378.89Z" fill="white"/>
<path d="M450.308 357.857C449.433 358.661 448.548 359.454 447.655 360.24C446.147 361.573 446.005 363.874 447.335 365.382C448.057 366.196 449.06 366.613 450.066 366.613C450.923 366.613 451.784 366.314 452.478 365.702C453.406 364.881 454.327 364.052 455.237 363.213C456.72 361.851 456.813 359.55 455.451 358.07C454.096 356.587 451.78 356.491 450.308 357.857Z" fill="white"/>
<path d="M473.631 331.05C472.959 332.028 472.269 332.996 471.575 333.956C470.394 335.585 470.757 337.861 472.386 339.041C473.033 339.511 473.78 339.735 474.52 339.735C475.647 339.735 476.76 339.212 477.472 338.231C478.201 337.228 478.919 336.211 479.627 335.19C480.768 333.533 480.352 331.267 478.698 330.122C477.038 328.984 474.776 329.393 473.631 331.05Z" fill="white"/>
<path d="M462.708 345.105C461.929 346.001 461.139 346.886 460.343 347.761C458.991 349.251 459.102 351.552 460.588 352.907C461.289 353.54 462.164 353.853 463.038 353.853C464.027 353.853 465.016 353.451 465.734 352.662C466.566 351.744 467.391 350.816 468.206 349.877C469.525 348.359 469.362 346.061 467.843 344.742C466.324 343.419 464.023 343.579 462.708 345.105Z" fill="white"/>
<path d="M491.994 184.007C492.406 185.116 492.805 186.229 493.196 187.346C493.719 188.85 495.127 189.793 496.635 189.793C497.033 189.793 497.435 189.729 497.83 189.59C499.732 188.929 500.735 186.855 500.074 184.956C499.668 183.783 499.249 182.62 498.815 181.46C498.114 179.576 496.013 178.622 494.131 179.323C492.246 180.024 491.29 182.122 491.994 184.007Z" fill="white"/>
<path d="M497.253 200.984C497.541 202.129 497.815 203.278 498.075 204.434C498.455 206.126 499.96 207.275 501.624 207.275C501.891 207.275 502.157 207.247 502.428 207.186C504.391 206.745 505.621 204.796 505.18 202.833C504.906 201.621 504.618 200.408 504.316 199.206C503.825 197.257 501.841 196.076 499.896 196.563C497.947 197.054 496.762 199.032 497.253 200.984Z" fill="white"/>
<path d="M484.861 167.725C485.394 168.782 485.917 169.845 486.425 170.912C487.051 172.221 488.356 172.982 489.715 172.982C490.241 172.982 490.778 172.868 491.283 172.626C493.097 171.755 493.865 169.582 492.997 167.768C492.46 166.651 491.916 165.538 491.354 164.432C490.448 162.64 488.264 161.911 486.461 162.832C484.669 163.739 483.95 165.929 484.861 167.725Z" fill="white"/>
<path d="M393.051 88.0958C394.175 88.4728 395.295 88.864 396.408 89.2694C396.821 89.4188 397.24 89.4899 397.656 89.4899C399.143 89.4899 400.541 88.5724 401.078 87.0965C401.768 85.2046 400.793 83.117 398.905 82.4271C397.735 82.0003 396.558 81.5878 395.377 81.1895C393.456 80.5564 391.401 81.5807 390.761 83.4797C390.121 85.3895 391.145 87.4522 393.051 88.0958Z" fill="white"/>
<path d="M477.877 155.314C478.567 156.424 479.755 157.036 480.975 157.036C481.629 157.036 482.294 156.858 482.892 156.488C484.602 155.428 485.125 153.181 484.065 151.474C483.407 150.417 482.739 149.368 482.056 148.33C480.957 146.651 478.695 146.175 477.013 147.284C475.331 148.387 474.865 150.645 475.967 152.327C476.615 153.316 477.255 154.308 477.877 155.314Z" fill="white"/>
<path d="M467.64 140.761C468.358 141.675 469.429 142.152 470.506 142.152C471.292 142.152 472.089 141.896 472.754 141.373C474.337 140.128 474.607 137.838 473.366 136.259C472.598 135.281 471.819 134.317 471.029 133.361C469.749 131.814 467.459 131.589 465.901 132.87C464.35 134.15 464.13 136.444 465.41 137.998C466.164 138.912 466.907 139.833 467.64 140.761Z" fill="white"/>
<path d="M417.661 94.6253C418.557 92.8223 417.821 90.6387 416.022 89.7425C414.905 89.1877 413.785 88.6507 412.657 88.1208C410.84 87.2744 408.667 88.0603 407.814 89.8776C406.964 91.6985 407.75 93.8678 409.571 94.7213C410.648 95.2228 411.719 95.7384 412.778 96.2648C413.301 96.5244 413.852 96.6453 414.397 96.6453C415.737 96.6453 417.025 95.9056 417.661 94.6253Z" fill="white"/>
<path d="M447.289 109.822C446.319 109.036 445.348 108.264 444.366 107.503C442.776 106.276 440.49 106.568 439.256 108.154C438.025 109.744 438.317 112.034 439.907 113.265C440.845 113.99 441.774 114.726 442.695 115.477C443.37 116.024 444.185 116.291 444.988 116.291C446.048 116.291 447.101 115.832 447.819 114.943C449.085 113.382 448.851 111.092 447.289 109.822Z" fill="white"/>
<path d="M461.057 122.312C460.186 121.43 459.307 120.558 458.418 119.698C456.974 118.293 454.663 118.332 453.269 119.769C451.864 121.213 451.9 123.517 453.34 124.919C454.193 125.751 455.036 126.586 455.872 127.433C456.587 128.151 457.526 128.514 458.465 128.514C459.389 128.514 460.314 128.165 461.025 127.465C462.455 126.049 462.469 123.745 461.057 122.312Z" fill="white"/>
<path d="M433.311 103.939C434.396 102.25 433.905 99.9952 432.212 98.907C431.166 98.2348 430.114 97.5769 429.05 96.9296C427.34 95.8805 425.092 96.4282 424.047 98.1423C422.997 99.86 423.542 102.101 425.259 103.146C426.273 103.765 427.276 104.394 428.279 105.038C428.887 105.429 429.57 105.614 430.242 105.614C431.44 105.614 432.614 105.024 433.311 103.939Z" fill="white"/>
<path d="M268.579 230.8C271.723 230.8 274.147 231.496 275.851 232.888C277.579 234.256 278.443 236.176 278.443 238.648C278.443 240.76 277.939 242.608 276.931 244.192C275.947 245.752 274.531 246.952 272.683 247.792C270.859 248.632 268.699 249.052 266.203 249.052H260.587L259.219 256H253.351L258.391 230.8H268.579ZM266.455 244.3C268.399 244.3 269.899 243.856 270.955 242.968C272.011 242.08 272.539 240.808 272.539 239.152C272.539 237.952 272.131 237.052 271.315 236.452C270.523 235.852 269.371 235.552 267.859 235.552H263.287L261.523 244.3H266.455ZM304.53 238.612C304.53 240.964 303.894 242.98 302.622 244.66C301.35 246.34 299.586 247.528 297.33 248.224L301.722 256H295.566L291.606 248.944H286.638L285.234 256H279.366L284.406 230.8H294.666C297.786 230.8 300.21 231.484 301.938 232.852C303.666 234.22 304.53 236.14 304.53 238.612ZM292.506 244.3C294.45 244.3 295.95 243.856 297.006 242.968C298.086 242.08 298.626 240.808 298.626 239.152C298.626 237.952 298.218 237.052 297.402 236.452C296.586 235.852 295.422 235.552 293.91 235.552H289.302L287.538 244.3H292.506ZM318.907 256.432C316.387 256.432 314.203 255.976 312.355 255.064C310.507 254.152 309.091 252.868 308.107 251.212C307.123 249.556 306.631 247.648 306.631 245.488C306.631 242.632 307.279 240.064 308.575 237.784C309.895 235.48 311.731 233.668 314.083 232.348C316.459 231.028 319.171 230.368 322.219 230.368C324.739 230.368 326.923 230.824 328.771 231.736C330.619 232.648 332.035 233.932 333.019 235.588C334.003 237.244 334.495 239.152 334.495 241.312C334.495 244.168 333.835 246.748 332.515 249.052C331.219 251.332 329.383 253.132 327.007 254.452C324.655 255.772 321.955 256.432 318.907 256.432ZM319.411 251.464C321.259 251.464 322.879 251.02 324.271 250.132C325.663 249.244 326.731 248.056 327.475 246.568C328.219 245.08 328.591 243.436 328.591 241.636C328.591 239.716 327.991 238.192 326.791 237.064C325.591 235.912 323.899 235.336 321.715 235.336C319.867 235.336 318.247 235.78 316.855 236.668C315.463 237.556 314.395 238.744 313.651 240.232C312.907 241.72 312.535 243.364 312.535 245.164C312.535 247.084 313.135 248.62 314.335 249.772C315.535 250.9 317.227 251.464 319.411 251.464ZM341.254 230.8H351.802C354.37 230.8 356.578 231.232 358.426 232.096C360.298 232.936 361.726 234.148 362.71 235.732C363.718 237.316 364.222 239.176 364.222 241.312C364.222 244.24 363.562 246.82 362.242 249.052C360.922 251.26 359.074 252.976 356.698 254.2C354.346 255.4 351.622 256 348.526 256H336.214L341.254 230.8ZM348.706 251.212C350.674 251.212 352.378 250.804 353.818 249.988C355.282 249.148 356.398 248.008 357.166 246.568C357.934 245.104 358.318 243.46 358.318 241.636C358.318 239.74 357.706 238.264 356.482 237.208C355.258 236.128 353.482 235.588 351.154 235.588H346.15L343.018 251.212H348.706ZM377.836 256.432C374.668 256.432 372.184 255.652 370.384 254.092C368.584 252.508 367.684 250.348 367.684 247.612C367.684 246.82 367.78 245.92 367.972 244.912L370.78 230.8H376.648L373.84 244.804C373.696 245.596 373.624 246.304 373.624 246.928C373.624 248.44 374.032 249.58 374.848 250.348C375.688 251.092 376.9 251.464 378.484 251.464C380.26 251.464 381.676 250.936 382.732 249.88C383.788 248.824 384.556 247.132 385.036 244.804L387.844 230.8H393.568L390.724 245.164C389.188 252.676 384.892 256.432 377.836 256.432ZM407.575 256.432C405.055 256.432 402.847 255.976 400.951 255.064C399.079 254.152 397.639 252.868 396.631 251.212C395.623 249.556 395.119 247.648 395.119 245.488C395.119 242.632 395.767 240.064 397.063 237.784C398.383 235.48 400.231 233.668 402.607 232.348C404.983 231.028 407.707 230.368 410.779 230.368C413.035 230.368 415.027 230.752 416.755 231.52C418.483 232.288 419.791 233.392 420.679 234.832L416.467 238.288C415.123 236.32 413.095 235.336 410.383 235.336C408.535 235.336 406.903 235.768 405.487 236.632C404.071 237.496 402.967 238.672 402.175 240.16C401.407 241.648 401.023 243.304 401.023 245.128C401.023 247.072 401.635 248.62 402.859 249.772C404.107 250.9 405.847 251.464 408.079 251.464C410.743 251.464 412.975 250.492 414.775 248.548L418.231 252.076C415.735 254.98 412.183 256.432 407.575 256.432ZM429.771 235.552H421.707L422.679 230.8H444.639L443.667 235.552H435.639L431.535 256H425.703L429.771 235.552Z" fill="white"/>
</svg>
