<svg width="693" height="483" viewBox="0 0 693 483" fill="none" xmlns="http://www.w3.org/2000/svg">
<path d="M539.98 235.004C541.636 235.364 542.908 236.084 543.796 237.164C544.708 238.22 545.164 239.588 545.164 241.268C545.164 243.428 544.36 245.096 542.752 246.272C541.168 247.424 538.816 248 535.696 248H524.104V222.8H534.976C537.784 222.8 539.956 223.364 541.492 224.492C543.052 225.62 543.832 227.216 543.832 229.28C543.832 230.672 543.484 231.86 542.788 232.844C542.116 233.804 541.18 234.524 539.98 235.004ZM526.768 224.996V234.14H534.796C536.836 234.14 538.408 233.756 539.512 232.988C540.616 232.196 541.168 231.056 541.168 229.568C541.168 228.08 540.616 226.952 539.512 226.184C538.408 225.392 536.836 224.996 534.796 224.996H526.768ZM535.66 245.804C537.916 245.804 539.62 245.42 540.772 244.652C541.924 243.884 542.5 242.684 542.5 241.052C542.5 237.908 540.22 236.336 535.66 236.336H526.768V245.804H535.66ZM567.769 229.064V248H565.321V244.544C564.649 245.696 563.725 246.596 562.549 247.244C561.373 247.868 560.029 248.18 558.517 248.18C556.045 248.18 554.089 247.496 552.649 246.128C551.233 244.736 550.525 242.708 550.525 240.044V229.064H553.081V239.792C553.081 241.784 553.573 243.296 554.557 244.328C555.541 245.36 556.945 245.876 558.769 245.876C560.761 245.876 562.333 245.276 563.485 244.076C564.637 242.852 565.213 241.16 565.213 239V229.064H567.769ZM580.003 248.18C578.467 248.18 576.991 247.964 575.575 247.532C574.183 247.076 573.091 246.512 572.299 245.84L573.451 243.824C574.243 244.448 575.239 244.964 576.439 245.372C577.639 245.756 578.887 245.948 580.183 245.948C581.911 245.948 583.183 245.684 583.999 245.156C584.839 244.604 585.259 243.836 585.259 242.852C585.259 242.156 585.031 241.616 584.575 241.232C584.119 240.824 583.543 240.524 582.847 240.332C582.151 240.116 581.227 239.912 580.075 239.72C578.539 239.432 577.303 239.144 576.367 238.856C575.431 238.544 574.627 238.028 573.955 237.308C573.307 236.588 572.983 235.592 572.983 234.32C572.983 232.736 573.643 231.44 574.963 230.432C576.283 229.424 578.119 228.92 580.471 228.92C581.695 228.92 582.919 229.088 584.143 229.424C585.367 229.736 586.375 230.156 587.167 230.684L586.051 232.736C584.491 231.656 582.631 231.116 580.471 231.116C578.839 231.116 577.603 231.404 576.763 231.98C575.947 232.556 575.539 233.312 575.539 234.248C575.539 234.968 575.767 235.544 576.223 235.976C576.703 236.408 577.291 236.732 577.987 236.948C578.683 237.14 579.643 237.344 580.867 237.56C582.379 237.848 583.591 238.136 584.503 238.424C585.415 238.712 586.195 239.204 586.843 239.9C587.491 240.596 587.815 241.556 587.815 242.78C587.815 244.436 587.119 245.756 585.727 246.74C584.359 247.7 582.451 248.18 580.003 248.18ZM592.541 229.064H595.097V248H592.541V229.064ZM593.837 224.924C593.309 224.924 592.865 224.744 592.505 224.384C592.145 224.024 591.965 223.592 591.965 223.088C591.965 222.608 592.145 222.188 592.505 221.828C592.865 221.468 593.309 221.288 593.837 221.288C594.365 221.288 594.809 221.468 595.169 221.828C595.529 222.164 595.709 222.572 595.709 223.052C595.709 223.58 595.529 224.024 595.169 224.384C594.809 224.744 594.365 224.924 593.837 224.924ZM611.857 228.92C614.233 228.92 616.117 229.616 617.509 231.008C618.925 232.376 619.633 234.38 619.633 237.02V248H617.077V237.272C617.077 235.304 616.585 233.804 615.601 232.772C614.617 231.74 613.213 231.224 611.389 231.224C609.349 231.224 607.729 231.836 606.529 233.06C605.353 234.26 604.765 235.928 604.765 238.064V248H602.209V229.064H604.657V232.556C605.353 231.404 606.313 230.516 607.537 229.892C608.785 229.244 610.225 228.92 611.857 228.92ZM643.13 239.324H627.29C627.434 241.292 628.19 242.888 629.558 244.112C630.926 245.312 632.654 245.912 634.742 245.912C635.918 245.912 636.998 245.708 637.982 245.3C638.966 244.868 639.818 244.244 640.538 243.428L641.978 245.084C641.138 246.092 640.082 246.86 638.81 247.388C637.562 247.916 636.182 248.18 634.67 248.18C632.726 248.18 630.998 247.772 629.486 246.956C627.998 246.116 626.834 244.964 625.994 243.5C625.154 242.036 624.734 240.38 624.734 238.532C624.734 236.684 625.13 235.028 625.922 233.564C626.738 232.1 627.842 230.96 629.234 230.144C630.65 229.328 632.234 228.92 633.986 228.92C635.738 228.92 637.31 229.328 638.702 230.144C640.094 230.96 641.186 232.1 641.978 233.564C642.77 235.004 643.166 236.66 643.166 238.532L643.13 239.324ZM633.986 231.116C632.162 231.116 630.626 231.704 629.378 232.88C628.154 234.032 627.458 235.544 627.29 237.416H640.718C640.55 235.544 639.842 234.032 638.594 232.88C637.37 231.704 635.834 231.116 633.986 231.116ZM653.445 248.18C651.909 248.18 650.433 247.964 649.017 247.532C647.625 247.076 646.533 246.512 645.741 245.84L646.893 243.824C647.685 244.448 648.681 244.964 649.881 245.372C651.081 245.756 652.329 245.948 653.625 245.948C655.353 245.948 656.625 245.684 657.441 245.156C658.281 244.604 658.701 243.836 658.701 242.852C658.701 242.156 658.473 241.616 658.017 241.232C657.561 240.824 656.985 240.524 656.289 240.332C655.593 240.116 654.669 239.912 653.517 239.72C651.981 239.432 650.745 239.144 649.809 238.856C648.873 238.544 648.069 238.028 647.397 237.308C646.749 236.588 646.425 235.592 646.425 234.32C646.425 232.736 647.085 231.44 648.405 230.432C649.725 229.424 651.561 228.92 653.913 228.92C655.137 228.92 656.361 229.088 657.585 229.424C658.809 229.736 659.817 230.156 660.609 230.684L659.493 232.736C657.933 231.656 656.073 231.116 653.913 231.116C652.281 231.116 651.045 231.404 650.205 231.98C649.389 232.556 648.981 233.312 648.981 234.248C648.981 234.968 649.209 235.544 649.665 235.976C650.145 236.408 650.733 236.732 651.429 236.948C652.125 237.14 653.085 237.344 654.309 237.56C655.821 237.848 657.033 238.136 657.945 238.424C658.857 238.712 659.637 239.204 660.285 239.9C660.933 240.596 661.257 241.556 661.257 242.78C661.257 244.436 660.561 245.756 659.169 246.74C657.801 247.7 655.893 248.18 653.445 248.18ZM671.058 248.18C669.522 248.18 668.046 247.964 666.63 247.532C665.238 247.076 664.146 246.512 663.354 245.84L664.506 243.824C665.298 244.448 666.294 244.964 667.494 245.372C668.694 245.756 669.942 245.948 671.238 245.948C672.966 245.948 674.238 245.684 675.054 245.156C675.894 244.604 676.314 243.836 676.314 242.852C676.314 242.156 676.086 241.616 675.63 241.232C675.174 240.824 674.598 240.524 673.902 240.332C673.206 240.116 672.282 239.912 671.13 239.72C669.594 239.432 668.358 239.144 667.422 238.856C666.486 238.544 665.682 238.028 665.01 237.308C664.362 236.588 664.038 235.592 664.038 234.32C664.038 232.736 664.698 231.44 666.018 230.432C667.338 229.424 669.174 228.92 671.526 228.92C672.75 228.92 673.974 229.088 675.198 229.424C676.422 229.736 677.43 230.156 678.222 230.684L677.106 232.736C675.546 231.656 673.686 231.116 671.526 231.116C669.894 231.116 668.658 231.404 667.818 231.98C667.002 232.556 666.594 233.312 666.594 234.248C666.594 234.968 666.822 235.544 667.278 235.976C667.758 236.408 668.346 236.732 669.042 236.948C669.738 237.14 670.698 237.344 671.922 237.56C673.434 237.848 674.646 238.136 675.558 238.424C676.47 238.712 677.25 239.204 677.898 239.9C678.546 240.596 678.87 241.556 678.87 242.78C678.87 244.436 678.174 245.756 676.782 246.74C675.414 247.7 673.506 248.18 671.058 248.18ZM541.096 255.064V271.696C541.096 274.912 540.304 277.288 538.72 278.824C537.16 280.384 534.796 281.164 531.628 281.164C529.876 281.164 528.208 280.9 526.624 280.372C525.064 279.868 523.792 279.16 522.808 278.248L524.104 276.304C525.016 277.12 526.12 277.756 527.416 278.212C528.736 278.668 530.116 278.896 531.556 278.896C533.956 278.896 535.72 278.332 536.848 277.204C537.976 276.1 538.54 274.372 538.54 272.02V269.608C537.748 270.808 536.704 271.72 535.408 272.344C534.136 272.968 532.72 273.28 531.16 273.28C529.384 273.28 527.764 272.896 526.3 272.128C524.86 271.336 523.72 270.244 522.88 268.852C522.064 267.436 521.656 265.84 521.656 264.064C521.656 262.288 522.064 260.704 522.88 259.312C523.72 257.92 524.86 256.84 526.3 256.072C527.74 255.304 529.36 254.92 531.16 254.92C532.768 254.92 534.22 255.244 535.516 255.892C536.812 256.54 537.856 257.476 538.648 258.7V255.064H541.096ZM531.412 271.012C532.78 271.012 534.016 270.724 535.12 270.148C536.224 269.548 537.076 268.72 537.676 267.664C538.3 266.608 538.612 265.408 538.612 264.064C538.612 262.72 538.3 261.532 537.676 260.5C537.076 259.444 536.224 258.628 535.12 258.052C534.04 257.452 532.804 257.152 531.412 257.152C530.044 257.152 528.808 257.44 527.704 258.016C526.624 258.592 525.772 259.408 525.148 260.464C524.548 261.52 524.248 262.72 524.248 264.064C524.248 265.408 524.548 266.608 525.148 267.664C525.772 268.72 526.624 269.548 527.704 270.148C528.808 270.724 530.044 271.012 531.412 271.012ZM555.984 274.18C554.16 274.18 552.516 273.772 551.052 272.956C549.588 272.116 548.436 270.964 547.596 269.5C546.756 268.036 546.336 266.38 546.336 264.532C546.336 262.684 546.756 261.028 547.596 259.564C548.436 258.1 549.588 256.96 551.052 256.144C552.516 255.328 554.16 254.92 555.984 254.92C557.808 254.92 559.452 255.328 560.916 256.144C562.38 256.96 563.52 258.1 564.336 259.564C565.176 261.028 565.596 262.684 565.596 264.532C565.596 266.38 565.176 268.036 564.336 269.5C563.52 270.964 562.38 272.116 560.916 272.956C559.452 273.772 557.808 274.18 555.984 274.18ZM555.984 271.912C557.328 271.912 558.528 271.612 559.584 271.012C560.664 270.388 561.504 269.512 562.104 268.384C562.704 267.256 563.004 265.972 563.004 264.532C563.004 263.092 562.704 261.808 562.104 260.68C561.504 259.552 560.664 258.688 559.584 258.088C558.528 257.464 557.328 257.152 555.984 257.152C554.64 257.152 553.428 257.464 552.348 258.088C551.292 258.688 550.452 259.552 549.828 260.68C549.228 261.808 548.928 263.092 548.928 264.532C548.928 265.972 549.228 267.256 549.828 268.384C550.452 269.512 551.292 270.388 552.348 271.012C553.428 271.612 554.64 271.912 555.984 271.912ZM577.333 254.92C579.805 254.92 581.701 255.544 583.021 256.792C584.341 258.016 585.001 259.84 585.001 262.264V274H582.553V271.048C581.977 272.032 581.125 272.8 579.997 273.352C578.893 273.904 577.573 274.18 576.037 274.18C573.925 274.18 572.245 273.676 570.997 272.668C569.749 271.66 569.125 270.328 569.125 268.672C569.125 267.064 569.701 265.768 570.853 264.784C572.029 263.8 573.889 263.308 576.433 263.308H582.445V262.156C582.445 260.524 581.989 259.288 581.077 258.448C580.165 257.584 578.833 257.152 577.081 257.152C575.881 257.152 574.729 257.356 573.625 257.764C572.521 258.148 571.573 258.688 570.781 259.384L569.629 257.476C570.589 256.66 571.741 256.036 573.085 255.604C574.429 255.148 575.845 254.92 577.333 254.92ZM576.433 272.164C577.873 272.164 579.109 271.84 580.141 271.192C581.173 270.52 581.941 269.56 582.445 268.312V265.216H576.505C573.265 265.216 571.645 266.344 571.645 268.6C571.645 269.704 572.065 270.58 572.905 271.228C573.745 271.852 574.921 272.164 576.433 272.164ZM591.943 247.288H594.499V274H591.943V247.288ZM606.687 274.18C605.151 274.18 603.675 273.964 602.259 273.532C600.867 273.076 599.775 272.512 598.983 271.84L600.135 269.824C600.927 270.448 601.923 270.964 603.123 271.372C604.323 271.756 605.571 271.948 606.867 271.948C608.595 271.948 609.867 271.684 610.683 271.156C611.523 270.604 611.943 269.836 611.943 268.852C611.943 268.156 611.715 267.616 611.259 267.232C610.803 266.824 610.227 266.524 609.531 266.332C608.835 266.116 607.911 265.912 606.759 265.72C605.223 265.432 603.987 265.144 603.051 264.856C602.115 264.544 601.311 264.028 600.639 263.308C599.991 262.588 599.667 261.592 599.667 260.32C599.667 258.736 600.327 257.44 601.647 256.432C602.967 255.424 604.803 254.92 607.155 254.92C608.379 254.92 609.603 255.088 610.827 255.424C612.051 255.736 613.059 256.156 613.851 256.684L612.735 258.736C611.175 257.656 609.315 257.116 607.155 257.116C605.523 257.116 604.287 257.404 603.447 257.98C602.631 258.556 602.223 259.312 602.223 260.248C602.223 260.968 602.451 261.544 602.907 261.976C603.387 262.408 603.975 262.732 604.671 262.948C605.367 263.14 606.327 263.344 607.551 263.56C609.063 263.848 610.275 264.136 611.187 264.424C612.099 264.712 612.879 265.204 613.527 265.9C614.175 266.596 614.499 267.556 614.499 268.78C614.499 270.436 613.803 271.756 612.411 272.74C611.043 273.7 609.135 274.18 606.687 274.18Z" fill="white"/>
<path d="M66.256 236.216C62.992 236.216 60.448 235.28 58.624 233.408C56.8 231.536 55.888 228.812 55.888 225.236V210.8H58.552V225.128C58.552 228.056 59.212 230.24 60.532 231.68C61.852 233.12 63.76 233.84 66.256 233.84C68.776 233.84 70.696 233.12 72.016 231.68C73.336 230.24 73.996 228.056 73.996 225.128V210.8H76.588V225.236C76.588 228.812 75.676 231.536 73.852 233.408C72.052 235.28 69.52 236.216 66.256 236.216ZM89.1517 236.18C87.6157 236.18 86.1397 235.964 84.7237 235.532C83.3317 235.076 82.2397 234.512 81.4477 233.84L82.5997 231.824C83.3917 232.448 84.3877 232.964 85.5877 233.372C86.7877 233.756 88.0357 233.948 89.3317 233.948C91.0597 233.948 92.3317 233.684 93.1477 233.156C93.9877 232.604 94.4077 231.836 94.4077 230.852C94.4077 230.156 94.1797 229.616 93.7237 229.232C93.2677 228.824 92.6917 228.524 91.9957 228.332C91.2997 228.116 90.3757 227.912 89.2237 227.72C87.6877 227.432 86.4517 227.144 85.5157 226.856C84.5797 226.544 83.7757 226.028 83.1037 225.308C82.4557 224.588 82.1317 223.592 82.1317 222.32C82.1317 220.736 82.7917 219.44 84.1117 218.432C85.4317 217.424 87.2677 216.92 89.6197 216.92C90.8437 216.92 92.0677 217.088 93.2917 217.424C94.5157 217.736 95.5237 218.156 96.3157 218.684L95.1997 220.736C93.6397 219.656 91.7797 219.116 89.6197 219.116C87.9877 219.116 86.7517 219.404 85.9117 219.98C85.0957 220.556 84.6877 221.312 84.6877 222.248C84.6877 222.968 84.9157 223.544 85.3717 223.976C85.8517 224.408 86.4397 224.732 87.1357 224.948C87.8317 225.14 88.7917 225.344 90.0157 225.56C91.5277 225.848 92.7397 226.136 93.6517 226.424C94.5637 226.712 95.3437 227.204 95.9917 227.9C96.6397 228.596 96.9637 229.556 96.9637 230.78C96.9637 232.436 96.2677 233.756 94.8757 234.74C93.5077 235.7 91.5997 236.18 89.1517 236.18ZM118.177 227.324H102.337C102.481 229.292 103.237 230.888 104.605 232.112C105.973 233.312 107.701 233.912 109.789 233.912C110.965 233.912 112.045 233.708 113.029 233.3C114.013 232.868 114.865 232.244 115.585 231.428L117.025 233.084C116.185 234.092 115.129 234.86 113.857 235.388C112.609 235.916 111.229 236.18 109.717 236.18C107.773 236.18 106.045 235.772 104.533 234.956C103.045 234.116 101.881 232.964 101.041 231.5C100.201 230.036 99.781 228.38 99.781 226.532C99.781 224.684 100.177 223.028 100.969 221.564C101.785 220.1 102.889 218.96 104.281 218.144C105.697 217.328 107.281 216.92 109.033 216.92C110.785 216.92 112.357 217.328 113.749 218.144C115.141 218.96 116.233 220.1 117.025 221.564C117.817 223.004 118.213 224.66 118.213 226.532L118.177 227.324ZM109.033 219.116C107.209 219.116 105.673 219.704 104.425 220.88C103.201 222.032 102.505 223.544 102.337 225.416H115.765C115.597 223.544 114.889 222.032 113.641 220.88C112.417 219.704 110.881 219.116 109.033 219.116ZM125.864 220.772C126.464 219.5 127.352 218.54 128.528 217.892C129.728 217.244 131.204 216.92 132.956 216.92V219.404L132.344 219.368C130.352 219.368 128.792 219.98 127.664 221.204C126.536 222.428 125.972 224.144 125.972 226.352V236H123.416V217.064H125.864V220.772ZM65.212 242.92C67.588 242.92 69.472 243.616 70.864 245.008C72.28 246.376 72.988 248.38 72.988 251.02V262H70.432V251.272C70.432 249.304 69.94 247.804 68.956 246.772C67.972 245.74 66.568 245.224 64.744 245.224C62.704 245.224 61.084 245.836 59.884 247.06C58.708 248.26 58.12 249.928 58.12 252.064V262H55.564V243.064H58.012V246.556C58.708 245.404 59.668 244.516 60.892 243.892C62.14 243.244 63.58 242.92 65.212 242.92ZM96.4856 253.324H80.6456C80.7896 255.292 81.5456 256.888 82.9136 258.112C84.2816 259.312 86.0096 259.912 88.0976 259.912C89.2736 259.912 90.3536 259.708 91.3376 259.3C92.3216 258.868 93.1736 258.244 93.8936 257.428L95.3336 259.084C94.4936 260.092 93.4376 260.86 92.1656 261.388C90.9176 261.916 89.5376 262.18 88.0256 262.18C86.0816 262.18 84.3536 261.772 82.8416 260.956C81.3536 260.116 80.1896 258.964 79.3496 257.5C78.5096 256.036 78.0896 254.38 78.0896 252.532C78.0896 250.684 78.4856 249.028 79.2776 247.564C80.0936 246.1 81.1976 244.96 82.5896 244.144C84.0056 243.328 85.5896 242.92 87.3416 242.92C89.0936 242.92 90.6656 243.328 92.0576 244.144C93.4496 244.96 94.5416 246.1 95.3336 247.564C96.1256 249.004 96.5216 250.66 96.5216 252.532L96.4856 253.324ZM87.3416 245.116C85.5176 245.116 83.9816 245.704 82.7336 246.88C81.5096 248.032 80.8136 249.544 80.6456 251.416H94.0736C93.9056 249.544 93.1976 248.032 91.9496 246.88C90.7256 245.704 89.1896 245.116 87.3416 245.116ZM118.212 253.324H102.372C102.516 255.292 103.272 256.888 104.64 258.112C106.008 259.312 107.736 259.912 109.824 259.912C111 259.912 112.08 259.708 113.064 259.3C114.048 258.868 114.9 258.244 115.62 257.428L117.06 259.084C116.22 260.092 115.164 260.86 113.892 261.388C112.644 261.916 111.264 262.18 109.752 262.18C107.808 262.18 106.08 261.772 104.568 260.956C103.08 260.116 101.916 258.964 101.076 257.5C100.236 256.036 99.8162 254.38 99.8162 252.532C99.8162 250.684 100.212 249.028 101.004 247.564C101.82 246.1 102.924 244.96 104.316 244.144C105.732 243.328 107.316 242.92 109.068 242.92C110.82 242.92 112.392 243.328 113.784 244.144C115.176 244.96 116.268 246.1 117.06 247.564C117.852 249.004 118.248 250.66 118.248 252.532L118.212 253.324ZM109.068 245.116C107.244 245.116 105.708 245.704 104.46 246.88C103.236 248.032 102.54 249.544 102.372 251.416H115.8C115.632 249.544 114.924 248.032 113.676 246.88C112.452 245.704 110.916 245.116 109.068 245.116ZM140.731 235.288V262H138.283V258.256C137.515 259.528 136.495 260.5 135.223 261.172C133.975 261.844 132.559 262.18 130.975 262.18C129.199 262.18 127.591 261.772 126.151 260.956C124.711 260.14 123.583 259 122.767 257.536C121.951 256.072 121.543 254.404 121.543 252.532C121.543 250.66 121.951 248.992 122.767 247.528C123.583 246.064 124.711 244.936 126.151 244.144C127.591 243.328 129.199 242.92 130.975 242.92C132.511 242.92 133.891 243.244 135.115 243.892C136.363 244.516 137.383 245.44 138.175 246.664V235.288H140.731ZM131.191 259.912C132.511 259.912 133.699 259.612 134.755 259.012C135.835 258.388 136.675 257.512 137.275 256.384C137.899 255.256 138.211 253.972 138.211 252.532C138.211 251.092 137.899 249.808 137.275 248.68C136.675 247.552 135.835 246.688 134.755 246.088C133.699 245.464 132.511 245.152 131.191 245.152C129.847 245.152 128.635 245.464 127.555 246.088C126.499 246.688 125.659 247.552 125.035 248.68C124.435 249.808 124.135 251.092 124.135 252.532C124.135 253.972 124.435 255.256 125.035 256.384C125.659 257.512 126.499 258.388 127.555 259.012C128.635 259.612 129.847 259.912 131.191 259.912ZM152.925 262.18C151.389 262.18 149.913 261.964 148.497 261.532C147.105 261.076 146.013 260.512 145.221 259.84L146.373 257.824C147.165 258.448 148.161 258.964 149.361 259.372C150.561 259.756 151.809 259.948 153.105 259.948C154.833 259.948 156.105 259.684 156.921 259.156C157.761 258.604 158.181 257.836 158.181 256.852C158.181 256.156 157.953 255.616 157.497 255.232C157.041 254.824 156.465 254.524 155.769 254.332C155.073 254.116 154.149 253.912 152.997 253.72C151.461 253.432 150.225 253.144 149.289 252.856C148.353 252.544 147.549 252.028 146.877 251.308C146.229 250.588 145.905 249.592 145.905 248.32C145.905 246.736 146.565 245.44 147.885 244.432C149.205 243.424 151.041 242.92 153.393 242.92C154.617 242.92 155.841 243.088 157.065 243.424C158.289 243.736 159.297 244.156 160.089 244.684L158.973 246.736C157.413 245.656 155.553 245.116 153.393 245.116C151.761 245.116 150.525 245.404 149.685 245.98C148.869 246.556 148.461 247.312 148.461 248.248C148.461 248.968 148.689 249.544 149.145 249.976C149.625 250.408 150.213 250.732 150.909 250.948C151.605 251.14 152.565 251.344 153.789 251.56C155.301 251.848 156.513 252.136 157.425 252.424C158.337 252.712 159.117 253.204 159.765 253.9C160.413 254.596 160.737 255.556 160.737 256.78C160.737 258.436 160.041 259.756 158.649 260.74C157.281 261.7 155.373 262.18 152.925 262.18Z" fill="white"/>
<path d="M271.312 60L265.552 51.9C264.904 51.972 264.232 52.008 263.536 52.008H256.768V60H254.104V34.8H263.536C266.752 34.8 269.272 35.568 271.096 37.104C272.92 38.64 273.832 40.752 273.832 43.44C273.832 45.408 273.328 47.076 272.32 48.444C271.336 49.788 269.92 50.76 268.072 51.36L274.228 60H271.312ZM263.464 49.74C265.96 49.74 267.868 49.188 269.188 48.084C270.508 46.98 271.168 45.432 271.168 43.44C271.168 41.4 270.508 39.84 269.188 38.76C267.868 37.656 265.96 37.104 263.464 37.104H256.768V49.74H263.464ZM296.068 51.324H280.228C280.372 53.292 281.128 54.888 282.496 56.112C283.864 57.312 285.592 57.912 287.68 57.912C288.856 57.912 289.936 57.708 290.92 57.3C291.904 56.868 292.756 56.244 293.476 55.428L294.916 57.084C294.076 58.092 293.02 58.86 291.748 59.388C290.5 59.916 289.12 60.18 287.608 60.18C285.664 60.18 283.936 59.772 282.424 58.956C280.936 58.116 279.772 56.964 278.932 55.5C278.092 54.036 277.672 52.38 277.672 50.532C277.672 48.684 278.068 47.028 278.86 45.564C279.676 44.1 280.78 42.96 282.172 42.144C283.588 41.328 285.172 40.92 286.924 40.92C288.676 40.92 290.248 41.328 291.64 42.144C293.032 42.96 294.124 44.1 294.916 45.564C295.708 47.004 296.104 48.66 296.104 50.532L296.068 51.324ZM286.924 43.116C285.1 43.116 283.564 43.704 282.316 44.88C281.092 46.032 280.396 47.544 280.228 49.416H293.656C293.488 47.544 292.78 46.032 291.532 44.88C290.308 43.704 288.772 43.116 286.924 43.116ZM306.382 60.18C304.846 60.18 303.37 59.964 301.954 59.532C300.562 59.076 299.47 58.512 298.678 57.84L299.83 55.824C300.622 56.448 301.618 56.964 302.818 57.372C304.018 57.756 305.266 57.948 306.562 57.948C308.29 57.948 309.562 57.684 310.378 57.156C311.218 56.604 311.638 55.836 311.638 54.852C311.638 54.156 311.41 53.616 310.954 53.232C310.498 52.824 309.922 52.524 309.226 52.332C308.53 52.116 307.606 51.912 306.454 51.72C304.918 51.432 303.682 51.144 302.746 50.856C301.81 50.544 301.006 50.028 300.334 49.308C299.686 48.588 299.362 47.592 299.362 46.32C299.362 44.736 300.022 43.44 301.342 42.432C302.662 41.424 304.498 40.92 306.85 40.92C308.074 40.92 309.298 41.088 310.522 41.424C311.746 41.736 312.754 42.156 313.546 42.684L312.43 44.736C310.87 43.656 309.01 43.116 306.85 43.116C305.218 43.116 303.982 43.404 303.142 43.98C302.326 44.556 301.918 45.312 301.918 46.248C301.918 46.968 302.146 47.544 302.602 47.976C303.082 48.408 303.67 48.732 304.366 48.948C305.062 49.14 306.022 49.344 307.246 49.56C308.758 49.848 309.97 50.136 310.882 50.424C311.794 50.712 312.574 51.204 313.222 51.9C313.87 52.596 314.194 53.556 314.194 54.78C314.194 56.436 313.498 57.756 312.106 58.74C310.738 59.7 308.83 60.18 306.382 60.18ZM326.659 60.18C324.835 60.18 323.191 59.772 321.727 58.956C320.263 58.116 319.111 56.964 318.271 55.5C317.431 54.036 317.011 52.38 317.011 50.532C317.011 48.684 317.431 47.028 318.271 45.564C319.111 44.1 320.263 42.96 321.727 42.144C323.191 41.328 324.835 40.92 326.659 40.92C328.483 40.92 330.127 41.328 331.591 42.144C333.055 42.96 334.195 44.1 335.011 45.564C335.851 47.028 336.271 48.684 336.271 50.532C336.271 52.38 335.851 54.036 335.011 55.5C334.195 56.964 333.055 58.116 331.591 58.956C330.127 59.772 328.483 60.18 326.659 60.18ZM326.659 57.912C328.003 57.912 329.203 57.612 330.259 57.012C331.339 56.388 332.179 55.512 332.779 54.384C333.379 53.256 333.679 51.972 333.679 50.532C333.679 49.092 333.379 47.808 332.779 46.68C332.179 45.552 331.339 44.688 330.259 44.088C329.203 43.464 328.003 43.152 326.659 43.152C325.315 43.152 324.103 43.464 323.023 44.088C321.967 44.688 321.127 45.552 320.503 46.68C319.903 47.808 319.603 49.092 319.603 50.532C319.603 51.972 319.903 53.256 320.503 54.384C321.127 55.512 321.967 56.388 323.023 57.012C324.103 57.612 325.315 57.912 326.659 57.912ZM358.554 41.064V60H356.106V56.544C355.434 57.696 354.51 58.596 353.334 59.244C352.158 59.868 350.814 60.18 349.302 60.18C346.83 60.18 344.874 59.496 343.434 58.128C342.018 56.736 341.31 54.708 341.31 52.044V41.064H343.866V51.792C343.866 53.784 344.358 55.296 345.342 56.328C346.326 57.36 347.73 57.876 349.554 57.876C351.546 57.876 353.118 57.276 354.27 56.076C355.422 54.852 355.998 53.16 355.998 51V41.064H358.554ZM368.16 44.772C368.76 43.5 369.648 42.54 370.824 41.892C372.024 41.244 373.5 40.92 375.252 40.92V43.404L374.64 43.368C372.648 43.368 371.088 43.98 369.96 45.204C368.832 46.428 368.268 48.144 368.268 50.352V60H365.712V41.064H368.16V44.772ZM387.553 60.18C385.681 60.18 384.001 59.772 382.513 58.956C381.049 58.14 379.897 57 379.057 55.536C378.217 54.048 377.797 52.38 377.797 50.532C377.797 48.684 378.217 47.028 379.057 45.564C379.897 44.1 381.049 42.96 382.513 42.144C384.001 41.328 385.681 40.92 387.553 40.92C389.185 40.92 390.637 41.244 391.909 41.892C393.205 42.516 394.225 43.44 394.969 44.664L393.061 45.96C392.437 45.024 391.645 44.328 390.685 43.872C389.725 43.392 388.681 43.152 387.553 43.152C386.185 43.152 384.949 43.464 383.845 44.088C382.765 44.688 381.913 45.552 381.289 46.68C380.689 47.808 380.389 49.092 380.389 50.532C380.389 51.996 380.689 53.292 381.289 54.42C381.913 55.524 382.765 56.388 383.845 57.012C384.949 57.612 386.185 57.912 387.553 57.912C388.681 57.912 389.725 57.684 390.685 57.228C391.645 56.772 392.437 56.076 393.061 55.14L394.969 56.436C394.225 57.66 393.205 58.596 391.909 59.244C390.613 59.868 389.161 60.18 387.553 60.18ZM416.161 51.324H400.321C400.465 53.292 401.221 54.888 402.589 56.112C403.957 57.312 405.685 57.912 407.773 57.912C408.949 57.912 410.029 57.708 411.013 57.3C411.997 56.868 412.849 56.244 413.569 55.428L415.009 57.084C414.169 58.092 413.113 58.86 411.841 59.388C410.593 59.916 409.213 60.18 407.701 60.18C405.757 60.18 404.029 59.772 402.517 58.956C401.029 58.116 399.865 56.964 399.025 55.5C398.185 54.036 397.765 52.38 397.765 50.532C397.765 48.684 398.161 47.028 398.953 45.564C399.769 44.1 400.873 42.96 402.265 42.144C403.681 41.328 405.265 40.92 407.017 40.92C408.769 40.92 410.341 41.328 411.733 42.144C413.125 42.96 414.217 44.1 415.009 45.564C415.801 47.004 416.197 48.66 416.197 50.532L416.161 51.324ZM407.017 43.116C405.193 43.116 403.657 43.704 402.409 44.88C401.185 46.032 400.489 47.544 400.321 49.416H413.749C413.581 47.544 412.873 46.032 411.625 44.88C410.401 43.704 408.865 43.116 407.017 43.116ZM426.476 60.18C424.94 60.18 423.464 59.964 422.048 59.532C420.656 59.076 419.564 58.512 418.772 57.84L419.924 55.824C420.716 56.448 421.712 56.964 422.912 57.372C424.112 57.756 425.36 57.948 426.656 57.948C428.384 57.948 429.656 57.684 430.472 57.156C431.312 56.604 431.732 55.836 431.732 54.852C431.732 54.156 431.504 53.616 431.048 53.232C430.592 52.824 430.016 52.524 429.32 52.332C428.624 52.116 427.7 51.912 426.548 51.72C425.012 51.432 423.776 51.144 422.84 50.856C421.904 50.544 421.1 50.028 420.428 49.308C419.78 48.588 419.456 47.592 419.456 46.32C419.456 44.736 420.116 43.44 421.436 42.432C422.756 41.424 424.592 40.92 426.944 40.92C428.168 40.92 429.392 41.088 430.616 41.424C431.84 41.736 432.848 42.156 433.64 42.684L432.524 44.736C430.964 43.656 429.104 43.116 426.944 43.116C425.312 43.116 424.076 43.404 423.236 43.98C422.42 44.556 422.012 45.312 422.012 46.248C422.012 46.968 422.24 47.544 422.696 47.976C423.176 48.408 423.764 48.732 424.46 48.948C425.156 49.14 426.116 49.344 427.34 49.56C428.852 49.848 430.064 50.136 430.976 50.424C431.888 50.712 432.668 51.204 433.316 51.9C433.964 52.596 434.288 53.556 434.288 54.78C434.288 56.436 433.592 57.756 432.2 58.74C430.832 59.7 428.924 60.18 426.476 60.18Z" fill="white"/>
<path d="M234.713 414.104H225.857V411.8H246.233V414.104H237.377V437H234.713V414.104ZM264.468 428.324H248.628C248.772 430.292 249.528 431.888 250.896 433.112C252.264 434.312 253.992 434.912 256.08 434.912C257.256 434.912 258.336 434.708 259.32 434.3C260.304 433.868 261.156 433.244 261.876 432.428L263.316 434.084C262.476 435.092 261.42 435.86 260.148 436.388C258.9 436.916 257.52 437.18 256.008 437.18C254.064 437.18 252.336 436.772 250.824 435.956C249.336 435.116 248.172 433.964 247.332 432.5C246.492 431.036 246.072 429.38 246.072 427.532C246.072 425.684 246.468 424.028 247.26 422.564C248.076 421.1 249.18 419.96 250.572 419.144C251.988 418.328 253.572 417.92 255.324 417.92C257.076 417.92 258.648 418.328 260.04 419.144C261.432 419.96 262.524 421.1 263.316 422.564C264.108 424.004 264.504 425.66 264.504 427.532L264.468 428.324ZM255.324 420.116C253.5 420.116 251.964 420.704 250.716 421.88C249.492 423.032 248.796 424.544 248.628 426.416H262.056C261.888 424.544 261.18 423.032 259.932 421.88C258.708 420.704 257.172 420.116 255.324 420.116ZM277.555 437.18C275.683 437.18 274.003 436.772 272.515 435.956C271.051 435.14 269.899 434 269.059 432.536C268.219 431.048 267.799 429.38 267.799 427.532C267.799 425.684 268.219 424.028 269.059 422.564C269.899 421.1 271.051 419.96 272.515 419.144C274.003 418.328 275.683 417.92 277.555 417.92C279.187 417.92 280.639 418.244 281.911 418.892C283.207 419.516 284.227 420.44 284.971 421.664L283.063 422.96C282.439 422.024 281.647 421.328 280.687 420.872C279.727 420.392 278.683 420.152 277.555 420.152C276.187 420.152 274.951 420.464 273.847 421.088C272.767 421.688 271.915 422.552 271.291 423.68C270.691 424.808 270.391 426.092 270.391 427.532C270.391 428.996 270.691 430.292 271.291 431.42C271.915 432.524 272.767 433.388 273.847 434.012C274.951 434.612 276.187 434.912 277.555 434.912C278.683 434.912 279.727 434.684 280.687 434.228C281.647 433.772 282.439 433.076 283.063 432.14L284.971 433.436C284.227 434.66 283.207 435.596 281.911 436.244C280.615 436.868 279.163 437.18 277.555 437.18ZM299.358 417.92C301.734 417.92 303.618 418.616 305.01 420.008C306.426 421.376 307.134 423.38 307.134 426.02V437H304.578V426.272C304.578 424.304 304.086 422.804 303.102 421.772C302.118 420.74 300.714 420.224 298.89 420.224C296.85 420.224 295.23 420.836 294.03 422.06C292.854 423.26 292.266 424.928 292.266 427.064V437H289.71V410.288H292.266V421.376C292.962 420.272 293.922 419.42 295.146 418.82C296.37 418.22 297.774 417.92 299.358 417.92ZM323.722 417.92C326.098 417.92 327.982 418.616 329.374 420.008C330.79 421.376 331.498 423.38 331.498 426.02V437H328.942V426.272C328.942 424.304 328.45 422.804 327.466 421.772C326.482 420.74 325.078 420.224 323.254 420.224C321.214 420.224 319.594 420.836 318.394 422.06C317.218 423.26 316.63 424.928 316.63 427.064V437H314.074V418.064H316.522V421.556C317.218 420.404 318.178 419.516 319.402 418.892C320.65 418.244 322.09 417.92 323.722 417.92ZM346.247 437.18C344.423 437.18 342.779 436.772 341.315 435.956C339.851 435.116 338.699 433.964 337.859 432.5C337.019 431.036 336.599 429.38 336.599 427.532C336.599 425.684 337.019 424.028 337.859 422.564C338.699 421.1 339.851 419.96 341.315 419.144C342.779 418.328 344.423 417.92 346.247 417.92C348.071 417.92 349.715 418.328 351.179 419.144C352.643 419.96 353.783 421.1 354.599 422.564C355.439 424.028 355.859 425.684 355.859 427.532C355.859 429.38 355.439 431.036 354.599 432.5C353.783 433.964 352.643 435.116 351.179 435.956C349.715 436.772 348.071 437.18 346.247 437.18ZM346.247 434.912C347.591 434.912 348.791 434.612 349.847 434.012C350.927 433.388 351.767 432.512 352.367 431.384C352.967 430.256 353.267 428.972 353.267 427.532C353.267 426.092 352.967 424.808 352.367 423.68C351.767 422.552 350.927 421.688 349.847 421.088C348.791 420.464 347.591 420.152 346.247 420.152C344.903 420.152 343.691 420.464 342.611 421.088C341.555 421.688 340.715 422.552 340.091 423.68C339.491 424.808 339.191 426.092 339.191 427.532C339.191 428.972 339.491 430.256 340.091 431.384C340.715 432.512 341.555 433.388 342.611 434.012C343.691 434.612 344.903 434.912 346.247 434.912ZM361.078 410.288H363.634V437H361.078V410.288ZM378.486 437.18C376.662 437.18 375.018 436.772 373.554 435.956C372.09 435.116 370.938 433.964 370.098 432.5C369.258 431.036 368.838 429.38 368.838 427.532C368.838 425.684 369.258 424.028 370.098 422.564C370.938 421.1 372.09 419.96 373.554 419.144C375.018 418.328 376.662 417.92 378.486 417.92C380.31 417.92 381.954 418.328 383.418 419.144C384.882 419.96 386.022 421.1 386.838 422.564C387.678 424.028 388.098 425.684 388.098 427.532C388.098 429.38 387.678 431.036 386.838 432.5C386.022 433.964 384.882 435.116 383.418 435.956C381.954 436.772 380.31 437.18 378.486 437.18ZM378.486 434.912C379.83 434.912 381.03 434.612 382.086 434.012C383.166 433.388 384.006 432.512 384.606 431.384C385.206 430.256 385.506 428.972 385.506 427.532C385.506 426.092 385.206 424.808 384.606 423.68C384.006 422.552 383.166 421.688 382.086 421.088C381.03 420.464 379.83 420.152 378.486 420.152C377.142 420.152 375.93 420.464 374.85 421.088C373.794 421.688 372.954 422.552 372.33 423.68C371.73 424.808 371.43 426.092 371.43 427.532C371.43 428.972 371.73 430.256 372.33 431.384C372.954 432.512 373.794 433.388 374.85 434.012C375.93 434.612 377.142 434.912 378.486 434.912ZM410.848 418.064V434.696C410.848 437.912 410.056 440.288 408.472 441.824C406.912 443.384 404.548 444.164 401.38 444.164C399.628 444.164 397.96 443.9 396.376 443.372C394.816 442.868 393.544 442.16 392.56 441.248L393.856 439.304C394.768 440.12 395.872 440.756 397.168 441.212C398.488 441.668 399.868 441.896 401.308 441.896C403.708 441.896 405.472 441.332 406.6 440.204C407.728 439.1 408.292 437.372 408.292 435.02V432.608C407.5 433.808 406.456 434.72 405.16 435.344C403.888 435.968 402.472 436.28 400.912 436.28C399.136 436.28 397.516 435.896 396.052 435.128C394.612 434.336 393.472 433.244 392.632 431.852C391.816 430.436 391.408 428.84 391.408 427.064C391.408 425.288 391.816 423.704 392.632 422.312C393.472 420.92 394.612 419.84 396.052 419.072C397.492 418.304 399.112 417.92 400.912 417.92C402.52 417.92 403.972 418.244 405.268 418.892C406.564 419.54 407.608 420.476 408.4 421.7V418.064H410.848ZM401.164 434.012C402.532 434.012 403.768 433.724 404.872 433.148C405.976 432.548 406.828 431.72 407.428 430.664C408.052 429.608 408.364 428.408 408.364 427.064C408.364 425.72 408.052 424.532 407.428 423.5C406.828 422.444 405.976 421.628 404.872 421.052C403.792 420.452 402.556 420.152 401.164 420.152C399.796 420.152 398.56 420.44 397.456 421.016C396.376 421.592 395.524 422.408 394.9 423.464C394.3 424.52 394 425.72 394 427.064C394 428.408 394.3 429.608 394.9 430.664C395.524 431.72 396.376 432.548 397.456 433.148C398.56 433.724 399.796 434.012 401.164 434.012ZM417.996 418.064H420.552V437H417.996V418.064ZM419.292 413.924C418.764 413.924 418.32 413.744 417.96 413.384C417.6 413.024 417.42 412.592 417.42 412.088C417.42 411.608 417.6 411.188 417.96 410.828C418.32 410.468 418.764 410.288 419.292 410.288C419.82 410.288 420.264 410.468 420.624 410.828C420.984 411.164 421.164 411.572 421.164 412.052C421.164 412.58 420.984 413.024 420.624 413.384C420.264 413.744 419.82 413.924 419.292 413.924ZM435.512 437.18C433.64 437.18 431.96 436.772 430.472 435.956C429.008 435.14 427.856 434 427.016 432.536C426.176 431.048 425.756 429.38 425.756 427.532C425.756 425.684 426.176 424.028 427.016 422.564C427.856 421.1 429.008 419.96 430.472 419.144C431.96 418.328 433.64 417.92 435.512 417.92C437.144 417.92 438.596 418.244 439.868 418.892C441.164 419.516 442.184 420.44 442.928 421.664L441.02 422.96C440.396 422.024 439.604 421.328 438.644 420.872C437.684 420.392 436.64 420.152 435.512 420.152C434.144 420.152 432.908 420.464 431.804 421.088C430.724 421.688 429.872 422.552 429.248 423.68C428.648 424.808 428.348 426.092 428.348 427.532C428.348 428.996 428.648 430.292 429.248 431.42C429.872 432.524 430.724 433.388 431.804 434.012C432.908 434.612 434.144 434.912 435.512 434.912C436.64 434.912 437.684 434.684 438.644 434.228C439.604 433.772 440.396 433.076 441.02 432.14L442.928 433.436C442.184 434.66 441.164 435.596 439.868 436.244C438.572 436.868 437.12 437.18 435.512 437.18ZM454.573 417.92C457.045 417.92 458.941 418.544 460.261 419.792C461.581 421.016 462.241 422.84 462.241 425.264V437H459.793V434.048C459.217 435.032 458.365 435.8 457.237 436.352C456.133 436.904 454.813 437.18 453.277 437.18C451.165 437.18 449.485 436.676 448.237 435.668C446.989 434.66 446.365 433.328 446.365 431.672C446.365 430.064 446.941 428.768 448.093 427.784C449.269 426.8 451.129 426.308 453.673 426.308H459.685V425.156C459.685 423.524 459.229 422.288 458.317 421.448C457.405 420.584 456.073 420.152 454.321 420.152C453.121 420.152 451.969 420.356 450.865 420.764C449.761 421.148 448.813 421.688 448.021 422.384L446.869 420.476C447.829 419.66 448.981 419.036 450.325 418.604C451.669 418.148 453.085 417.92 454.573 417.92ZM453.673 435.164C455.113 435.164 456.349 434.84 457.381 434.192C458.413 433.52 459.181 432.56 459.685 431.312V428.216H453.745C450.505 428.216 448.885 429.344 448.885 431.6C448.885 432.704 449.305 433.58 450.145 434.228C450.985 434.852 452.161 435.164 453.673 435.164ZM469.183 410.288H471.739V437H469.183V410.288ZM259.371 449.92C261.147 449.92 262.755 450.328 264.195 451.144C265.635 451.936 266.763 453.064 267.579 454.528C268.395 455.992 268.803 457.66 268.803 459.532C268.803 461.428 268.395 463.108 267.579 464.572C266.763 466.036 265.635 467.176 264.195 467.992C262.779 468.784 261.171 469.18 259.371 469.18C257.835 469.18 256.443 468.868 255.195 468.244C253.971 467.596 252.963 466.66 252.171 465.436V475.984H249.615V450.064H252.063V453.808C252.831 452.56 253.839 451.6 255.087 450.928C256.359 450.256 257.787 449.92 259.371 449.92ZM259.191 466.912C260.511 466.912 261.711 466.612 262.791 466.012C263.871 465.388 264.711 464.512 265.311 463.384C265.935 462.256 266.247 460.972 266.247 459.532C266.247 458.092 265.935 456.82 265.311 455.716C264.711 454.588 263.871 453.712 262.791 453.088C261.711 452.464 260.511 452.152 259.191 452.152C257.847 452.152 256.635 452.464 255.555 453.088C254.499 453.712 253.659 454.588 253.035 455.716C252.435 456.82 252.135 458.092 252.135 459.532C252.135 460.972 252.435 462.256 253.035 463.384C253.659 464.512 254.499 465.388 255.555 466.012C256.635 466.612 257.847 466.912 259.191 466.912ZM281.753 469.18C279.929 469.18 278.285 468.772 276.821 467.956C275.357 467.116 274.205 465.964 273.365 464.5C272.525 463.036 272.105 461.38 272.105 459.532C272.105 457.684 272.525 456.028 273.365 454.564C274.205 453.1 275.357 451.96 276.821 451.144C278.285 450.328 279.929 449.92 281.753 449.92C283.577 449.92 285.221 450.328 286.685 451.144C288.149 451.96 289.289 453.1 290.105 454.564C290.945 456.028 291.365 457.684 291.365 459.532C291.365 461.38 290.945 463.036 290.105 464.5C289.289 465.964 288.149 467.116 286.685 467.956C285.221 468.772 283.577 469.18 281.753 469.18ZM281.753 466.912C283.097 466.912 284.297 466.612 285.353 466.012C286.433 465.388 287.273 464.512 287.873 463.384C288.473 462.256 288.773 460.972 288.773 459.532C288.773 458.092 288.473 456.808 287.873 455.68C287.273 454.552 286.433 453.688 285.353 453.088C284.297 452.464 283.097 452.152 281.753 452.152C280.409 452.152 279.197 452.464 278.117 453.088C277.061 453.688 276.221 454.552 275.597 455.68C274.997 456.808 274.697 458.092 274.697 459.532C274.697 460.972 274.997 462.256 275.597 463.384C276.221 464.512 277.061 465.388 278.117 466.012C279.197 466.612 280.409 466.912 281.753 466.912ZM301.66 469.18C300.124 469.18 298.648 468.964 297.232 468.532C295.84 468.076 294.748 467.512 293.956 466.84L295.108 464.824C295.9 465.448 296.896 465.964 298.096 466.372C299.296 466.756 300.544 466.948 301.84 466.948C303.568 466.948 304.84 466.684 305.656 466.156C306.496 465.604 306.916 464.836 306.916 463.852C306.916 463.156 306.688 462.616 306.232 462.232C305.776 461.824 305.2 461.524 304.504 461.332C303.808 461.116 302.884 460.912 301.732 460.72C300.196 460.432 298.96 460.144 298.024 459.856C297.088 459.544 296.284 459.028 295.612 458.308C294.964 457.588 294.64 456.592 294.64 455.32C294.64 453.736 295.3 452.44 296.62 451.432C297.94 450.424 299.776 449.92 302.128 449.92C303.352 449.92 304.576 450.088 305.8 450.424C307.024 450.736 308.032 451.156 308.824 451.684L307.708 453.736C306.148 452.656 304.288 452.116 302.128 452.116C300.496 452.116 299.26 452.404 298.42 452.98C297.604 453.556 297.196 454.312 297.196 455.248C297.196 455.968 297.424 456.544 297.88 456.976C298.36 457.408 298.948 457.732 299.644 457.948C300.34 458.14 301.3 458.344 302.524 458.56C304.036 458.848 305.248 459.136 306.16 459.424C307.072 459.712 307.852 460.204 308.5 460.9C309.148 461.596 309.472 462.556 309.472 463.78C309.472 465.436 308.776 466.756 307.384 467.74C306.016 468.7 304.108 469.18 301.66 469.18ZM319.273 469.18C317.737 469.18 316.261 468.964 314.845 468.532C313.453 468.076 312.361 467.512 311.569 466.84L312.721 464.824C313.513 465.448 314.509 465.964 315.709 466.372C316.909 466.756 318.157 466.948 319.453 466.948C321.181 466.948 322.453 466.684 323.269 466.156C324.109 465.604 324.529 464.836 324.529 463.852C324.529 463.156 324.301 462.616 323.845 462.232C323.389 461.824 322.813 461.524 322.117 461.332C321.421 461.116 320.497 460.912 319.345 460.72C317.809 460.432 316.573 460.144 315.637 459.856C314.701 459.544 313.897 459.028 313.225 458.308C312.577 457.588 312.253 456.592 312.253 455.32C312.253 453.736 312.913 452.44 314.233 451.432C315.553 450.424 317.389 449.92 319.741 449.92C320.965 449.92 322.189 450.088 323.413 450.424C324.637 450.736 325.645 451.156 326.437 451.684L325.321 453.736C323.761 452.656 321.901 452.116 319.741 452.116C318.109 452.116 316.873 452.404 316.033 452.98C315.217 453.556 314.809 454.312 314.809 455.248C314.809 455.968 315.037 456.544 315.493 456.976C315.973 457.408 316.561 457.732 317.257 457.948C317.953 458.14 318.913 458.344 320.137 458.56C321.649 458.848 322.861 459.136 323.773 459.424C324.685 459.712 325.465 460.204 326.113 460.9C326.761 461.596 327.085 462.556 327.085 463.78C327.085 465.436 326.389 466.756 324.997 467.74C323.629 468.7 321.721 469.18 319.273 469.18ZM331.81 450.064H334.366V469H331.81V450.064ZM333.106 445.924C332.578 445.924 332.134 445.744 331.774 445.384C331.414 445.024 331.234 444.592 331.234 444.088C331.234 443.608 331.414 443.188 331.774 442.828C332.134 442.468 332.578 442.288 333.106 442.288C333.634 442.288 334.078 442.468 334.438 442.828C334.798 443.164 334.978 443.572 334.978 444.052C334.978 444.58 334.798 445.024 334.438 445.384C334.078 445.744 333.634 445.924 333.106 445.924ZM351.234 449.92C353.01 449.92 354.618 450.328 356.058 451.144C357.498 451.936 358.626 453.064 359.442 454.528C360.258 455.992 360.666 457.66 360.666 459.532C360.666 461.404 360.258 463.072 359.442 464.536C358.626 466 357.498 467.14 356.058 467.956C354.618 468.772 353.01 469.18 351.234 469.18C349.65 469.18 348.222 468.844 346.95 468.172C345.702 467.5 344.694 466.528 343.926 465.256V469H341.478V442.288H344.034V453.664C344.826 452.44 345.834 451.516 347.058 450.892C348.306 450.244 349.698 449.92 351.234 449.92ZM351.054 466.912C352.374 466.912 353.574 466.612 354.654 466.012C355.734 465.388 356.574 464.512 357.174 463.384C357.798 462.256 358.11 460.972 358.11 459.532C358.11 458.092 357.798 456.808 357.174 455.68C356.574 454.552 355.734 453.688 354.654 453.088C353.574 452.464 352.374 452.152 351.054 452.152C349.71 452.152 348.498 452.464 347.418 453.088C346.362 453.688 345.522 454.552 344.898 455.68C344.298 456.808 343.998 458.092 343.998 459.532C343.998 460.972 344.298 462.256 344.898 463.384C345.522 464.512 346.362 465.388 347.418 466.012C348.498 466.612 349.71 466.912 351.054 466.912ZM365.877 450.064H368.433V469H365.877V450.064ZM367.173 445.924C366.645 445.924 366.201 445.744 365.841 445.384C365.481 445.024 365.301 444.592 365.301 444.088C365.301 443.608 365.481 443.188 365.841 442.828C366.201 442.468 366.645 442.288 367.173 442.288C367.701 442.288 368.145 442.468 368.505 442.828C368.865 443.164 369.045 443.572 369.045 444.052C369.045 444.58 368.865 445.024 368.505 445.384C368.145 445.744 367.701 445.924 367.173 445.924ZM375.544 442.288H378.1V469H375.544V442.288ZM385.212 450.064H387.768V469H385.212V450.064ZM386.508 445.924C385.98 445.924 385.536 445.744 385.176 445.384C384.816 445.024 384.636 444.592 384.636 444.088C384.636 443.608 384.816 443.188 385.176 442.828C385.536 442.468 385.98 442.288 386.508 442.288C387.036 442.288 387.48 442.468 387.84 442.828C388.2 443.164 388.38 443.572 388.38 444.052C388.38 444.58 388.2 445.024 387.84 445.384C387.48 445.744 387.036 445.924 386.508 445.924ZM404.852 467.848C404.372 468.28 403.772 468.616 403.052 468.856C402.356 469.072 401.624 469.18 400.856 469.18C399.08 469.18 397.712 468.7 396.752 467.74C395.792 466.78 395.312 465.424 395.312 463.672V452.224H391.928V450.064H395.312V445.924H397.868V450.064H403.628V452.224H397.868V463.528C397.868 464.656 398.144 465.52 398.696 466.12C399.272 466.696 400.088 466.984 401.144 466.984C401.672 466.984 402.176 466.9 402.656 466.732C403.16 466.564 403.592 466.324 403.952 466.012L404.852 467.848ZM409.505 450.064H412.061V469H409.505V450.064ZM410.801 445.924C410.273 445.924 409.829 445.744 409.469 445.384C409.109 445.024 408.929 444.592 408.929 444.088C408.929 443.608 409.109 443.188 409.469 442.828C409.829 442.468 410.273 442.288 410.801 442.288C411.329 442.288 411.773 442.468 412.133 442.828C412.493 443.164 412.673 443.572 412.673 444.052C412.673 444.58 412.493 445.024 412.133 445.384C411.773 445.744 411.329 445.924 410.801 445.924ZM435.661 460.324H419.821C419.965 462.292 420.721 463.888 422.089 465.112C423.457 466.312 425.185 466.912 427.273 466.912C428.449 466.912 429.529 466.708 430.513 466.3C431.497 465.868 432.349 465.244 433.069 464.428L434.509 466.084C433.669 467.092 432.613 467.86 431.341 468.388C430.093 468.916 428.713 469.18 427.201 469.18C425.257 469.18 423.529 468.772 422.017 467.956C420.529 467.116 419.365 465.964 418.525 464.5C417.685 463.036 417.265 461.38 417.265 459.532C417.265 457.684 417.661 456.028 418.453 454.564C419.269 453.1 420.373 451.96 421.765 451.144C423.181 450.328 424.765 449.92 426.517 449.92C428.269 449.92 429.841 450.328 431.233 451.144C432.625 451.96 433.717 453.1 434.509 454.564C435.301 456.004 435.697 457.66 435.697 459.532L435.661 460.324ZM426.517 452.116C424.693 452.116 423.157 452.704 421.909 453.88C420.685 455.032 419.989 456.544 419.821 458.416H433.249C433.081 456.544 432.373 455.032 431.125 453.88C429.901 452.704 428.365 452.116 426.517 452.116ZM445.976 469.18C444.44 469.18 442.964 468.964 441.548 468.532C440.156 468.076 439.064 467.512 438.272 466.84L439.424 464.824C440.216 465.448 441.212 465.964 442.412 466.372C443.612 466.756 444.86 466.948 446.156 466.948C447.884 466.948 449.156 466.684 449.972 466.156C450.812 465.604 451.232 464.836 451.232 463.852C451.232 463.156 451.004 462.616 450.548 462.232C450.092 461.824 449.516 461.524 448.82 461.332C448.124 461.116 447.2 460.912 446.048 460.72C444.512 460.432 443.276 460.144 442.34 459.856C441.404 459.544 440.6 459.028 439.928 458.308C439.28 457.588 438.956 456.592 438.956 455.32C438.956 453.736 439.616 452.44 440.936 451.432C442.256 450.424 444.092 449.92 446.444 449.92C447.668 449.92 448.892 450.088 450.116 450.424C451.34 450.736 452.348 451.156 453.14 451.684L452.024 453.736C450.464 452.656 448.604 452.116 446.444 452.116C444.812 452.116 443.576 452.404 442.736 452.98C441.92 453.556 441.512 454.312 441.512 455.248C441.512 455.968 441.74 456.544 442.196 456.976C442.676 457.408 443.264 457.732 443.96 457.948C444.656 458.14 445.616 458.344 446.84 458.56C448.352 458.848 449.564 459.136 450.476 459.424C451.388 459.712 452.168 460.204 452.816 460.9C453.464 461.596 453.788 462.556 453.788 463.78C453.788 465.436 453.092 466.756 451.7 467.74C450.332 468.7 448.424 469.18 445.976 469.18Z" fill="white"/>
<path d="M269.946 236.8C273.09 236.8 275.514 237.496 277.218 238.888C278.946 240.256 279.81 242.176 279.81 244.648C279.81 246.76 279.306 248.608 278.298 250.192C277.314 251.752 275.898 252.952 274.05 253.792C272.226 254.632 270.066 255.052 267.57 255.052H261.954L260.586 262H254.718L259.758 236.8H269.946ZM267.822 250.3C269.766 250.3 271.266 249.856 272.322 248.968C273.378 248.08 273.906 246.808 273.906 245.152C273.906 243.952 273.498 243.052 272.682 242.452C271.89 241.852 270.738 241.552 269.226 241.552H264.654L262.89 250.3H267.822ZM305.897 244.612C305.897 246.964 305.261 248.98 303.989 250.66C302.717 252.34 300.953 253.528 298.697 254.224L303.089 262H296.933L292.973 254.944H288.005L286.601 262H280.733L285.773 236.8H296.033C299.153 236.8 301.577 237.484 303.305 238.852C305.033 240.22 305.897 242.14 305.897 244.612ZM293.873 250.3C295.817 250.3 297.317 249.856 298.373 248.968C299.453 248.08 299.993 246.808 299.993 245.152C299.993 243.952 299.585 243.052 298.769 242.452C297.953 241.852 296.789 241.552 295.277 241.552H290.669L288.905 250.3H293.873ZM320.274 262.432C317.754 262.432 315.57 261.976 313.722 261.064C311.874 260.152 310.458 258.868 309.474 257.212C308.49 255.556 307.998 253.648 307.998 251.488C307.998 248.632 308.646 246.064 309.942 243.784C311.262 241.48 313.098 239.668 315.45 238.348C317.826 237.028 320.538 236.368 323.586 236.368C326.106 236.368 328.29 236.824 330.138 237.736C331.986 238.648 333.402 239.932 334.386 241.588C335.37 243.244 335.862 245.152 335.862 247.312C335.862 250.168 335.202 252.748 333.882 255.052C332.586 257.332 330.75 259.132 328.374 260.452C326.022 261.772 323.322 262.432 320.274 262.432ZM320.778 257.464C322.626 257.464 324.246 257.02 325.638 256.132C327.03 255.244 328.098 254.056 328.842 252.568C329.586 251.08 329.958 249.436 329.958 247.636C329.958 245.716 329.358 244.192 328.158 243.064C326.958 241.912 325.266 241.336 323.082 241.336C321.234 241.336 319.614 241.78 318.222 242.668C316.83 243.556 315.762 244.744 315.018 246.232C314.274 247.72 313.902 249.364 313.902 251.164C313.902 253.084 314.502 254.62 315.702 255.772C316.902 256.9 318.594 257.464 320.778 257.464ZM358.749 249.004C359.829 249.436 360.657 250.084 361.233 250.948C361.833 251.788 362.133 252.82 362.133 254.044C362.133 256.66 361.101 258.64 359.037 259.984C356.973 261.328 354.225 262 350.793 262H337.581L342.621 236.8H354.789C357.501 236.8 359.589 237.304 361.053 238.312C362.517 239.296 363.249 240.712 363.249 242.56C363.249 244.096 362.841 245.416 362.025 246.52C361.233 247.6 360.141 248.428 358.749 249.004ZM347.517 241.192L346.329 247.132H352.269C353.805 247.132 354.993 246.832 355.833 246.232C356.697 245.608 357.129 244.72 357.129 243.568C357.129 241.984 355.893 241.192 353.421 241.192H347.517ZM351.153 257.608C352.785 257.608 354.057 257.296 354.969 256.672C355.881 256.048 356.337 255.148 356.337 253.972C356.337 252.244 355.077 251.38 352.557 251.38H345.501L344.277 257.608H351.153ZM370.148 236.8H376.016L371.912 257.248H384.548L383.576 262H365.108L370.148 236.8ZM396.735 241.48L395.655 246.952H407.355L406.455 251.488H394.719L393.567 257.32H407.319L406.347 262H386.835L391.875 236.8H410.919L409.947 241.48H396.735ZM444.395 236.8L439.391 262H433.919L436.871 247.024L427.259 259.336H424.667L419.483 246.88L416.459 262H410.987L416.027 236.8H420.779L427.079 252.496L439.391 236.8H444.395Z" fill="white"/>
<path d="M219.721 137.325C221.029 135.789 220.836 133.494 219.295 132.197C217.743 130.892 215.437 131.088 214.136 132.62C213.328 133.568 212.53 134.521 211.747 135.484C210.471 137.044 210.714 139.336 212.283 140.601C212.963 141.148 213.778 141.415 214.586 141.415C215.652 141.415 216.71 140.957 217.432 140.068C218.187 139.148 218.948 138.231 219.721 137.325Z" fill="white"/>
<path d="M201.883 155.58C202.495 155.971 203.181 156.156 203.857 156.156C205.062 156.156 206.242 155.566 206.943 154.482C207.59 153.48 208.248 152.488 208.913 151.504C210.04 149.834 209.593 147.574 207.916 146.454C206.239 145.328 203.957 145.779 202.835 147.446C202.141 148.473 201.454 149.507 200.779 150.552C199.688 152.24 200.181 154.493 201.883 155.58Z" fill="white"/>
<path d="M232.027 124.428C233.496 123.049 233.564 120.747 232.177 119.282C230.786 117.825 228.472 117.758 226.999 119.133C226.095 119.986 225.194 120.846 224.303 121.717C222.866 123.131 222.851 125.434 224.271 126.866C224.99 127.584 225.934 127.946 226.878 127.946C227.807 127.946 228.737 127.598 229.452 126.898C230.3 126.063 231.158 125.238 232.027 124.428Z" fill="white"/>
<path d="M193.22 171.607C193.746 171.867 194.3 171.987 194.847 171.987C196.195 171.987 197.489 171.248 198.129 169.969C198.662 168.903 199.206 167.84 199.756 166.792C200.693 165.011 200.003 162.812 198.212 161.881C196.417 160.943 194.207 161.639 193.27 163.416C192.691 164.514 192.126 165.619 191.572 166.728C190.67 168.53 191.411 170.712 193.22 171.607Z" fill="white"/>
<path d="M278.239 90.0328C277.413 88.1955 275.243 87.3782 273.401 88.2026C272.257 88.7108 271.124 89.2368 270.001 89.7698C268.177 90.6405 267.405 92.8118 268.277 94.6242C268.907 95.9319 270.219 96.6924 271.585 96.6924C272.114 96.6924 272.654 96.5787 273.162 96.337C274.234 95.8253 275.311 95.3278 276.398 94.8409C278.243 94.02 279.069 91.8665 278.239 90.0328Z" fill="white"/>
<path d="M246.407 107.854C245.191 106.255 242.895 105.928 241.279 107.136C240.285 107.882 239.298 108.639 238.322 109.403C236.731 110.647 236.459 112.936 237.707 114.514C238.429 115.427 239.506 115.903 240.589 115.903C241.379 115.903 242.18 115.647 242.849 115.125C243.789 114.389 244.733 113.661 245.684 112.95C247.301 111.738 247.622 109.457 246.407 107.854Z" fill="white"/>
<path d="M261.823 98.0499C260.786 96.3228 258.537 95.7507 256.803 96.7848C255.73 97.4209 254.668 98.0606 253.617 98.7145C251.901 99.777 251.375 102.019 252.444 103.725C253.138 104.834 254.332 105.442 255.555 105.442C256.216 105.442 256.885 105.264 257.486 104.891C258.501 104.265 259.52 103.647 260.55 103.039C262.288 102.012 262.856 99.777 261.823 98.0499Z" fill="white"/>
<path d="M288.496 89.7656C288.896 89.7656 289.307 89.7016 289.708 89.5594L291.081 89.0939C293.001 88.4649 294.042 86.4038 293.405 84.4954C292.772 82.5907 290.713 81.553 288.778 82.1855L287.284 82.6937C285.374 83.3583 284.373 85.4336 285.042 87.3313C285.571 88.8274 286.983 89.7656 288.496 89.7656Z" fill="white"/>
<path d="M267.544 382.529C266.485 381.971 265.434 381.403 264.387 380.827C262.62 379.843 260.389 380.482 259.409 382.241C258.426 383.997 259.066 386.214 260.832 387.188C261.923 387.792 263.017 388.382 264.118 388.961C264.662 389.249 265.248 389.384 265.828 389.384C267.14 389.384 268.409 388.681 269.067 387.448C270.015 385.674 269.332 383.471 267.544 382.529Z" fill="white"/>
<path d="M235.285 360.223C233.776 358.887 231.459 359.018 230.115 360.522C228.77 362.025 228.906 364.324 230.415 365.66C231.345 366.481 232.281 367.295 233.225 368.098C233.915 368.688 234.763 368.976 235.607 368.976C236.637 368.976 237.663 368.546 238.385 367.704C239.704 366.179 239.526 363.883 237.988 362.576C237.08 361.801 236.179 361.016 235.285 360.223Z" fill="white"/>
<path d="M195.461 306.061C194.974 304.981 194.499 303.893 194.038 302.802C193.251 300.947 191.102 300.091 189.243 300.858C187.38 301.637 186.504 303.769 187.287 305.624C187.769 306.765 188.266 307.902 188.774 309.032C189.382 310.382 190.719 311.185 192.121 311.185C192.618 311.185 193.126 311.086 193.612 310.869C195.457 310.048 196.287 307.895 195.461 306.061Z" fill="white"/>
<path d="M283.815 389.947C282.699 389.51 281.591 389.065 280.493 388.61C278.616 387.818 276.481 388.706 275.702 390.558C274.919 392.413 275.798 394.545 277.661 395.32C278.816 395.803 279.975 396.269 281.14 396.72C281.58 396.891 282.031 396.972 282.478 396.972C283.94 396.972 285.32 396.095 285.885 394.662C286.625 392.79 285.696 390.679 283.815 389.947Z" fill="white"/>
<path d="M249.263 371.332C247.611 370.163 245.33 370.547 244.157 372.185C242.984 373.823 243.367 376.094 245.015 377.26C246.031 377.981 247.057 378.688 248.09 379.385C248.72 379.811 249.435 380.014 250.143 380.014C251.316 380.014 252.467 379.456 253.175 378.418C254.312 376.755 253.876 374.491 252.202 373.365C251.212 372.697 250.236 372.018 249.263 371.332Z" fill="white"/>
<path d="M211.44 333.787C210.264 332.156 207.979 331.776 206.33 332.945C204.686 334.118 204.307 336.388 205.483 338.023C206.209 339.032 206.945 340.027 207.689 341.019C208.408 341.975 209.509 342.479 210.625 342.479C211.386 342.479 212.155 342.245 212.813 341.754C214.433 340.553 214.765 338.272 213.553 336.662C212.838 335.713 212.137 334.754 211.44 333.787Z" fill="white"/>
<path d="M222.623 347.661C221.268 346.162 218.955 346.041 217.453 347.384C215.948 348.727 215.822 351.027 217.174 352.523C218.007 353.443 218.847 354.36 219.698 355.263C220.421 356.027 221.397 356.414 222.373 356.414C223.271 356.414 224.168 356.087 224.876 355.433C226.353 354.058 226.428 351.755 225.048 350.288C224.232 349.42 223.421 348.546 222.623 347.661Z" fill="white"/>
<path d="M201.868 318.772C200.878 317.02 198.647 316.395 196.884 317.372C195.121 318.353 194.488 320.571 195.475 322.326C196.083 323.403 196.705 324.48 197.334 325.546C198.017 326.701 199.24 327.34 200.495 327.34C201.125 327.34 201.765 327.18 202.348 326.839C204.092 325.819 204.672 323.588 203.649 321.857C203.041 320.834 202.448 319.807 201.868 318.772Z" fill="white"/>
<path d="M390.24 393.848C389.099 394.196 387.955 394.534 386.804 394.864C384.859 395.415 383.736 397.43 384.294 399.363C384.751 400.962 386.218 402 387.812 402C388.145 402 388.484 401.954 388.821 401.858C390.015 401.52 391.209 401.168 392.393 400.806C394.327 400.212 395.411 398.176 394.817 396.257C394.22 394.342 392.182 393.247 390.24 393.848Z" fill="white"/>
<path d="M406.991 387.669C405.9 388.141 404.802 388.603 403.701 389.051C401.831 389.815 400.934 391.94 401.699 393.799C402.282 395.206 403.647 396.059 405.088 396.059C405.553 396.059 406.022 395.974 406.476 395.789C407.627 395.32 408.775 394.837 409.916 394.343C411.771 393.539 412.619 391.393 411.811 389.552C411.006 387.715 408.854 386.869 406.991 387.669Z" fill="white"/>
<path d="M437.928 369.957C436.967 370.657 435.994 371.35 435.018 372.032C433.366 373.187 432.965 375.458 434.128 377.104C434.839 378.109 435.976 378.649 437.128 378.649C437.853 378.649 438.59 378.436 439.23 377.988C440.249 377.278 441.257 376.556 442.262 375.821C443.893 374.63 444.243 372.356 443.045 370.735C441.851 369.115 439.552 368.763 437.928 369.957Z" fill="white"/>
<path d="M496.914 298.574C495.055 297.831 492.906 298.723 492.147 300.589C491.701 301.69 491.243 302.792 490.771 303.886C489.977 305.734 490.842 307.874 492.702 308.663C493.17 308.862 493.656 308.954 494.139 308.954C495.559 308.954 496.914 308.126 497.507 306.744C497.994 305.606 498.473 304.462 498.941 303.311C499.696 301.449 498.791 299.327 496.914 298.574Z" fill="white"/>
<path d="M489.503 315.219C487.726 314.267 485.502 314.931 484.544 316.701C483.983 317.742 483.407 318.776 482.813 319.803C481.809 321.548 482.416 323.773 484.172 324.771C484.748 325.098 485.374 325.251 485.989 325.251C487.258 325.251 488.495 324.594 489.171 323.421C489.793 322.337 490.397 321.246 490.994 320.148C491.953 318.378 491.284 316.172 489.503 315.219Z" fill="white"/>
<path d="M502.406 281.21C500.453 280.663 498.437 281.8 497.897 283.737C497.575 284.884 497.242 286.029 496.895 287.169C496.309 289.096 497.407 291.125 499.341 291.704C499.695 291.811 500.049 291.86 500.4 291.86C501.973 291.86 503.428 290.848 503.904 289.273C504.265 288.083 504.612 286.889 504.948 285.691C505.491 283.754 504.354 281.747 502.406 281.21Z" fill="white"/>
<path d="M422.955 379.669C421.925 380.259 420.888 380.838 419.844 381.403C418.067 382.367 417.412 384.577 418.381 386.34C419.047 387.551 420.302 388.237 421.6 388.237C422.193 388.237 422.794 388.095 423.348 387.793C424.442 387.2 425.529 386.592 426.609 385.974C428.361 384.971 428.965 382.747 427.954 381.005C426.945 379.264 424.71 378.664 422.955 379.669Z" fill="white"/>
<path d="M451.739 358.652C450.86 359.455 449.969 360.247 449.072 361.033C447.556 362.365 447.413 364.665 448.75 366.171C449.476 366.985 450.484 367.401 451.496 367.401C452.358 367.401 453.223 367.102 453.921 366.491C454.854 365.67 455.78 364.842 456.695 364.004C458.186 362.643 458.279 360.343 456.91 358.865C455.548 357.383 453.22 357.287 451.739 358.652Z" fill="white"/>
<path d="M475.189 331.865C474.513 332.842 473.819 333.809 473.122 334.768C471.935 336.396 472.3 338.67 473.937 339.85C474.588 340.319 475.339 340.543 476.083 340.543C477.216 340.543 478.336 340.021 479.051 339.04C479.784 338.038 480.506 337.021 481.218 336.001C482.365 334.345 481.947 332.082 480.284 330.937C478.614 329.8 476.34 330.209 475.189 331.865Z" fill="white"/>
<path d="M464.206 345.909C463.423 346.804 462.63 347.689 461.829 348.563C460.47 350.052 460.581 352.352 462.075 353.706C462.78 354.338 463.659 354.651 464.539 354.651C465.533 354.651 466.527 354.249 467.249 353.46C468.086 352.544 468.916 351.616 469.734 350.678C471.061 349.16 470.897 346.865 469.37 345.546C467.843 344.224 465.529 344.384 464.206 345.909Z" fill="white"/>
<path d="M493.652 184.93C494.067 186.039 494.467 187.151 494.86 188.267C495.386 189.771 496.802 190.712 498.318 190.712C498.719 190.712 499.123 190.648 499.52 190.51C501.433 189.849 502.441 187.777 501.776 185.879C501.368 184.707 500.946 183.544 500.51 182.386C499.806 180.503 497.692 179.55 495.801 180.25C493.906 180.95 492.944 183.047 493.652 184.93Z" fill="white"/>
<path d="M498.94 201.895C499.229 203.039 499.505 204.187 499.766 205.342C500.148 207.034 501.661 208.182 503.334 208.182C503.602 208.182 503.871 208.153 504.142 208.093C506.116 207.652 507.353 205.705 506.91 203.743C506.635 202.531 506.345 201.319 506.041 200.118C505.548 198.171 503.552 196.991 501.596 197.478C499.637 197.968 498.446 199.944 498.94 201.895Z" fill="white"/>
<path d="M486.48 168.661C487.016 169.717 487.542 170.779 488.053 171.845C488.682 173.153 489.995 173.913 491.36 173.913C491.89 173.913 492.43 173.8 492.937 173.558C494.761 172.687 495.533 170.516 494.661 168.704C494.121 167.588 493.574 166.476 493.009 165.37C492.097 163.579 489.902 162.851 488.089 163.771C486.287 164.677 485.564 166.866 486.48 168.661Z" fill="white"/>
<path d="M394.171 89.0906C395.301 89.4673 396.427 89.8582 397.547 90.2633C397.961 90.4126 398.383 90.4836 398.802 90.4836C400.296 90.4836 401.701 89.5668 402.241 88.092C402.935 86.2014 401.955 84.1154 400.057 83.426C398.88 82.9996 397.697 82.5873 396.51 82.1893C394.579 81.5568 392.512 82.5802 391.868 84.4779C391.225 86.3862 392.255 88.4474 394.171 89.0906Z" fill="white"/>
<path d="M479.458 156.259C480.152 157.368 481.346 157.979 482.573 157.979C483.231 157.979 483.899 157.802 484.5 157.432C486.22 156.373 486.746 154.127 485.68 152.421C485.019 151.366 484.346 150.318 483.66 149.28C482.555 147.603 480.281 147.126 478.589 148.235C476.898 149.337 476.43 151.593 477.538 153.274C478.189 154.262 478.833 155.254 479.458 156.259Z" fill="white"/>
<path d="M469.166 141.717C469.888 142.63 470.964 143.106 472.048 143.106C472.838 143.106 473.639 142.851 474.307 142.328C475.899 141.084 476.17 138.796 474.922 137.218C474.15 136.241 473.367 135.278 472.573 134.322C471.286 132.776 468.983 132.552 467.417 133.831C465.858 135.111 465.636 137.403 466.924 138.956C467.682 139.869 468.429 140.789 469.166 141.717Z" fill="white"/>
<path d="M418.915 95.6152C419.816 93.8135 419.076 91.6316 417.267 90.736C416.144 90.1816 415.018 89.645 413.884 89.1155C412.057 88.2698 409.872 89.0551 409.014 90.8711C408.16 92.6906 408.95 94.8583 410.781 95.7112C411.864 96.2123 412.94 96.7275 414.006 97.2535C414.531 97.5129 415.086 97.6337 415.633 97.6337C416.981 97.6337 418.275 96.8946 418.915 95.6152Z" fill="white"/>
<path d="M448.704 110.801C447.728 110.015 446.752 109.244 445.765 108.484C444.167 107.258 441.868 107.549 440.627 109.134C439.39 110.723 439.683 113.011 441.281 114.241C442.225 114.966 443.158 115.701 444.085 116.451C444.764 116.998 445.583 117.265 446.391 117.265C447.456 117.265 448.515 116.806 449.237 115.918C450.51 114.358 450.274 112.069 448.704 110.801Z" fill="white"/>
<path d="M462.547 123.281C461.671 122.4 460.788 121.529 459.894 120.669C458.442 119.265 456.118 119.305 454.716 120.74C453.304 122.183 453.34 124.486 454.788 125.886C455.646 126.718 456.493 127.553 457.334 128.398C458.052 129.116 458.996 129.479 459.94 129.479C460.87 129.479 461.8 129.13 462.515 128.43C463.952 127.016 463.966 124.713 462.547 123.281Z" fill="white"/>
<path d="M434.65 104.922C435.74 103.234 435.247 100.981 433.545 99.8937C432.494 99.2221 431.435 98.5646 430.366 97.9179C428.646 96.8695 426.387 97.4168 425.335 99.1297C424.28 100.846 424.828 103.085 426.555 104.13C427.574 104.748 428.582 105.377 429.59 106.02C430.202 106.411 430.888 106.596 431.564 106.596C432.769 106.596 433.949 106.006 434.65 104.922Z" fill="white"/>
</svg>
