<svg width="685" height="569" viewBox="0 0 685 569" fill="none" xmlns="http://www.w3.org/2000/svg">
<rect x="51" width="159" height="302" rx="8" fill="#F2F2F2"/>
<path fill-rule="evenodd" clip-rule="evenodd" d="M130 283C138.284 283 145 276.284 145 268C145 259.716 138.284 253 130 253C121.716 253 115 259.716 115 268C115 276.284 121.716 283 130 283Z" fill="white"/>
<path fill-rule="evenodd" clip-rule="evenodd" d="M117 20C118.105 20 119 19.1046 119 18C119 16.8954 118.105 16 117 16C115.895 16 115 16.8954 115 18C115 19.1046 115.895 20 117 20Z" fill="white"/>
<rect x="124" y="16" width="21" height="4" rx="2" fill="white"/>
<rect x="65" y="28" width="131" height="54" rx="4" fill="white"/>
<g clip-path="url(#clip0)">
<rect x="104" y="44.2002" width="73" height="8.1" rx="3" fill="#DDE3E9"/>
<rect x="104" y="57.7002" width="49" height="8.1" rx="3" fill="#DDE3E9"/>
</g>
<path fill-rule="evenodd" clip-rule="evenodd" d="M86 67C92.6274 67 98 61.6274 98 55C98 48.3726 92.6274 43 86 43C79.3726 43 74 48.3726 74 55C74 61.6274 79.3726 67 86 67Z" fill="#C5CFD6"/>
<rect x="65" y="90" width="131" height="42" rx="4" fill="white"/>
<g clip-path="url(#clip1)">
<rect x="104" y="102.6" width="73" height="6.3" rx="3" fill="#DDE3E9"/>
<rect x="104" y="113.1" width="49" height="6.3" rx="3" fill="#DDE3E9"/>
</g>
<path fill-rule="evenodd" clip-rule="evenodd" d="M86 123C92.6274 123 98 117.627 98 111C98 104.373 92.6274 99 86 99C79.3726 99 74 104.373 74 111C74 117.627 79.3726 123 86 123Z" fill="#C5CFD6"/>
<rect x="65" y="140" width="131" height="42" rx="4" fill="white"/>
<g clip-path="url(#clip2)">
<rect x="104" y="152.6" width="73" height="6.3" rx="3" fill="#DDE3E9"/>
<rect x="104" y="163.1" width="49" height="6.3" rx="3" fill="#DDE3E9"/>
</g>
<path fill-rule="evenodd" clip-rule="evenodd" d="M86 173C92.6274 173 98 167.627 98 161C98 154.373 92.6274 149 86 149C79.3726 149 74 154.373 74 161C74 167.627 79.3726 173 86 173Z" fill="#AFB9C5"/>
<rect x="65" y="190" width="131" height="42" rx="4" fill="white"/>
<g clip-path="url(#clip3)">
<rect x="104" y="202.6" width="73" height="6.3" rx="3" fill="#DDE3E9"/>
<rect x="104" y="213.1" width="49" height="6.3" rx="3" fill="#DDE3E9"/>
</g>
<path fill-rule="evenodd" clip-rule="evenodd" d="M86 223C92.6274 223 98 217.627 98 211C98 204.373 92.6274 199 86 199C79.3726 199 74 204.373 74 211C74 217.627 79.3726 223 86 223Z" fill="#C5CFD6"/>
<rect x="117" y="26" width="159" height="302" rx="8" fill="#DDE3E9"/>
<path fill-rule="evenodd" clip-rule="evenodd" d="M196 309C204.284 309 211 302.284 211 294C211 285.716 204.284 279 196 279C187.716 279 181 285.716 181 294C181 302.284 187.716 309 196 309Z" fill="white"/>
<path fill-rule="evenodd" clip-rule="evenodd" d="M183 46C184.105 46 185 45.1046 185 44C185 42.8954 184.105 42 183 42C181.895 42 181 42.8954 181 44C181 45.1046 181.895 46 183 46Z" fill="white"/>
<rect x="190" y="42" width="21" height="4" rx="2" fill="white"/>
<rect x="131" y="54" width="131" height="54" rx="4" fill="white"/>
<g clip-path="url(#clip4)">
<rect x="140" y="70.2002" width="73" height="8.1" rx="3" fill="#DDE3E9"/>
<rect x="140" y="83.7002" width="49" height="8.1" rx="3" fill="#DDE3E9"/>
</g>
<path fill-rule="evenodd" clip-rule="evenodd" d="M248 88C251.866 88 255 84.866 255 81C255 77.134 251.866 74 248 74C244.134 74 241 77.134 241 81C241 84.866 244.134 88 248 88Z" fill="#DDE3E9"/>
<path fill-rule="evenodd" clip-rule="evenodd" d="M248 84C249.657 84 251 82.6569 251 81C251 79.3431 249.657 78 248 78C246.343 78 245 79.3431 245 81C245 82.6569 246.343 84 248 84Z" fill="#F2F2F2"/>
<rect x="131" y="116" width="131" height="42" rx="4" fill="white"/>
<g clip-path="url(#clip5)">
<rect x="170" y="128.6" width="73" height="6.3" rx="3" fill="#DDE3E9"/>
<rect x="170" y="139.1" width="49" height="6.3" rx="3" fill="#DDE3E9"/>
</g>
<path fill-rule="evenodd" clip-rule="evenodd" d="M152 149C158.627 149 164 143.627 164 137C164 130.373 158.627 125 152 125C145.373 125 140 130.373 140 137C140 143.627 145.373 149 152 149Z" fill="#C5CFD6"/>
<rect x="131" y="166" width="131" height="42" rx="4" fill="white"/>
<g clip-path="url(#clip6)">
<rect x="140" y="178.6" width="73" height="6.3" rx="3" fill="#DDE3E9"/>
<rect x="140" y="189.1" width="49" height="6.3" rx="3" fill="#AFB9C5"/>
</g>
<path fill-rule="evenodd" clip-rule="evenodd" d="M248 194C251.866 194 255 190.866 255 187C255 183.134 251.866 180 248 180C244.134 180 241 183.134 241 187C241 190.866 244.134 194 248 194Z" fill="#DDE3E9"/>
<path fill-rule="evenodd" clip-rule="evenodd" d="M248 190C249.657 190 251 188.657 251 187C251 185.343 249.657 184 248 184C246.343 184 245 185.343 245 187C245 188.657 246.343 190 248 190Z" fill="#F2F2F2"/>
<rect x="131" y="216" width="131" height="42" rx="4" fill="white"/>
<g clip-path="url(#clip7)">
<rect x="170" y="228.6" width="73" height="6.3" rx="3" fill="#DDE3E9"/>
<rect x="170" y="239.1" width="49" height="6.3" rx="3" fill="#DDE3E9"/>
</g>
<path fill-rule="evenodd" clip-rule="evenodd" d="M152 249C158.627 249 164 243.627 164 237C164 230.373 158.627 225 152 225C145.373 225 140 230.373 140 237C140 243.627 145.373 249 152 249Z" fill="#C5CFD6"/>
<rect x="183" y="51" width="335" height="346" rx="8" fill="#F2F2F2"/>
<rect x="432" y="94" width="70" height="81" rx="8" fill="white"/>
<path fill-rule="evenodd" clip-rule="evenodd" d="M467 141C475.837 141 483 133.837 483 125C483 116.163 475.837 109 467 109C458.163 109 451 116.163 451 125C451 133.837 458.163 141 467 141Z" fill="#DDE3E9"/>
<rect x="442" y="145" width="50" height="6" rx="3" fill="#DDE3E9"/>
<rect x="450" y="155" width="34" height="6" rx="3" fill="#DDE3E9"/>
<path d="M183 59C183 54.5817 186.582 51 191 51H510C514.418 51 518 54.5817 518 59V78H183V59Z" fill="#C5CFD6"/>
<path fill-rule="evenodd" clip-rule="evenodd" d="M196 69C198.209 69 200 67.2091 200 65C200 62.7909 198.209 61 196 61C193.791 61 192 62.7909 192 65C192 67.2091 193.791 69 196 69Z" fill="#F2F2F2"/>
<path fill-rule="evenodd" clip-rule="evenodd" d="M208 69C210.209 69 212 67.2091 212 65C212 62.7909 210.209 61 208 61C205.791 61 204 62.7909 204 65C204 67.2091 205.791 69 208 69Z" fill="#F2F2F2"/>
<path fill-rule="evenodd" clip-rule="evenodd" d="M220 69C222.209 69 224 67.2091 224 65C224 62.7909 222.209 61 220 61C217.791 61 216 62.7909 216 65C216 67.2091 217.791 69 220 69Z" fill="#F2F2F2"/>
<rect x="432" y="183" width="70" height="194" rx="8" fill="white"/>
<rect x="450" y="201" width="34" height="26" rx="4" fill="#DDE3E9"/>
<rect x="450" y="235" width="34" height="25" rx="4" fill="#AFB9C5"/>
<rect x="450" y="268" width="34" height="25" rx="4" fill="#DDE3E9"/>
<rect x="450" y="334" width="34" height="25" rx="4" fill="#DDE3E9"/>
<rect x="450" y="301" width="34" height="25" rx="4" fill="#C5CFD6"/>
<rect x="199" y="95" width="225" height="47" rx="4" fill="white"/>
<g clip-path="url(#clip8)">
<rect x="208" y="109.1" width="167" height="7.05" rx="3" fill="#DDE3E9"/>
<rect x="208" y="120.85" width="112.096" height="7.05" rx="3" fill="#DDE3E9"/>
</g>
<path fill-rule="evenodd" clip-rule="evenodd" d="M399.954 125.5C403.82 125.5 406.954 122.366 406.954 118.5C406.954 114.634 403.82 111.5 399.954 111.5C396.088 111.5 392.954 114.634 392.954 118.5C392.954 122.366 396.088 125.5 399.954 125.5Z" fill="#DDE3E9"/>
<path fill-rule="evenodd" clip-rule="evenodd" d="M399.954 121.5C401.611 121.5 402.954 120.157 402.954 118.5C402.954 116.843 401.611 115.5 399.954 115.5C398.297 115.5 396.954 116.843 396.954 118.5C396.954 120.157 398.297 121.5 399.954 121.5Z" fill="#F2F2F2"/>
<rect x="199" y="150" width="225" height="39" rx="4" fill="white"/>
<g clip-path="url(#clip9)">
<rect x="208" y="161.7" width="167" height="5.85" rx="2.925" fill="#DDE3E9"/>
<rect x="208" y="171.45" width="112.096" height="5.85" rx="2.925" fill="#DDE3E9"/>
</g>
<path fill-rule="evenodd" clip-rule="evenodd" d="M399.954 176.5C403.82 176.5 406.954 173.366 406.954 169.5C406.954 165.634 403.82 162.5 399.954 162.5C396.088 162.5 392.954 165.634 392.954 169.5C392.954 173.366 396.088 176.5 399.954 176.5Z" fill="#DDE3E9"/>
<path fill-rule="evenodd" clip-rule="evenodd" d="M399.954 172.5C401.611 172.5 402.954 171.157 402.954 169.5C402.954 167.843 401.611 166.5 399.954 166.5C398.297 166.5 396.954 167.843 396.954 169.5C396.954 171.157 398.297 172.5 399.954 172.5Z" fill="#F2F2F2"/>
<rect x="199" y="197" width="225" height="39" rx="4" fill="white"/>
<g clip-path="url(#clip10)">
<rect x="208" y="208.7" width="167" height="5.85" rx="2.925" fill="#DDE3E9"/>
<rect x="208" y="218.45" width="112.096" height="5.85" rx="2.925" fill="#DDE3E9"/>
</g>
<path fill-rule="evenodd" clip-rule="evenodd" d="M399.954 223.5C403.82 223.5 406.954 220.366 406.954 216.5C406.954 212.634 403.82 209.5 399.954 209.5C396.088 209.5 392.954 212.634 392.954 216.5C392.954 220.366 396.088 223.5 399.954 223.5Z" fill="#DDE3E9"/>
<path fill-rule="evenodd" clip-rule="evenodd" d="M399.954 219.5C401.611 219.5 402.954 218.157 402.954 216.5C402.954 214.843 401.611 213.5 399.954 213.5C398.297 213.5 396.954 214.843 396.954 216.5C396.954 218.157 398.297 219.5 399.954 219.5Z" fill="#AFB9C5"/>
<rect x="199" y="338" width="225" height="39" rx="4" fill="white"/>
<g clip-path="url(#clip11)">
<rect x="208" y="349.7" width="167" height="5.85" rx="2.925" fill="#DDE3E9"/>
<rect x="208" y="359.45" width="112.096" height="5.85" rx="2.925" fill="#DDE3E9"/>
</g>
<path fill-rule="evenodd" clip-rule="evenodd" d="M399.954 364.5C403.82 364.5 406.954 361.366 406.954 357.5C406.954 353.634 403.82 350.5 399.954 350.5C396.088 350.5 392.954 353.634 392.954 357.5C392.954 361.366 396.088 364.5 399.954 364.5Z" fill="#DDE3E9"/>
<path fill-rule="evenodd" clip-rule="evenodd" d="M399.954 360.5C401.611 360.5 402.954 359.157 402.954 357.5C402.954 355.843 401.611 354.5 399.954 354.5C398.297 354.5 396.954 355.843 396.954 357.5C396.954 359.157 398.297 360.5 399.954 360.5Z" fill="#F2F2F2"/>
<rect x="199" y="291" width="225" height="39" rx="4" fill="white"/>
<g clip-path="url(#clip12)">
<rect x="208" y="302.7" width="167" height="5.85" rx="2.925" fill="#DDE3E9"/>
<rect x="208" y="312.45" width="112.096" height="5.85" rx="2.925" fill="#DDE3E9"/>
</g>
<path fill-rule="evenodd" clip-rule="evenodd" d="M399.954 317.5C403.82 317.5 406.954 314.366 406.954 310.5C406.954 306.634 403.82 303.5 399.954 303.5C396.088 303.5 392.954 306.634 392.954 310.5C392.954 314.366 396.088 317.5 399.954 317.5Z" fill="#DDE3E9"/>
<path fill-rule="evenodd" clip-rule="evenodd" d="M399.954 313.5C401.611 313.5 402.954 312.157 402.954 310.5C402.954 308.843 401.611 307.5 399.954 307.5C398.297 307.5 396.954 308.843 396.954 310.5C396.954 312.157 398.297 313.5 399.954 313.5Z" fill="#F2F2F2"/>
<rect x="199" y="244" width="225" height="39" rx="4" fill="white"/>
<g clip-path="url(#clip13)">
<rect x="208" y="255.7" width="167" height="5.85" rx="2.925" fill="#DDE3E9"/>
<rect x="208" y="265.45" width="112.096" height="5.85" rx="2.925" fill="#DDE3E9"/>
</g>
<path fill-rule="evenodd" clip-rule="evenodd" d="M399.954 270.5C403.82 270.5 406.954 267.366 406.954 263.5C406.954 259.634 403.82 256.5 399.954 256.5C396.088 256.5 392.954 259.634 392.954 263.5C392.954 267.366 396.088 270.5 399.954 270.5Z" fill="#DDE3E9"/>
<path fill-rule="evenodd" clip-rule="evenodd" d="M399.954 266.5C401.611 266.5 402.954 265.157 402.954 263.5C402.954 261.843 401.611 260.5 399.954 260.5C398.297 260.5 396.954 261.843 396.954 263.5C396.954 265.157 398.297 266.5 399.954 266.5Z" fill="#F2F2F2"/>
<path fill-rule="evenodd" clip-rule="evenodd" d="M252.783 329.459L219.054 339.544L227.671 353.853L253.894 338.472C266.137 337.749 271.921 336.548 271.247 334.866C270.678 333.449 269.326 333.207 268.081 332.984C267.11 332.81 266.205 332.648 265.785 331.951C264.826 330.359 268.184 326.216 271.539 322.421C274.894 318.626 272.208 318.448 270.586 318.752C265.008 321.008 259.074 324.577 252.783 329.459ZM106.836 333.318L89.1737 327.515C72.9362 358.268 63.4466 375.047 60.705 377.854C58.6945 379.912 47.297 384.449 39.6851 386.685C36.6298 387.583 36.9526 390.104 37.7075 390.99C42.4695 396.582 47.6719 395.466 53.3349 394.251C54.9744 393.899 56.6524 393.539 58.3696 393.331C62.8142 392.792 63.8553 395.165 64.8392 397.407C65.7103 399.393 66.5366 401.276 69.6404 400.946C69.5756 400.338 69.4882 399.656 69.3939 398.92C68.7841 394.16 67.8849 387.141 70.9444 383.502C72.5146 381.635 84.4784 364.907 106.836 333.318Z" fill="#FFDBB4"/>
<path fill-rule="evenodd" clip-rule="evenodd" d="M164.765 268.256L172.564 267.887C187.225 286.021 189.268 325.512 199.728 331.99C209.617 338.115 225.052 335.258 243.492 331.106L247.422 343.82C229.247 359.161 193.26 369.588 180.426 359.537C159.907 343.467 160.646 295.161 164.765 268.256Z" fill="#DB2721"/>
<path fill-rule="evenodd" clip-rule="evenodd" d="M119.715 359.873C119.715 359.873 165.657 365.514 187.303 368.171C190.391 368.551 190.355 364.033 190.184 361.735C188.211 335.209 171.525 304.827 176.05 267.969L156.929 262.527C137.629 286.404 128.144 317.553 119.715 359.873Z" fill="#DDE3E9"/>
<path fill-rule="evenodd" clip-rule="evenodd" d="M174.306 263.209C180.465 268.6 186.889 271.822 190.22 271.573C198.572 270.948 204.53 241.917 200.411 229.313C196.292 216.71 165.43 206.01 159.749 228.503C157.777 236.309 159.839 243.96 163.72 250.598L147.57 290.011L173.157 294.594L174.306 263.209Z" fill="#FFDBB4"/>
<path fill-rule="evenodd" clip-rule="evenodd" d="M179.795 234.806C182.216 231.586 184.505 229.152 187.386 227.821C198.789 228.599 200.232 226.626 200.593 219.742C198.818 218.328 192.431 215.77 185.18 214.765C181.52 213.508 177.108 213.478 172.776 215.026C167.464 216.235 162.864 219.196 160.594 225.071C152.871 236.904 157.582 249.889 164.599 254.608C166.647 252.428 168.446 250.305 170.058 248.268C168.913 247.028 168.251 245.347 168.346 243.53C168.533 239.952 171.591 237.203 175.175 237.391C175.438 237.405 175.697 237.434 175.951 237.478C175.878 241.961 175.749 257.132 177.217 262.481C178.947 268.787 190.861 270.938 195.044 271.157C198.657 271.346 198.713 267.924 198.753 265.471C198.759 265.118 198.764 264.785 198.78 264.486C198.813 263.86 197.998 263.819 197.077 263.773C195.882 263.712 194.508 263.643 194.58 262.274C194.658 260.781 196.784 259.745 198.686 258.817C199.873 258.238 200.973 257.702 201.434 257.124C202.889 255.3 203.48 252.768 201.435 252.661C200.316 252.603 198.749 253.166 196.862 253.843C194.015 254.866 190.442 256.15 186.595 255.948C180.239 255.615 179.801 235.063 179.795 234.806Z" fill="#191847"/>
<path fill-rule="evenodd" clip-rule="evenodd" d="M125.813 356.143C127.418 377.98 230.8 442.27 231.403 444.074C231.805 445.276 199.224 520.101 199.224 520.101L208.261 523.602C208.261 523.602 258.235 444.357 255.668 435.914C251.993 423.824 175.456 356.375 175.456 356.375L125.813 356.143Z" fill="#FFDBB4"/>
<path fill-rule="evenodd" clip-rule="evenodd" d="M201.602 508.836L216.357 514.19C247.469 479.192 259.664 450.315 257.44 435.602C255.217 420.889 177.504 356.197 177.504 356.197L124.755 356.197C126.555 406.767 222.377 444.266 223.658 446.421C224.94 448.576 212.327 469.682 201.602 508.836Z" fill="#2F3676"/>
<path fill-rule="evenodd" clip-rule="evenodd" d="M198.729 518.454C197.879 517.652 196.52 517.665 195.771 518.564C194.564 520.015 192.95 522.105 192.455 523.462C191.632 525.717 190.806 530.318 190.806 530.318C193.43 531.27 237.976 547.435 237.976 547.435C237.976 547.435 242.027 542.042 238.242 540.121C234.457 538.2 231.979 536.86 231.979 536.86L213.693 519.237C213.288 518.847 212.64 518.868 212.26 519.283L209.683 522.096C209.683 522.096 205.393 522.471 203.1 521.639C201.766 521.155 199.986 519.638 198.729 518.454Z" fill="#E4E4E4"/>
<path fill-rule="evenodd" clip-rule="evenodd" d="M137.7 356.144L91.6457 466.373L46.3818 559.563H57.061L173.899 356.144H137.7Z" fill="#FFDBB4"/>
<path fill-rule="evenodd" clip-rule="evenodd" d="M48.4263 554.363C47.3528 553.9 46.0813 554.375 45.6864 555.475C45.0494 557.25 44.25 559.765 44.25 561.209C44.25 563.609 45.0521 568.214 45.0521 568.214C47.8448 568.214 95.2497 568.214 95.2497 568.214C95.2497 568.214 97.2064 561.765 92.9907 561.25C88.775 560.736 85.9866 560.322 85.9866 560.322L62.757 549.997C62.2429 549.769 61.6416 550.009 61.4267 550.529L59.9703 554.051C59.9703 554.051 56.0676 555.866 53.6276 555.866C52.2079 555.866 50.0133 555.048 48.4263 554.363Z" fill="#E4E4E4"/>
<path fill-rule="evenodd" clip-rule="evenodd" d="M50.4697 540.204L74.199 544.64C92.5465 517.747 169.331 407.477 177.75 356.144H124.923C96.8088 393.252 67.9586 512.866 50.4697 540.204Z" fill="#5C63AB"/>
<path fill-rule="evenodd" clip-rule="evenodd" d="M155.894 262.399L155.671 262.372C108.644 283.869 77.1042 322.269 61.0504 377.574L74.8776 382.08C85.6004 372.332 99.3721 355.915 116.193 332.828C110.133 347.235 105.167 362.165 102.427 376.523L163.266 383.993C178.688 355.764 163.39 263.32 163.39 263.32L159.19 262.804L155.894 262.399Z" fill="#FF4133"/>
<path fill-rule="evenodd" clip-rule="evenodd" d="M549.287 208.37C541.975 210.481 535.3 210.659 532.598 209.132C525.822 205.303 532.295 178.468 540.743 169.469C549.191 160.469 579.372 163.647 575.253 184.859C573.823 192.221 569.064 197.858 563.175 201.92L561.166 241.538L537.84 235.288L549.287 208.37Z" fill="#FFDBB4"/>
<path fill-rule="evenodd" clip-rule="evenodd" d="M537.277 173.596C537.873 172.296 538.843 170.935 539.644 169.768C540.676 168.264 541.966 167.004 543.323 165.855C545.877 163.691 548.73 161.883 551.703 160.544C557.134 158.1 563.369 157.521 568.764 159.697C571.488 160.796 573.934 162.604 575.782 165.017C577.451 167.198 578.835 170.12 581.512 171.021C584.424 172.001 587.841 170.111 590.649 169.131C593.816 168.027 597.022 167.462 600.29 167.785C605.767 168.326 610.218 171.42 612.678 176.695C615.296 182.309 616.291 189.78 612.138 195.177C611.366 196.18 610.507 196.97 609.429 197.526C608.44 198.036 607.02 198.481 606.388 199.55C605.716 200.687 606.314 202.546 606.414 203.761C606.556 205.501 606.576 207.293 605.948 208.975C604.916 211.737 602.411 213.966 600.032 215.326C597.612 216.71 594.966 217.167 592.318 216.994C590.55 216.879 588.784 216.604 587.112 216.021C586.282 215.732 585.597 215.296 584.827 214.889C584.078 214.493 583.575 214.586 582.781 214.842C579.09 216.035 575.497 215.916 571.947 214.64C568.95 213.564 565.616 211.873 563.679 209.101C561.528 206.022 562.446 202.818 564.021 199.553C563.237 199.711 561.265 199.41 562.776 198.348C563.375 197.927 564.29 197.936 564.957 197.773C565.734 197.584 566.551 197.288 567.239 196.823C570.018 194.947 569.206 189.395 566.757 187.86C563.117 185.579 560.725 190.955 557.505 191.649C555.653 192.048 554.256 190.45 553.349 188.958C552.134 186.959 551.574 184.593 551.177 182.23C550.849 180.285 550.584 178.33 550.239 176.389C550.078 175.483 549.383 172.856 550.282 172.121C547.593 170.793 544.113 171.127 541.251 172.021C540.068 172.391 539.108 172.89 538.266 173.877C538.085 174.088 537.641 174.741 537.317 174.686C536.714 174.583 537.127 173.923 537.277 173.596Z" fill="#191847"/>
<path fill-rule="evenodd" clip-rule="evenodd" d="M585.852 421.068C585.852 421.068 549.644 431.206 523.374 431.206C497.103 431.206 474.572 415.594 474.572 415.594C474.572 415.594 510.004 405.188 532.932 405.188C555.86 405.188 585.852 421.068 585.852 421.068Z" fill="#1F28CF"/>
<path fill-rule="evenodd" clip-rule="evenodd" d="M502.478 440.947C502.71 440.597 502.907 440.216 503.063 439.803C506.289 431.262 557.97 339.117 563.119 322.271H504.933C501.019 335.079 483.399 415.46 480.92 431.497C473.096 456.794 456.988 538.721 454.932 544.397C452.768 550.367 464.94 556.587 468.184 549.247C473.345 537.567 485.642 505.25 491.117 485.518C496.25 467.018 500.43 450.375 502.478 440.947Z" fill="#FFDBB4"/>
<path fill-rule="evenodd" clip-rule="evenodd" d="M550.082 452.198C573.709 458.175 660.135 468.982 666.066 470.677C672.167 472.421 677.516 459.833 669.975 457.106C657.976 452.767 624.912 442.742 604.865 438.651C588.741 435.36 574.028 432.675 564.149 431.103C564.986 403.326 568.812 336.667 566.304 322.271H514.821C517.225 336.076 537.551 436.811 541.329 446.894C542.528 450.494 546.105 452.085 550.082 452.198Z" fill="#FFDBB4"/>
<path fill-rule="evenodd" clip-rule="evenodd" d="M667.831 456.291C667.553 455.154 668.243 453.984 669.396 453.782C671.513 453.41 674.678 452.964 676.363 453.262C679.044 453.735 684.029 455.537 684.029 455.537C683.48 458.649 674.174 511.484 674.174 511.484C674.174 511.484 666.587 512.393 666.84 507.593C667.094 502.793 667.178 499.604 667.178 499.604L660.176 471.548C660.04 471.002 660.381 470.451 660.931 470.33L665.283 469.372C665.283 469.372 668.077 465.38 668.556 462.661C668.848 461 668.301 458.212 667.831 456.291Z" fill="#E4E4E4"/>
<path fill-rule="evenodd" clip-rule="evenodd" d="M469.099 547.166C470.171 546.694 471.446 547.171 471.845 548.272C472.578 550.295 473.565 553.336 473.565 555.049C473.565 557.774 472.659 563.001 472.659 563.001C469.501 563.001 415.906 563.001 415.906 563.001C415.906 563.001 413.694 555.68 418.46 555.096C423.226 554.512 426.379 554.042 426.379 554.042L452.762 542.268C453.277 542.038 453.88 542.279 454.094 542.801L455.792 546.924C455.792 546.924 460.205 548.985 462.963 548.985C464.646 548.985 467.292 547.963 469.099 547.166Z" fill="#E4E4E4"/>
<path fill-rule="evenodd" clip-rule="evenodd" d="M566.138 322.271C566.138 322.271 532.107 312.524 501.74 322.271C494.696 354.439 477.582 367.207 474.572 416.527C508.783 433.543 551.045 404.391 586.262 420.985C596.324 397.774 582.237 341.876 566.138 322.271Z" fill="#2B44FF"/>
<path fill-rule="evenodd" clip-rule="evenodd" d="M481.394 231.029L512.464 255.951L497.356 267.358L476.403 240.045C463.878 234.091 458.325 230.372 459.746 228.889C460.944 227.638 462.464 227.956 463.864 228.25C464.954 228.479 465.972 228.692 466.708 228.136C468.389 226.867 466.629 221.082 464.724 215.664C462.819 210.246 465.71 211.199 467.281 212.207C472.169 216.947 476.873 223.221 481.394 231.029ZM442.146 251.39L455.79 262.362L452.253 277.388C452.253 277.388 443.715 268.593 435.71 264.759C425.505 259.87 421.565 256.816 417.5 249.201C415.325 245.127 414.211 237.511 417.296 235.639C418.479 234.92 421.923 237.717 425.436 240.571C428.114 242.746 430.832 244.954 432.622 245.664C435.031 246.62 435.31 243.325 435.533 240.692C435.693 238.803 435.825 237.254 436.693 237.862C441.102 238.718 442.146 251.39 442.146 251.39Z" fill="#FFDBB4"/>
<path fill-rule="evenodd" clip-rule="evenodd" d="M529.955 254.704C517.93 252.453 502.314 247.073 487.093 233.158L477.711 246.999C487.464 260.83 502.388 273.412 516.997 275.567C528.51 277.265 536.811 264.426 529.955 254.704Z" fill="#2026A2"/>
<path fill-rule="evenodd" clip-rule="evenodd" d="M544.294 363.389C556.01 363.914 566.777 364.396 572.796 366.725C583.805 345.21 580.52 329.863 577.487 315.696C575.66 307.157 573.924 299.046 575.464 290.273C579.949 264.723 566.391 221.787 563.376 221.255L562.511 221.103L538.616 216.889L535.881 216.407C531.864 231.999 523.6 248.191 515.282 264.486C513.339 268.292 511.394 272.103 509.499 275.913C488.717 276.93 447.133 253.302 447.133 253.302C447.133 253.302 431.842 274.523 430.945 284.551C454.39 302.609 475.464 312.532 493.63 316.146C491.141 326.875 490.64 337.414 493.404 347.612C497.108 361.276 522.365 362.407 544.294 363.389Z" fill="#1F28CF"/>
<path fill-rule="evenodd" clip-rule="evenodd" d="M425.238 222.549C425.238 222.554 425.237 222.559 425.236 222.565C425.237 222.56 425.236 222.54 425.238 222.549Z" fill="#C5CFD6"/>
<path fill-rule="evenodd" clip-rule="evenodd" d="M425.236 222.557C425.236 222.558 425.236 222.56 425.236 222.562C425.235 222.557 425.24 222.541 425.236 222.557Z" fill="#C5CFD6"/>
<path fill-rule="evenodd" clip-rule="evenodd" d="M425.249 222.469C425.247 222.49 425.243 222.51 425.24 222.53C425.241 222.52 425.243 222.512 425.245 222.501C425.208 222.769 425.23 222.595 425.249 222.469Z" fill="#C5CFD6"/>
<path fill-rule="evenodd" clip-rule="evenodd" d="M425.242 222.531C425.24 222.54 425.239 222.551 425.237 222.56C425.223 222.619 425.242 222.531 425.242 222.531Z" fill="#C5CFD6"/>
<path fill-rule="evenodd" clip-rule="evenodd" d="M425.236 222.557C425.236 222.556 425.236 222.556 425.237 222.555C425.236 222.556 425.236 222.556 425.236 222.557Z" fill="#C5CFD6"/>
<path fill-rule="evenodd" clip-rule="evenodd" d="M425.234 222.565C425.231 222.577 425.249 222.515 425.234 222.565V222.565Z" fill="#C5CFD6"/>
<path fill-rule="evenodd" clip-rule="evenodd" d="M425.236 222.557L425.237 222.555C425.237 222.556 425.237 222.557 425.236 222.557Z" fill="#C5CFD6"/>
<path fill-rule="evenodd" clip-rule="evenodd" d="M446.637 195.851C451.553 194.625 454.545 189.646 453.319 184.729C452.094 179.813 447.114 176.821 442.198 178.047C437.282 179.273 434.29 184.252 435.516 189.168C436.742 194.085 441.721 197.076 446.637 195.851Z" fill="white"/>
<defs>
<clipPath id="clip0">
</clipPath>
<clipPath id="clip1">
</clipPath>
<clipPath id="clip2">
</clipPath>
<clipPath id="clip3">
</clipPath>
<clipPath id="clip4">
</clipPath>
<clipPath id="clip5">
</clipPath>
<clipPath id="clip6">
</clipPath>
<clipPath id="clip7">
</clipPath>
<clipPath id="clip8">
</clipPath>
<clipPath id="clip9">
</clipPath>
<clipPath id="clip10">
</clipPath>
<clipPath id="clip11">
</clipPath>
<clipPath id="clip12">
</clipPath>
<clipPath id="clip13">
</clipPath>
</defs>
</svg>
